# Object Export From Tinkercad Server 2015

mtllib obj.mtl

o obj_0
v 17.0525 		7.1006 		5.3
v 14.4325 		-0.7014 		0.32
v 8.5235 		-4.4034 		2.65
v 18.7295 		-12.4124 		3.928
v 17.0655 		6.9846 		5.3
v 9.3545 		-5.7014 		2.26
v 19.7685 		0.3376 		0.497
v 17.0525 		7.0626 		4.838
v 8.9145 		-5.8614 		2.65
v 17.7195 		-3.4594 		0.02
v 17.6125 		-3.5674 		0.02
v 18.7625 		1.7986 		0.71
v 17.4875 		-3.6544 		0.02
v 25.7125 		-2.8994 		2.65
v 18.4975 		1.0716 		0.497
v 25.2435 		-2.8994 		2.26
v 17.3505 		-3.7184 		0.02
v 14.8535 		-0.2794 		0.32
v 17.2035 		-3.7574 		0.02
v 19.5525 		1.4306 		0.71
v 19.6725 		-10.0984 		1.893
v 8.1265 		-4.4734 		3.06
v 26.1155 		-2.8994 		3.06
v 17.0525 		-3.7714 		0.02
v 7.6905 		-6.3064 		4.838
v 13.2215 		0.3146 		0.71
v 18.3825 		-10.4434 		1.893
v 26.4495 		-2.8994 		3.487
v 13.8385 		0.9306 		0.71
v 17.0525 		-10.5604 		1.893
v 26.7115 		-2.8994 		3.928
v 12.6585 		0.7876 		0.959
v 7.7975 		-4.5314 		3.487
v 19.9195 		2.0676 		0.959
v 7.6782 		-6.311 		5
v 13.3655 		1.4946 		0.959
v 11.0115 		-10.0984 		3.487
v 12.1285 		1.2326 		1.24
v 10.8435 		-10.2984 		3.928
v 12.9205 		2.0246 		1.24
v 24.1235 		-2.8994 		1.552
v 10.7215 		-10.4434 		4.38
v 24.5965 		-4.2294 		1.893
v 17.0525 		-8.6354 		0.959
v 16.0565 		-8.5484 		0.959
v 8.8605 		-2.8994 		2.26
v 24.7125 		-2.8994 		1.893
v 24.2505 		-5.5194 		1.893
v 17.0525 		-9.3274 		1.24
v 20.2665 		-1.7294 		0.32
v 15.8825 		0.3146 		0.32
v 8.3915 		-2.8994 		2.65
v 15.9355 		-9.2294 		1.24
v 10.6485 		-10.5304 		4.838
v 20.2895 		-0.1834 		0.497
v 14.3355 		0.3376 		0.497
v 20.7125 		-0.7864 		0.497
v 7.9895 		-2.8994 		3.06
v 10.6401 		-10.5409 		5
v 14.9395 		0.7606 		0.497
v 11.5641 		-11.1877 		5
v 17.0525 		-9.9704 		1.552
v 21.0235 		-1.4544 		0.497
v 15.6065 		1.0716 		0.497
v 26.7505 		-1.1894 		4.38
v 9.6525 		-9.1084 		3.928
v 26.8625 		-1.1694 		4.838
v 9.5085 		-9.2294 		4.38
v 19.0135 		-8.2894 		0.959
v 11.6625 		-4.8614 		0.959
v 14.5525 		1.4306 		0.71
v 21.3825 		-0.3994 		0.71
v 26.5843 		-0.0783 		5
v 26.8593 		-1.1054 		5
v 18.0485 		-8.5484 		0.959
v 9.4205 		-9.3024 		4.838
v 11.4035 		-3.8954 		0.959
v 21.7505 		-1.1894 		0.71
v 15.3425 		1.7986 		0.71
v 26.8792 		-1.2057 		5
v 26.9291 		-1.776 		5
v 24.7495 		-0.0974 		2.26
v 11.0115 		-5.0984 		1.24
v 19.2505 		-8.9394 		1.24
v 14.1845 		2.0676 		0.959
v 25.1195 		-1.4774 		2.26
v 9.4103 		-9.3112 		5
v 10.7215 		-4.0154 		1.24
v 18.1685 		-9.2294 		1.24
v 22.0195 		-0.0314 		0.959
v 9.0597 		-8.8104 		5
v 19.4705 		-9.5444 		1.552
v 25.1905 		0.0626 		2.65
v 11.7865 		-9.1744 		2.26
v 10.4075 		-5.3184 		1.552
v 25.5805 		-1.3954 		2.65
v 18.2795 		-9.8634 		1.552
v 10.7775 		-8.1644 		2.26
v 10.0885 		-4.1274 		1.552
v 22.4415 		-0.9374 		0.959
v 9.8535 		-5.5194 		1.893
v 25.5685 		0.2006 		3.06
v 11.4855 		-9.5334 		2.65
v 25.9775 		-1.3254 		3.06
v 9.6525 		3.3096 		3.928
v 10.4175 		-8.4664 		2.65
v 9.5085 		-4.2294 		1.893
v 9.5085 		3.4306 		4.38
v 23.0925 		-0.7014 		1.24
v 9.4205 		3.5036 		4.838
v 11.2265 		-9.8424 		3.06
v 26.3065 		-1.2674 		3.487
v 17.7855 		-7.0614 		0.497
v 23.3825 		-1.7834 		1.24
v 17.0525 		-7.1254 		0.497
v 23.6965 		-0.4814 		1.552
v 11.3165 		-2.8994 		0.959
v 16.3185 		-7.0614 		0.497
v 24.0155 		-1.6714 		1.552
v 26.5645 		-1.2224 		3.928
v 11.4035 		-1.9034 		0.959
v 17.9205 		-7.8234 		0.71
v 10.6245 		-2.8994 		1.24
v 17.0525 		-2.8994 		0
v 25.5805 		2.0246 		4.38
v 17.0525 		-7.8994 		0.71
v 10.1095 		-8.7254 		3.06
v 26.3065 		0.4686 		4.38
v 9.9815 		-2.8994 		1.552
v 16.1835 		-7.8234 		0.71
v 20.2665 		0.9306 		0.71
v 20.8825 		0.3146 		0.71
v 25.6795 		2.0816 		4.838
v 20.7385 		1.4946 		0.959
v 9.8535 		-8.9394 		3.487
v 21.4455 		0.7876 		0.959
v 9.3915 		-2.8994 		1.893
v 26.4135 		0.5076 		4.838
v 17.6465 		-6.2674 		0.32
v 21.1835 		2.0246 		1.24
v 17.0525 		-6.3194 		0.32
v 10.7775 		2.3656 		2.26
v 21.9765 		1.2326 		1.24
v 16.4585 		-6.2674 		0.32
v 8.5235 		-7.8234 		4.38
v 11.7865 		3.3756 		2.26
v 13.8385 		-4.0694 		0.32
v 7.7975 		-6.2674 		4.38
v 10.4175 		2.6676 		2.65
v 13.8145 		-5.6164 		0.497
v 13.3925 		-5.0124 		0.497
v 25.9862 		1.4555 		5
v 26.3492 		0.6771 		5
v 11.4855 		3.7346 		2.65
v 8.4245 		-7.8804 		4.838
v 13.0805 		-4.3454 		0.497
v 26.5038 		0.2221 		5
v 24.1465 		1.1966 		2.26
v 10.1095 		2.9266 		3.06
v 22.6185 		0.3146 		1.24
v 11.2265 		4.0436 		3.06
v 22.4685 		1.6456 		1.552
v 18.2215 		-6.1134 		0.32
v 8.4129 		-7.8871 		5
v 12.7215 		-5.3994 		0.71
v 23.1755 		0.6356 		1.552
v 8.1549 		-7.333 		5
v 19.7685 		-6.1374 		0.497
v 12.3535 		-4.6094 		0.71
v 9.5525 		-7.2294 		2.65
v 9.8535 		3.1406 		3.487
v 19.1655 		-6.5594 		0.497
v 22.9205 		2.0246 		1.893
v 11.0115 		4.2986 		3.487
v 12.0845 		-5.7674 		0.959
v 18.4975 		-6.8704 		0.497
v 24.5525 		1.4306 		2.65
v 9.2035 		-7.4314 		3.06
v 8.5355 		-5.9994 		3.06
v 23.6865 		0.9306 		1.893
v 24.9005 		1.6316 		3.06
v 8.9145 		-7.5984 		3.487
v 19.5525 		-7.2294 		0.71
v 8.2215 		-6.1134 		3.487
v 18.7625 		-7.5984 		0.71
v 25.1905 		1.7986 		3.487
v 10.8435 		4.4996 		3.928
v 15.7585 		-5.1414 		0.181
v 25.8825 		0.3146 		3.487
v 10.7215 		4.6446 		4.38
v 8.6865 		-7.7294 		3.928
v 19.9195 		-7.8664 		0.959
v 15.3425 		-5.8614 		0.32
v 25.4175 		1.9306 		3.928
v 7.9755 		-6.2034 		3.928
v 14.8535 		-5.5194 		0.32
v 17.0525 		5.2916 		2.26
v 14.4325 		-5.0984 		0.32
v 10.6485 		4.7316 		4.838
v 26.1285 		0.4046 		3.928
v 17.0525 		5.7606 		2.65
v 17.0525 		6.1636 		3.06
v 15.7215 		-4.0154 		0.081
v 21.9765 		-11.4284 		4.38
v 17.9235 		-2.8994 		0.02
v 17.9105 		-3.0504 		0.02
v 15.3885 		-4.8824 		0.181
v 20.4205 		-12.1534 		4.38
v 17.8715 		-3.1974 		0.02
v 17.8065 		-3.3354 		0.02
v 12.9565 		4.1946 		2.26
v 15.0695 		-4.5634 		0.181
v 14.8105 		-4.1934 		0.181
v 18.4745 		5.1676 		2.26
v 22.0335 		-11.5264 		4.838
v 9.9585 		-6.9954 		2.26
v 20.4595 		-12.2604 		4.838
v 24.2505 		-0.2794 		1.893
v 19.8535 		4.7976 		2.26
v 14.0905 		-4.6094 		0.32
v 24.5965 		-1.5694 		1.893
v 12.1285 		5.6296 		4.38
v 18.5555 		5.6296 		2.65
v 16.1935 		-2.7484 		0.02
v 22.0402 		-11.538 		5
v 20.0145 		5.2386 		2.65
v 20.4641 		-12.273 		5
v 16.2335 		-2.6014 		0.02
v 21.4861 		-11.7964 		5
v 11.4855 		-6.1134 		1.24
v 13.6835 		-3.4934 		0.32
v 16.2975 		-2.4634 		0.02
v 16.3845 		-2.3394 		0.02
v 24.2505 		3.1406 		3.487
v 16.4915 		-2.2314 		0.02
v 11.6355 		-7.4444 		1.552
v 12.0715 		5.7276 		4.838
v 16.6165 		-2.1444 		0.02
v 13.6315 		-2.8994 		0.32
v 10.9285 		-6.4354 		1.552
v 24.4515 		3.3096 		3.928
v 16.7545 		-2.0804 		0.02
v 18.6255 		6.0256 		3.06
v 21.3825 		-10.3994 		2.65
v 16.9005 		-2.0414 		0.02
v 24.5965 		3.4306 		4.38
v 13.6835 		-2.3054 		0.32
v 12.8905 		-3.6334 		0.497
v 11.1835 		-7.8234 		1.893
v 12.7215 		4.6006 		2.65
v 21.5835 		-10.7484 		3.06
v 12.8255 		-2.8994 		0.497
v 24.6835 		3.5036 		4.838
v 10.4175 		-6.7294 		1.893
v 20.1515 		-11.4164 		3.06
v 12.5205 		4.9496 		3.06
v 12.8905 		-2.1654 		0.497
v 21.7505 		-11.0374 		3.487
v 18.3705 		-12.9294 		5
v 17.0655 		-13.0154 		5
v 17.0525 		6.4976 		3.487
v 20.2665 		-11.7294 		3.487
v 12.1285 		-3.7674 		0.71
v 15.7595 		-12.9294 		5
v 18.6835 		6.3546 		3.487
v 12.3535 		5.2386 		3.487
v 17.0525 		6.7596 		3.928
v 13.8385 		5.9306 		3.487
v 12.0525 		-2.8994 		0.71
v 21.8815 		-11.2644 		3.928
v 20.3555 		-11.9764 		3.928
v 13.6835 		-12.1534 		4.38
v 18.7295 		6.6126 		3.928
v 12.2225 		5.4656 		3.928
v 13.7485 		6.1776 		3.928
v 12.1285 		-11.4284 		4.38
v 12.1285 		-2.0314 		0.71
v 17.0525 		6.9486 		4.38
v 10.9775 		-10.9484 		5
v 13.6445 		-12.2604 		4.838
v 18.7625 		6.7986 		4.38
v 9.9945 		-10.0864 		5
v 12.0715 		-11.5264 		4.838
v 23.0925 		-10.0984 		3.487
v 13.6399 		-12.273 		5
v 13.0863 		-12.0146 		5
v 14.2505 		4.7976 		2.26
v 12.0648 		-11.538 		5
v 23.2605 		-10.2984 		3.928
v 15.5485 		-3.7674 		0.081
v 17.8065 		-2.4634 		0.02
v 9.1315 		-9.1024 		5
v 15.6295 		5.1676 		2.26
v 18.7815 		6.9116 		4.838
v 17.8715 		-2.6014 		0.02
v 15.4205 		-3.4934 		0.081
v 17.9105 		-2.7484 		0.02
v 12.7215 		-10.3994 		2.65
v 8.4045 		-8.0154 		5
v 23.3825 		-10.4434 		4.38
v 12.5205 		-10.7484 		3.06
v 15.3425 		-3.2014 		0.081
v 23.4555 		-10.5304 		4.838
v 14.0905 		5.2386 		2.65
v 15.3155 		-2.8994 		0.081
v 13.8385 		-11.7294 		3.487
v 23.4639 		-10.5409 		5
v 12.3535 		-11.0374 		3.487
v 15.5485 		5.6296 		2.65
v 17.0525 		-2.0284 		0.02
v 22.9635 		-10.8912 		5
v 14.6205 		-3.7844 		0.181
v 16.0565 		2.7496 		0.959
v 17.2035 		-2.0414 		0.02
v 17.3505 		-2.0804 		0.02
v 13.7485 		-11.9764 		3.928
v 17.4875 		-2.1444 		0.02
v 14.5035 		-3.3494 		0.181
v 7.8265 		-6.8424 		5
v 21.1475 		-9.9934 		2.26
v 17.6125 		-2.2314 		0.02
v 17.0525 		2.8366 		0.959
v 17.7195 		-2.3394 		0.02
v 14.4635 		-2.8994 		0.181
v 12.2225 		-11.2644 		3.928
v 13.9525 		5.6166 		3.06
v 13.2385 		-12.2544 		5
v 15.9355 		3.4306 		1.24
v 15.4785 		6.0256 		3.06
v 17.0525 		3.5286 		1.24
v 12.0655 		-11.6754 		5
v 23.3275 		-8.1644 		2.26
v 15.3425 		-12.5984 		4.38
v 15.3425 		-2.5984 		0.081
v 22.3175 		-9.1744 		2.26
v 18.7625 		-3.2014 		0.081
v 18.7885 		-2.8994 		0.081
v 17.0525 		4.1716 		1.552
v 23.6865 		-8.4664 		2.65
v 18.6835 		-3.4934 		0.081
v 15.4205 		-2.3054 		0.081
v 15.3225 		-12.7104 		4.838
v 22.6185 		-9.5334 		2.65
v 18.5555 		-3.7674 		0.081
v 15.5485 		-2.0314 		0.081
v 14.4765 		-12.6744 		5
v 15.32 		-12.7234 		5
v 14.7296 		-12.5652 		5
v 23.9945 		-8.7254 		3.06
v 18.0485 		2.7496 		0.959
v 15.4205 		6.3546 		3.487
v 15.4205 		-12.1534 		3.487
v 19.0135 		2.4906 		0.959
v 22.8775 		-9.8424 		3.06
v 15.3745 		-12.4124 		3.928
v 14.5035 		-2.4504 		0.181
v 15.3745 		6.6126 		3.928
v 19.6405 		-2.8994 		0.181
v 18.1685 		3.4306 		1.24
v 19.6005 		-3.3494 		0.181
v 14.6205 		-2.0144 		0.181
v 19.2505 		3.1406 		1.24
v 13.6835 		6.3546 		4.38
v 19.4845 		-3.7844 		0.181
v 18.2795 		4.0646 		1.552
v 15.3425 		6.7986 		4.38
v 15.6295 		-10.9664 		2.26
v 19.4705 		3.7456 		1.552
v 17.0525 		-12.8747 		5
v 14.2505 		-10.5974 		2.26
v 16.4434 		-12.8214 		5
v 19.6535 		-12.6744 		5
v 13.6445 		6.4616 		4.838
v 15.3225 		6.9116 		4.838
v 19.6725 		4.2986 		1.893
v 8.9855 		-1.4774 		2.26
v 15.5485 		-11.4284 		2.65
v 18.784 		-12.7234 		5
v 19.8736 		-12.4312 		5
v 9.3545 		-0.0974 		2.26
v 18.1752 		-12.7767 		5
v 20.8915 		-12.2544 		5
v 14.0905 		-11.0374 		2.65
v 20.2665 		-8.4664 		1.24
v 17.0525 		4.7606 		1.893
v 21.5975 		-8.3164 		1.552
v 13.8385 		2.6676 		1.24
v 15.4785 		-11.8244 		3.06
v 18.3825 		4.6446 		1.893
v 12.5065 		2.5176 		1.552
v 8.5235 		-1.3954 		2.65
v 20.5875 		-9.0234 		1.552
v 13.9525 		-11.4164 		3.06
v 13.5165 		3.2246 		1.552
v 8.9145 		0.0626 		2.65
v 21.9765 		-8.7674 		1.893
v 23.1525 		-10.9484 		5
v 20.8825 		-9.5334 		1.893
v 12.1285 		2.9686 		1.893
v 21.1475 		4.1946 		2.26
v 8.1265 		-1.3254 		3.06
v 13.2215 		3.7346 		1.893
v 18.5555 		-2.0314 		0.081
v 8.5355 		0.2006 		3.06
v 22.0655 		-11.6754 		5
v 18.6835 		-2.3054 		0.081
v 20.8825 		-6.1134 		0.71
v 18.7625 		-2.5984 		0.081
v 20.2665 		-6.7294 		0.71
v 7.7975 		-1.2674 		3.487
v 15.7215 		-10.4434 		1.893
v 21.4455 		-6.5864 		0.959
v 14.4325 		-10.0984 		1.893
v 24.1365 		-10.0864 		5
v 22.3175 		3.3756 		2.26
v 15.0905 		2.4906 		0.959
v 20.7385 		-7.2934 		0.959
v 23.3275 		2.3656 		2.26
v 25.7255 		-8.0154 		5
v 24.9985 		-9.1024 		5
v 19.4845 		-2.0144 		0.181
v 22.6185 		3.7346 		2.65
v 21.9765 		-7.0314 		1.24
v 23.6865 		2.6676 		2.65
v 19.6005 		-2.4504 		0.181
v 12.9565 		-9.9934 		2.26
v 24.6937 		-9.3112 		5
v 25.3404 		-8.3878 		5
v 21.1835 		-7.8234 		1.24
v 7.7975 		0.4686 		4.38
v 14.8535 		3.1406 		1.24
v 26.3035 		-6.8424 		5
v 22.8775 		4.0436 		3.06
v 8.5235 		2.0246 		4.38
v 23.9945 		2.9266 		3.06
v 26.4261 		-6.311 		5
v 20.2665 		-4.0694 		0.32
v 25.6911 		-7.8871 		5
v 26.1677 		-6.865 		5
v 13.8385 		-8.4664 		1.24
v 14.6335 		3.7456 		1.552
v 13.5165 		-9.0234 		1.552
v 7.4055 		-5.6034 		5
v 22.6185 		-6.1134 		1.24
v 21.0235 		-4.3454 		0.497
v 15.8245 		4.0646 		1.552
v 7.1505 		-4.3204 		5
v 8.4245 		2.0816 		4.838
v 12.5065 		-8.3164 		1.552
v 20.7125 		-5.0124 		0.497
v 23.1755 		-6.4354 		1.552
v 23.0925 		4.2986 		3.487
v 13.2215 		-9.5334 		1.893
v 14.4325 		4.2986 		1.893
v 7.2285 		-4.6319 		5
v 7.5201 		-5.7208 		5
v 22.4685 		-7.4444 		1.552
v 20.2895 		-5.6164 		0.497
v 12.1285 		-8.7674 		1.893
v 7.0655 		-3.0154 		5
v 7.0772 		-2.8994 		5
v 7.1752 		-4.0228 		5
v 9.5525 		1.4306 		2.65
v 23.6865 		-6.7294 		1.893
v 7.1305 		-2.2907 		5
v 21.7505 		-4.6094 		0.71
v 22.9205 		-7.8234 		1.893
v 7.1505 		-1.7104 		5
v 9.2035 		1.6316 		3.06
v 21.3825 		-5.3994 		0.71
v 7.2051 		-1.4357 		5
v 15.7215 		4.6446 		1.893
v 7.4055 		-0.4274 		5
v 7.5053 		-0.1336 		5
v 7.3867 		-0.5768 		5
v 21.9765 		5.6296 		4.38
v 7.3445 		-0.7341 		5
v 27.0655 		-3.0154 		5
v 26.9795 		-4.3204 		5
v 15.0905 		-8.2894 		0.959
v 26.7245 		-5.6034 		5
v 14.8535 		-8.9394 		1.24
v 22.0195 		-5.7674 		0.959
v 22.0335 		5.7276 		4.838
v 8.2215 		0.3146 		3.487
v 26.8758 		-4.6319 		5
v 17.9375 		-5.3314 		0.181
v 26.7177 		-5.222 		5
v 24.2505 		-8.9394 		3.487
v 17.5015 		-5.4484 		0.181
v 15.8245 		-9.8634 		1.552
v 8.9145 		1.7986 		3.487
v 14.6335 		-9.5444 		1.552
v 24.4515 		-9.1084 		3.928
v 17.0525 		-5.4874 		0.181
v 26.9745 		-3.5085 		5
v 27.0278 		-2.8994 		5
v 26.7245 		-0.4274 		5
v 21.3825 		4.6006 		2.65
v 16.6025 		-5.4484 		0.181
v 26.9795 		-1.7104 		5
v 22.7005 		-3.8954 		0.959
v 24.5965 		-9.2294 		4.38
v 22.4415 		-4.8614 		0.959
v 16.1665 		-5.3314 		0.181
v 7.9755 		0.4046 		3.928
v 20.1515 		5.6166 		3.06
v 24.6835 		-9.3024 		4.838
v 8.6865 		1.9306 		3.928
v 23.3825 		-4.0154 		1.24
v 21.5835 		4.9496 		3.06
v 26.3035 		0.8116 		5
v 23.0925 		-5.0984 		1.24
v 20.2665 		5.9306 		3.487
v 26.3065 		-6.2674 		4.38
v 13.8385 		-6.7294 		0.71
v 21.7505 		5.2386 		3.487
v 25.5805 		-7.8234 		4.38
v 13.2215 		-6.1134 		0.71
v 24.0155 		-4.1274 		1.552
v 13.3655 		-7.2934 		0.959
v 23.6965 		-5.3184 		1.552
v 26.4135 		-6.3064 		4.838
v 25.6795 		-7.8804 		4.838
v 7.0525 		-2.8994 		5.3
v 9.9585 		1.1966 		2.26
v 7.0655 		-3.0154 		5.3
v 7.0655 		-3.0154 		5.265
v 20.3555 		6.1776 		3.928
v 17.0615 		-13.037 		16.3
v 16.7505 		-4.6094 		0.081
v 12.6585 		-6.5864 		0.959
v 21.8815 		5.4656 		3.928
v 7.8689 		-6.8941 		16.3
v 16.4585 		-4.5314 		0.081
v 8.4439 		-8.0617 		16.3
v 9.1678 		-9.1433 		16.3
v 16.1835 		-4.4034 		0.081
v 10.0256 		-10.1223 		16.3
v 24.1465 		-6.9954 		2.26
v 12.9205 		-7.8234 		1.24
v 20.4205 		-3.4934 		0.32
v 11.0046 		-10.9801 		16.3
v 12.0862 		-11.704 		16.3
v 13.2538 		-12.279 		16.3
v 24.5525 		-7.2294 		2.65
v 12.1285 		-7.0314 		1.24
v 20.4725 		-2.8994 		0.32
v 14.486 		-12.6977 		16.3
v 15.9355 		-4.2294 		0.081
v 15.7627 		-12.951 		16.3
v 25.5685 		-5.9994 		3.06
v 18.3603 		-12.951 		16.3
v 19.637 		-12.6977 		16.3
v 20.4205 		-2.3054 		0.32
v 20.8692 		-12.279 		16.3
v 22.0368 		-11.704 		16.3
v 24.9005 		-7.4314 		3.06
v 23.1184 		-10.9801 		16.3
v 24.0974 		-10.1223 		16.3
v 24.9552 		-9.1433 		16.3
v 25.6791 		-8.0617 		16.3
v 26.2541 		-6.8941 		16.3
v 15.8825 		-6.1134 		0.32
v 11.6625 		-0.9374 		0.959
v 23.2605 		4.4996 		3.928
v 21.2145 		-3.6334 		0.497
v 15.6065 		-6.8704 		0.497
v 10.7215 		-1.7834 		1.24
v 25.8825 		-6.1134 		3.487
v 21.2785 		-2.8994 		0.497
v 11.0115 		-0.7014 		1.24
v 25.1905 		-7.5984 		3.487
v 14.9395 		-6.5594 		0.497
v 17.9205 		-4.4034 		0.081
v 14.3355 		-6.1374 		0.497
v 17.6465 		-4.5314 		0.081
v 7.4502 		-0.5109 		16.3
v 7.1969 		-1.7876 		16.3
v 17.3535 		-4.6094 		0.081
v 7.1109 		-3.0864 		16.3
v 15.3425 		-7.5984 		0.71
v 7.1969 		-4.3852 		16.3
v 21.2145 		-2.1654 		0.497
v 7.4502 		-5.6619 		16.3
v 17.0525 		-4.6364 		0.081
v 23.3825 		4.6446 		4.38
v 14.5525 		-7.2294 		0.71
v 26.1285 		-6.2034 		3.928
v 10.0885 		-1.6714 		1.552
v 15.7627 		6.7782 		16.3
v 25.4175 		-7.7294 		3.928
v 14.486 		6.5249 		16.3
v 13.2538 		6.1061 		16.3
v 12.0862 		5.5311 		16.3
v 22.0525 		-2.8994 		0.71
v 21.9765 		-3.7674 		0.71
v 11.0046 		4.8073 		16.3
v 10.0256 		3.9494 		16.3
v 23.4555 		4.7316 		4.838
v 9.1678 		2.9705 		16.3
v 8.4439 		1.8889 		16.3
v 7.8689 		0.7213 		16.3
v 7.6555 		-2.8994 		3.487
v 20.4205 		6.3546 		4.38
v 7.5395 		-4.5764 		3.928
v 14.1845 		-7.8664 		0.959
v 7.3925 		-2.8994 		3.928
v 20.4595 		6.4616 		4.838
v 21.9765 		-2.0314 		0.71
v 18.3465 		-5.1414 		0.181
v 19.6725 		-5.0984 		0.32
v 17.0615 		6.8642 		16.3
v 17.0525 		-12.7474 		4.38
v 10.4075 		-0.4814 		1.552
v 19.2505 		-5.5194 		0.32
v 20.2665 		2.6676 		1.24
v 20.5875 		3.2246 		1.552
v 9.5085 		-1.5694 		1.893
v 17.0525 		-12.8614 		4.838
v 18.7625 		-5.8614 		0.32
v 24.0974 		3.9494 		16.3
v 21.5975 		2.5176 		1.552
v 9.8535 		-0.2794 		1.893
v 23.1184 		4.8073 		16.3
v 22.7875 		-2.8994 		0.959
v 22.0368 		5.5311 		16.3
v 7.3535 		-4.6094 		4.38
v 20.8825 		3.7346 		1.893
v 20.8692 		6.1061 		16.3
v 22.7005 		-1.9034 		0.959
v 19.637 		6.5249 		16.3
v 18.3603 		6.7782 		16.3
v 7.2045 		-2.8994 		4.38
v 21.9765 		2.9686 		1.893
v 17.0525 		-11.0914 		2.26
v 26.6728 		-5.6619 		16.3
v 26.9261 		-4.3852 		16.3
v 27.0121 		-3.0864 		16.3
v 26.9261 		-1.7876 		16.3
v 26.6728 		-0.5109 		16.3
v 7.2415 		-4.6294 		4.838
v 23.4795 		-2.8994 		1.24
v 26.2541 		0.7213 		16.3
v 25.6791 		1.8889 		16.3
v 17.0525 		-11.5594 		2.65
v 24.9552 		2.9705 		16.3
v 7.0905 		-2.8994 		4.838
v 26.7505 		-4.6094 		4.38
v 17.0525 		-11.9624 		3.06
v 26.8625 		-4.6294 		4.838
v 11.4855 		0.3146 		1.24
v 17.0655 		-13.0154 		16.25
v 18.3705 		-12.9294 		16.25
v 19.6535 		-12.6744 		16.25
v 20.8915 		-12.2544 		16.25
v 22.0655 		-11.6754 		16.25
v 23.1525 		-10.9484 		16.25
v 7.8265 		-6.8424 		16.25
v 8.4045 		-8.0154 		16.25
v 9.1315 		-9.1024 		16.25
v 9.9945 		-10.0864 		16.25
v 10.9775 		-10.9484 		16.25
v 12.0655 		-11.6754 		16.25
v 13.2385 		-12.2544 		16.25
v 14.4765 		-12.6744 		16.25
v 15.7595 		-12.9294 		16.25
v 26.3035 		-6.8424 		16.25
v 10.9285 		0.6356 		1.552
v 17.0525 		-12.2964 		3.487
v 24.1365 		-10.0864 		16.25
v 24.9985 		-9.1024 		16.25
v 25.1195 		-4.3224 		2.26
v 25.7255 		-8.0154 		16.25
v 11.6355 		1.6456 		1.552
v 7.4055 		-0.4274 		16.25
v 15.9355 		-1.5694 		0.081
v 10.4175 		0.9306 		1.893
v 7.1505 		-1.7104 		16.25
v 7.0655 		-3.0154 		16.25
v 24.7495 		-5.7014 		2.26
v 7.1505 		-4.3204 		16.25
v 18.3825 		-4.0154 		0.081
v 17.0525 		-12.5584 		3.928
v 16.1835 		-1.3954 		0.081
v 7.4055 		-5.6034 		16.25
v 11.1835 		2.0246 		1.893
v 16.4585 		-1.2674 		0.081
v 15.7595 		6.8996 		16.25
v 18.1685 		-4.2294 		0.081
v 16.7505 		-1.1894 		0.081
v 14.4765 		6.6436 		16.25
v 25.5805 		-4.4034 		2.65
v 13.2385 		6.2236 		16.25
v 12.0655 		5.6446 		16.25
v 19.2935 		-4.1934 		0.181
v 25.1905 		-5.8614 		2.65
v 18.7625 		-12.5984 		4.38
v 10.9775 		4.9186 		16.25
v 9.9945 		4.0556 		16.25
v 9.1315 		3.0726 		16.25
v 18.7815 		-12.7104 		4.838
v 19.0345 		-4.5634 		0.181
v 8.4045 		1.9846 		16.25
v 7.8265 		0.8116 		16.25
v 25.9775 		-4.4734 		3.06
v 18.7155 		-4.8824 		0.181
v 13.8385 		-1.7294 		0.32
v 17.0525 		-1.1634 		0.081
v 19.8535 		-10.5974 		2.26
v 13.0805 		-1.4544 		0.497
v 17.0655 		6.9846 		16.25
v 18.4745 		-10.9664 		2.26
v 17.3535 		-1.1894 		0.081
v 20.0145 		-4.6094 		0.32
v 23.1525 		4.9186 		16.25
v 13.3925 		-0.7864 		0.497
v 22.0655 		5.6446 		16.25
v 20.8915 		6.2236 		16.25
v 7.5395 		-1.2224 		3.928
v 19.6535 		6.6436 		16.25
v 17.6465 		-1.2674 		0.081
v 13.8145 		-0.1834 		0.497
v 18.3705 		6.8996 		16.25
v 20.0145 		-11.0374 		2.65
v 7.3535 		-1.1894 		4.38
v 12.3535 		-1.1894 		0.71
v 17.9205 		-1.3954 		0.081
v 18.5555 		-11.4284 		2.65
v 7.2415 		-1.1694 		4.838
v 12.7215 		-0.3994 		0.71
v 26.7245 		-5.6034 		16.25
v 26.9795 		-4.3204 		16.25
v 7.6905 		0.5076 		4.838
v 27.0655 		-3.0154 		16.25
v 16.9005 		-3.7574 		0.02
v 26.9795 		-1.7104 		16.25
v 26.7245 		-0.4274 		16.25
v 16.7545 		-3.7184 		0.02
v 26.3035 		0.8116 		16.25
v 25.7255 		1.9846 		16.25
v 16.6165 		-3.6544 		0.02
v 24.9985 		3.0726 		16.25
v 16.4915 		-3.5674 		0.02
v 24.1365 		4.0556 		16.25
v 16.3845 		-3.4594 		0.02
v 26.3065 		-4.5314 		3.487
v 8.9855 		-4.3224 		2.26
v 18.6255 		-11.8244 		3.06
v 26.5645 		-4.5764 		3.928
v 16.1665 		-0.4674 		0.181
v 18.6835 		-12.1534 		3.487
v 16.6025 		-0.3504 		0.181
v 17.0525 		-0.3114 		0.181
v 26.9005 		-2.8994 		4.38
v 17.0615 		-3.0864 		34.454
v 12.0845 		-0.0314 		0.959
v 27.0145 		-2.8994 		4.838
v 16.2975 		-3.3354 		0.02
v 16.2335 		-3.1974 		0.02
v 16.1935 		-3.0504 		0.02
v 16.1805 		-2.8994 		0.02
v 7.1976 		-4.5573 		5.3
v 7.2045 		-4.6364 		5.3
v 7.2386 		-4.7636 		5.3
v 7.213 		-4.6348 		5.194
v 7.2323 		-4.7319 		5.2736
v 15.7215 		-1.7834 		0.081
v 7.0738 		-3.1428 		5.3
v 7.066 		-3.0228 		5.267
v 14.8105 		-1.6054 		0.181
v 7.1328 		-1.9827 		5.3
v 7.0731 		-2.8994 		5.0501
v 15.0695 		-1.2354 		0.181
v 7.2045 		-1.1634 		5.3
v 7.1614 		-1.6555 		5.3
v 7.4055 		-0.4274 		5.3
v 7.1775 		-1.5746 		5.1906
v 7.4055 		-0.4274 		5.2535
v 15.3885 		-0.9164 		0.181
v 17.5015 		-0.3504 		0.181
v 7.6555 		0.5206 		5.3
v 7.4692 		-0.24 		5.0921
v 7.8265 		0.8116 		5.3
v 8.3915 		2.1006 		5.3
v 8.4045 		1.9846 		5.3
v 17.9375 		-0.4674 		0.181
v 9.3915 		3.5286 		5.3
v 9.1315 		3.0726 		5.3
v 14.0905 		-1.1894 		0.32
v 9.9945 		4.0556 		5.3
v 10.6245 		4.7606 		5.3
v 10.9775 		4.9186 		5.3
v 12.0525 		5.7606 		5.3
v 12.0655 		5.6446 		5.3
v 18.1685 		-1.5694 		0.081
v 13.2385 		6.2236 		5.3
v 13.6315 		6.4976 		5.3
v 18.3825 		-1.7834 		0.081
v 15.7585 		-0.6584 		0.181
v 15.3155 		6.9486 		5.3
v 14.4765 		6.6436 		5.3
v 18.7155 		-0.9164 		0.181
v 15.7595 		6.8996 		5.3
v 19.0345 		-1.2354 		0.181
v 15.3425 		0.0626 		0.32
v 19.2935 		-1.6054 		0.181
v 18.7885 		6.9486 		5.3
v 18.3705 		6.8996 		5.3
v 20.0145 		-1.1894 		0.32
v 19.6535 		6.6436 		5.3
v 20.4725 		6.4976 		5.3
v 20.8915 		6.2236 		5.3
v 22.0525 		5.7606 		5.3
v 22.0655 		5.6446 		5.3
v 18.3465 		-0.6584 		0.181
v 23.4795 		4.7606 		5.3
v 23.1525 		4.9186 		5.3
v 18.7625 		0.0626 		0.32
v 19.2505 		-0.2794 		0.32
v 24.1365 		4.0556 		5.3
v 24.7125 		3.5286 		5.3
v 24.9985 		3.0726 		5.3
v 19.6725 		-0.7014 		0.32
v 25.7125 		2.1006 		5.3
v 25.7255 		1.9846 		5.3
v 26.4495 		0.5206 		5.3
v 26.3035 		0.8116 		5.3
v 26.3035 		0.8116 		5.1869
v 26.6248 		-0.1341 		5.3
v 16.4585 		0.4686 		0.32
v 26.9239 		-1.4307 		5.3
v 26.9005 		-1.1634 		5.3
v 26.7853 		-0.7331 		5.3
v 17.0525 		0.5206 		0.32
v 26.8071 		-0.8428 		5.2114
v 17.6465 		0.4686 		0.32
v 16.3185 		1.2626 		0.497
v 17.0525 		1.3266 		0.497
v 17.7855 		1.2626 		0.497
v 16.1835 		2.0246 		0.71
v 17.0525 		2.1006 		0.71
v 17.9205 		2.0246 		0.71
v 18.2215 		0.3146 		0.32
v 19.1655 		0.7606 		0.497
# 845 vertices

g group_0_10988977

usemtl color_10988977
s 0

f 809 	1 	5
f 9 	3 	6
f 2 	56 	18
f 12 	20 	15
f 12 	34 	20
f 9 	22 	3
f 14 	96 	23
f 22 	58 	3
f 58 	52 	3
f 26 	36 	29
f 20 	134 	131
f 32 	36 	26
f 34 	134 	20
f 21 	713 	27
f 636 	30 	27
f 32 	38 	36
f 40 	36 	38
f 36 	40 	387
f 38 	390 	40
f 41 	47 	43
f 49 	53 	44
f 44 	53 	45
f 59 	54 	61
f 18 	56 	60
f 89 	62 	49
f 58 	401 	52
f 49 	491 	53
f 604 	22 	33
f 62 	491 	49
f 58 	22 	604
f 58 	410 	401
f 58 	604 	410
f 66 	39 	68
f 29 	71 	56
f 74 	67 	73
f 68 	145 	66
f 55 	72 	57
f 60 	56 	71
f 71 	79 	60
f 81 	67 	80
f 68 	42 	76
f 57 	78 	63
f 85 	71 	29
f 57 	72 	78
f 60 	79 	64
f 63 	78 	610
f 36 	85 	29
f 82 	93 	96
f 69 	84 	89
f 82 	96 	86
f 83 	88 	70
f 76 	54 	87
f 87 	91 	76
f 83 	99 	88
f 85 	416 	71
f 69 	89 	75
f 68 	39 	42
f 70 	88 	77
f 75 	49 	44
f 72 	90 	100
f 89 	49 	75
f 42 	54 	76
f 87 	54 	59
f 72 	100 	78
f 92 	97 	84
f 230 	95 	83
f 95 	99 	83
f 84 	97 	89
f 97 	62 	89
f 97 	30 	62
f 93 	104 	96
f 94 	426 	103
f 101 	107 	95
f 93 	102 	104
f 94 	106 	98
f 92 	392 	21
f 104 	23 	96
f 103 	106 	94
f 95 	107 	99
f 21 	27 	92
f 104 	28 	23
f 27 	97 	92
f 90 	109 	100
f 97 	27 	30
f 100 	109 	114
f 101 	748 	107
f 109 	119 	114
f 109 	116 	119
f 112 	104 	102
f 112 	28 	104
f 263 	77 	117
f 120 	112 	189
f 112 	31 	28
f 110 	199 	108
f 120 	31 	112
f 88 	123 	77
f 166 	218 	116
f 77 	123 	117
f 117 	569 	121
f 123 	569 	117
f 111 	127 	103
f 113 	126 	115
f 119 	221 	47
f 113 	122 	126
f 126 	130 	115
f 88 	129 	123
f 103 	127 	106
f 115 	130 	118
f 99 	129 	88
f 55 	7 	132
f 131 	132 	7
f 132 	72 	55
f 122 	185 	75
f 75 	44 	122
f 122 	44 	126
f 37 	135 	111
f 132 	131 	136
f 134 	136 	131
f 45 	130 	126
f 133 	138 	125
f 132 	90 	72
f 111 	135 	127
f 129 	99 	137
f 126 	44 	45
f 132 	136 	90
f 133 	152 	138
f 182 	127 	135
f 107 	137 	99
f 125 	138 	128
f 66 	135 	37
f 138 	67 	128
f 39 	66 	37
f 73 	67 	138
f 34 	140 	134
f 134 	143 	136
f 759 	760 	124
f 760 	761 	124
f 46 	376 	137
f 140 	143 	134
f 128 	67 	65
f 153 	138 	152
f 149 	154 	142
f 113 	139 	163
f 76 	155 	68
f 139 	113 	115
f 73 	138 	157
f 162 	143 	140
f 142 	154 	146
f 139 	115 	141
f 68 	155 	145
f 25 	145 	155
f 141 	118 	144
f 141 	115 	118
f 228 	124 	224
f 143 	160 	136
f 118 	568 	144
f 232 	124 	228
f 25 	148 	145
f 136 	160 	90
f 160 	109 	90
f 144 	568 	564
f 124 	232 	233
f 148 	25 	642
f 149 	161 	154
f 159 	161 	149
f 150 	165 	151
f 76 	91 	155
f 164 	155 	91
f 160 	143 	166
f 164 	167 	155
f 238 	242 	124
f 155 	167 	25
f 35 	25 	167
f 166 	143 	162
f 519 	165 	150
f 242 	245 	124
f 165 	169 	151
f 116 	160 	166
f 245 	310 	124
f 310 	314 	124
f 169 	156 	151
f 160 	116 	109
f 314 	315 	124
f 161 	159 	174
f 171 	174 	159
f 315 	317 	124
f 169 	263 	156
f 317 	321 	124
f 158 	93 	82
f 266 	161 	174
f 158 	177 	93
f 321 	323 	124
f 183 	172 	168
f 323 	291 	124
f 418 	424 	177
f 187 	171 	105
f 291 	295 	124
f 295 	297 	124
f 70 	165 	175
f 158 	418 	177
f 171 	187 	174
f 9 	170 	179
f 297 	205 	124
f 178 	179 	170
f 113 	163 	176
f 179 	22 	9
f 124 	205 	206
f 458 	409 	168
f 180 	166 	162
f 182 	178 	127
f 206 	209 	124
f 70 	169 	165
f 180 	162 	173
f 209 	210 	124
f 177 	424 	181
f 168 	409 	183
f 178 	184 	179
f 166 	180 	218
f 70 	77 	169
f 177 	102 	93
f 210 	10 	124
f 172 	185 	176
f 177 	181 	102
f 182 	184 	178
f 230 	175 	532
f 10 	11 	124
f 184 	33 	179
f 175 	83 	70
f 183 	185 	172
f 82 	218 	180
f 185 	122 	176
f 230 	83 	175
f 186 	189 	181
f 174 	187 	274
f 179 	33 	22
f 173 	158 	180
f 194 	200 	186
f 122 	113 	176
f 187 	105 	190
f 186 	200 	189
f 409 	417 	192
f 82 	180 	158
f 191 	182 	135
f 108 	190 	105
f 181 	189 	102
f 189 	112 	102
f 135 	66 	191
f 409 	192 	183
f 191 	195 	182
f 188 	196 	207
f 193 	196 	188
f 183 	192 	69
f 148 	195 	191
f 192 	84 	69
f 145 	148 	191
f 190 	108 	199
f 69 	185 	183
f 198 	196 	150
f 182 	195 	184
f 197 	293 	201
f 69 	75 	185
f 196 	576 	150
f 150 	151 	198
f 195 	606 	184
f 128 	200 	194
f 201 	223 	197
f 200 	120 	189
f 199 	792 	794
f 145 	191 	66
f 146 	211 	399
f 203 	550 	212
f 203 	213 	290
f 212 	213 	203
f 194 	125 	128
f 205 	337 	206
f 128 	65 	200
f 336 	206 	337
f 250 	211 	146
f 204 	300 	215
f 200 	65 	120
f 198 	212 	196
f 207 	196 	212
f 146 	154 	250
f 204 	217 	208
f 198 	220 	212
f 198 	151 	220
f 221 	119 	116
f 215 	217 	204
f 209 	344 	210
f 212 	220 	213
f 98 	106 	170
f 116 	218 	221
f 217 	702 	208
f 106 	178 	170
f 312 	213 	147
f 187 	190 	222
f 220 	147 	213
f 216 	98 	170
f 218 	82 	86
f 337 	205 	297
f 214 	197 	223
f 218 	86 	221
f 221 	86 	16
f 222 	274 	187
f 220 	156 	147
f 16 	47 	221
f 106 	127 	178
f 214 	226 	219
f 151 	156 	220
f 227 	217 	229
f 215 	229 	217
f 435 	186 	181
f 225 	229 	215
f 223 	226 	214
f 227 	379 	217
f 231 	312 	147
f 190 	199 	237
f 202 	243 	201
f 222 	190 	237
f 234 	194 	186
f 241 	194 	234
f 373 	222 	237
f 201 	243 	223
f 240 	95 	230
f 199 	794 	237
f 223 	243 	507
f 239 	247 	324
f 246 	125 	241
f 156 	248 	147
f 125 	246 	133
f 223 	507 	226
f 125 	194 	241
f 147 	248 	231
f 341 	345 	228
f 202 	265 	243
f 228 	345 	232
f 249 	254 	236
f 231 	252 	239
f 253 	133 	246
f 244 	255 	725
f 248 	252 	231
f 154 	161 	256
f 251 	255 	244
f 252 	257 	239
f 256 	161 	266
f 254 	240 	236
f 254 	101 	240
f 250 	154 	256
f 233 	677 	235
f 239 	257 	247
f 235 	685 	238
f 258 	262 	251
f 677 	685 	235
f 258 	271 	262
f 240 	101 	95
f 270 	271 	258
f 238 	688 	242
f 251 	262 	255
f 685 	688 	238
f 156 	263 	248
f 265 	202 	261
f 245 	242 	691
f 688 	691 	242
f 216 	254 	249
f 249 	98 	216
f 263 	269 	248
f 101 	254 	6
f 256 	266 	268
f 216 	6 	254
f 267 	261 	351
f 261 	273 	265
f 267 	273 	261
f 174 	274 	266
f 248 	269 	252
f 443 	35 	319
f 252 	277 	257
f 271 	4 	262
f 266 	275 	268
f 269 	277 	252
f 325 	42 	39
f 124 	233 	235
f 274 	275 	266
f 276 	42 	325
f 204 	208 	270
f 124 	235 	238
f 270 	208 	271
f 278 	281 	267
f 169 	77 	263
f 271 	698 	4
f 208 	698 	271
f 280 	283 	272
f 267 	281 	273
f 285 	286 	280
f 263 	117 	269
f 280 	286 	283
f 272 	283 	276
f 59 	61 	279
f 276 	54 	42
f 269 	121 	277
f 283 	54 	276
f 363 	275 	274
f 117 	121 	269
f 285 	280 	348
f 331 	279 	61
f 288 	283 	286
f 283 	61 	54
f 279 	282 	59
f 288 	61 	283
f 203 	290 	746
f 284 	270 	258
f 278 	294 	281
f 289 	270 	284
f 8 	294 	278
f 294 	609 	281
f 289 	204 	270
f 204 	289 	300
f 299 	91 	292
f 303 	215 	300
f 295 	408 	297
f 87 	292 	91
f 1 	8 	374
f 298 	301 	111
f 307 	311 	303
f 303 	311 	215
f 211 	304 	287
f 292 	87 	282
f 250 	304 	211
f 307 	303 	427
f 59 	282 	87
f 304 	309 	287
f 37 	111 	301
f 213 	312 	290
f 225 	215 	311
f 308 	37 	301
f 304 	329 	309
f 296 	290 	312
f 309 	293 	287
f 35 	167 	319
f 296 	318 	302
f 309 	201 	293
f 296 	312 	318
f 313 	330 	322
f 319 	167 	299
f 710 	398 	320
f 318 	324 	302
f 316 	325 	306
f 256 	326 	250
f 318 	239 	324
f 91 	299 	164
f 302 	324 	305
f 714 	314 	310
f 164 	299 	167
f 306 	325 	308
f 305 	356 	334
f 326 	304 	250
f 308 	325 	39
f 314 	722 	315
f 326 	329 	304
f 317 	315 	728
f 244 	725 	320
f 268 	326 	256
f 722 	728 	315
f 725 	710 	320
f 308 	39 	37
f 312 	231 	318
f 309 	202 	201
f 330 	313 	328
f 231 	239 	318
f 325 	316 	276
f 329 	202 	309
f 316 	272 	276
f 303 	508 	427
f 288 	286 	331
f 326 	268 	351
f 268 	357 	351
f 206 	336 	340
f 355 	333 	272
f 330 	328 	338
f 224 	341 	228
f 280 	272 	333
f 327 	331 	286
f 286 	285 	327
f 346 	327 	285
f 61 	288 	331
f 355 	272 	316
f 206 	340 	209
f 329 	261 	202
f 332 	339 	343
f 357 	268 	275
f 334 	341 	224
f 344 	209 	340
f 446 	385 	338
f 332 	343 	335
f 342 	280 	333
f 244 	320 	335
f 335 	343 	244
f 342 	348 	280
f 347 	348 	342
f 210 	344 	683
f 326 	351 	329
f 355 	352 	670
f 261 	329 	351
f 339 	354 	343
f 285 	348 	346
f 348 	347 	346
f 34 	12 	353
f 349 	354 	339
f 337 	358 	360
f 330 	359 	322
f 343 	354 	251
f 356 	305 	324
f 356 	361 	334
f 357 	267 	351
f 264 	346 	347
f 322 	359 	350
f 366 	357 	275
f 350 	362 	353
f 267 	357 	278
f 258 	251 	354
f 359 	362 	350
f 366 	278 	357
f 343 	251 	244
f 336 	337 	360
f 334 	361 	341
f 222 	363 	274
f 336 	364 	340
f 264 	371 	260
f 284 	354 	349
f 362 	617 	353
f 360 	364 	336
f 330 	365 	359
f 347 	371 	264
f 338 	365 	330
f 696 	344 	340
f 284 	349 	489
f 368 	362 	359
f 275 	363 	366
f 284 	258 	354
f 344 	696 	703
f 369 	260 	371
f 365 	368 	359
f 363 	222 	373
f 618 	362 	368
f 356 	324 	247
f 367 	370 	411
f 489 	289 	284
f 363 	374 	366
f 300 	289 	494
f 373 	374 	363
f 374 	8 	366
f 369 	381 	260
f 8 	278 	366
f 259 	260 	381
f 365 	375 	368
f 335 	467 	332
f 381 	378 	259
f 339 	332 	540
f 540 	546 	339
f 377 	383 	367
f 259 	378 	372
f 384 	192 	417
f 367 	383 	370
f 526 	624 	380
f 384 	84 	192
f 383 	298 	370
f 385 	389 	338
f 429 	386 	392
f 379 	372 	378
f 385 	214 	389
f 46 	391 	376
f 377 	393 	383
f 338 	389 	365
f 392 	384 	429
f 52 	391 	46
f 389 	375 	365
f 390 	394 	40
f 229 	382 	227
f 227 	382 	372
f 391 	395 	376
f 388 	393 	377
f 92 	84 	384
f 225 	405 	229
f 393 	301 	383
f 384 	392 	92
f 379 	227 	372
f 387 	40 	394
f 376 	395 	380
f 393 	308 	301
f 385 	197 	214
f 214 	219 	389
f 383 	301 	298
f 386 	398 	392
f 219 	375 	389
f 386 	396 	398
f 405 	311 	397
f 401 	391 	52
f 21 	392 	398
f 352 	306 	388
f 375 	219 	400
f 390 	402 	394
f 352 	316 	306
f 391 	404 	395
f 388 	306 	393
f 390 	399 	402
f 396 	335 	320
f 311 	405 	225
f 403 	291 	323
f 401 	404 	391
f 396 	320 	398
f 306 	308 	393
f 403 	406 	291
f 352 	355 	316
f 382 	229 	405
f 403 	421 	406
f 420 	414 	427
f 291 	406 	295
f 311 	307 	397
f 406 	408 	295
f 62 	30 	411
f 211 	402 	399
f 587 	600 	246
f 411 	491 	62
f 211 	287 	402
f 337 	297 	408
f 401 	485 	404
f 411 	413 	491
f 79 	71 	416
f 410 	485 	401
f 407 	412 	409
f 417 	409 	412
f 427 	414 	307
f 485 	492 	404
f 173 	635 	418
f 370 	413 	411
f 420 	428 	419
f 418 	158 	173
f 79 	416 	313
f 427 	428 	420
f 415 	400 	422
f 397 	307 	414
f 406 	421 	425
f 415 	424 	418
f 370 	426 	413
f 370 	298 	426
f 422 	424 	415
f 406 	425 	408
f 387 	85 	36
f 408 	358 	337
f 412 	423 	429
f 408 	425 	358
f 387 	431 	85
f 426 	94 	453
f 429 	417 	412
f 94 	98 	459
f 85 	431 	416
f 384 	417 	429
f 431 	328 	416
f 298 	103 	426
f 441 	431 	387
f 429 	423 	386
f 441 	446 	431
f 435 	422 	433
f 432 	436 	481
f 431 	446 	328
f 111 	103 	298
f 433 	452 	435
f 416 	328 	313
f 419 	438 	432
f 436 	432 	439
f 439 	432 	438
f 428 	438 	419
f 448 	434 	430
f 424 	422 	435
f 424 	435 	181
f 394 	441 	387
f 435 	452 	234
f 441 	472 	446
f 442 	449 	440
f 434 	110 	108
f 446 	338 	328
f 110 	434 	448
f 402 	454 	394
f 437 	445 	450
f 35 	443 	456
f 455 	456 	443
f 447 	455 	443
f 444 	451 	457
f 394 	454 	441
f 453 	459 	442
f 423 	444 	457
f 461 	462 	460
f 447 	460 	462
f 455 	447 	462
f 472 	441 	454
f 234 	186 	435
f 457 	386 	423
f 442 	459 	449
f 472 	385 	446
f 452 	241 	234
f 460 	468 	461
f 380 	395 	463
f 467 	457 	451
f 459 	249 	449
f 452 	566 	241
f 287 	454 	402
f 395 	404 	469
f 246 	241 	566
f 465 	461 	468
f 467 	451 	464
f 445 	470 	450
f 453 	94 	459
f 471 	465 	468
f 404 	492 	469
f 457 	467 	396
f 445 	466 	470
f 473 	474 	475
f 473 	475 	477
f 450 	407 	458
f 395 	469 	463
f 459 	98 	249
f 457 	396 	386
f 450 	470 	407
f 469 	159 	463
f 287 	293 	454
f 409 	458 	407
f 464 	540 	332
f 454 	293 	472
f 480 	607 	582
f 332 	467 	464
f 293 	197 	472
f 482 	480 	45
f 335 	396 	467
f 472 	197 	385
f 45 	53 	482
f 483 	470 	466
f 480 	440 	607
f 605 	484 	476
f 481 	436 	488
f 486 	481 	488
f 482 	440 	480
f 481 	486 	479
f 486 	496 	479
f 440 	541 	607
f 470 	483 	412
f 349 	558 	489
f 53 	493 	482
f 478 	479 	496
f 496 	497 	478
f 470 	412 	407
f 478 	497 	501
f 53 	491 	493
f 494 	289 	489
f 482 	493 	442
f 469 	492 	171
f 483 	423 	412
f 219 	226 	499
f 483 	444 	423
f 81 	501 	497
f 482 	442 	440
f 171 	492 	105
f 400 	219 	499
f 469 	171 	159
f 499 	422 	400
f 498 	74 	73
f 410 	506 	485
f 503 	300 	494
f 410 	720 	506
f 144 	564 	500
f 413 	493 	491
f 504 	483 	466
f 80 	501 	81
f 226 	511 	499
f 512 	153 	152
f 509 	492 	485
f 300 	503 	303
f 508 	303 	503
f 226 	507 	511
f 502 	513 	504
f 524 	428 	508
f 427 	508 	428
f 493 	413 	453
f 506 	509 	485
f 499 	433 	422
f 510 	513 	502
f 509 	105 	492
f 499 	511 	433
f 504 	513 	444
f 493 	453 	442
f 188 	505 	193
f 413 	426 	453
f 513 	451 	444
f 243 	514 	507
f 504 	444 	483
f 243 	265 	514
f 487 	163 	139
f 514 	517 	507
f 515 	524 	518
f 487 	139 	490
f 516 	519 	576
f 495 	490 	141
f 720 	430 	506
f 430 	434 	506
f 510 	520 	522
f 139 	141 	490
f 592 	518 	503
f 507 	517 	511
f 495 	141 	144
f 506 	434 	509
f 452 	511 	517
f 495 	144 	500
f 434 	108 	509
f 510 	522 	513
f 73 	157 	498
f 509 	108 	105
f 505 	500 	564
f 524 	515 	523
f 451 	513 	522
f 508 	518 	524
f 525 	528 	770
f 523 	439 	524
f 564 	193 	505
f 514 	265 	529
f 438 	428 	524
f 518 	508 	503
f 43 	48 	520
f 529 	265 	273
f 521 	532 	516
f 651 	488 	523
f 520 	48 	522
f 436 	439 	523
f 529 	533 	514
f 522 	464 	451
f 438 	524 	439
f 516 	532 	519
f 48 	464 	522
f 175 	165 	519
f 532 	175 	519
f 464 	48 	540
f 360 	358 	542
f 533 	517 	514
f 440 	449 	541
f 533 	566 	517
f 358 	548 	542
f 532 	521 	547
f 541 	547 	521
f 360 	542 	437
f 532 	547 	230
f 542 	567 	445
f 463 	526 	380
f 445 	437 	542
f 149 	142 	526
f 437 	364 	360
f 744 	550 	203
f 555 	425 	421
f 476 	533 	529
f 421 	50 	555
f 541 	449 	236
f 449 	249 	236
f 531 	500 	505
f 541 	236 	547
f 526 	463 	149
f 425 	555 	548
f 547 	240 	230
f 236 	240 	547
f 531 	505 	535
f 546 	558 	349
f 159 	149 	463
f 505 	188 	535
f 573 	489 	558
f 358 	425 	548
f 452 	433 	511
f 535 	188 	538
f 550 	538 	207
f 546 	349 	339
f 567 	542 	548
f 188 	207 	538
f 452 	517 	566
f 207 	212 	550
f 567 	548 	571
f 563 	562 	578
f 562 	561 	578
f 534 	585 	561
f 534 	561 	560
f 534 	560 	559
f 534 	559 	557
f 534 	557 	556
f 534 	556 	554
f 534 	554 	553
f 534 	553 	530
f 534 	530 	551
f 534 	551 	549
f 534 	549 	545
f 534 	545 	544
f 534 	544 	543
f 534 	543 	539
f 534 	539 	537
f 536 	534 	537
f 558 	552 	573
f 11 	575 	13
f 574 	193 	564
f 121 	572 	565
f 568 	574 	564
f 690 	575 	11
f 193 	576 	196
f 121 	569 	572
f 13 	575 	17
f 577 	17 	575
f 570 	573 	552
f 574 	576 	193
f 572 	652 	565
f 17 	580 	19
f 572 	669 	652
f 573 	494 	489
f 582 	568 	118
f 17 	577 	580
f 555 	50 	584
f 757 	565 	652
f 580 	586 	19
f 585 	583 	561
f 579 	561 	581
f 578 	561 	579
f 130 	582 	118
f 50 	63 	584
f 476 	587 	533
f 747 	589 	570
f 582 	588 	568
f 123 	129 	590
f 555 	584 	571
f 582 	607 	588
f 570 	592 	573
f 19 	586 	24
f 589 	592 	570
f 533 	587 	566
f 24 	531 	736
f 587 	246 	566
f 555 	571 	548
f 568 	588 	574
f 571 	596 	597
f 592 	494 	573
f 24 	586 	531
f 588 	516 	574
f 750 	515 	589
f 587 	476 	600
f 515 	518 	589
f 484 	600 	476
f 574 	516 	576
f 253 	246 	600
f 575 	487 	577
f 589 	518 	592
f 519 	150 	576
f 503 	494 	592
f 567 	571 	597
f 577 	490 	580
f 600 	484 	817
f 130 	45 	480
f 577 	487 	490
f 567 	597 	466
f 495 	580 	490
f 480 	582 	130
f 281 	605 	273
f 580 	495 	586
f 504 	466 	597
f 586 	500 	531
f 529 	273 	605
f 184 	606 	33
f 605 	476 	529
f 567 	466 	445
f 495 	500 	586
f 588 	521 	516
f 604 	33 	608
f 607 	521 	588
f 605 	281 	609
f 583 	581 	561
f 591 	578 	603
f 591 	603 	602
f 591 	602 	601
f 591 	601 	599
f 591 	599 	598
f 591 	598 	595
f 594 	591 	595
f 593 	591 	594
f 63 	610 	584
f 609 	484 	605
f 606 	608 	33
f 608 	720 	604
f 584 	596 	571
f 584 	610 	596
f 607 	541 	521
f 590 	569 	123
f 590 	615 	569
f 614 	333 	684
f 615 	572 	569
f 597 	502 	504
f 353 	617 	34
f 615 	669 	572
f 617 	140 	34
f 129 	137 	619
f 137 	376 	619
f 617 	362 	618
f 619 	590 	129
f 596 	502 	597
f 617 	623 	140
f 590 	624 	615
f 620 	342 	614
f 502 	596 	626
f 618 	623 	617
f 623 	162 	140
f 148 	628 	195
f 78 	100 	631
f 620 	371 	342
f 148 	642 	628
f 100 	114 	631
f 618 	368 	629
f 342 	333 	614
f 628 	606 	195
f 611 	163 	487
f 368 	375 	629
f 628 	634 	606
f 631 	610 	78
f 611 	621 	163
f 702 	381 	620
f 629 	635 	618
f 631 	626 	610
f 369 	371 	620
f 347 	342 	371
f 591 	613 	578
f 613 	633 	578
f 633 	632 	578
f 632 	630 	578
f 630 	627 	578
f 625 	578 	627
f 622 	578 	625
f 647 	578 	622
f 618 	635 	623
f 715 	458 	612
f 606 	634 	608
f 616 	612 	168
f 623 	173 	162
f 608 	726 	720
f 635 	173 	623
f 610 	626 	596
f 619 	624 	590
f 608 	634 	726
f 30 	367 	411
f 626 	510 	502
f 375 	400 	629
f 626 	643 	510
f 636 	367 	30
f 635 	629 	415
f 624 	678 	615
f 400 	415 	629
f 628 	648 	634
f 415 	418 	635
f 631 	114 	643
f 636 	377 	367
f 638 	578 	639
f 640 	639 	578
f 637 	578 	638
f 563 	578 	637
f 641 	640 	578
f 647 	645 	578
f 644 	578 	645
f 641 	578 	644
f 619 	380 	624
f 642 	648 	628
f 631 	643 	626
f 646 	377 	636
f 376 	380 	619
f 648 	730 	634
f 650 	646 	729
f 643 	41 	520
f 649 	515 	750
f 43 	520 	41
f 643 	520 	510
f 650 	388 	646
f 649 	523 	515
f 455 	642 	456
f 25 	456 	642
f 41 	643 	114
f 523 	649 	651
f 657 	659 	656
f 655 	656 	659
f 671 	672 	658
f 654 	655 	659
f 653 	654 	659
f 653 	659 	660
f 653 	660 	661
f 662 	667 	661
f 663 	667 	662
f 664 	667 	663
f 665 	666 	664
f 667 	664 	666
f 653 	661 	667
f 41 	114 	119
f 486 	651 	496
f 612 	458 	168
f 486 	488 	651
f 388 	377 	646
f 616 	168 	172
f 436 	523 	488
f 621 	616 	172
f 672 	674 	658
f 674 	668 	658
f 668 	732 	658
f 38 	652 	675
f 119 	47 	41
f 669 	675 	652
f 675 	390 	38
f 749 	670 	650
f 621 	172 	176
f 233 	768 	677
f 678 	669 	615
f 352 	388 	650
f 621 	176 	163
f 43 	673 	681
f 670 	352 	650
f 686 	657 	682
f 678 	687 	669
f 43 	681 	48
f 686 	659 	657
f 680 	682 	657
f 680 	657 	679
f 526 	142 	678
f 10 	683 	690
f 355 	670 	684
f 678 	142 	687
f 540 	48 	681
f 703 	690 	683
f 694 	695 	657
f 669 	687 	675
f 614 	684 	4
f 310 	245 	709
f 11 	10 	690
f 399 	675 	687
f 333 	355 	684
f 693 	673 	16
f 697 	681 	673
f 675 	399 	390
f 693 	697 	673
f 698 	614 	4
f 364 	696 	340
f 678 	624 	526
f 681 	697 	546
f 685 	751 	688
f 208 	702 	698
f 698 	620 	614
f 676 	657 	705
f 620 	698 	702
f 688 	753 	691
f 687 	146 	399
f 344 	703 	683
f 681 	546 	540
f 751 	753 	688
f 142 	146 	687
f 690 	703 	707
f 217 	379 	702
f 378 	702 	379
f 756 	557 	559
f 693 	14 	706
f 369 	620 	381
f 690 	611 	575
f 378 	381 	702
f 692 	694 	657
f 700 	657 	699
f 695 	699 	657
f 704 	657 	701
f 705 	657 	704
f 679 	657 	676
f 700 	701 	657
f 690 	707 	611
f 14 	23 	706
f 611 	487 	575
f 693 	706 	552
f 689 	692 	657
f 398 	710 	21
f 709 	245 	691
f 711 	708 	247
f 35 	456 	25
f 709 	714 	310
f 364 	715 	696
f 247 	257 	711
f 711 	717 	708
f 461 	648 	462
f 642 	462 	648
f 710 	713 	21
f 437 	715 	364
f 455 	462 	642
f 696 	612 	703
f 713 	636 	27
f 461 	465 	648
f 730 	648 	465
f 696 	715 	612
f 714 	722 	314
f 703 	612 	616
f 604 	720 	410
f 707 	703 	616
f 723 	56 	2
f 707 	616 	621
f 727 	711 	257
f 707 	621 	611
f 726 	430 	720
f 257 	277 	727
f 729 	713 	710
f 657 	721 	724
f 712 	657 	724
f 712 	689 	657
f 657 	658 	721
f 718 	719 	658
f 719 	721 	658
f 437 	450 	715
f 711 	731 	717
f 730 	726 	634
f 715 	450 	458
f 729 	710 	725
f 734 	430 	726
f 727 	731 	711
f 729 	646 	713
f 730 	734 	726
f 731 	26 	717
f 734 	448 	430
f 740 	741 	658
f 317 	796 	321
f 706 	570 	552
f 741 	743 	658
f 735 	737 	658
f 465 	471 	730
f 475 	730 	477
f 693 	552 	697
f 723 	717 	26
f 730 	475 	474
f 730 	474 	734
f 709 	691 	754
f 734 	785 	448
f 697 	552 	558
f 26 	29 	723
f 716 	718 	658
f 756 	554 	556
f 697 	558 	546
f 29 	56 	723
f 747 	706 	23
f 713 	646 	636
f 23 	28 	747
f 736 	531 	739
f 743 	745 	658
f 745 	716 	658
f 733 	735 	658
f 732 	733 	658
f 737 	738 	658
f 738 	740 	658
f 535 	739 	531
f 722 	714 	787
f 260 	653 	264
f 667 	264 	653
f 739 	535 	538
f 747 	570 	706
f 6 	748 	101
f 255 	749 	725
f 28 	31 	750
f 748 	46 	107
f 264 	667 	346
f 666 	346 	667
f 739 	538 	742
f 6 	3 	748
f 725 	749 	729
f 538 	550 	742
f 750 	747 	28
f 3 	52 	748
f 666 	665 	346
f 327 	346 	665
f 742 	550 	744
f 748 	52 	46
f 749 	650 	729
f 664 	331 	327
f 664 	327 	665
f 750 	589 	747
f 137 	107 	46
f 752 	749 	255
f 756 	562 	563
f 216 	170 	9
f 203 	746 	744
f 331 	664 	279
f 663 	279 	664
f 255 	262 	752
f 9 	6 	216
f 662 	282 	279
f 662 	279 	663
f 755 	649 	31
f 277 	121 	565
f 752 	670 	749
f 662 	661 	292
f 662 	292 	282
f 299 	292 	660
f 661 	660 	292
f 565 	727 	277
f 660 	659 	319
f 660 	319 	299
f 4 	684 	752
f 659 	443 	319
f 124 	736 	739
f 752 	684 	670
f 757 	731 	727
f 671 	658 	397
f 31 	649 	750
f 397 	658 	405
f 657 	405 	658
f 124 	739 	742
f 405 	657 	382
f 656 	382 	657
f 752 	262 	4
f 755 	31 	120
f 727 	565 	757
f 744 	124 	742
f 65 	755 	120
f 382 	656 	372
f 655 	372 	656
f 746 	124 	744
f 651 	755 	758
f 372 	655 	259
f 654 	259 	655
f 757 	32 	731
f 124 	746 	759
f 654 	653 	259
f 260 	259 	653
f 481 	668 	432
f 757 	38 	32
f 419 	432 	668
f 674 	419 	668
f 672 	420 	419
f 672 	419 	674
f 124 	761 	762
f 652 	38 	757
f 671 	414 	420
f 671 	420 	672
f 397 	414 	671
f 124 	762 	224
f 731 	32 	26
f 755 	651 	649
f 686 	443 	659
f 763 	764 	765
f 290 	759 	746
f 764 	766 	767
f 758 	755 	65
f 767 	765 	764
f 764 	763 	766
f 67 	758 	65
f 447 	763 	682
f 682 	763 	765
f 682 	765 	686
f 760 	759 	296
f 686 	765 	443
f 290 	296 	759
f 496 	651 	758
f 296 	302 	760
f 496 	758 	497
f 760 	302 	761
f 766 	443 	767
f 447 	443 	766
f 767 	443 	765
f 67 	81 	758
f 758 	81 	497
f 768 	233 	232
f 766 	763 	447
f 761 	305 	762
f 302 	305 	761
f 525 	769 	527
f 232 	345 	768
f 47 	673 	43
f 525 	770 	769
f 305 	334 	762
f 680 	527 	769
f 769 	682 	680
f 762 	334 	224
f 16 	673 	47
f 682 	769 	447
f 578 	756 	603
f 771 	345 	341
f 770 	460 	769
f 528 	460 	770
f 460 	447 	769
f 13 	124 	11
f 772 	525 	527
f 13 	17 	124
f 528 	525 	773
f 124 	17 	19
f 525 	772 	773
f 124 	19 	24
f 693 	16 	14
f 527 	680 	772
f 679 	772 	680
f 771 	341 	361
f 124 	24 	736
f 16 	86 	14
f 528 	773 	460
f 86 	96 	14
f 771 	774 	345
f 679 	468 	772
f 773 	772 	468
f 460 	773 	468
f 776 	777 	775
f 683 	10 	210
f 782 	775 	777
f 775 	778 	776
f 730 	471 	775
f 778 	775 	471
f 775 	782 	779
f 775 	779 	477
f 775 	477 	730
f 768 	345 	774
f 777 	776 	676
f 679 	676 	776
f 679 	776 	468
f 753 	754 	691
f 778 	471 	468
f 776 	778 	468
f 477 	779 	473
f 754 	781 	709
f 780 	677 	774
f 677 	768 	774
f 783 	779 	782
f 474 	783 	782
f 474 	782 	734
f 734 	782 	785
f 754 	837 	781
f 474 	473 	783
f 779 	783 	473
f 777 	784 	782
f 785 	782 	784
f 709 	781 	714
f 784 	777 	705
f 676 	705 	777
f 784 	786 	785
f 800 	685 	677
f 787 	714 	781
f 356 	247 	708
f 786 	784 	704
f 705 	704 	784
f 543 	544 	756
f 708 	361 	356
f 786 	789 	785
f 788 	785 	789
f 110 	448 	788
f 544 	545 	756
f 788 	448 	785
f 361 	708 	790
f 545 	549 	756
f 701 	789 	704
f 789 	786 	704
f 708 	717 	790
f 549 	551 	756
f 789 	791 	788
f 788 	791 	792
f 790 	771 	361
f 551 	530 	756
f 788 	792 	110
f 530 	553 	756
f 110 	792 	199
f 754 	835 	837
f 791 	789 	700
f 700 	789 	701
f 553 	554 	756
f 792 	791 	793
f 780 	774 	18
f 793 	791 	699
f 700 	699 	791
f 792 	793 	794
f 795 	794 	793
f 795 	797 	794
f 317 	728 	796
f 695 	795 	699
f 795 	793 	699
f 2 	790 	723
f 798 	794 	797
f 321 	799 	323
f 237 	798 	373
f 717 	723 	790
f 237 	794 	798
f 780 	800 	677
f 796 	799 	321
f 799 	403 	323
f 561 	562 	756
f 797 	795 	694
f 695 	694 	795
f 751 	685 	800
f 722 	816 	728
f 790 	2 	771
f 722 	787 	816
f 798 	802 	801
f 797 	802 	798
f 801 	373 	798
f 796 	728 	803
f 374 	373 	801
f 771 	2 	774
f 802 	797 	692
f 694 	692 	797
f 802 	804 	801
f 1 	801 	804
f 5 	1 	804
f 2 	18 	774
f 799 	796 	805
f 803 	805 	796
f 637 	638 	756
f 800 	780 	806
f 799 	807 	403
f 801 	1 	374
f 799 	805 	807
f 689 	804 	692
f 804 	802 	692
f 638 	639 	756
f 18 	806 	780
f 807 	421 	403
f 712 	5 	689
f 5 	804 	689
f 800 	806 	51
f 809 	808 	1
f 639 	640 	756
f 60 	806 	18
f 8 	1 	808
f 808 	294 	8
f 810 	807 	805
f 60 	64 	806
f 640 	641 	756
f 806 	64 	51
f 5 	712 	809
f 724 	809 	712
f 809 	811 	808
f 824 	810 	805
f 807 	810 	50
f 294 	808 	812
f 721 	811 	724
f 811 	809 	724
f 810 	63 	50
f 808 	811 	812
f 813 	812 	811
f 421 	807 	50
f 812 	609 	294
f 625 	627 	756
f 721 	719 	813
f 721 	813 	811
f 812 	813 	814
f 824 	57 	810
f 627 	630 	756
f 815 	818 	814
f 57 	63 	810
f 813 	815 	814
f 817 	814 	818
f 814 	609 	812
f 630 	632 	756
f 814 	484 	609
f 814 	817 	484
f 632 	633 	756
f 815 	813 	718
f 719 	718 	813
f 816 	803 	728
f 781 	844 	787
f 633 	613 	756
f 781 	837 	844
f 819 	816 	787
f 818 	815 	716
f 718 	716 	815
f 756 	613 	591
f 821 	817 	818
f 844 	819 	787
f 593 	756 	591
f 819 	820 	816
f 716 	745 	821
f 821 	818 	716
f 822 	253 	600
f 756 	593 	594
f 823 	822 	821
f 817 	821 	822
f 816 	820 	803
f 595 	756 	594
f 820 	824 	805
f 820 	805 	803
f 822 	600 	817
f 821 	745 	823
f 743 	823 	745
f 756 	595 	598
f 822 	823 	825
f 826 	825 	823
f 253 	825 	133
f 825 	253 	822
f 7 	820 	819
f 743 	741 	823
f 826 	823 	741
f 826 	828 	825
f 827 	825 	828
f 55 	824 	7
f 820 	7 	824
f 829 	152 	827
f 133 	827 	152
f 827 	133 	825
f 826 	741 	828
f 740 	828 	741
f 152 	829 	512
f 824 	55 	57
f 830 	827 	828
f 153 	829 	827
f 138 	153 	827
f 827 	830 	157
f 157 	138 	827
f 800 	51 	751
f 738 	498 	830
f 830 	740 	738
f 828 	740 	830
f 602 	756 	601
f 831 	751 	51
f 51 	838 	831
f 829 	153 	512
f 751 	831 	753
f 830 	498 	157
f 832 	833 	834
f 603 	756 	602
f 67 	74 	833
f 833 	74 	836
f 753 	835 	754
f 836 	834 	833
f 833 	832 	80
f 833 	80 	67
f 737 	832 	834
f 737 	834 	738
f 831 	835 	753
f 832 	501 	80
f 834 	836 	498
f 74 	498 	836
f 738 	834 	498
f 737 	501 	832
f 835 	840 	837
f 737 	735 	501
f 478 	501 	735
f 735 	733 	478
f 479 	478 	733
f 479 	733 	481
f 732 	481 	733
f 481 	732 	668
f 838 	51 	64
f 838 	839 	831
f 839 	835 	831
f 839 	840 	835
f 843 	840 	839
f 838 	64 	841
f 64 	79 	841
f 838 	842 	839
f 841 	842 	838
f 842 	843 	839
f 843 	12 	840
f 843 	353 	12
f 840 	12 	15
f 841 	79 	313
f 313 	322 	841
f 322 	842 	841
f 350 	843 	842
f 322 	350 	842
f 350 	353 	843
f 756 	559 	560
f 840 	15 	837
f 837 	15 	844
f 560 	561 	756
f 844 	845 	819
f 15 	845 	844
f 7 	819 	845
f 20 	845 	15
f 845 	131 	7
f 20 	131 	845
f 756 	563 	637
f 756 	641 	644
f 645 	756 	644
f 645 	647 	756
f 647 	622 	756
f 622 	625 	756
f 756 	598 	599
f 756 	599 	601
f 756 	578 	579
f 756 	579 	581
f 756 	581 	583
f 583 	585 	756
f 585 	534 	756
f 756 	534 	536
f 536 	537 	756
f 539 	756 	537
f 539 	543 	756
f 556 	557 	756
# 1682 faces

 #end of obj_0

