# Object Export From Tinkercad Server 2015

mtllib obj.mtl

o obj_0
v -13.25 		-34.25 		5
v -13.25 		-11.5075 		5
v -13.25 		-34.25 		0
v -13.25 		-11.5075 		0
v -24.75 		-11.5075 		5
v -24.75 		-34.25 		5
v -24.75 		-11.5075 		0
v -24.75 		-34.25 		0
# 8 vertices

g group_0_6383466

usemtl color_6383466
s 0

f 1 	3 	2
f 3 	4 	2
f 5 	7 	6
f 7 	8 	6
f 5 	6 	2
f 6 	1 	2
f 8 	7 	3
f 7 	4 	3
f 6 	8 	1
f 8 	3 	1
f 2 	4 	5
f 4 	7 	5
# 12 faces

 #end of obj_0

o obj_1
v -23.5249 		-3.187 		1.0086
v -23.6 		-3.187 		1
v -23.6 		-3.187 		2
v -23.4512 		-3.187 		1.0341
v -23.38 		-3.187 		1.0761
v -23.3125 		-3.187 		1.134
v -23.25 		-3.187 		1.2066
v -23.1934 		-3.187 		1.2929
v -23.1438 		-3.187 		1.3912
v -23.102 		-3.187 		1.5
v -23.0688 		-3.187 		1.6173
v -23.0446 		-3.187 		1.7412
v -23.0299 		-3.187 		1.8695
v -23.025 		-3.187 		2
v -23.0299 		-3.187 		2.1305
v -23.0446 		-3.187 		2.2588
v -23.0688 		-3.187 		2.3827
v -23.102 		-3.187 		2.5
v -23.1438 		-3.187 		2.6088
v -23.1934 		-3.187 		2.7071
v -23.25 		-3.187 		2.7934
v -23.3125 		-3.187 		2.866
v -23.38 		-3.187 		2.9239
v -23.4512 		-3.187 		2.9659
v -23.5249 		-3.187 		2.9914
v -23.6 		-3.187 		3
v -23.6751 		-3.187 		2.9914
v -23.7488 		-3.187 		2.9659
v -23.82 		-3.187 		2.9239
v -23.8875 		-3.187 		2.866
v -23.95 		-3.187 		2.7934
v -24.0066 		-3.187 		2.7071
v -24.0562 		-3.187 		2.6088
v -24.098 		-3.187 		2.5
v -24.1312 		-3.187 		2.3827
v -24.1554 		-3.187 		2.2588
v -24.1701 		-3.187 		2.1305
v -24.175 		-3.187 		2
v -24.1701 		-3.187 		1.8695
v -24.1554 		-3.187 		1.7412
v -24.1312 		-3.187 		1.6173
v -24.098 		-3.187 		1.5
v -24.0562 		-3.187 		1.3912
v -24.0066 		-3.187 		1.2929
v -23.95 		-3.187 		1.2066
v -23.8875 		-3.187 		1.134
v -23.82 		-3.187 		1.0761
v -23.7488 		-3.187 		1.0341
v -23.6751 		-3.187 		1.0086
v -23.6 		-14.281 		1
v -23.5249 		-14.281 		1.0086
v -23.6 		-14.281 		2
v -23.4512 		-14.281 		1.0341
v -23.38 		-14.281 		1.0761
v -23.3125 		-14.281 		1.134
v -23.25 		-14.281 		1.2066
v -23.1934 		-14.281 		1.2929
v -23.1438 		-14.281 		1.3912
v -23.102 		-14.281 		1.5
v -23.0688 		-14.281 		1.6173
v -23.0446 		-14.281 		1.7412
v -23.0299 		-14.281 		1.8695
v -23.025 		-14.281 		2
v -23.0299 		-14.281 		2.1305
v -23.0446 		-14.281 		2.2588
v -23.0688 		-14.281 		2.3827
v -23.102 		-14.281 		2.5
v -23.1438 		-14.281 		2.6088
v -23.1934 		-14.281 		2.7071
v -23.25 		-14.281 		2.7934
v -23.3125 		-14.281 		2.866
v -23.38 		-14.281 		2.9239
v -23.4512 		-14.281 		2.9659
v -23.5249 		-14.281 		2.9914
v -23.6 		-14.281 		3
v -23.6751 		-14.281 		2.9914
v -23.7488 		-14.281 		2.9659
v -23.82 		-14.281 		2.9239
v -23.8875 		-14.281 		2.866
v -23.95 		-14.281 		2.7934
v -24.0066 		-14.281 		2.7071
v -24.0562 		-14.281 		2.6088
v -24.098 		-14.281 		2.5
v -24.1312 		-14.281 		2.3827
v -24.1554 		-14.281 		2.2588
v -24.1701 		-14.281 		2.1305
v -24.175 		-14.281 		2
v -24.1701 		-14.281 		1.8695
v -24.1554 		-14.281 		1.7412
v -24.1312 		-14.281 		1.6173
v -24.098 		-14.281 		1.5
v -24.0562 		-14.281 		1.3912
v -24.0066 		-14.281 		1.2929
v -23.95 		-14.281 		1.2066
v -23.8875 		-14.281 		1.134
v -23.82 		-14.281 		1.0761
v -23.7488 		-14.281 		1.0341
v -23.6751 		-14.281 		1.0086
# 98 vertices

g group_1_6383466

usemtl color_6383466
s 0

f 9 	10 	11
f 12 	9 	11
f 13 	12 	11
f 14 	13 	11
f 15 	14 	11
f 16 	15 	11
f 17 	16 	11
f 18 	17 	11
f 19 	18 	11
f 20 	19 	11
f 21 	20 	11
f 22 	21 	11
f 23 	22 	11
f 24 	23 	11
f 25 	24 	11
f 26 	25 	11
f 27 	26 	11
f 28 	27 	11
f 29 	28 	11
f 30 	29 	11
f 31 	30 	11
f 32 	31 	11
f 33 	32 	11
f 34 	33 	11
f 35 	34 	11
f 36 	35 	11
f 37 	36 	11
f 38 	37 	11
f 39 	38 	11
f 40 	39 	11
f 41 	40 	11
f 42 	41 	11
f 43 	42 	11
f 44 	43 	11
f 45 	44 	11
f 46 	45 	11
f 47 	46 	11
f 48 	47 	11
f 49 	48 	11
f 50 	49 	11
f 51 	50 	11
f 52 	51 	11
f 53 	52 	11
f 54 	53 	11
f 55 	54 	11
f 56 	55 	11
f 57 	56 	11
f 10 	57 	11
f 58 	59 	60
f 59 	61 	60
f 61 	62 	60
f 62 	63 	60
f 63 	64 	60
f 64 	65 	60
f 65 	66 	60
f 66 	67 	60
f 67 	68 	60
f 68 	69 	60
f 69 	70 	60
f 70 	71 	60
f 71 	72 	60
f 72 	73 	60
f 73 	74 	60
f 74 	75 	60
f 75 	76 	60
f 76 	77 	60
f 77 	78 	60
f 78 	79 	60
f 79 	80 	60
f 80 	81 	60
f 81 	82 	60
f 82 	83 	60
f 83 	84 	60
f 84 	85 	60
f 85 	86 	60
f 86 	87 	60
f 87 	88 	60
f 88 	89 	60
f 89 	90 	60
f 90 	91 	60
f 91 	92 	60
f 92 	93 	60
f 93 	94 	60
f 94 	95 	60
f 95 	96 	60
f 96 	97 	60
f 97 	98 	60
f 98 	99 	60
f 99 	100 	60
f 100 	101 	60
f 101 	102 	60
f 102 	103 	60
f 103 	104 	60
f 104 	105 	60
f 105 	106 	60
f 106 	58 	60
f 10 	9 	9
f 9 	12 	12
f 12 	13 	13
f 13 	14 	14
f 14 	15 	15
f 15 	16 	16
f 16 	17 	17
f 17 	18 	18
f 18 	19 	19
f 19 	20 	20
f 20 	21 	21
f 21 	22 	22
f 22 	23 	23
f 23 	24 	24
f 24 	25 	25
f 25 	26 	26
f 26 	27 	27
f 27 	28 	28
f 28 	29 	29
f 29 	30 	30
f 30 	31 	31
f 31 	32 	32
f 32 	33 	33
f 33 	34 	34
f 34 	35 	35
f 35 	36 	36
f 36 	37 	37
f 37 	38 	38
f 38 	39 	39
f 39 	40 	40
f 40 	41 	41
f 41 	42 	42
f 42 	43 	43
f 43 	44 	44
f 44 	45 	45
f 45 	46 	46
f 46 	47 	47
f 47 	48 	48
f 48 	49 	49
f 49 	50 	50
f 50 	51 	51
f 51 	52 	52
f 52 	53 	53
f 53 	54 	54
f 54 	55 	55
f 55 	56 	56
f 56 	57 	57
f 57 	10 	10
f 10 	9 	59
f 10 	59 	58
f 9 	12 	61
f 9 	61 	59
f 12 	13 	62
f 12 	62 	61
f 13 	14 	63
f 13 	63 	62
f 14 	15 	64
f 14 	64 	63
f 15 	16 	65
f 15 	65 	64
f 16 	17 	66
f 16 	66 	65
f 17 	18 	67
f 17 	67 	66
f 18 	19 	68
f 18 	68 	67
f 19 	20 	69
f 19 	69 	68
f 20 	21 	70
f 20 	70 	69
f 21 	22 	71
f 21 	71 	70
f 22 	23 	72
f 22 	72 	71
f 23 	24 	73
f 23 	73 	72
f 24 	25 	74
f 24 	74 	73
f 25 	26 	75
f 25 	75 	74
f 26 	27 	76
f 26 	76 	75
f 27 	28 	77
f 27 	77 	76
f 28 	29 	78
f 28 	78 	77
f 29 	30 	79
f 29 	79 	78
f 30 	31 	80
f 30 	80 	79
f 31 	32 	81
f 31 	81 	80
f 32 	33 	82
f 32 	82 	81
f 33 	34 	83
f 33 	83 	82
f 34 	35 	84
f 34 	84 	83
f 35 	36 	85
f 35 	85 	84
f 36 	37 	86
f 36 	86 	85
f 37 	38 	87
f 37 	87 	86
f 38 	39 	88
f 38 	88 	87
f 39 	40 	89
f 39 	89 	88
f 40 	41 	90
f 40 	90 	89
f 41 	42 	91
f 41 	91 	90
f 42 	43 	92
f 42 	92 	91
f 43 	44 	93
f 43 	93 	92
f 44 	45 	94
f 44 	94 	93
f 45 	46 	95
f 45 	95 	94
f 46 	47 	96
f 46 	96 	95
f 47 	48 	97
f 47 	97 	96
f 48 	49 	98
f 48 	98 	97
f 49 	50 	99
f 49 	99 	98
f 50 	51 	100
f 50 	100 	99
f 51 	52 	101
f 51 	101 	100
f 52 	53 	102
f 52 	102 	101
f 53 	54 	103
f 53 	103 	102
f 54 	55 	104
f 54 	104 	103
f 55 	56 	105
f 55 	105 	104
f 56 	57 	106
f 56 	106 	105
f 57 	10 	58
f 57 	58 	106
f 58 	59 	59
f 59 	61 	61
f 61 	62 	62
f 62 	63 	63
f 63 	64 	64
f 64 	65 	65
f 65 	66 	66
f 66 	67 	67
f 67 	68 	68
f 68 	69 	69
f 69 	70 	70
f 70 	71 	71
f 71 	72 	72
f 72 	73 	73
f 73 	74 	74
f 74 	75 	75
f 75 	76 	76
f 76 	77 	77
f 77 	78 	78
f 78 	79 	79
f 79 	80 	80
f 80 	81 	81
f 81 	82 	82
f 82 	83 	83
f 83 	84 	84
f 84 	85 	85
f 85 	86 	86
f 86 	87 	87
f 87 	88 	88
f 88 	89 	89
f 89 	90 	90
f 90 	91 	91
f 91 	92 	92
f 92 	93 	93
f 93 	94 	94
f 94 	95 	95
f 95 	96 	96
f 96 	97 	97
f 97 	98 	98
f 98 	99 	99
f 99 	100 	100
f 100 	101 	101
f 101 	102 	102
f 102 	103 	103
f 103 	104 	104
f 104 	105 	105
f 105 	106 	106
f 106 	58 	58
# 288 faces

 #end of obj_1

o obj_2
v -23.6345 		-2.832 		3.5
v -23.7471 		-2.832 		3.4872
v -23.7461 		-2.8462 		3.4872
v -23.7432 		-2.8602 		3.4872
v -23.7385 		-2.8736 		3.4872
v -23.732 		-2.8863 		3.4872
v -23.7238 		-2.8982 		3.4872
v -23.7141 		-2.9088 		3.4872
v -23.703 		-2.9182 		3.4872
v -23.6908 		-2.9261 		3.4872
v -23.6776 		-2.9324 		3.4872
v -23.6636 		-2.9369 		3.4872
v -23.6492 		-2.9397 		3.4872
v -23.6345 		-2.9406 		3.4872
v -23.6198 		-2.9397 		3.4872
v -23.6054 		-2.9369 		3.4872
v -23.5914 		-2.9324 		3.4872
v -23.5782 		-2.9261 		3.4872
v -23.566 		-2.9182 		3.4872
v -23.5549 		-2.9088 		3.4872
v -23.5452 		-2.8982 		3.4872
v -23.537 		-2.8863 		3.4872
v -23.5305 		-2.8736 		3.4872
v -23.5258 		-2.8602 		3.4872
v -23.5229 		-2.8462 		3.4872
v -23.5219 		-2.832 		3.4872
v -23.5229 		-2.8179 		3.4872
v -23.5258 		-2.8039 		3.4872
v -23.5305 		-2.7905 		3.4872
v -23.537 		-2.7777 		3.4872
v -23.5452 		-2.7659 		3.4872
v -23.5549 		-2.7552 		3.4872
v -23.566 		-2.7459 		3.4872
v -23.5782 		-2.738 		3.4872
v -23.5914 		-2.7317 		3.4872
v -23.6054 		-2.7271 		3.4872
v -23.6198 		-2.7244 		3.4872
v -23.6345 		-2.7234 		3.4872
v -23.6492 		-2.7244 		3.4872
v -23.6636 		-2.7271 		3.4872
v -23.6776 		-2.7317 		3.4872
v -23.6908 		-2.738 		3.4872
v -23.703 		-2.7459 		3.4872
v -23.7141 		-2.7552 		3.4872
v -23.7238 		-2.7659 		3.4872
v -23.732 		-2.7777 		3.4872
v -23.7385 		-2.7905 		3.4872
v -23.7432 		-2.8039 		3.4872
v -23.7461 		-2.8179 		3.4872
v -23.8577 		-2.832 		3.4489
v -23.8558 		-2.8602 		3.4489
v -23.8501 		-2.8878 		3.4489
v -23.8407 		-2.9145 		3.4489
v -23.8278 		-2.9397 		3.4489
v -23.8116 		-2.9631 		3.4489
v -23.7923 		-2.9843 		3.4489
v -23.7704 		-3.0029 		3.4489
v -23.7461 		-3.0185 		3.4489
v -23.7199 		-3.031 		3.4489
v -23.6923 		-3.0401 		3.4489
v -23.6636 		-3.0455 		3.4489
v -23.6345 		-3.0474 		3.4489
v -23.6054 		-3.0455 		3.4489
v -23.5767 		-3.0401 		3.4489
v -23.5491 		-3.031 		3.4489
v -23.5229 		-3.0185 		3.4489
v -23.4986 		-3.0029 		3.4489
v -23.4767 		-2.9843 		3.4489
v -23.4574 		-2.9631 		3.4489
v -23.4412 		-2.9397 		3.4489
v -23.4283 		-2.9145 		3.4489
v -23.4189 		-2.8878 		3.4489
v -23.4132 		-2.8602 		3.4489
v -23.4113 		-2.832 		3.4489
v -23.4132 		-2.8039 		3.4489
v -23.4189 		-2.7763 		3.4489
v -23.4283 		-2.7496 		3.4489
v -23.4412 		-2.7244 		3.4489
v -23.4574 		-2.7009 		3.4489
v -23.4767 		-2.6798 		3.4489
v -23.4986 		-2.6612 		3.4489
v -23.5229 		-2.6455 		3.4489
v -23.5491 		-2.6331 		3.4489
v -23.5767 		-2.624 		3.4489
v -23.6054 		-2.6185 		3.4489
v -23.6345 		-2.6167 		3.4489
v -23.6636 		-2.6185 		3.4489
v -23.6923 		-2.624 		3.4489
v -23.7199 		-2.6331 		3.4489
v -23.7461 		-2.6455 		3.4489
v -23.7704 		-2.6612 		3.4489
v -23.7923 		-2.6798 		3.4489
v -23.8116 		-2.7009 		3.4489
v -23.8278 		-2.7244 		3.4489
v -23.8407 		-2.7496 		3.4489
v -23.8501 		-2.7763 		3.4489
v -23.8558 		-2.8039 		3.4489
v -23.9646 		-2.832 		3.3858
v -23.9617 		-2.8736 		3.3858
v -23.9533 		-2.9145 		3.3858
v -23.9394 		-2.9539 		3.3858
v -23.9203 		-2.9912 		3.3858
v -23.8964 		-3.0259 		3.3858
v -23.8679 		-3.0572 		3.3858
v -23.8354 		-3.0847 		3.3858
v -23.7995 		-3.1078 		3.3858
v -23.7608 		-3.1262 		3.3858
v -23.7199 		-3.1396 		3.3858
v -23.6776 		-3.1477 		3.3858
v -23.6345 		-3.1505 		3.3858
v -23.5914 		-3.1477 		3.3858
v -23.5491 		-3.1396 		3.3858
v -23.5082 		-3.1262 		3.3858
v -23.4695 		-3.1078 		3.3858
v -23.4336 		-3.0847 		3.3858
v -23.4011 		-3.0572 		3.3858
v -23.3726 		-3.0259 		3.3858
v -23.3487 		-2.9912 		3.3858
v -23.3296 		-2.9539 		3.3858
v -23.3157 		-2.9145 		3.3858
v -23.3073 		-2.8736 		3.3858
v -23.3044 		-2.832 		3.3858
v -23.3073 		-2.7905 		3.3858
v -23.3157 		-2.7496 		3.3858
v -23.3296 		-2.7102 		3.3858
v -23.3487 		-2.6728 		3.3858
v -23.3726 		-2.6382 		3.3858
v -23.4011 		-2.6069 		3.3858
v -23.4336 		-2.5794 		3.3858
v -23.4695 		-2.5563 		3.3858
v -23.5082 		-2.5379 		3.3858
v -23.5491 		-2.5245 		3.3858
v -23.5914 		-2.5164 		3.3858
v -23.6345 		-2.5136 		3.3858
v -23.6776 		-2.5164 		3.3858
v -23.7199 		-2.5245 		3.3858
v -23.7608 		-2.5379 		3.3858
v -23.7995 		-2.5563 		3.3858
v -23.8354 		-2.5794 		3.3858
v -23.8679 		-2.6069 		3.3858
v -23.8964 		-2.6382 		3.3858
v -23.9203 		-2.6728 		3.3858
v -23.9394 		-2.7102 		3.3858
v -23.9533 		-2.7496 		3.3858
v -23.9617 		-2.7905 		3.3858
v -24.0657 		-2.832 		3.299
v -24.0621 		-2.8863 		3.299
v -24.0511 		-2.9397 		3.299
v -24.0329 		-2.9912 		3.299
v -24.008 		-3.0401 		3.299
v -23.9766 		-3.0853 		3.299
v -23.9394 		-3.1262 		3.299
v -23.897 		-3.1621 		3.299
v -23.8501 		-3.1923 		3.299
v -23.7995 		-3.2164 		3.299
v -23.7461 		-3.2339 		3.299
v -23.6908 		-3.2445 		3.299
v -23.6345 		-3.2481 		3.299
v -23.5782 		-3.2445 		3.299
v -23.5229 		-3.2339 		3.299
v -23.4695 		-3.2164 		3.299
v -23.4189 		-3.1923 		3.299
v -23.372 		-3.1621 		3.299
v -23.3296 		-3.1262 		3.299
v -23.2924 		-3.0853 		3.299
v -23.261 		-3.0401 		3.299
v -23.2361 		-2.9912 		3.299
v -23.2179 		-2.9397 		3.299
v -23.2069 		-2.8863 		3.299
v -23.2033 		-2.832 		3.299
v -23.2069 		-2.7777 		3.299
v -23.2179 		-2.7244 		3.299
v -23.2361 		-2.6728 		3.299
v -23.261 		-2.624 		3.299
v -23.2924 		-2.5788 		3.299
v -23.3296 		-2.5379 		3.299
v -23.372 		-2.502 		3.299
v -23.4189 		-2.4718 		3.299
v -23.4695 		-2.4477 		3.299
v -23.5229 		-2.4302 		3.299
v -23.5782 		-2.4196 		3.299
v -23.6345 		-2.416 		3.299
v -23.6908 		-2.4196 		3.299
v -23.7461 		-2.4302 		3.299
v -23.7995 		-2.4477 		3.299
v -23.8501 		-2.4718 		3.299
v -23.897 		-2.502 		3.299
v -23.9394 		-2.5379 		3.299
v -23.9766 		-2.5788 		3.299
v -24.008 		-2.624 		3.299
v -24.0329 		-2.6728 		3.299
v -24.0511 		-2.7244 		3.299
v -24.0621 		-2.7777 		3.299
v -24.1596 		-2.832 		3.19
v -24.1551 		-2.8982 		3.19
v -24.1417 		-2.9631 		3.19
v -24.1196 		-3.0259 		3.19
v -24.0892 		-3.0853 		3.19
v -24.0511 		-3.1404 		3.19
v -24.0058 		-3.1902 		3.19
v -23.9541 		-3.2339 		3.19
v -23.897 		-3.2707 		3.19
v -23.8354 		-3.3 		3.19
v -23.7704 		-3.3213 		3.19
v -23.703 		-3.3342 		3.19
v -23.6345 		-3.3386 		3.19
v -23.566 		-3.3342 		3.19
v -23.4986 		-3.3213 		3.19
v -23.4336 		-3.3 		3.19
v -23.372 		-3.2707 		3.19
v -23.3149 		-3.2339 		3.19
v -23.2632 		-3.1902 		3.19
v -23.2179 		-3.1404 		3.19
v -23.1798 		-3.0853 		3.19
v -23.1494 		-3.0259 		3.19
v -23.1273 		-2.9631 		3.19
v -23.1139 		-2.8982 		3.19
v -23.1094 		-2.832 		3.19
v -23.1139 		-2.7659 		3.19
v -23.1273 		-2.7009 		3.19
v -23.1494 		-2.6382 		3.19
v -23.1798 		-2.5788 		3.19
v -23.2179 		-2.5237 		3.19
v -23.2632 		-2.4739 		3.19
v -23.3149 		-2.4302 		3.19
v -23.372 		-2.3934 		3.19
v -23.4336 		-2.3641 		3.19
v -23.4986 		-2.3428 		3.19
v -23.566 		-2.3299 		3.19
v -23.6345 		-2.3255 		3.19
v -23.703 		-2.3299 		3.19
v -23.7704 		-2.3428 		3.19
v -23.8354 		-2.3641 		3.19
v -23.897 		-2.3934 		3.19
v -23.9541 		-2.4302 		3.19
v -24.0058 		-2.4739 		3.19
v -24.0511 		-2.5237 		3.19
v -24.0892 		-2.5788 		3.19
v -24.1196 		-2.6382 		3.19
v -24.1417 		-2.7009 		3.19
v -24.1551 		-2.7659 		3.19
v -24.2444 		-2.832 		3.0607
v -24.2392 		-2.9088 		3.0607
v -24.2236 		-2.9843 		3.0607
v -24.198 		-3.0572 		3.0607
v -24.1627 		-3.1262 		3.0607
v -24.1184 		-3.1902 		3.0607
v -24.0657 		-3.2481 		3.0607
v -24.0058 		-3.2988 		3.0607
v -23.9394 		-3.3416 		3.0607
v -23.8679 		-3.3756 		3.0607
v -23.7923 		-3.4003 		3.0607
v -23.7141 		-3.4154 		3.0607
v -23.6345 		-3.4204 		3.0607
v -23.5549 		-3.4154 		3.0607
v -23.4767 		-3.4003 		3.0607
v -23.4011 		-3.3756 		3.0607
v -23.3296 		-3.3416 		3.0607
v -23.2632 		-3.2988 		3.0607
v -23.2033 		-3.2481 		3.0607
v -23.1506 		-3.1902 		3.0607
v -23.1063 		-3.1262 		3.0607
v -23.071 		-3.0572 		3.0607
v -23.0454 		-2.9843 		3.0607
v -23.0298 		-2.9088 		3.0607
v -23.0246 		-2.832 		3.0607
v -23.0298 		-2.7552 		3.0607
v -23.0454 		-2.6798 		3.0607
v -23.071 		-2.6069 		3.0607
v -23.1063 		-2.5379 		3.0607
v -23.1506 		-2.4739 		3.0607
v -23.2033 		-2.416 		3.0607
v -23.2632 		-2.3653 		3.0607
v -23.3296 		-2.3225 		3.0607
v -23.4011 		-2.2885 		3.0607
v -23.4767 		-2.2637 		3.0607
v -23.5549 		-2.2487 		3.0607
v -23.6345 		-2.2437 		3.0607
v -23.7141 		-2.2487 		3.0607
v -23.7923 		-2.2637 		3.0607
v -23.8679 		-2.2885 		3.0607
v -23.9394 		-2.3225 		3.0607
v -24.0058 		-2.3653 		3.0607
v -24.0657 		-2.416 		3.0607
v -24.1184 		-2.4739 		3.0607
v -24.1627 		-2.5379 		3.0607
v -24.198 		-2.6069 		3.0607
v -24.2236 		-2.6798 		3.0607
v -24.2392 		-2.7552 		3.0607
v -24.3188 		-2.832 		2.9131
v -24.3129 		-2.9182 		2.9131
v -24.2955 		-3.0029 		2.9131
v -24.2667 		-3.0847 		2.9131
v -24.2271 		-3.1621 		2.9131
v -24.1774 		-3.2339 		2.9131
v -24.1184 		-3.2988 		2.9131
v -24.0511 		-3.3557 		2.9131
v -23.9766 		-3.4037 		2.9131
v -23.8964 		-3.4419 		2.9131
v -23.8116 		-3.4697 		2.9131
v -23.7238 		-3.4865 		2.9131
v -23.6345 		-3.4921 		2.9131
v -23.5452 		-3.4865 		2.9131
v -23.4574 		-3.4697 		2.9131
v -23.3726 		-3.4419 		2.9131
v -23.2924 		-3.4037 		2.9131
v -23.2179 		-3.3557 		2.9131
v -23.1506 		-3.2988 		2.9131
v -23.0916 		-3.2339 		2.9131
v -23.0419 		-3.1621 		2.9131
v -23.0023 		-3.0847 		2.9131
v -22.9735 		-3.0029 		2.9131
v -22.9561 		-2.9182 		2.9131
v -22.9502 		-2.832 		2.9131
v -22.9561 		-2.7459 		2.9131
v -22.9735 		-2.6612 		2.9131
v -23.0023 		-2.5794 		2.9131
v -23.0419 		-2.502 		2.9131
v -23.0916 		-2.4302 		2.9131
v -23.1506 		-2.3653 		2.9131
v -23.2179 		-2.3083 		2.9131
v -23.2924 		-2.2604 		2.9131
v -23.3726 		-2.2222 		2.9131
v -23.4574 		-2.1944 		2.9131
v -23.5452 		-2.1776 		2.9131
v -23.6345 		-2.1719 		2.9131
v -23.7238 		-2.1776 		2.9131
v -23.8116 		-2.1944 		2.9131
v -23.8964 		-2.2222 		2.9131
v -23.9766 		-2.2604 		2.9131
v -24.0511 		-2.3083 		2.9131
v -24.1184 		-2.3653 		2.9131
v -24.1774 		-2.4302 		2.9131
v -24.2271 		-2.502 		2.9131
v -24.2667 		-2.5794 		2.9131
v -24.2955 		-2.6612 		2.9131
v -24.3129 		-2.7459 		2.9131
v -24.3814 		-2.832 		2.75
v -24.3751 		-2.9261 		2.75
v -24.356 		-3.0185 		2.75
v -24.3246 		-3.1078 		2.75
v -24.2814 		-3.1923 		2.75
v -24.2271 		-3.2707 		2.75
v -24.1627 		-3.3416 		2.75
v -24.0892 		-3.4037 		2.75
v -24.008 		-3.4561 		2.75
v -23.9203 		-3.4978 		2.75
v -23.8278 		-3.5281 		2.75
v -23.732 		-3.5464 		2.75
v -23.6345 		-3.5526 		2.75
v -23.537 		-3.5464 		2.75
v -23.4412 		-3.5281 		2.75
v -23.3487 		-3.4978 		2.75
v -23.261 		-3.4561 		2.75
v -23.1798 		-3.4037 		2.75
v -23.1063 		-3.3416 		2.75
v -23.0419 		-3.2707 		2.75
v -22.9876 		-3.1923 		2.75
v -22.9444 		-3.1078 		2.75
v -22.913 		-3.0185 		2.75
v -22.8939 		-2.9261 		2.75
v -22.8876 		-2.832 		2.75
v -22.8939 		-2.738 		2.75
v -22.913 		-2.6455 		2.75
v -22.9444 		-2.5563 		2.75
v -22.9876 		-2.4718 		2.75
v -23.0419 		-2.3934 		2.75
v -23.1063 		-2.3225 		2.75
v -23.1798 		-2.2604 		2.75
v -23.261 		-2.208 		2.75
v -23.3487 		-2.1663 		2.75
v -23.4412 		-2.136 		2.75
v -23.537 		-2.1176 		2.75
v -23.6345 		-2.1115 		2.75
v -23.732 		-2.1176 		2.75
v -23.8278 		-2.136 		2.75
v -23.9203 		-2.1663 		2.75
v -24.008 		-2.208 		2.75
v -24.0892 		-2.2604 		2.75
v -24.1627 		-2.3225 		2.75
v -24.2271 		-2.3934 		2.75
v -24.2814 		-2.4718 		2.75
v -24.3246 		-2.5563 		2.75
v -24.356 		-2.6455 		2.75
v -24.3751 		-2.738 		2.75
v -24.4313 		-2.832 		2.574
v -24.4245 		-2.9324 		2.574
v -24.4042 		-3.031 		2.574
v -24.3707 		-3.1262 		2.574
v -24.3246 		-3.2164 		2.574
v -24.2667 		-3.3 		2.574
v -24.198 		-3.3756 		2.574
v -24.1196 		-3.4419 		2.574
v -24.0329 		-3.4978 		2.574
v -23.9394 		-3.5422 		2.574
v -23.8407 		-3.5746 		2.574
v -23.7385 		-3.5942 		2.574
v -23.6345 		-3.6008 		2.574
v -23.5305 		-3.5942 		2.574
v -23.4283 		-3.5746 		2.574
v -23.3296 		-3.5422 		2.574
v -23.2361 		-3.4978 		2.574
v -23.1494 		-3.4419 		2.574
v -23.071 		-3.3756 		2.574
v -23.0023 		-3.3 		2.574
v -22.9444 		-3.2164 		2.574
v -22.8983 		-3.1262 		2.574
v -22.8648 		-3.031 		2.574
v -22.8445 		-2.9324 		2.574
v -22.8377 		-2.832 		2.574
v -22.8445 		-2.7317 		2.574
v -22.8648 		-2.6331 		2.574
v -22.8983 		-2.5379 		2.574
v -22.9444 		-2.4477 		2.574
v -23.0023 		-2.3641 		2.574
v -23.071 		-2.2885 		2.574
v -23.1494 		-2.2222 		2.574
v -23.2361 		-2.1663 		2.574
v -23.3296 		-2.1218 		2.574
v -23.4283 		-2.0895 		2.574
v -23.5305 		-2.0699 		2.574
v -23.6345 		-2.0633 		2.574
v -23.7385 		-2.0699 		2.574
v -23.8407 		-2.0895 		2.574
v -23.9394 		-2.1218 		2.574
v -24.0329 		-2.1663 		2.574
v -24.1196 		-2.2222 		2.574
v -24.198 		-2.2885 		2.574
v -24.2667 		-2.3641 		2.574
v -24.3246 		-2.4477 		2.574
v -24.3707 		-2.5379 		2.574
v -24.4042 		-2.6331 		2.574
v -24.4245 		-2.7317 		2.574
v -24.4676 		-2.832 		2.3882
v -24.4605 		-2.9369 		2.3882
v -24.4392 		-3.0401 		2.3882
v -24.4042 		-3.1396 		2.3882
v -24.356 		-3.2339 		2.3882
v -24.2955 		-3.3213 		2.3882
v -24.2236 		-3.4003 		2.3882
v -24.1417 		-3.4697 		2.3882
v -24.0511 		-3.5281 		2.3882
v -23.9533 		-3.5746 		2.3882
v -23.8501 		-3.6084 		2.3882
v -23.7432 		-3.6289 		2.3882
v -23.6345 		-3.6357 		2.3882
v -23.5258 		-3.6289 		2.3882
v -23.4189 		-3.6084 		2.3882
v -23.3157 		-3.5746 		2.3882
v -23.2179 		-3.5281 		2.3882
v -23.1273 		-3.4697 		2.3882
v -23.0454 		-3.4003 		2.3882
v -22.9735 		-3.3213 		2.3882
v -22.913 		-3.2339 		2.3882
v -22.8648 		-3.1396 		2.3882
v -22.8298 		-3.0401 		2.3882
v -22.8085 		-2.9369 		2.3882
v -22.8014 		-2.832 		2.3882
v -22.8085 		-2.7271 		2.3882
v -22.8298 		-2.624 		2.3882
v -22.8648 		-2.5245 		2.3882
v -22.913 		-2.4302 		2.3882
v -22.9735 		-2.3428 		2.3882
v -23.0454 		-2.2637 		2.3882
v -23.1273 		-2.1944 		2.3882
v -23.2179 		-2.136 		2.3882
v -23.3157 		-2.0895 		2.3882
v -23.4189 		-2.0557 		2.3882
v -23.5258 		-2.0352 		2.3882
v -23.6345 		-2.0284 		2.3882
v -23.7432 		-2.0352 		2.3882
v -23.8501 		-2.0557 		2.3882
v -23.9533 		-2.0895 		2.3882
v -24.0511 		-2.136 		2.3882
v -24.1417 		-2.1944 		2.3882
v -24.2236 		-2.2637 		2.3882
v -24.2955 		-2.3428 		2.3882
v -24.356 		-2.4302 		2.3882
v -24.4042 		-2.5245 		2.3882
v -24.4392 		-2.624 		2.3882
v -24.4605 		-2.7271 		2.3882
v -24.4896 		-2.832 		2.1958
v -24.4823 		-2.9397 		2.1958
v -24.4605 		-3.0455 		2.1958
v -24.4245 		-3.1477 		2.1958
v -24.3751 		-3.2445 		2.1958
v -24.3129 		-3.3342 		2.1958
v -24.2392 		-3.4154 		2.1958
v -24.1551 		-3.4865 		2.1958
v -24.0621 		-3.5464 		2.1958
v -23.9617 		-3.5942 		2.1958
v -23.8558 		-3.6289 		2.1958
v -23.7461 		-3.6499 		2.1958
v -23.6345 		-3.657 		2.1958
v -23.5229 		-3.6499 		2.1958
v -23.4132 		-3.6289 		2.1958
v -23.3073 		-3.5942 		2.1958
v -23.2069 		-3.5464 		2.1958
v -23.1139 		-3.4865 		2.1958
v -23.0298 		-3.4154 		2.1958
v -22.9561 		-3.3342 		2.1958
v -22.8939 		-3.2445 		2.1958
v -22.8445 		-3.1477 		2.1958
v -22.8085 		-3.0455 		2.1958
v -22.7867 		-2.9397 		2.1958
v -22.7794 		-2.832 		2.1958
v -22.7867 		-2.7244 		2.1958
v -22.8085 		-2.6185 		2.1958
v -22.8445 		-2.5164 		2.1958
v -22.8939 		-2.4196 		2.1958
v -22.9561 		-2.3299 		2.1958
v -23.0298 		-2.2487 		2.1958
v -23.1139 		-2.1776 		2.1958
v -23.2069 		-2.1176 		2.1958
v -23.3073 		-2.0699 		2.1958
v -23.4132 		-2.0352 		2.1958
v -23.5229 		-2.0142 		2.1958
v -23.6345 		-2.0071 		2.1958
v -23.7461 		-2.0142 		2.1958
v -23.8558 		-2.0352 		2.1958
v -23.9617 		-2.0699 		2.1958
v -24.0621 		-2.1176 		2.1958
v -24.1551 		-2.1776 		2.1958
v -24.2392 		-2.2487 		2.1958
v -24.3129 		-2.3299 		2.1958
v -24.3751 		-2.4196 		2.1958
v -24.4245 		-2.5164 		2.1958
v -24.4605 		-2.6185 		2.1958
v -24.4823 		-2.7244 		2.1958
v -24.497 		-2.832 		2
v -24.4896 		-2.9406 		2
v -24.4676 		-3.0474 		2
v -24.4313 		-3.1505 		2
v -24.3814 		-3.2481 		2
v -24.3188 		-3.3386 		2
v -24.2444 		-3.4204 		2
v -24.1596 		-3.4921 		2
v -24.0657 		-3.5526 		2
v -23.9646 		-3.6008 		2
v -23.8577 		-3.6357 		2
v -23.7471 		-3.657 		2
v -23.6345 		-3.6641 		2
v -23.5219 		-3.657 		2
v -23.4113 		-3.6357 		2
v -23.3044 		-3.6008 		2
v -23.2033 		-3.5526 		2
v -23.1094 		-3.4921 		2
v -23.0246 		-3.4204 		2
v -22.9502 		-3.3386 		2
v -22.8876 		-3.2481 		2
v -22.8377 		-3.1505 		2
v -22.8014 		-3.0474 		2
v -22.7794 		-2.9406 		2
v -22.772 		-2.832 		2
v -22.7794 		-2.7234 		2
v -22.8014 		-2.6167 		2
v -22.8377 		-2.5136 		2
v -22.8876 		-2.416 		2
v -22.9502 		-2.3255 		2
v -23.0246 		-2.2437 		2
v -23.1094 		-2.1719 		2
v -23.2033 		-2.1115 		2
v -23.3044 		-2.0633 		2
v -23.4113 		-2.0284 		2
v -23.5219 		-2.0071 		2
v -23.6345 		-2 		2
v -23.7471 		-2.0071 		2
v -23.8577 		-2.0284 		2
v -23.9646 		-2.0633 		2
v -24.0657 		-2.1115 		2
v -24.1596 		-2.1719 		2
v -24.2444 		-2.2437 		2
v -24.3188 		-2.3255 		2
v -24.3814 		-2.416 		2
v -24.4313 		-2.5136 		2
v -24.4676 		-2.6167 		2
v -24.4896 		-2.7234 		2
v -24.4896 		-2.832 		1.8042
v -24.4823 		-2.9397 		1.8042
v -24.4605 		-3.0455 		1.8042
v -24.4245 		-3.1477 		1.8042
v -24.3751 		-3.2445 		1.8042
v -24.3129 		-3.3342 		1.8042
v -24.2392 		-3.4154 		1.8042
v -24.1551 		-3.4865 		1.8042
v -24.0621 		-3.5464 		1.8042
v -23.9617 		-3.5942 		1.8042
v -23.8558 		-3.6289 		1.8042
v -23.7461 		-3.6499 		1.8042
v -23.6345 		-3.657 		1.8042
v -23.5229 		-3.6499 		1.8042
v -23.4132 		-3.6289 		1.8042
v -23.3073 		-3.5942 		1.8042
v -23.2069 		-3.5464 		1.8042
v -23.1139 		-3.4865 		1.8042
v -23.0298 		-3.4154 		1.8042
v -22.9561 		-3.3342 		1.8042
v -22.8939 		-3.2445 		1.8042
v -22.8445 		-3.1477 		1.8042
v -22.8085 		-3.0455 		1.8042
v -22.7867 		-2.9397 		1.8042
v -22.7794 		-2.832 		1.8042
v -22.7867 		-2.7244 		1.8042
v -22.8085 		-2.6185 		1.8042
v -22.8445 		-2.5164 		1.8042
v -22.8939 		-2.4196 		1.8042
v -22.9561 		-2.3299 		1.8042
v -23.0298 		-2.2487 		1.8042
v -23.1139 		-2.1776 		1.8042
v -23.2069 		-2.1176 		1.8042
v -23.3073 		-2.0699 		1.8042
v -23.4132 		-2.0352 		1.8042
v -23.5229 		-2.0142 		1.8042
v -23.6345 		-2.0071 		1.8042
v -23.7461 		-2.0142 		1.8042
v -23.8558 		-2.0352 		1.8042
v -23.9617 		-2.0699 		1.8042
v -24.0621 		-2.1176 		1.8042
v -24.1551 		-2.1776 		1.8042
v -24.2392 		-2.2487 		1.8042
v -24.3129 		-2.3299 		1.8042
v -24.3751 		-2.4196 		1.8042
v -24.4245 		-2.5164 		1.8042
v -24.4605 		-2.6185 		1.8042
v -24.4823 		-2.7244 		1.8042
v -24.4676 		-2.832 		1.6118
v -24.4605 		-2.9369 		1.6118
v -24.4392 		-3.0401 		1.6118
v -24.4042 		-3.1396 		1.6118
v -24.356 		-3.2339 		1.6118
v -24.2955 		-3.3213 		1.6118
v -24.2236 		-3.4003 		1.6118
v -24.1417 		-3.4697 		1.6118
v -24.0511 		-3.5281 		1.6118
v -23.9533 		-3.5746 		1.6118
v -23.8501 		-3.6084 		1.6118
v -23.7432 		-3.6289 		1.6118
v -23.6345 		-3.6357 		1.6118
v -23.5258 		-3.6289 		1.6118
v -23.4189 		-3.6084 		1.6118
v -23.3157 		-3.5746 		1.6118
v -23.2179 		-3.5281 		1.6118
v -23.1273 		-3.4697 		1.6118
v -23.0454 		-3.4003 		1.6118
v -22.9735 		-3.3213 		1.6118
v -22.913 		-3.2339 		1.6118
v -22.8648 		-3.1396 		1.6118
v -22.8298 		-3.0401 		1.6118
v -22.8085 		-2.9369 		1.6118
v -22.8014 		-2.832 		1.6118
v -22.8085 		-2.7271 		1.6118
v -22.8298 		-2.624 		1.6118
v -22.8648 		-2.5245 		1.6118
v -22.913 		-2.4302 		1.6118
v -22.9735 		-2.3428 		1.6118
v -23.0454 		-2.2637 		1.6118
v -23.1273 		-2.1944 		1.6118
v -23.2179 		-2.136 		1.6118
v -23.3157 		-2.0895 		1.6118
v -23.4189 		-2.0557 		1.6118
v -23.5258 		-2.0352 		1.6118
v -23.6345 		-2.0284 		1.6118
v -23.7432 		-2.0352 		1.6118
v -23.8501 		-2.0557 		1.6118
v -23.9533 		-2.0895 		1.6118
v -24.0511 		-2.136 		1.6118
v -24.1417 		-2.1944 		1.6118
v -24.2236 		-2.2637 		1.6118
v -24.2955 		-2.3428 		1.6118
v -24.356 		-2.4302 		1.6118
v -24.4042 		-2.5245 		1.6118
v -24.4392 		-2.624 		1.6118
v -24.4605 		-2.7271 		1.6118
v -24.4313 		-2.832 		1.426
v -24.4245 		-2.9324 		1.426
v -24.4042 		-3.031 		1.426
v -24.3707 		-3.1262 		1.426
v -24.3246 		-3.2164 		1.426
v -24.2667 		-3.3 		1.426
v -24.198 		-3.3756 		1.426
v -24.1196 		-3.4419 		1.426
v -24.0329 		-3.4978 		1.426
v -23.9394 		-3.5422 		1.426
v -23.8407 		-3.5746 		1.426
v -23.7385 		-3.5942 		1.426
v -23.6345 		-3.6008 		1.426
v -23.5305 		-3.5942 		1.426
v -23.4283 		-3.5746 		1.426
v -23.3296 		-3.5422 		1.426
v -23.2361 		-3.4978 		1.426
v -23.1494 		-3.4419 		1.426
v -23.071 		-3.3756 		1.426
v -23.0023 		-3.3 		1.426
v -22.9444 		-3.2164 		1.426
v -22.8983 		-3.1262 		1.426
v -22.8648 		-3.031 		1.426
v -22.8445 		-2.9324 		1.426
v -22.8377 		-2.832 		1.426
v -22.8445 		-2.7317 		1.426
v -22.8648 		-2.6331 		1.426
v -22.8983 		-2.5379 		1.426
v -22.9444 		-2.4477 		1.426
v -23.0023 		-2.3641 		1.426
v -23.071 		-2.2885 		1.426
v -23.1494 		-2.2222 		1.426
v -23.2361 		-2.1663 		1.426
v -23.3296 		-2.1218 		1.426
v -23.4283 		-2.0895 		1.426
v -23.5305 		-2.0699 		1.426
v -23.6345 		-2.0633 		1.426
v -23.7385 		-2.0699 		1.426
v -23.8407 		-2.0895 		1.426
v -23.9394 		-2.1218 		1.426
v -24.0329 		-2.1663 		1.426
v -24.1196 		-2.2222 		1.426
v -24.198 		-2.2885 		1.426
v -24.2667 		-2.3641 		1.426
v -24.3246 		-2.4477 		1.426
v -24.3707 		-2.5379 		1.426
v -24.4042 		-2.6331 		1.426
v -24.4245 		-2.7317 		1.426
v -24.3814 		-2.832 		1.25
v -24.3751 		-2.9261 		1.25
v -24.356 		-3.0185 		1.25
v -24.3246 		-3.1078 		1.25
v -24.2814 		-3.1923 		1.25
v -24.2271 		-3.2707 		1.25
v -24.1627 		-3.3416 		1.25
v -24.0892 		-3.4037 		1.25
v -24.008 		-3.4561 		1.25
v -23.9203 		-3.4978 		1.25
v -23.8278 		-3.5281 		1.25
v -23.732 		-3.5464 		1.25
v -23.6345 		-3.5526 		1.25
v -23.537 		-3.5464 		1.25
v -23.4412 		-3.5281 		1.25
v -23.3487 		-3.4978 		1.25
v -23.261 		-3.4561 		1.25
v -23.1798 		-3.4037 		1.25
v -23.1063 		-3.3416 		1.25
v -23.0419 		-3.2707 		1.25
v -22.9876 		-3.1923 		1.25
v -22.9444 		-3.1078 		1.25
v -22.913 		-3.0185 		1.25
v -22.8939 		-2.9261 		1.25
v -22.8876 		-2.832 		1.25
v -22.8939 		-2.738 		1.25
v -22.913 		-2.6455 		1.25
v -22.9444 		-2.5563 		1.25
v -22.9876 		-2.4718 		1.25
v -23.0419 		-2.3934 		1.25
v -23.1063 		-2.3225 		1.25
v -23.1798 		-2.2604 		1.25
v -23.261 		-2.208 		1.25
v -23.3487 		-2.1663 		1.25
v -23.4412 		-2.136 		1.25
v -23.537 		-2.1176 		1.25
v -23.6345 		-2.1115 		1.25
v -23.732 		-2.1176 		1.25
v -23.8278 		-2.136 		1.25
v -23.9203 		-2.1663 		1.25
v -24.008 		-2.208 		1.25
v -24.0892 		-2.2604 		1.25
v -24.1627 		-2.3225 		1.25
v -24.2271 		-2.3934 		1.25
v -24.2814 		-2.4718 		1.25
v -24.3246 		-2.5563 		1.25
v -24.356 		-2.6455 		1.25
v -24.3751 		-2.738 		1.25
v -24.3188 		-2.832 		1.0869
v -24.3129 		-2.9182 		1.0869
v -24.2955 		-3.0029 		1.0869
v -24.2667 		-3.0847 		1.0869
v -24.2271 		-3.1621 		1.0869
v -24.1774 		-3.2339 		1.0869
v -24.1184 		-3.2988 		1.0869
v -24.0511 		-3.3557 		1.0869
v -23.9766 		-3.4037 		1.0869
v -23.8964 		-3.4419 		1.0869
v -23.8116 		-3.4697 		1.0869
v -23.7238 		-3.4865 		1.0869
v -23.6345 		-3.4921 		1.0869
v -23.5452 		-3.4865 		1.0869
v -23.4574 		-3.4697 		1.0869
v -23.3726 		-3.4419 		1.0869
v -23.2924 		-3.4037 		1.0869
v -23.2179 		-3.3557 		1.0869
v -23.1506 		-3.2988 		1.0869
v -23.0916 		-3.2339 		1.0869
v -23.0419 		-3.1621 		1.0869
v -23.0023 		-3.0847 		1.0869
v -22.9735 		-3.0029 		1.0869
v -22.9561 		-2.9182 		1.0869
v -22.9502 		-2.832 		1.0869
v -22.9561 		-2.7459 		1.0869
v -22.9735 		-2.6612 		1.0869
v -23.0023 		-2.5794 		1.0869
v -23.0419 		-2.502 		1.0869
v -23.0916 		-2.4302 		1.0869
v -23.1506 		-2.3653 		1.0869
v -23.2179 		-2.3083 		1.0869
v -23.2924 		-2.2604 		1.0869
v -23.3726 		-2.2222 		1.0869
v -23.4574 		-2.1944 		1.0869
v -23.5452 		-2.1776 		1.0869
v -23.6345 		-2.1719 		1.0869
v -23.7238 		-2.1776 		1.0869
v -23.8116 		-2.1944 		1.0869
v -23.8964 		-2.2222 		1.0869
v -23.9766 		-2.2604 		1.0869
v -24.0511 		-2.3083 		1.0869
v -24.1184 		-2.3653 		1.0869
v -24.1774 		-2.4302 		1.0869
v -24.2271 		-2.502 		1.0869
v -24.2667 		-2.5794 		1.0869
v -24.2955 		-2.6612 		1.0869
v -24.3129 		-2.7459 		1.0869
v -24.2444 		-2.832 		0.9393
v -24.2392 		-2.9088 		0.9393
v -24.2236 		-2.9843 		0.9393
v -24.198 		-3.0572 		0.9393
v -24.1627 		-3.1262 		0.9393
v -24.1184 		-3.1902 		0.9393
v -24.0657 		-3.2481 		0.9393
v -24.0058 		-3.2988 		0.9393
v -23.9394 		-3.3416 		0.9393
v -23.8679 		-3.3756 		0.9393
v -23.7923 		-3.4003 		0.9393
v -23.7141 		-3.4154 		0.9393
v -23.6345 		-3.4204 		0.9393
v -23.5549 		-3.4154 		0.9393
v -23.4767 		-3.4003 		0.9393
v -23.4011 		-3.3756 		0.9393
v -23.3296 		-3.3416 		0.9393
v -23.2632 		-3.2988 		0.9393
v -23.2033 		-3.2481 		0.9393
v -23.1506 		-3.1902 		0.9393
v -23.1063 		-3.1262 		0.9393
v -23.071 		-3.0572 		0.9393
v -23.0454 		-2.9843 		0.9393
v -23.0298 		-2.9088 		0.9393
v -23.0246 		-2.832 		0.9393
v -23.0298 		-2.7552 		0.9393
v -23.0454 		-2.6798 		0.9393
v -23.071 		-2.6069 		0.9393
v -23.1063 		-2.5379 		0.9393
v -23.1506 		-2.4739 		0.9393
v -23.2033 		-2.416 		0.9393
v -23.2632 		-2.3653 		0.9393
v -23.3296 		-2.3225 		0.9393
v -23.4011 		-2.2885 		0.9393
v -23.4767 		-2.2637 		0.9393
v -23.5549 		-2.2487 		0.9393
v -23.6345 		-2.2437 		0.9393
v -23.7141 		-2.2487 		0.9393
v -23.7923 		-2.2637 		0.9393
v -23.8679 		-2.2885 		0.9393
v -23.9394 		-2.3225 		0.9393
v -24.0058 		-2.3653 		0.9393
v -24.0657 		-2.416 		0.9393
v -24.1184 		-2.4739 		0.9393
v -24.1627 		-2.5379 		0.9393
v -24.198 		-2.6069 		0.9393
v -24.2236 		-2.6798 		0.9393
v -24.2392 		-2.7552 		0.9393
v -24.1596 		-2.832 		0.81
v -24.1551 		-2.8982 		0.81
v -24.1417 		-2.9631 		0.81
v -24.1196 		-3.0259 		0.81
v -24.0892 		-3.0853 		0.81
v -24.0511 		-3.1404 		0.81
v -24.0058 		-3.1902 		0.81
v -23.9541 		-3.2339 		0.81
v -23.897 		-3.2707 		0.81
v -23.8354 		-3.3 		0.81
v -23.7704 		-3.3213 		0.81
v -23.703 		-3.3342 		0.81
v -23.6345 		-3.3386 		0.81
v -23.566 		-3.3342 		0.81
v -23.4986 		-3.3213 		0.81
v -23.4336 		-3.3 		0.81
v -23.372 		-3.2707 		0.81
v -23.3149 		-3.2339 		0.81
v -23.2632 		-3.1902 		0.81
v -23.2179 		-3.1404 		0.81
v -23.1798 		-3.0853 		0.81
v -23.1494 		-3.0259 		0.81
v -23.1273 		-2.9631 		0.81
v -23.1139 		-2.8982 		0.81
v -23.1094 		-2.832 		0.81
v -23.1139 		-2.7659 		0.81
v -23.1273 		-2.7009 		0.81
v -23.1494 		-2.6382 		0.81
v -23.1798 		-2.5788 		0.81
v -23.2179 		-2.5237 		0.81
v -23.2632 		-2.4739 		0.81
v -23.3149 		-2.4302 		0.81
v -23.372 		-2.3934 		0.81
v -23.4336 		-2.3641 		0.81
v -23.4986 		-2.3428 		0.81
v -23.566 		-2.3299 		0.81
v -23.6345 		-2.3255 		0.81
v -23.703 		-2.3299 		0.81
v -23.7704 		-2.3428 		0.81
v -23.8354 		-2.3641 		0.81
v -23.897 		-2.3934 		0.81
v -23.9541 		-2.4302 		0.81
v -24.0058 		-2.4739 		0.81
v -24.0511 		-2.5237 		0.81
v -24.0892 		-2.5788 		0.81
v -24.1196 		-2.6382 		0.81
v -24.1417 		-2.7009 		0.81
v -24.1551 		-2.7659 		0.81
v -24.0657 		-2.832 		0.701
v -24.0621 		-2.8863 		0.701
v -24.0511 		-2.9397 		0.701
v -24.0329 		-2.9912 		0.701
v -24.008 		-3.0401 		0.701
v -23.9766 		-3.0853 		0.701
v -23.9394 		-3.1262 		0.701
v -23.897 		-3.1621 		0.701
v -23.8501 		-3.1923 		0.701
v -23.7995 		-3.2164 		0.701
v -23.7461 		-3.2339 		0.701
v -23.6908 		-3.2445 		0.701
v -23.6345 		-3.2481 		0.701
v -23.5782 		-3.2445 		0.701
v -23.5229 		-3.2339 		0.701
v -23.4695 		-3.2164 		0.701
v -23.4189 		-3.1923 		0.701
v -23.372 		-3.1621 		0.701
v -23.3296 		-3.1262 		0.701
v -23.2924 		-3.0853 		0.701
v -23.261 		-3.0401 		0.701
v -23.2361 		-2.9912 		0.701
v -23.2179 		-2.9397 		0.701
v -23.2069 		-2.8863 		0.701
v -23.2033 		-2.832 		0.701
v -23.2069 		-2.7777 		0.701
v -23.2179 		-2.7244 		0.701
v -23.2361 		-2.6728 		0.701
v -23.261 		-2.624 		0.701
v -23.2924 		-2.5788 		0.701
v -23.3296 		-2.5379 		0.701
v -23.372 		-2.502 		0.701
v -23.4189 		-2.4718 		0.701
v -23.4695 		-2.4477 		0.701
v -23.5229 		-2.4302 		0.701
v -23.5782 		-2.4196 		0.701
v -23.6345 		-2.416 		0.701
v -23.6908 		-2.4196 		0.701
v -23.7461 		-2.4302 		0.701
v -23.7995 		-2.4477 		0.701
v -23.8501 		-2.4718 		0.701
v -23.897 		-2.502 		0.701
v -23.9394 		-2.5379 		0.701
v -23.9766 		-2.5788 		0.701
v -24.008 		-2.624 		0.701
v -24.0329 		-2.6728 		0.701
v -24.0511 		-2.7244 		0.701
v -24.0621 		-2.7777 		0.701
v -23.9646 		-2.832 		0.6142
v -23.9617 		-2.8736 		0.6142
v -23.9533 		-2.9145 		0.6142
v -23.9394 		-2.9539 		0.6142
v -23.9203 		-2.9912 		0.6142
v -23.8964 		-3.0259 		0.6142
v -23.8679 		-3.0572 		0.6142
v -23.8354 		-3.0847 		0.6142
v -23.7995 		-3.1078 		0.6142
v -23.7608 		-3.1262 		0.6142
v -23.7199 		-3.1396 		0.6142
v -23.6776 		-3.1477 		0.6142
v -23.6345 		-3.1505 		0.6142
v -23.5914 		-3.1477 		0.6142
v -23.5491 		-3.1396 		0.6142
v -23.5082 		-3.1262 		0.6142
v -23.4695 		-3.1078 		0.6142
v -23.4336 		-3.0847 		0.6142
v -23.4011 		-3.0572 		0.6142
v -23.3726 		-3.0259 		0.6142
v -23.3487 		-2.9912 		0.6142
v -23.3296 		-2.9539 		0.6142
v -23.3157 		-2.9145 		0.6142
v -23.3073 		-2.8736 		0.6142
v -23.3044 		-2.832 		0.6142
v -23.3073 		-2.7905 		0.6142
v -23.3157 		-2.7496 		0.6142
v -23.3296 		-2.7102 		0.6142
v -23.3487 		-2.6728 		0.6142
v -23.3726 		-2.6382 		0.6142
v -23.4011 		-2.6069 		0.6142
v -23.4336 		-2.5794 		0.6142
v -23.4695 		-2.5563 		0.6142
v -23.5082 		-2.5379 		0.6142
v -23.5491 		-2.5245 		0.6142
v -23.5914 		-2.5164 		0.6142
v -23.6345 		-2.5136 		0.6142
v -23.6776 		-2.5164 		0.6142
v -23.7199 		-2.5245 		0.6142
v -23.7608 		-2.5379 		0.6142
v -23.7995 		-2.5563 		0.6142
v -23.8354 		-2.5794 		0.6142
v -23.8679 		-2.6069 		0.6142
v -23.8964 		-2.6382 		0.6142
v -23.9203 		-2.6728 		0.6142
v -23.9394 		-2.7102 		0.6142
v -23.9533 		-2.7496 		0.6142
v -23.9617 		-2.7905 		0.6142
v -23.8577 		-2.832 		0.5511
v -23.8558 		-2.8602 		0.5511
v -23.8501 		-2.8878 		0.5511
v -23.8407 		-2.9145 		0.5511
v -23.8278 		-2.9397 		0.5511
v -23.8116 		-2.9631 		0.5511
v -23.7923 		-2.9843 		0.5511
v -23.7704 		-3.0029 		0.5511
v -23.7461 		-3.0185 		0.5511
v -23.7199 		-3.031 		0.5511
v -23.6923 		-3.0401 		0.5511
v -23.6636 		-3.0455 		0.5511
v -23.6345 		-3.0474 		0.5511
v -23.6054 		-3.0455 		0.5511
v -23.5767 		-3.0401 		0.5511
v -23.5491 		-3.031 		0.5511
v -23.5229 		-3.0185 		0.5511
v -23.4986 		-3.0029 		0.5511
v -23.4767 		-2.9843 		0.5511
v -23.4574 		-2.9631 		0.5511
v -23.4412 		-2.9397 		0.5511
v -23.4283 		-2.9145 		0.5511
v -23.4189 		-2.8878 		0.5511
v -23.4132 		-2.8602 		0.5511
v -23.4113 		-2.832 		0.5511
v -23.4132 		-2.8039 		0.5511
v -23.4189 		-2.7763 		0.5511
v -23.4283 		-2.7496 		0.5511
v -23.4412 		-2.7244 		0.5511
v -23.4574 		-2.7009 		0.5511
v -23.4767 		-2.6798 		0.5511
v -23.4986 		-2.6612 		0.5511
v -23.5229 		-2.6455 		0.5511
v -23.5491 		-2.6331 		0.5511
v -23.5767 		-2.624 		0.5511
v -23.6054 		-2.6185 		0.5511
v -23.6345 		-2.6167 		0.5511
v -23.6636 		-2.6185 		0.5511
v -23.6923 		-2.624 		0.5511
v -23.7199 		-2.6331 		0.5511
v -23.7461 		-2.6455 		0.5511
v -23.7704 		-2.6612 		0.5511
v -23.7923 		-2.6798 		0.5511
v -23.8116 		-2.7009 		0.5511
v -23.8278 		-2.7244 		0.5511
v -23.8407 		-2.7496 		0.5511
v -23.8501 		-2.7763 		0.5511
v -23.8558 		-2.8039 		0.5511
v -23.7471 		-2.832 		0.5128
v -23.7461 		-2.8462 		0.5128
v -23.7432 		-2.8602 		0.5128
v -23.7385 		-2.8736 		0.5128
v -23.732 		-2.8863 		0.5128
v -23.7238 		-2.8982 		0.5128
v -23.7141 		-2.9088 		0.5128
v -23.703 		-2.9182 		0.5128
v -23.6908 		-2.9261 		0.5128
v -23.6776 		-2.9324 		0.5128
v -23.6636 		-2.9369 		0.5128
v -23.6492 		-2.9397 		0.5128
v -23.6345 		-2.9406 		0.5128
v -23.6198 		-2.9397 		0.5128
v -23.6054 		-2.9369 		0.5128
v -23.5914 		-2.9324 		0.5128
v -23.5782 		-2.9261 		0.5128
v -23.566 		-2.9182 		0.5128
v -23.5549 		-2.9088 		0.5128
v -23.5452 		-2.8982 		0.5128
v -23.537 		-2.8863 		0.5128
v -23.5305 		-2.8736 		0.5128
v -23.5258 		-2.8602 		0.5128
v -23.5229 		-2.8462 		0.5128
v -23.5219 		-2.832 		0.5128
v -23.5229 		-2.8179 		0.5128
v -23.5258 		-2.8039 		0.5128
v -23.5305 		-2.7905 		0.5128
v -23.537 		-2.7777 		0.5128
v -23.5452 		-2.7659 		0.5128
v -23.5549 		-2.7552 		0.5128
v -23.566 		-2.7459 		0.5128
v -23.5782 		-2.738 		0.5128
v -23.5914 		-2.7317 		0.5128
v -23.6054 		-2.7271 		0.5128
v -23.6198 		-2.7244 		0.5128
v -23.6345 		-2.7234 		0.5128
v -23.6492 		-2.7244 		0.5128
v -23.6636 		-2.7271 		0.5128
v -23.6776 		-2.7317 		0.5128
v -23.6908 		-2.738 		0.5128
v -23.703 		-2.7459 		0.5128
v -23.7141 		-2.7552 		0.5128
v -23.7238 		-2.7659 		0.5128
v -23.732 		-2.7777 		0.5128
v -23.7385 		-2.7905 		0.5128
v -23.7432 		-2.8039 		0.5128
v -23.7461 		-2.8179 		0.5128
v -23.6345 		-2.832 		0.5
# 1106 vertices

g group_2_2829873

usemtl color_2829873
s 0

f 107 	108 	109
f 107 	109 	110
f 107 	110 	111
f 107 	111 	112
f 107 	112 	113
f 107 	113 	114
f 107 	114 	115
f 107 	115 	116
f 107 	116 	117
f 107 	117 	118
f 107 	118 	119
f 107 	119 	120
f 107 	120 	121
f 107 	121 	122
f 107 	122 	123
f 107 	123 	124
f 107 	124 	125
f 107 	125 	126
f 107 	126 	127
f 107 	127 	128
f 107 	128 	129
f 107 	129 	130
f 107 	130 	131
f 107 	131 	132
f 107 	132 	133
f 107 	133 	134
f 107 	134 	135
f 107 	135 	136
f 107 	136 	137
f 107 	137 	138
f 107 	138 	139
f 107 	139 	140
f 107 	140 	141
f 107 	141 	142
f 107 	142 	143
f 107 	143 	144
f 107 	144 	145
f 107 	145 	146
f 107 	146 	147
f 107 	147 	148
f 107 	148 	149
f 107 	149 	150
f 107 	150 	151
f 107 	151 	152
f 107 	152 	153
f 107 	153 	154
f 107 	154 	155
f 107 	155 	108
f 109 	108 	157
f 108 	156 	157
f 110 	109 	158
f 109 	157 	158
f 111 	110 	159
f 110 	158 	159
f 112 	111 	160
f 111 	159 	160
f 113 	112 	161
f 112 	160 	161
f 114 	113 	162
f 113 	161 	162
f 115 	114 	163
f 114 	162 	163
f 116 	115 	164
f 115 	163 	164
f 117 	116 	165
f 116 	164 	165
f 118 	117 	166
f 117 	165 	166
f 119 	118 	167
f 118 	166 	167
f 120 	119 	168
f 119 	167 	168
f 121 	120 	169
f 120 	168 	169
f 122 	121 	170
f 121 	169 	170
f 123 	122 	171
f 122 	170 	171
f 124 	123 	172
f 123 	171 	172
f 125 	124 	173
f 124 	172 	173
f 126 	125 	174
f 125 	173 	174
f 127 	126 	175
f 126 	174 	175
f 128 	127 	176
f 127 	175 	176
f 129 	128 	177
f 128 	176 	177
f 130 	129 	178
f 129 	177 	178
f 131 	130 	179
f 130 	178 	179
f 132 	131 	180
f 131 	179 	180
f 133 	132 	181
f 132 	180 	181
f 134 	133 	182
f 133 	181 	182
f 135 	134 	183
f 134 	182 	183
f 136 	135 	184
f 135 	183 	184
f 137 	136 	185
f 136 	184 	185
f 138 	137 	186
f 137 	185 	186
f 139 	138 	187
f 138 	186 	187
f 140 	139 	188
f 139 	187 	188
f 141 	140 	189
f 140 	188 	189
f 142 	141 	190
f 141 	189 	190
f 143 	142 	191
f 142 	190 	191
f 144 	143 	192
f 143 	191 	192
f 145 	144 	193
f 144 	192 	193
f 146 	145 	194
f 145 	193 	194
f 147 	146 	195
f 146 	194 	195
f 148 	147 	196
f 147 	195 	196
f 149 	148 	197
f 148 	196 	197
f 150 	149 	198
f 149 	197 	198
f 151 	150 	199
f 150 	198 	199
f 152 	151 	200
f 151 	199 	200
f 153 	152 	201
f 152 	200 	201
f 154 	153 	202
f 153 	201 	202
f 155 	154 	203
f 154 	202 	203
f 108 	155 	156
f 155 	203 	156
f 157 	156 	205
f 156 	204 	205
f 158 	157 	206
f 157 	205 	206
f 159 	158 	207
f 158 	206 	207
f 160 	159 	208
f 159 	207 	208
f 161 	160 	209
f 160 	208 	209
f 162 	161 	210
f 161 	209 	210
f 163 	162 	211
f 162 	210 	211
f 164 	163 	212
f 163 	211 	212
f 165 	164 	213
f 164 	212 	213
f 166 	165 	214
f 165 	213 	214
f 167 	166 	215
f 166 	214 	215
f 168 	167 	216
f 167 	215 	216
f 169 	168 	217
f 168 	216 	217
f 170 	169 	218
f 169 	217 	218
f 171 	170 	219
f 170 	218 	219
f 172 	171 	220
f 171 	219 	220
f 173 	172 	221
f 172 	220 	221
f 174 	173 	222
f 173 	221 	222
f 175 	174 	223
f 174 	222 	223
f 176 	175 	224
f 175 	223 	224
f 177 	176 	225
f 176 	224 	225
f 178 	177 	226
f 177 	225 	226
f 179 	178 	227
f 178 	226 	227
f 180 	179 	228
f 179 	227 	228
f 181 	180 	229
f 180 	228 	229
f 182 	181 	230
f 181 	229 	230
f 183 	182 	231
f 182 	230 	231
f 184 	183 	232
f 183 	231 	232
f 185 	184 	233
f 184 	232 	233
f 186 	185 	234
f 185 	233 	234
f 187 	186 	235
f 186 	234 	235
f 188 	187 	236
f 187 	235 	236
f 189 	188 	237
f 188 	236 	237
f 190 	189 	238
f 189 	237 	238
f 191 	190 	239
f 190 	238 	239
f 192 	191 	240
f 191 	239 	240
f 193 	192 	241
f 192 	240 	241
f 194 	193 	242
f 193 	241 	242
f 195 	194 	243
f 194 	242 	243
f 196 	195 	244
f 195 	243 	244
f 197 	196 	245
f 196 	244 	245
f 198 	197 	246
f 197 	245 	246
f 199 	198 	247
f 198 	246 	247
f 200 	199 	248
f 199 	247 	248
f 201 	200 	249
f 200 	248 	249
f 202 	201 	250
f 201 	249 	250
f 203 	202 	251
f 202 	250 	251
f 156 	203 	204
f 203 	251 	204
f 205 	204 	253
f 204 	252 	253
f 206 	205 	254
f 205 	253 	254
f 207 	206 	255
f 206 	254 	255
f 208 	207 	256
f 207 	255 	256
f 209 	208 	257
f 208 	256 	257
f 210 	209 	258
f 209 	257 	258
f 211 	210 	259
f 210 	258 	259
f 212 	211 	260
f 211 	259 	260
f 213 	212 	261
f 212 	260 	261
f 214 	213 	262
f 213 	261 	262
f 215 	214 	263
f 214 	262 	263
f 216 	215 	264
f 215 	263 	264
f 217 	216 	265
f 216 	264 	265
f 218 	217 	266
f 217 	265 	266
f 219 	218 	267
f 218 	266 	267
f 220 	219 	268
f 219 	267 	268
f 221 	220 	269
f 220 	268 	269
f 222 	221 	270
f 221 	269 	270
f 223 	222 	271
f 222 	270 	271
f 224 	223 	272
f 223 	271 	272
f 225 	224 	273
f 224 	272 	273
f 226 	225 	274
f 225 	273 	274
f 227 	226 	275
f 226 	274 	275
f 228 	227 	276
f 227 	275 	276
f 229 	228 	277
f 228 	276 	277
f 230 	229 	278
f 229 	277 	278
f 231 	230 	279
f 230 	278 	279
f 232 	231 	280
f 231 	279 	280
f 233 	232 	281
f 232 	280 	281
f 234 	233 	282
f 233 	281 	282
f 235 	234 	283
f 234 	282 	283
f 236 	235 	284
f 235 	283 	284
f 237 	236 	285
f 236 	284 	285
f 238 	237 	286
f 237 	285 	286
f 239 	238 	287
f 238 	286 	287
f 240 	239 	288
f 239 	287 	288
f 241 	240 	289
f 240 	288 	289
f 242 	241 	290
f 241 	289 	290
f 243 	242 	291
f 242 	290 	291
f 244 	243 	292
f 243 	291 	292
f 245 	244 	293
f 244 	292 	293
f 246 	245 	294
f 245 	293 	294
f 247 	246 	295
f 246 	294 	295
f 248 	247 	296
f 247 	295 	296
f 249 	248 	297
f 248 	296 	297
f 250 	249 	298
f 249 	297 	298
f 251 	250 	299
f 250 	298 	299
f 204 	251 	252
f 251 	299 	252
f 253 	252 	301
f 252 	300 	301
f 254 	253 	302
f 253 	301 	302
f 255 	254 	303
f 254 	302 	303
f 256 	255 	304
f 255 	303 	304
f 257 	256 	305
f 256 	304 	305
f 258 	257 	306
f 257 	305 	306
f 259 	258 	307
f 258 	306 	307
f 260 	259 	308
f 259 	307 	308
f 261 	260 	309
f 260 	308 	309
f 262 	261 	310
f 261 	309 	310
f 263 	262 	311
f 262 	310 	311
f 264 	263 	312
f 263 	311 	312
f 265 	264 	313
f 264 	312 	313
f 266 	265 	314
f 265 	313 	314
f 267 	266 	315
f 266 	314 	315
f 268 	267 	316
f 267 	315 	316
f 269 	268 	317
f 268 	316 	317
f 270 	269 	318
f 269 	317 	318
f 271 	270 	319
f 270 	318 	319
f 272 	271 	320
f 271 	319 	320
f 273 	272 	321
f 272 	320 	321
f 274 	273 	322
f 273 	321 	322
f 275 	274 	323
f 274 	322 	323
f 276 	275 	324
f 275 	323 	324
f 277 	276 	325
f 276 	324 	325
f 278 	277 	326
f 277 	325 	326
f 279 	278 	327
f 278 	326 	327
f 280 	279 	328
f 279 	327 	328
f 281 	280 	329
f 280 	328 	329
f 282 	281 	330
f 281 	329 	330
f 283 	282 	331
f 282 	330 	331
f 284 	283 	332
f 283 	331 	332
f 285 	284 	333
f 284 	332 	333
f 286 	285 	334
f 285 	333 	334
f 287 	286 	335
f 286 	334 	335
f 288 	287 	336
f 287 	335 	336
f 289 	288 	337
f 288 	336 	337
f 290 	289 	338
f 289 	337 	338
f 291 	290 	339
f 290 	338 	339
f 292 	291 	340
f 291 	339 	340
f 293 	292 	341
f 292 	340 	341
f 294 	293 	342
f 293 	341 	342
f 295 	294 	343
f 294 	342 	343
f 296 	295 	344
f 295 	343 	344
f 297 	296 	345
f 296 	344 	345
f 298 	297 	346
f 297 	345 	346
f 299 	298 	347
f 298 	346 	347
f 252 	299 	300
f 299 	347 	300
f 301 	300 	349
f 300 	348 	349
f 302 	301 	350
f 301 	349 	350
f 303 	302 	351
f 302 	350 	351
f 304 	303 	352
f 303 	351 	352
f 305 	304 	353
f 304 	352 	353
f 306 	305 	354
f 305 	353 	354
f 307 	306 	355
f 306 	354 	355
f 308 	307 	356
f 307 	355 	356
f 309 	308 	357
f 308 	356 	357
f 310 	309 	358
f 309 	357 	358
f 311 	310 	359
f 310 	358 	359
f 312 	311 	360
f 311 	359 	360
f 313 	312 	361
f 312 	360 	361
f 314 	313 	362
f 313 	361 	362
f 315 	314 	363
f 314 	362 	363
f 316 	315 	364
f 315 	363 	364
f 317 	316 	365
f 316 	364 	365
f 318 	317 	366
f 317 	365 	366
f 319 	318 	367
f 318 	366 	367
f 320 	319 	368
f 319 	367 	368
f 321 	320 	369
f 320 	368 	369
f 322 	321 	370
f 321 	369 	370
f 323 	322 	371
f 322 	370 	371
f 324 	323 	372
f 323 	371 	372
f 325 	324 	373
f 324 	372 	373
f 326 	325 	374
f 325 	373 	374
f 327 	326 	375
f 326 	374 	375
f 328 	327 	376
f 327 	375 	376
f 329 	328 	377
f 328 	376 	377
f 330 	329 	378
f 329 	377 	378
f 331 	330 	379
f 330 	378 	379
f 332 	331 	380
f 331 	379 	380
f 333 	332 	381
f 332 	380 	381
f 334 	333 	382
f 333 	381 	382
f 335 	334 	383
f 334 	382 	383
f 336 	335 	384
f 335 	383 	384
f 337 	336 	385
f 336 	384 	385
f 338 	337 	386
f 337 	385 	386
f 339 	338 	387
f 338 	386 	387
f 340 	339 	388
f 339 	387 	388
f 341 	340 	389
f 340 	388 	389
f 342 	341 	390
f 341 	389 	390
f 343 	342 	391
f 342 	390 	391
f 344 	343 	392
f 343 	391 	392
f 345 	344 	393
f 344 	392 	393
f 346 	345 	394
f 345 	393 	394
f 347 	346 	395
f 346 	394 	395
f 300 	347 	348
f 347 	395 	348
f 349 	348 	397
f 348 	396 	397
f 350 	349 	398
f 349 	397 	398
f 351 	350 	399
f 350 	398 	399
f 352 	351 	400
f 351 	399 	400
f 353 	352 	401
f 352 	400 	401
f 354 	353 	402
f 353 	401 	402
f 355 	354 	403
f 354 	402 	403
f 356 	355 	404
f 355 	403 	404
f 357 	356 	405
f 356 	404 	405
f 358 	357 	406
f 357 	405 	406
f 359 	358 	407
f 358 	406 	407
f 360 	359 	408
f 359 	407 	408
f 361 	360 	409
f 360 	408 	409
f 362 	361 	410
f 361 	409 	410
f 363 	362 	411
f 362 	410 	411
f 364 	363 	412
f 363 	411 	412
f 365 	364 	413
f 364 	412 	413
f 366 	365 	414
f 365 	413 	414
f 367 	366 	415
f 366 	414 	415
f 368 	367 	416
f 367 	415 	416
f 369 	368 	417
f 368 	416 	417
f 370 	369 	418
f 369 	417 	418
f 371 	370 	419
f 370 	418 	419
f 372 	371 	420
f 371 	419 	420
f 373 	372 	421
f 372 	420 	421
f 374 	373 	422
f 373 	421 	422
f 375 	374 	423
f 374 	422 	423
f 376 	375 	424
f 375 	423 	424
f 377 	376 	425
f 376 	424 	425
f 378 	377 	426
f 377 	425 	426
f 379 	378 	427
f 378 	426 	427
f 380 	379 	428
f 379 	427 	428
f 381 	380 	429
f 380 	428 	429
f 382 	381 	430
f 381 	429 	430
f 383 	382 	431
f 382 	430 	431
f 384 	383 	432
f 383 	431 	432
f 385 	384 	433
f 384 	432 	433
f 386 	385 	434
f 385 	433 	434
f 387 	386 	435
f 386 	434 	435
f 388 	387 	436
f 387 	435 	436
f 389 	388 	437
f 388 	436 	437
f 390 	389 	438
f 389 	437 	438
f 391 	390 	439
f 390 	438 	439
f 392 	391 	440
f 391 	439 	440
f 393 	392 	441
f 392 	440 	441
f 394 	393 	442
f 393 	441 	442
f 395 	394 	443
f 394 	442 	443
f 348 	395 	396
f 395 	443 	396
f 397 	396 	445
f 396 	444 	445
f 398 	397 	446
f 397 	445 	446
f 399 	398 	447
f 398 	446 	447
f 400 	399 	448
f 399 	447 	448
f 401 	400 	449
f 400 	448 	449
f 402 	401 	450
f 401 	449 	450
f 403 	402 	451
f 402 	450 	451
f 404 	403 	452
f 403 	451 	452
f 405 	404 	453
f 404 	452 	453
f 406 	405 	454
f 405 	453 	454
f 407 	406 	455
f 406 	454 	455
f 408 	407 	456
f 407 	455 	456
f 409 	408 	457
f 408 	456 	457
f 410 	409 	458
f 409 	457 	458
f 411 	410 	459
f 410 	458 	459
f 412 	411 	460
f 411 	459 	460
f 413 	412 	461
f 412 	460 	461
f 414 	413 	462
f 413 	461 	462
f 415 	414 	463
f 414 	462 	463
f 416 	415 	464
f 415 	463 	464
f 417 	416 	465
f 416 	464 	465
f 418 	417 	466
f 417 	465 	466
f 419 	418 	467
f 418 	466 	467
f 420 	419 	468
f 419 	467 	468
f 421 	420 	469
f 420 	468 	469
f 422 	421 	470
f 421 	469 	470
f 423 	422 	471
f 422 	470 	471
f 424 	423 	472
f 423 	471 	472
f 425 	424 	473
f 424 	472 	473
f 426 	425 	474
f 425 	473 	474
f 427 	426 	475
f 426 	474 	475
f 428 	427 	476
f 427 	475 	476
f 429 	428 	477
f 428 	476 	477
f 430 	429 	478
f 429 	477 	478
f 431 	430 	479
f 430 	478 	479
f 432 	431 	480
f 431 	479 	480
f 433 	432 	481
f 432 	480 	481
f 434 	433 	482
f 433 	481 	482
f 435 	434 	483
f 434 	482 	483
f 436 	435 	484
f 435 	483 	484
f 437 	436 	485
f 436 	484 	485
f 438 	437 	486
f 437 	485 	486
f 439 	438 	487
f 438 	486 	487
f 440 	439 	488
f 439 	487 	488
f 441 	440 	489
f 440 	488 	489
f 442 	441 	490
f 441 	489 	490
f 443 	442 	491
f 442 	490 	491
f 396 	443 	444
f 443 	491 	444
f 445 	444 	493
f 444 	492 	493
f 446 	445 	494
f 445 	493 	494
f 447 	446 	495
f 446 	494 	495
f 448 	447 	496
f 447 	495 	496
f 449 	448 	497
f 448 	496 	497
f 450 	449 	498
f 449 	497 	498
f 451 	450 	499
f 450 	498 	499
f 452 	451 	500
f 451 	499 	500
f 453 	452 	501
f 452 	500 	501
f 454 	453 	502
f 453 	501 	502
f 455 	454 	503
f 454 	502 	503
f 456 	455 	504
f 455 	503 	504
f 457 	456 	505
f 456 	504 	505
f 458 	457 	506
f 457 	505 	506
f 459 	458 	507
f 458 	506 	507
f 460 	459 	508
f 459 	507 	508
f 461 	460 	509
f 460 	508 	509
f 462 	461 	510
f 461 	509 	510
f 463 	462 	511
f 462 	510 	511
f 464 	463 	512
f 463 	511 	512
f 465 	464 	513
f 464 	512 	513
f 466 	465 	514
f 465 	513 	514
f 467 	466 	515
f 466 	514 	515
f 468 	467 	516
f 467 	515 	516
f 469 	468 	517
f 468 	516 	517
f 470 	469 	518
f 469 	517 	518
f 471 	470 	519
f 470 	518 	519
f 472 	471 	520
f 471 	519 	520
f 473 	472 	521
f 472 	520 	521
f 474 	473 	522
f 473 	521 	522
f 475 	474 	523
f 474 	522 	523
f 476 	475 	524
f 475 	523 	524
f 477 	476 	525
f 476 	524 	525
f 478 	477 	526
f 477 	525 	526
f 479 	478 	527
f 478 	526 	527
f 480 	479 	528
f 479 	527 	528
f 481 	480 	529
f 480 	528 	529
f 482 	481 	530
f 481 	529 	530
f 483 	482 	531
f 482 	530 	531
f 484 	483 	532
f 483 	531 	532
f 485 	484 	533
f 484 	532 	533
f 486 	485 	534
f 485 	533 	534
f 487 	486 	535
f 486 	534 	535
f 488 	487 	536
f 487 	535 	536
f 489 	488 	537
f 488 	536 	537
f 490 	489 	538
f 489 	537 	538
f 491 	490 	539
f 490 	538 	539
f 444 	491 	492
f 491 	539 	492
f 493 	492 	541
f 492 	540 	541
f 494 	493 	542
f 493 	541 	542
f 495 	494 	543
f 494 	542 	543
f 496 	495 	544
f 495 	543 	544
f 497 	496 	545
f 496 	544 	545
f 498 	497 	546
f 497 	545 	546
f 499 	498 	547
f 498 	546 	547
f 500 	499 	548
f 499 	547 	548
f 501 	500 	549
f 500 	548 	549
f 502 	501 	550
f 501 	549 	550
f 503 	502 	551
f 502 	550 	551
f 504 	503 	552
f 503 	551 	552
f 505 	504 	553
f 504 	552 	553
f 506 	505 	554
f 505 	553 	554
f 507 	506 	555
f 506 	554 	555
f 508 	507 	556
f 507 	555 	556
f 509 	508 	557
f 508 	556 	557
f 510 	509 	558
f 509 	557 	558
f 511 	510 	559
f 510 	558 	559
f 512 	511 	560
f 511 	559 	560
f 513 	512 	561
f 512 	560 	561
f 514 	513 	562
f 513 	561 	562
f 515 	514 	563
f 514 	562 	563
f 516 	515 	564
f 515 	563 	564
f 517 	516 	565
f 516 	564 	565
f 518 	517 	566
f 517 	565 	566
f 519 	518 	567
f 518 	566 	567
f 520 	519 	568
f 519 	567 	568
f 521 	520 	569
f 520 	568 	569
f 522 	521 	570
f 521 	569 	570
f 523 	522 	571
f 522 	570 	571
f 524 	523 	572
f 523 	571 	572
f 525 	524 	573
f 524 	572 	573
f 526 	525 	574
f 525 	573 	574
f 527 	526 	575
f 526 	574 	575
f 528 	527 	576
f 527 	575 	576
f 529 	528 	577
f 528 	576 	577
f 530 	529 	578
f 529 	577 	578
f 531 	530 	579
f 530 	578 	579
f 532 	531 	580
f 531 	579 	580
f 533 	532 	581
f 532 	580 	581
f 534 	533 	582
f 533 	581 	582
f 535 	534 	583
f 534 	582 	583
f 536 	535 	584
f 535 	583 	584
f 537 	536 	585
f 536 	584 	585
f 538 	537 	586
f 537 	585 	586
f 539 	538 	587
f 538 	586 	587
f 492 	539 	540
f 539 	587 	540
f 541 	540 	589
f 540 	588 	589
f 542 	541 	590
f 541 	589 	590
f 543 	542 	591
f 542 	590 	591
f 544 	543 	592
f 543 	591 	592
f 545 	544 	593
f 544 	592 	593
f 546 	545 	594
f 545 	593 	594
f 547 	546 	595
f 546 	594 	595
f 548 	547 	596
f 547 	595 	596
f 549 	548 	597
f 548 	596 	597
f 550 	549 	598
f 549 	597 	598
f 551 	550 	599
f 550 	598 	599
f 552 	551 	600
f 551 	599 	600
f 553 	552 	601
f 552 	600 	601
f 554 	553 	602
f 553 	601 	602
f 555 	554 	603
f 554 	602 	603
f 556 	555 	604
f 555 	603 	604
f 557 	556 	605
f 556 	604 	605
f 558 	557 	606
f 557 	605 	606
f 559 	558 	607
f 558 	606 	607
f 560 	559 	608
f 559 	607 	608
f 561 	560 	609
f 560 	608 	609
f 562 	561 	610
f 561 	609 	610
f 563 	562 	611
f 562 	610 	611
f 564 	563 	612
f 563 	611 	612
f 565 	564 	613
f 564 	612 	613
f 566 	565 	614
f 565 	613 	614
f 567 	566 	615
f 566 	614 	615
f 568 	567 	616
f 567 	615 	616
f 569 	568 	617
f 568 	616 	617
f 570 	569 	618
f 569 	617 	618
f 571 	570 	619
f 570 	618 	619
f 572 	571 	620
f 571 	619 	620
f 573 	572 	621
f 572 	620 	621
f 574 	573 	622
f 573 	621 	622
f 575 	574 	623
f 574 	622 	623
f 576 	575 	624
f 575 	623 	624
f 577 	576 	625
f 576 	624 	625
f 578 	577 	626
f 577 	625 	626
f 579 	578 	627
f 578 	626 	627
f 580 	579 	628
f 579 	627 	628
f 581 	580 	629
f 580 	628 	629
f 582 	581 	630
f 581 	629 	630
f 583 	582 	631
f 582 	630 	631
f 584 	583 	632
f 583 	631 	632
f 585 	584 	633
f 584 	632 	633
f 586 	585 	634
f 585 	633 	634
f 587 	586 	635
f 586 	634 	635
f 540 	587 	588
f 587 	635 	588
f 589 	588 	637
f 588 	636 	637
f 590 	589 	638
f 589 	637 	638
f 591 	590 	639
f 590 	638 	639
f 592 	591 	640
f 591 	639 	640
f 593 	592 	641
f 592 	640 	641
f 594 	593 	642
f 593 	641 	642
f 595 	594 	643
f 594 	642 	643
f 596 	595 	644
f 595 	643 	644
f 597 	596 	645
f 596 	644 	645
f 598 	597 	646
f 597 	645 	646
f 599 	598 	647
f 598 	646 	647
f 600 	599 	648
f 599 	647 	648
f 601 	600 	649
f 600 	648 	649
f 602 	601 	650
f 601 	649 	650
f 603 	602 	651
f 602 	650 	651
f 604 	603 	652
f 603 	651 	652
f 605 	604 	653
f 604 	652 	653
f 606 	605 	654
f 605 	653 	654
f 607 	606 	655
f 606 	654 	655
f 608 	607 	656
f 607 	655 	656
f 609 	608 	657
f 608 	656 	657
f 610 	609 	658
f 609 	657 	658
f 611 	610 	659
f 610 	658 	659
f 612 	611 	660
f 611 	659 	660
f 613 	612 	661
f 612 	660 	661
f 614 	613 	662
f 613 	661 	662
f 615 	614 	663
f 614 	662 	663
f 616 	615 	664
f 615 	663 	664
f 617 	616 	665
f 616 	664 	665
f 618 	617 	666
f 617 	665 	666
f 619 	618 	667
f 618 	666 	667
f 620 	619 	668
f 619 	667 	668
f 621 	620 	669
f 620 	668 	669
f 622 	621 	670
f 621 	669 	670
f 623 	622 	671
f 622 	670 	671
f 624 	623 	672
f 623 	671 	672
f 625 	624 	673
f 624 	672 	673
f 626 	625 	674
f 625 	673 	674
f 627 	626 	675
f 626 	674 	675
f 628 	627 	676
f 627 	675 	676
f 629 	628 	677
f 628 	676 	677
f 630 	629 	678
f 629 	677 	678
f 631 	630 	679
f 630 	678 	679
f 632 	631 	680
f 631 	679 	680
f 633 	632 	681
f 632 	680 	681
f 634 	633 	682
f 633 	681 	682
f 635 	634 	683
f 634 	682 	683
f 588 	635 	636
f 635 	683 	636
f 637 	636 	685
f 636 	684 	685
f 638 	637 	686
f 637 	685 	686
f 639 	638 	687
f 638 	686 	687
f 640 	639 	688
f 639 	687 	688
f 641 	640 	689
f 640 	688 	689
f 642 	641 	690
f 641 	689 	690
f 643 	642 	691
f 642 	690 	691
f 644 	643 	692
f 643 	691 	692
f 645 	644 	693
f 644 	692 	693
f 646 	645 	694
f 645 	693 	694
f 647 	646 	695
f 646 	694 	695
f 648 	647 	696
f 647 	695 	696
f 649 	648 	697
f 648 	696 	697
f 650 	649 	698
f 649 	697 	698
f 651 	650 	699
f 650 	698 	699
f 652 	651 	700
f 651 	699 	700
f 653 	652 	701
f 652 	700 	701
f 654 	653 	702
f 653 	701 	702
f 655 	654 	703
f 654 	702 	703
f 656 	655 	704
f 655 	703 	704
f 657 	656 	705
f 656 	704 	705
f 658 	657 	706
f 657 	705 	706
f 659 	658 	707
f 658 	706 	707
f 660 	659 	708
f 659 	707 	708
f 661 	660 	709
f 660 	708 	709
f 662 	661 	710
f 661 	709 	710
f 663 	662 	711
f 662 	710 	711
f 664 	663 	712
f 663 	711 	712
f 665 	664 	713
f 664 	712 	713
f 666 	665 	714
f 665 	713 	714
f 667 	666 	715
f 666 	714 	715
f 668 	667 	716
f 667 	715 	716
f 669 	668 	717
f 668 	716 	717
f 670 	669 	718
f 669 	717 	718
f 671 	670 	719
f 670 	718 	719
f 672 	671 	720
f 671 	719 	720
f 673 	672 	721
f 672 	720 	721
f 674 	673 	722
f 673 	721 	722
f 675 	674 	723
f 674 	722 	723
f 676 	675 	724
f 675 	723 	724
f 677 	676 	725
f 676 	724 	725
f 678 	677 	726
f 677 	725 	726
f 679 	678 	727
f 678 	726 	727
f 680 	679 	728
f 679 	727 	728
f 681 	680 	729
f 680 	728 	729
f 682 	681 	730
f 681 	729 	730
f 683 	682 	731
f 682 	730 	731
f 636 	683 	684
f 683 	731 	684
f 685 	684 	733
f 684 	732 	733
f 686 	685 	734
f 685 	733 	734
f 687 	686 	735
f 686 	734 	735
f 688 	687 	736
f 687 	735 	736
f 689 	688 	737
f 688 	736 	737
f 690 	689 	738
f 689 	737 	738
f 691 	690 	739
f 690 	738 	739
f 692 	691 	740
f 691 	739 	740
f 693 	692 	741
f 692 	740 	741
f 694 	693 	742
f 693 	741 	742
f 695 	694 	743
f 694 	742 	743
f 696 	695 	744
f 695 	743 	744
f 697 	696 	745
f 696 	744 	745
f 698 	697 	746
f 697 	745 	746
f 699 	698 	747
f 698 	746 	747
f 700 	699 	748
f 699 	747 	748
f 701 	700 	749
f 700 	748 	749
f 702 	701 	750
f 701 	749 	750
f 703 	702 	751
f 702 	750 	751
f 704 	703 	752
f 703 	751 	752
f 705 	704 	753
f 704 	752 	753
f 706 	705 	754
f 705 	753 	754
f 707 	706 	755
f 706 	754 	755
f 708 	707 	756
f 707 	755 	756
f 709 	708 	757
f 708 	756 	757
f 710 	709 	758
f 709 	757 	758
f 711 	710 	759
f 710 	758 	759
f 712 	711 	760
f 711 	759 	760
f 713 	712 	761
f 712 	760 	761
f 714 	713 	762
f 713 	761 	762
f 715 	714 	763
f 714 	762 	763
f 716 	715 	764
f 715 	763 	764
f 717 	716 	765
f 716 	764 	765
f 718 	717 	766
f 717 	765 	766
f 719 	718 	767
f 718 	766 	767
f 720 	719 	768
f 719 	767 	768
f 721 	720 	769
f 720 	768 	769
f 722 	721 	770
f 721 	769 	770
f 723 	722 	771
f 722 	770 	771
f 724 	723 	772
f 723 	771 	772
f 725 	724 	773
f 724 	772 	773
f 726 	725 	774
f 725 	773 	774
f 727 	726 	775
f 726 	774 	775
f 728 	727 	776
f 727 	775 	776
f 729 	728 	777
f 728 	776 	777
f 730 	729 	778
f 729 	777 	778
f 731 	730 	779
f 730 	778 	779
f 684 	731 	732
f 731 	779 	732
f 733 	732 	781
f 732 	780 	781
f 734 	733 	782
f 733 	781 	782
f 735 	734 	783
f 734 	782 	783
f 736 	735 	784
f 735 	783 	784
f 737 	736 	785
f 736 	784 	785
f 738 	737 	786
f 737 	785 	786
f 739 	738 	787
f 738 	786 	787
f 740 	739 	788
f 739 	787 	788
f 741 	740 	789
f 740 	788 	789
f 742 	741 	790
f 741 	789 	790
f 743 	742 	791
f 742 	790 	791
f 744 	743 	792
f 743 	791 	792
f 745 	744 	793
f 744 	792 	793
f 746 	745 	794
f 745 	793 	794
f 747 	746 	795
f 746 	794 	795
f 748 	747 	796
f 747 	795 	796
f 749 	748 	797
f 748 	796 	797
f 750 	749 	798
f 749 	797 	798
f 751 	750 	799
f 750 	798 	799
f 752 	751 	800
f 751 	799 	800
f 753 	752 	801
f 752 	800 	801
f 754 	753 	802
f 753 	801 	802
f 755 	754 	803
f 754 	802 	803
f 756 	755 	804
f 755 	803 	804
f 757 	756 	805
f 756 	804 	805
f 758 	757 	806
f 757 	805 	806
f 759 	758 	807
f 758 	806 	807
f 760 	759 	808
f 759 	807 	808
f 761 	760 	809
f 760 	808 	809
f 762 	761 	810
f 761 	809 	810
f 763 	762 	811
f 762 	810 	811
f 764 	763 	812
f 763 	811 	812
f 765 	764 	813
f 764 	812 	813
f 766 	765 	814
f 765 	813 	814
f 767 	766 	815
f 766 	814 	815
f 768 	767 	816
f 767 	815 	816
f 769 	768 	817
f 768 	816 	817
f 770 	769 	818
f 769 	817 	818
f 771 	770 	819
f 770 	818 	819
f 772 	771 	820
f 771 	819 	820
f 773 	772 	821
f 772 	820 	821
f 774 	773 	822
f 773 	821 	822
f 775 	774 	823
f 774 	822 	823
f 776 	775 	824
f 775 	823 	824
f 777 	776 	825
f 776 	824 	825
f 778 	777 	826
f 777 	825 	826
f 779 	778 	827
f 778 	826 	827
f 732 	779 	780
f 779 	827 	780
f 781 	780 	829
f 780 	828 	829
f 782 	781 	830
f 781 	829 	830
f 783 	782 	831
f 782 	830 	831
f 784 	783 	832
f 783 	831 	832
f 785 	784 	833
f 784 	832 	833
f 786 	785 	834
f 785 	833 	834
f 787 	786 	835
f 786 	834 	835
f 788 	787 	836
f 787 	835 	836
f 789 	788 	837
f 788 	836 	837
f 790 	789 	838
f 789 	837 	838
f 791 	790 	839
f 790 	838 	839
f 792 	791 	840
f 791 	839 	840
f 793 	792 	841
f 792 	840 	841
f 794 	793 	842
f 793 	841 	842
f 795 	794 	843
f 794 	842 	843
f 796 	795 	844
f 795 	843 	844
f 797 	796 	845
f 796 	844 	845
f 798 	797 	846
f 797 	845 	846
f 799 	798 	847
f 798 	846 	847
f 800 	799 	848
f 799 	847 	848
f 801 	800 	849
f 800 	848 	849
f 802 	801 	850
f 801 	849 	850
f 803 	802 	851
f 802 	850 	851
f 804 	803 	852
f 803 	851 	852
f 805 	804 	853
f 804 	852 	853
f 806 	805 	854
f 805 	853 	854
f 807 	806 	855
f 806 	854 	855
f 808 	807 	856
f 807 	855 	856
f 809 	808 	857
f 808 	856 	857
f 810 	809 	858
f 809 	857 	858
f 811 	810 	859
f 810 	858 	859
f 812 	811 	860
f 811 	859 	860
f 813 	812 	861
f 812 	860 	861
f 814 	813 	862
f 813 	861 	862
f 815 	814 	863
f 814 	862 	863
f 816 	815 	864
f 815 	863 	864
f 817 	816 	865
f 816 	864 	865
f 818 	817 	866
f 817 	865 	866
f 819 	818 	867
f 818 	866 	867
f 820 	819 	868
f 819 	867 	868
f 821 	820 	869
f 820 	868 	869
f 822 	821 	870
f 821 	869 	870
f 823 	822 	871
f 822 	870 	871
f 824 	823 	872
f 823 	871 	872
f 825 	824 	873
f 824 	872 	873
f 826 	825 	874
f 825 	873 	874
f 827 	826 	875
f 826 	874 	875
f 780 	827 	828
f 827 	875 	828
f 829 	828 	877
f 828 	876 	877
f 830 	829 	878
f 829 	877 	878
f 831 	830 	879
f 830 	878 	879
f 832 	831 	880
f 831 	879 	880
f 833 	832 	881
f 832 	880 	881
f 834 	833 	882
f 833 	881 	882
f 835 	834 	883
f 834 	882 	883
f 836 	835 	884
f 835 	883 	884
f 837 	836 	885
f 836 	884 	885
f 838 	837 	886
f 837 	885 	886
f 839 	838 	887
f 838 	886 	887
f 840 	839 	888
f 839 	887 	888
f 841 	840 	889
f 840 	888 	889
f 842 	841 	890
f 841 	889 	890
f 843 	842 	891
f 842 	890 	891
f 844 	843 	892
f 843 	891 	892
f 845 	844 	893
f 844 	892 	893
f 846 	845 	894
f 845 	893 	894
f 847 	846 	895
f 846 	894 	895
f 848 	847 	896
f 847 	895 	896
f 849 	848 	897
f 848 	896 	897
f 850 	849 	898
f 849 	897 	898
f 851 	850 	899
f 850 	898 	899
f 852 	851 	900
f 851 	899 	900
f 853 	852 	901
f 852 	900 	901
f 854 	853 	902
f 853 	901 	902
f 855 	854 	903
f 854 	902 	903
f 856 	855 	904
f 855 	903 	904
f 857 	856 	905
f 856 	904 	905
f 858 	857 	906
f 857 	905 	906
f 859 	858 	907
f 858 	906 	907
f 860 	859 	908
f 859 	907 	908
f 861 	860 	909
f 860 	908 	909
f 862 	861 	910
f 861 	909 	910
f 863 	862 	911
f 862 	910 	911
f 864 	863 	912
f 863 	911 	912
f 865 	864 	913
f 864 	912 	913
f 866 	865 	914
f 865 	913 	914
f 867 	866 	915
f 866 	914 	915
f 868 	867 	916
f 867 	915 	916
f 869 	868 	917
f 868 	916 	917
f 870 	869 	918
f 869 	917 	918
f 871 	870 	919
f 870 	918 	919
f 872 	871 	920
f 871 	919 	920
f 873 	872 	921
f 872 	920 	921
f 874 	873 	922
f 873 	921 	922
f 875 	874 	923
f 874 	922 	923
f 828 	875 	876
f 875 	923 	876
f 877 	876 	925
f 876 	924 	925
f 878 	877 	926
f 877 	925 	926
f 879 	878 	927
f 878 	926 	927
f 880 	879 	928
f 879 	927 	928
f 881 	880 	929
f 880 	928 	929
f 882 	881 	930
f 881 	929 	930
f 883 	882 	931
f 882 	930 	931
f 884 	883 	932
f 883 	931 	932
f 885 	884 	933
f 884 	932 	933
f 886 	885 	934
f 885 	933 	934
f 887 	886 	935
f 886 	934 	935
f 888 	887 	936
f 887 	935 	936
f 889 	888 	937
f 888 	936 	937
f 890 	889 	938
f 889 	937 	938
f 891 	890 	939
f 890 	938 	939
f 892 	891 	940
f 891 	939 	940
f 893 	892 	941
f 892 	940 	941
f 894 	893 	942
f 893 	941 	942
f 895 	894 	943
f 894 	942 	943
f 896 	895 	944
f 895 	943 	944
f 897 	896 	945
f 896 	944 	945
f 898 	897 	946
f 897 	945 	946
f 899 	898 	947
f 898 	946 	947
f 900 	899 	948
f 899 	947 	948
f 901 	900 	949
f 900 	948 	949
f 902 	901 	950
f 901 	949 	950
f 903 	902 	951
f 902 	950 	951
f 904 	903 	952
f 903 	951 	952
f 905 	904 	953
f 904 	952 	953
f 906 	905 	954
f 905 	953 	954
f 907 	906 	955
f 906 	954 	955
f 908 	907 	956
f 907 	955 	956
f 909 	908 	957
f 908 	956 	957
f 910 	909 	958
f 909 	957 	958
f 911 	910 	959
f 910 	958 	959
f 912 	911 	960
f 911 	959 	960
f 913 	912 	961
f 912 	960 	961
f 914 	913 	962
f 913 	961 	962
f 915 	914 	963
f 914 	962 	963
f 916 	915 	964
f 915 	963 	964
f 917 	916 	965
f 916 	964 	965
f 918 	917 	966
f 917 	965 	966
f 919 	918 	967
f 918 	966 	967
f 920 	919 	968
f 919 	967 	968
f 921 	920 	969
f 920 	968 	969
f 922 	921 	970
f 921 	969 	970
f 923 	922 	971
f 922 	970 	971
f 876 	923 	924
f 923 	971 	924
f 925 	924 	973
f 924 	972 	973
f 926 	925 	974
f 925 	973 	974
f 927 	926 	975
f 926 	974 	975
f 928 	927 	976
f 927 	975 	976
f 929 	928 	977
f 928 	976 	977
f 930 	929 	978
f 929 	977 	978
f 931 	930 	979
f 930 	978 	979
f 932 	931 	980
f 931 	979 	980
f 933 	932 	981
f 932 	980 	981
f 934 	933 	982
f 933 	981 	982
f 935 	934 	983
f 934 	982 	983
f 936 	935 	984
f 935 	983 	984
f 937 	936 	985
f 936 	984 	985
f 938 	937 	986
f 937 	985 	986
f 939 	938 	987
f 938 	986 	987
f 940 	939 	988
f 939 	987 	988
f 941 	940 	989
f 940 	988 	989
f 942 	941 	990
f 941 	989 	990
f 943 	942 	991
f 942 	990 	991
f 944 	943 	992
f 943 	991 	992
f 945 	944 	993
f 944 	992 	993
f 946 	945 	994
f 945 	993 	994
f 947 	946 	995
f 946 	994 	995
f 948 	947 	996
f 947 	995 	996
f 949 	948 	997
f 948 	996 	997
f 950 	949 	998
f 949 	997 	998
f 951 	950 	999
f 950 	998 	999
f 952 	951 	1000
f 951 	999 	1000
f 953 	952 	1001
f 952 	1000 	1001
f 954 	953 	1002
f 953 	1001 	1002
f 955 	954 	1003
f 954 	1002 	1003
f 956 	955 	1004
f 955 	1003 	1004
f 957 	956 	1005
f 956 	1004 	1005
f 958 	957 	1006
f 957 	1005 	1006
f 959 	958 	1007
f 958 	1006 	1007
f 960 	959 	1008
f 959 	1007 	1008
f 961 	960 	1009
f 960 	1008 	1009
f 962 	961 	1010
f 961 	1009 	1010
f 963 	962 	1011
f 962 	1010 	1011
f 964 	963 	1012
f 963 	1011 	1012
f 965 	964 	1013
f 964 	1012 	1013
f 966 	965 	1014
f 965 	1013 	1014
f 967 	966 	1015
f 966 	1014 	1015
f 968 	967 	1016
f 967 	1015 	1016
f 969 	968 	1017
f 968 	1016 	1017
f 970 	969 	1018
f 969 	1017 	1018
f 971 	970 	1019
f 970 	1018 	1019
f 924 	971 	972
f 971 	1019 	972
f 973 	972 	1021
f 972 	1020 	1021
f 974 	973 	1022
f 973 	1021 	1022
f 975 	974 	1023
f 974 	1022 	1023
f 976 	975 	1024
f 975 	1023 	1024
f 977 	976 	1025
f 976 	1024 	1025
f 978 	977 	1026
f 977 	1025 	1026
f 979 	978 	1027
f 978 	1026 	1027
f 980 	979 	1028
f 979 	1027 	1028
f 981 	980 	1029
f 980 	1028 	1029
f 982 	981 	1030
f 981 	1029 	1030
f 983 	982 	1031
f 982 	1030 	1031
f 984 	983 	1032
f 983 	1031 	1032
f 985 	984 	1033
f 984 	1032 	1033
f 986 	985 	1034
f 985 	1033 	1034
f 987 	986 	1035
f 986 	1034 	1035
f 988 	987 	1036
f 987 	1035 	1036
f 989 	988 	1037
f 988 	1036 	1037
f 990 	989 	1038
f 989 	1037 	1038
f 991 	990 	1039
f 990 	1038 	1039
f 992 	991 	1040
f 991 	1039 	1040
f 993 	992 	1041
f 992 	1040 	1041
f 994 	993 	1042
f 993 	1041 	1042
f 995 	994 	1043
f 994 	1042 	1043
f 996 	995 	1044
f 995 	1043 	1044
f 997 	996 	1045
f 996 	1044 	1045
f 998 	997 	1046
f 997 	1045 	1046
f 999 	998 	1047
f 998 	1046 	1047
f 1000 	999 	1048
f 999 	1047 	1048
f 1001 	1000 	1049
f 1000 	1048 	1049
f 1002 	1001 	1050
f 1001 	1049 	1050
f 1003 	1002 	1051
f 1002 	1050 	1051
f 1004 	1003 	1052
f 1003 	1051 	1052
f 1005 	1004 	1053
f 1004 	1052 	1053
f 1006 	1005 	1054
f 1005 	1053 	1054
f 1007 	1006 	1055
f 1006 	1054 	1055
f 1008 	1007 	1056
f 1007 	1055 	1056
f 1009 	1008 	1057
f 1008 	1056 	1057
f 1010 	1009 	1058
f 1009 	1057 	1058
f 1011 	1010 	1059
f 1010 	1058 	1059
f 1012 	1011 	1060
f 1011 	1059 	1060
f 1013 	1012 	1061
f 1012 	1060 	1061
f 1014 	1013 	1062
f 1013 	1061 	1062
f 1015 	1014 	1063
f 1014 	1062 	1063
f 1016 	1015 	1064
f 1015 	1063 	1064
f 1017 	1016 	1065
f 1016 	1064 	1065
f 1018 	1017 	1066
f 1017 	1065 	1066
f 1019 	1018 	1067
f 1018 	1066 	1067
f 972 	1019 	1020
f 1019 	1067 	1020
f 1021 	1020 	1069
f 1020 	1068 	1069
f 1022 	1021 	1070
f 1021 	1069 	1070
f 1023 	1022 	1071
f 1022 	1070 	1071
f 1024 	1023 	1072
f 1023 	1071 	1072
f 1025 	1024 	1073
f 1024 	1072 	1073
f 1026 	1025 	1074
f 1025 	1073 	1074
f 1027 	1026 	1075
f 1026 	1074 	1075
f 1028 	1027 	1076
f 1027 	1075 	1076
f 1029 	1028 	1077
f 1028 	1076 	1077
f 1030 	1029 	1078
f 1029 	1077 	1078
f 1031 	1030 	1079
f 1030 	1078 	1079
f 1032 	1031 	1080
f 1031 	1079 	1080
f 1033 	1032 	1081
f 1032 	1080 	1081
f 1034 	1033 	1082
f 1033 	1081 	1082
f 1035 	1034 	1083
f 1034 	1082 	1083
f 1036 	1035 	1084
f 1035 	1083 	1084
f 1037 	1036 	1085
f 1036 	1084 	1085
f 1038 	1037 	1086
f 1037 	1085 	1086
f 1039 	1038 	1087
f 1038 	1086 	1087
f 1040 	1039 	1088
f 1039 	1087 	1088
f 1041 	1040 	1089
f 1040 	1088 	1089
f 1042 	1041 	1090
f 1041 	1089 	1090
f 1043 	1042 	1091
f 1042 	1090 	1091
f 1044 	1043 	1092
f 1043 	1091 	1092
f 1045 	1044 	1093
f 1044 	1092 	1093
f 1046 	1045 	1094
f 1045 	1093 	1094
f 1047 	1046 	1095
f 1046 	1094 	1095
f 1048 	1047 	1096
f 1047 	1095 	1096
f 1049 	1048 	1097
f 1048 	1096 	1097
f 1050 	1049 	1098
f 1049 	1097 	1098
f 1051 	1050 	1099
f 1050 	1098 	1099
f 1052 	1051 	1100
f 1051 	1099 	1100
f 1053 	1052 	1101
f 1052 	1100 	1101
f 1054 	1053 	1102
f 1053 	1101 	1102
f 1055 	1054 	1103
f 1054 	1102 	1103
f 1056 	1055 	1104
f 1055 	1103 	1104
f 1057 	1056 	1105
f 1056 	1104 	1105
f 1058 	1057 	1106
f 1057 	1105 	1106
f 1059 	1058 	1107
f 1058 	1106 	1107
f 1060 	1059 	1108
f 1059 	1107 	1108
f 1061 	1060 	1109
f 1060 	1108 	1109
f 1062 	1061 	1110
f 1061 	1109 	1110
f 1063 	1062 	1111
f 1062 	1110 	1111
f 1064 	1063 	1112
f 1063 	1111 	1112
f 1065 	1064 	1113
f 1064 	1112 	1113
f 1066 	1065 	1114
f 1065 	1113 	1114
f 1067 	1066 	1115
f 1066 	1114 	1115
f 1020 	1067 	1068
f 1067 	1115 	1068
f 1069 	1068 	1117
f 1068 	1116 	1117
f 1070 	1069 	1118
f 1069 	1117 	1118
f 1071 	1070 	1119
f 1070 	1118 	1119
f 1072 	1071 	1120
f 1071 	1119 	1120
f 1073 	1072 	1121
f 1072 	1120 	1121
f 1074 	1073 	1122
f 1073 	1121 	1122
f 1075 	1074 	1123
f 1074 	1122 	1123
f 1076 	1075 	1124
f 1075 	1123 	1124
f 1077 	1076 	1125
f 1076 	1124 	1125
f 1078 	1077 	1126
f 1077 	1125 	1126
f 1079 	1078 	1127
f 1078 	1126 	1127
f 1080 	1079 	1128
f 1079 	1127 	1128
f 1081 	1080 	1129
f 1080 	1128 	1129
f 1082 	1081 	1130
f 1081 	1129 	1130
f 1083 	1082 	1131
f 1082 	1130 	1131
f 1084 	1083 	1132
f 1083 	1131 	1132
f 1085 	1084 	1133
f 1084 	1132 	1133
f 1086 	1085 	1134
f 1085 	1133 	1134
f 1087 	1086 	1135
f 1086 	1134 	1135
f 1088 	1087 	1136
f 1087 	1135 	1136
f 1089 	1088 	1137
f 1088 	1136 	1137
f 1090 	1089 	1138
f 1089 	1137 	1138
f 1091 	1090 	1139
f 1090 	1138 	1139
f 1092 	1091 	1140
f 1091 	1139 	1140
f 1093 	1092 	1141
f 1092 	1140 	1141
f 1094 	1093 	1142
f 1093 	1141 	1142
f 1095 	1094 	1143
f 1094 	1142 	1143
f 1096 	1095 	1144
f 1095 	1143 	1144
f 1097 	1096 	1145
f 1096 	1144 	1145
f 1098 	1097 	1146
f 1097 	1145 	1146
f 1099 	1098 	1147
f 1098 	1146 	1147
f 1100 	1099 	1148
f 1099 	1147 	1148
f 1101 	1100 	1149
f 1100 	1148 	1149
f 1102 	1101 	1150
f 1101 	1149 	1150
f 1103 	1102 	1151
f 1102 	1150 	1151
f 1104 	1103 	1152
f 1103 	1151 	1152
f 1105 	1104 	1153
f 1104 	1152 	1153
f 1106 	1105 	1154
f 1105 	1153 	1154
f 1107 	1106 	1155
f 1106 	1154 	1155
f 1108 	1107 	1156
f 1107 	1155 	1156
f 1109 	1108 	1157
f 1108 	1156 	1157
f 1110 	1109 	1158
f 1109 	1157 	1158
f 1111 	1110 	1159
f 1110 	1158 	1159
f 1112 	1111 	1160
f 1111 	1159 	1160
f 1113 	1112 	1161
f 1112 	1160 	1161
f 1114 	1113 	1162
f 1113 	1161 	1162
f 1115 	1114 	1163
f 1114 	1162 	1163
f 1068 	1115 	1116
f 1115 	1163 	1116
f 1117 	1116 	1165
f 1116 	1164 	1165
f 1118 	1117 	1166
f 1117 	1165 	1166
f 1119 	1118 	1167
f 1118 	1166 	1167
f 1120 	1119 	1168
f 1119 	1167 	1168
f 1121 	1120 	1169
f 1120 	1168 	1169
f 1122 	1121 	1170
f 1121 	1169 	1170
f 1123 	1122 	1171
f 1122 	1170 	1171
f 1124 	1123 	1172
f 1123 	1171 	1172
f 1125 	1124 	1173
f 1124 	1172 	1173
f 1126 	1125 	1174
f 1125 	1173 	1174
f 1127 	1126 	1175
f 1126 	1174 	1175
f 1128 	1127 	1176
f 1127 	1175 	1176
f 1129 	1128 	1177
f 1128 	1176 	1177
f 1130 	1129 	1178
f 1129 	1177 	1178
f 1131 	1130 	1179
f 1130 	1178 	1179
f 1132 	1131 	1180
f 1131 	1179 	1180
f 1133 	1132 	1181
f 1132 	1180 	1181
f 1134 	1133 	1182
f 1133 	1181 	1182
f 1135 	1134 	1183
f 1134 	1182 	1183
f 1136 	1135 	1184
f 1135 	1183 	1184
f 1137 	1136 	1185
f 1136 	1184 	1185
f 1138 	1137 	1186
f 1137 	1185 	1186
f 1139 	1138 	1187
f 1138 	1186 	1187
f 1140 	1139 	1188
f 1139 	1187 	1188
f 1141 	1140 	1189
f 1140 	1188 	1189
f 1142 	1141 	1190
f 1141 	1189 	1190
f 1143 	1142 	1191
f 1142 	1190 	1191
f 1144 	1143 	1192
f 1143 	1191 	1192
f 1145 	1144 	1193
f 1144 	1192 	1193
f 1146 	1145 	1194
f 1145 	1193 	1194
f 1147 	1146 	1195
f 1146 	1194 	1195
f 1148 	1147 	1196
f 1147 	1195 	1196
f 1149 	1148 	1197
f 1148 	1196 	1197
f 1150 	1149 	1198
f 1149 	1197 	1198
f 1151 	1150 	1199
f 1150 	1198 	1199
f 1152 	1151 	1200
f 1151 	1199 	1200
f 1153 	1152 	1201
f 1152 	1200 	1201
f 1154 	1153 	1202
f 1153 	1201 	1202
f 1155 	1154 	1203
f 1154 	1202 	1203
f 1156 	1155 	1204
f 1155 	1203 	1204
f 1157 	1156 	1205
f 1156 	1204 	1205
f 1158 	1157 	1206
f 1157 	1205 	1206
f 1159 	1158 	1207
f 1158 	1206 	1207
f 1160 	1159 	1208
f 1159 	1207 	1208
f 1161 	1160 	1209
f 1160 	1208 	1209
f 1162 	1161 	1210
f 1161 	1209 	1210
f 1163 	1162 	1211
f 1162 	1210 	1211
f 1116 	1163 	1164
f 1163 	1211 	1164
f 1165 	1164 	1212
f 1166 	1165 	1212
f 1167 	1166 	1212
f 1168 	1167 	1212
f 1169 	1168 	1212
f 1170 	1169 	1212
f 1171 	1170 	1212
f 1172 	1171 	1212
f 1173 	1172 	1212
f 1174 	1173 	1212
f 1175 	1174 	1212
f 1176 	1175 	1212
f 1177 	1176 	1212
f 1178 	1177 	1212
f 1179 	1178 	1212
f 1180 	1179 	1212
f 1181 	1180 	1212
f 1182 	1181 	1212
f 1183 	1182 	1212
f 1184 	1183 	1212
f 1185 	1184 	1212
f 1186 	1185 	1212
f 1187 	1186 	1212
f 1188 	1187 	1212
f 1189 	1188 	1212
f 1190 	1189 	1212
f 1191 	1190 	1212
f 1192 	1191 	1212
f 1193 	1192 	1212
f 1194 	1193 	1212
f 1195 	1194 	1212
f 1196 	1195 	1212
f 1197 	1196 	1212
f 1198 	1197 	1212
f 1199 	1198 	1212
f 1200 	1199 	1212
f 1201 	1200 	1212
f 1202 	1201 	1212
f 1203 	1202 	1212
f 1204 	1203 	1212
f 1205 	1204 	1212
f 1206 	1205 	1212
f 1207 	1206 	1212
f 1208 	1207 	1212
f 1209 	1208 	1212
f 1210 	1209 	1212
f 1211 	1210 	1212
f 1164 	1211 	1212
# 2208 faces

 #end of obj_2

o obj_3
v -14.2522 		-29.3431 		6.2969
v -14.2522 		-16.281 		6.2969
v -14.2522 		-29.3431 		5
v -14.2522 		-16.281 		5
v -23.4522 		-16.281 		6.2969
v -23.4522 		-29.3431 		6.2969
v -23.4522 		-16.281 		5
v -23.4522 		-29.3431 		5
# 8 vertices

g group_3_6383466

usemtl color_6383466
s 0

f 1213 	1215 	1214
f 1215 	1216 	1214
f 1217 	1219 	1218
f 1219 	1220 	1218
f 1217 	1218 	1214
f 1218 	1213 	1214
f 1220 	1219 	1215
f 1219 	1216 	1215
f 1218 	1220 	1213
f 1220 	1215 	1213
f 1214 	1216 	1217
f 1216 	1219 	1217
# 12 faces

 #end of obj_3

o obj_4
v -18.5811 		-25.588 		6.2969
v -18.9506 		-25.6117 		6.2969
v -18.9506 		-22.8323 		6.2969
v -18.2179 		-25.517 		6.2969
v -17.8672 		-25.4002 		6.2969
v -17.5351 		-25.2394 		6.2969
v -17.2272 		-25.0374 		6.2969
v -16.9488 		-24.7977 		6.2969
v -16.7047 		-24.5243 		6.2969
v -16.4989 		-24.222 		6.2969
v -16.3352 		-23.8959 		6.2969
v -16.2161 		-23.5516 		6.2969
v -16.1439 		-23.1951 		6.2969
v -16.1197 		-22.8323 		6.2969
v -16.1439 		-22.4695 		6.2969
v -16.2161 		-22.1129 		6.2969
v -16.3352 		-21.7686 		6.2969
v -16.4989 		-21.4425 		6.2969
v -16.7047 		-21.1402 		6.2969
v -16.9488 		-20.8669 		6.2969
v -17.2272 		-20.6272 		6.2969
v -17.5351 		-20.4252 		6.2969
v -17.8672 		-20.2644 		6.2969
v -18.2179 		-20.1475 		6.2969
v -18.5811 		-20.0766 		6.2969
v -18.9506 		-20.0528 		6.2969
v -19.3201 		-20.0766 		6.2969
v -19.6833 		-20.1475 		6.2969
v -20.034 		-20.2644 		6.2969
v -20.3661 		-20.4252 		6.2969
v -20.674 		-20.6272 		6.2969
v -20.9524 		-20.8669 		6.2969
v -21.1965 		-21.1402 		6.2969
v -21.4023 		-21.4425 		6.2969
v -21.5661 		-21.7686 		6.2969
v -21.6851 		-22.1129 		6.2969
v -21.7573 		-22.4695 		6.2969
v -21.7816 		-22.8323 		6.2969
v -21.7573 		-23.1951 		6.2969
v -21.6851 		-23.5516 		6.2969
v -21.5661 		-23.8959 		6.2969
v -21.4023 		-24.222 		6.2969
v -21.1965 		-24.5243 		6.2969
v -20.9524 		-24.7977 		6.2969
v -20.674 		-25.0374 		6.2969
v -20.3661 		-25.2394 		6.2969
v -20.034 		-25.4002 		6.2969
v -19.6833 		-25.517 		6.2969
v -19.3201 		-25.588 		6.2969
v -18.9506 		-25.6117 		6.8941
v -18.5811 		-25.588 		6.8941
v -18.9506 		-22.8323 		6.8941
v -18.2179 		-25.517 		6.8941
v -17.8672 		-25.4002 		6.8941
v -17.5351 		-25.2394 		6.8941
v -17.2272 		-25.0374 		6.8941
v -16.9488 		-24.7977 		6.8941
v -16.7047 		-24.5243 		6.8941
v -16.4989 		-24.222 		6.8941
v -16.3352 		-23.8959 		6.8941
v -16.2161 		-23.5516 		6.8941
v -16.1439 		-23.1951 		6.8941
v -16.1197 		-22.8323 		6.8941
v -16.1439 		-22.4695 		6.8941
v -16.2161 		-22.1129 		6.8941
v -16.3352 		-21.7686 		6.8941
v -16.4989 		-21.4425 		6.8941
v -16.7047 		-21.1402 		6.8941
v -16.9488 		-20.8669 		6.8941
v -17.2272 		-20.6272 		6.8941
v -17.5351 		-20.4252 		6.8941
v -17.8672 		-20.2644 		6.8941
v -18.2179 		-20.1475 		6.8941
v -18.5811 		-20.0766 		6.8941
v -18.9506 		-20.0528 		6.8941
v -19.3201 		-20.0766 		6.8941
v -19.6833 		-20.1475 		6.8941
v -20.034 		-20.2644 		6.8941
v -20.3661 		-20.4252 		6.8941
v -20.674 		-20.6272 		6.8941
v -20.9524 		-20.8669 		6.8941
v -21.1965 		-21.1402 		6.8941
v -21.4023 		-21.4425 		6.8941
v -21.5661 		-21.7686 		6.8941
v -21.6851 		-22.1129 		6.8941
v -21.7573 		-22.4695 		6.8941
v -21.7816 		-22.8323 		6.8941
v -21.7573 		-23.1951 		6.8941
v -21.6851 		-23.5516 		6.8941
v -21.5661 		-23.8959 		6.8941
v -21.4023 		-24.222 		6.8941
v -21.1965 		-24.5243 		6.8941
v -20.9524 		-24.7977 		6.8941
v -20.674 		-25.0374 		6.8941
v -20.3661 		-25.2394 		6.8941
v -20.034 		-25.4002 		6.8941
v -19.6833 		-25.517 		6.8941
v -19.3201 		-25.588 		6.8941
# 98 vertices

g group_4_15277357

usemtl color_15277357
s 0

f 1221 	1222 	1223
f 1224 	1221 	1223
f 1225 	1224 	1223
f 1226 	1225 	1223
f 1227 	1226 	1223
f 1228 	1227 	1223
f 1229 	1228 	1223
f 1230 	1229 	1223
f 1231 	1230 	1223
f 1232 	1231 	1223
f 1233 	1232 	1223
f 1234 	1233 	1223
f 1235 	1234 	1223
f 1236 	1235 	1223
f 1237 	1236 	1223
f 1238 	1237 	1223
f 1239 	1238 	1223
f 1240 	1239 	1223
f 1241 	1240 	1223
f 1242 	1241 	1223
f 1243 	1242 	1223
f 1244 	1243 	1223
f 1245 	1244 	1223
f 1246 	1245 	1223
f 1247 	1246 	1223
f 1248 	1247 	1223
f 1249 	1248 	1223
f 1250 	1249 	1223
f 1251 	1250 	1223
f 1252 	1251 	1223
f 1253 	1252 	1223
f 1254 	1253 	1223
f 1255 	1254 	1223
f 1256 	1255 	1223
f 1257 	1256 	1223
f 1258 	1257 	1223
f 1259 	1258 	1223
f 1260 	1259 	1223
f 1261 	1260 	1223
f 1262 	1261 	1223
f 1263 	1262 	1223
f 1264 	1263 	1223
f 1265 	1264 	1223
f 1266 	1265 	1223
f 1267 	1266 	1223
f 1268 	1267 	1223
f 1269 	1268 	1223
f 1222 	1269 	1223
f 1270 	1271 	1272
f 1271 	1273 	1272
f 1273 	1274 	1272
f 1274 	1275 	1272
f 1275 	1276 	1272
f 1276 	1277 	1272
f 1277 	1278 	1272
f 1278 	1279 	1272
f 1279 	1280 	1272
f 1280 	1281 	1272
f 1281 	1282 	1272
f 1282 	1283 	1272
f 1283 	1284 	1272
f 1284 	1285 	1272
f 1285 	1286 	1272
f 1286 	1287 	1272
f 1287 	1288 	1272
f 1288 	1289 	1272
f 1289 	1290 	1272
f 1290 	1291 	1272
f 1291 	1292 	1272
f 1292 	1293 	1272
f 1293 	1294 	1272
f 1294 	1295 	1272
f 1295 	1296 	1272
f 1296 	1297 	1272
f 1297 	1298 	1272
f 1298 	1299 	1272
f 1299 	1300 	1272
f 1300 	1301 	1272
f 1301 	1302 	1272
f 1302 	1303 	1272
f 1303 	1304 	1272
f 1304 	1305 	1272
f 1305 	1306 	1272
f 1306 	1307 	1272
f 1307 	1308 	1272
f 1308 	1309 	1272
f 1309 	1310 	1272
f 1310 	1311 	1272
f 1311 	1312 	1272
f 1312 	1313 	1272
f 1313 	1314 	1272
f 1314 	1315 	1272
f 1315 	1316 	1272
f 1316 	1317 	1272
f 1317 	1318 	1272
f 1318 	1270 	1272
f 1222 	1221 	1221
f 1221 	1224 	1224
f 1224 	1225 	1225
f 1225 	1226 	1226
f 1226 	1227 	1227
f 1227 	1228 	1228
f 1228 	1229 	1229
f 1229 	1230 	1230
f 1230 	1231 	1231
f 1231 	1232 	1232
f 1232 	1233 	1233
f 1233 	1234 	1234
f 1234 	1235 	1235
f 1235 	1236 	1236
f 1236 	1237 	1237
f 1237 	1238 	1238
f 1238 	1239 	1239
f 1239 	1240 	1240
f 1240 	1241 	1241
f 1241 	1242 	1242
f 1242 	1243 	1243
f 1243 	1244 	1244
f 1244 	1245 	1245
f 1245 	1246 	1246
f 1246 	1247 	1247
f 1247 	1248 	1248
f 1248 	1249 	1249
f 1249 	1250 	1250
f 1250 	1251 	1251
f 1251 	1252 	1252
f 1252 	1253 	1253
f 1253 	1254 	1254
f 1254 	1255 	1255
f 1255 	1256 	1256
f 1256 	1257 	1257
f 1257 	1258 	1258
f 1258 	1259 	1259
f 1259 	1260 	1260
f 1260 	1261 	1261
f 1261 	1262 	1262
f 1262 	1263 	1263
f 1263 	1264 	1264
f 1264 	1265 	1265
f 1265 	1266 	1266
f 1266 	1267 	1267
f 1267 	1268 	1268
f 1268 	1269 	1269
f 1269 	1222 	1222
f 1222 	1221 	1271
f 1222 	1271 	1270
f 1221 	1224 	1273
f 1221 	1273 	1271
f 1224 	1225 	1274
f 1224 	1274 	1273
f 1225 	1226 	1275
f 1225 	1275 	1274
f 1226 	1227 	1276
f 1226 	1276 	1275
f 1227 	1228 	1277
f 1227 	1277 	1276
f 1228 	1229 	1278
f 1228 	1278 	1277
f 1229 	1230 	1279
f 1229 	1279 	1278
f 1230 	1231 	1280
f 1230 	1280 	1279
f 1231 	1232 	1281
f 1231 	1281 	1280
f 1232 	1233 	1282
f 1232 	1282 	1281
f 1233 	1234 	1283
f 1233 	1283 	1282
f 1234 	1235 	1284
f 1234 	1284 	1283
f 1235 	1236 	1285
f 1235 	1285 	1284
f 1236 	1237 	1286
f 1236 	1286 	1285
f 1237 	1238 	1287
f 1237 	1287 	1286
f 1238 	1239 	1288
f 1238 	1288 	1287
f 1239 	1240 	1289
f 1239 	1289 	1288
f 1240 	1241 	1290
f 1240 	1290 	1289
f 1241 	1242 	1291
f 1241 	1291 	1290
f 1242 	1243 	1292
f 1242 	1292 	1291
f 1243 	1244 	1293
f 1243 	1293 	1292
f 1244 	1245 	1294
f 1244 	1294 	1293
f 1245 	1246 	1295
f 1245 	1295 	1294
f 1246 	1247 	1296
f 1246 	1296 	1295
f 1247 	1248 	1297
f 1247 	1297 	1296
f 1248 	1249 	1298
f 1248 	1298 	1297
f 1249 	1250 	1299
f 1249 	1299 	1298
f 1250 	1251 	1300
f 1250 	1300 	1299
f 1251 	1252 	1301
f 1251 	1301 	1300
f 1252 	1253 	1302
f 1252 	1302 	1301
f 1253 	1254 	1303
f 1253 	1303 	1302
f 1254 	1255 	1304
f 1254 	1304 	1303
f 1255 	1256 	1305
f 1255 	1305 	1304
f 1256 	1257 	1306
f 1256 	1306 	1305
f 1257 	1258 	1307
f 1257 	1307 	1306
f 1258 	1259 	1308
f 1258 	1308 	1307
f 1259 	1260 	1309
f 1259 	1309 	1308
f 1260 	1261 	1310
f 1260 	1310 	1309
f 1261 	1262 	1311
f 1261 	1311 	1310
f 1262 	1263 	1312
f 1262 	1312 	1311
f 1263 	1264 	1313
f 1263 	1313 	1312
f 1264 	1265 	1314
f 1264 	1314 	1313
f 1265 	1266 	1315
f 1265 	1315 	1314
f 1266 	1267 	1316
f 1266 	1316 	1315
f 1267 	1268 	1317
f 1267 	1317 	1316
f 1268 	1269 	1318
f 1268 	1318 	1317
f 1269 	1222 	1270
f 1269 	1270 	1318
f 1270 	1271 	1271
f 1271 	1273 	1273
f 1273 	1274 	1274
f 1274 	1275 	1275
f 1275 	1276 	1276
f 1276 	1277 	1277
f 1277 	1278 	1278
f 1278 	1279 	1279
f 1279 	1280 	1280
f 1280 	1281 	1281
f 1281 	1282 	1282
f 1282 	1283 	1283
f 1283 	1284 	1284
f 1284 	1285 	1285
f 1285 	1286 	1286
f 1286 	1287 	1287
f 1287 	1288 	1288
f 1288 	1289 	1289
f 1289 	1290 	1290
f 1290 	1291 	1291
f 1291 	1292 	1292
f 1292 	1293 	1293
f 1293 	1294 	1294
f 1294 	1295 	1295
f 1295 	1296 	1296
f 1296 	1297 	1297
f 1297 	1298 	1298
f 1298 	1299 	1299
f 1299 	1300 	1300
f 1300 	1301 	1301
f 1301 	1302 	1302
f 1302 	1303 	1303
f 1303 	1304 	1304
f 1304 	1305 	1305
f 1305 	1306 	1306
f 1306 	1307 	1307
f 1307 	1308 	1308
f 1308 	1309 	1309
f 1309 	1310 	1310
f 1310 	1311 	1311
f 1311 	1312 	1312
f 1312 	1313 	1313
f 1313 	1314 	1314
f 1314 	1315 	1315
f 1315 	1316 	1316
f 1316 	1317 	1317
f 1317 	1318 	1318
f 1318 	1270 	1270
# 288 faces

 #end of obj_4

