# Object Export From Tinkercad Server 2015

mtllib obj.mtl

o obj_0
v -36.75 		-6.998 		6.25
v -36.75 		-6.998 		-0.25
v -36.75 		-2 		-0.25
v -36.75 		-2 		6.25
v -36.75 		-29 		6.25
v -36.75 		-29 		-0.25
v -36.75 		-24.003 		-0.25
v -36.75 		-24.003 		6.25
v -57.25 		-24.003 		-0.25
v -57.25 		-24.003 		6.25
v -57.25 		-2 		6.25
v -57.25 		-2 		-0.25
v -57.25 		-6.998 		-0.25
v -57.25 		-6.998 		6.25
v -57.25 		-29 		6.25
v -57.25 		-29 		-0.25
# 16 vertices

g group_0_2829873

usemtl color_2829873
s 0

f 1 	2 	3
f 1 	3 	4
f 5 	6 	7
f 5 	7 	8
f 8 	7 	9
f 8 	9 	10
f 11 	12 	13
f 11 	13 	14
f 8 	10 	15
f 8 	15 	5
f 2 	13 	12
f 2 	12 	3
f 6 	16 	9
f 6 	9 	7
f 15 	16 	6
f 15 	6 	5
f 10 	9 	16
f 10 	16 	15
f 4 	11 	14
f 4 	14 	1
f 4 	3 	12
f 4 	12 	11
f 14 	13 	2
f 14 	2 	1
# 24 faces

 #end of obj_0

o obj_1
v -50 		-24 		6.5
v -50 		-14 		6.5
v -50 		-24 		1
v -50 		-14 		1
v -56 		-14 		6.5
v -56 		-24 		6.5
v -56 		-14 		1
v -56 		-24 		1
# 8 vertices

g group_1_10988977

usemtl color_10988977
s 0

f 17 	19 	18
f 19 	20 	18
f 21 	23 	22
f 23 	24 	22
f 21 	22 	18
f 22 	17 	18
f 24 	23 	19
f 23 	20 	19
f 22 	24 	17
f 24 	19 	17
f 18 	20 	21
f 20 	23 	21
# 12 faces

 #end of obj_1

o obj_2
v -52.9455 		-23.4882 		3.25
v -53.125 		-23.5 		3.25
v -53.125 		-22.125 		3.25
v -52.7691 		-23.4531 		3.25
v -52.5988 		-23.3953 		3.25
v -52.4375 		-23.3158 		3.25
v -52.288 		-23.2159 		3.25
v -52.1527 		-23.0973 		3.25
v -52.0341 		-22.962 		3.25
v -51.9342 		-22.8125 		3.25
v -51.8547 		-22.6512 		3.25
v -51.7969 		-22.4809 		3.25
v -51.7618 		-22.3045 		3.25
v -51.75 		-22.125 		3.25
v -51.7618 		-21.9455 		3.25
v -51.7969 		-21.7691 		3.25
v -51.8547 		-21.5988 		3.25
v -51.9342 		-21.4375 		3.25
v -52.0341 		-21.288 		3.25
v -52.1527 		-21.1527 		3.25
v -52.288 		-21.0341 		3.25
v -52.4375 		-20.9342 		3.25
v -52.5988 		-20.8547 		3.25
v -52.7691 		-20.7969 		3.25
v -52.9455 		-20.7618 		3.25
v -53.125 		-20.75 		3.25
v -53.3045 		-20.7618 		3.25
v -53.4809 		-20.7969 		3.25
v -53.6512 		-20.8547 		3.25
v -53.8125 		-20.9342 		3.25
v -53.962 		-21.0341 		3.25
v -54.0973 		-21.1527 		3.25
v -54.2159 		-21.288 		3.25
v -54.3158 		-21.4375 		3.25
v -54.3953 		-21.5988 		3.25
v -54.4531 		-21.7691 		3.25
v -54.4882 		-21.9455 		3.25
v -54.5 		-22.125 		3.25
v -54.4882 		-22.3045 		3.25
v -54.4531 		-22.4809 		3.25
v -54.3953 		-22.6512 		3.25
v -54.3158 		-22.8125 		3.25
v -54.2159 		-22.962 		3.25
v -54.0973 		-23.0973 		3.25
v -53.962 		-23.2159 		3.25
v -53.8125 		-23.3158 		3.25
v -53.6512 		-23.3953 		3.25
v -53.4809 		-23.4531 		3.25
v -53.3045 		-23.4882 		3.25
v -53.125 		-23.5 		6.75
v -52.9455 		-23.4882 		6.75
v -53.125 		-22.125 		6.75
v -52.7691 		-23.4531 		6.75
v -52.5988 		-23.3953 		6.75
v -52.4375 		-23.3158 		6.75
v -52.288 		-23.2159 		6.75
v -52.1527 		-23.0973 		6.75
v -52.0341 		-22.962 		6.75
v -51.9342 		-22.8125 		6.75
v -51.8547 		-22.6512 		6.75
v -51.7969 		-22.4809 		6.75
v -51.7618 		-22.3045 		6.75
v -51.75 		-22.125 		6.75
v -51.7618 		-21.9455 		6.75
v -51.7969 		-21.7691 		6.75
v -51.8547 		-21.5988 		6.75
v -51.9342 		-21.4375 		6.75
v -52.0341 		-21.288 		6.75
v -52.1527 		-21.1527 		6.75
v -52.288 		-21.0341 		6.75
v -52.4375 		-20.9342 		6.75
v -52.5988 		-20.8547 		6.75
v -52.7691 		-20.7969 		6.75
v -52.9455 		-20.7618 		6.75
v -53.125 		-20.75 		6.75
v -53.3045 		-20.7618 		6.75
v -53.4809 		-20.7969 		6.75
v -53.6512 		-20.8547 		6.75
v -53.8125 		-20.9342 		6.75
v -53.962 		-21.0341 		6.75
v -54.0973 		-21.1527 		6.75
v -54.2159 		-21.288 		6.75
v -54.3158 		-21.4375 		6.75
v -54.3953 		-21.5988 		6.75
v -54.4531 		-21.7691 		6.75
v -54.4882 		-21.9455 		6.75
v -54.5 		-22.125 		6.75
v -54.4882 		-22.3045 		6.75
v -54.4531 		-22.4809 		6.75
v -54.3953 		-22.6512 		6.75
v -54.3158 		-22.8125 		6.75
v -54.2159 		-22.962 		6.75
v -54.0973 		-23.0973 		6.75
v -53.962 		-23.2159 		6.75
v -53.8125 		-23.3158 		6.75
v -53.6512 		-23.3953 		6.75
v -53.4809 		-23.4531 		6.75
v -53.3045 		-23.4882 		6.75
# 98 vertices

g group_2_15277357

usemtl color_15277357
s 0

f 25 	26 	27
f 28 	25 	27
f 29 	28 	27
f 30 	29 	27
f 31 	30 	27
f 32 	31 	27
f 33 	32 	27
f 34 	33 	27
f 35 	34 	27
f 36 	35 	27
f 37 	36 	27
f 38 	37 	27
f 39 	38 	27
f 40 	39 	27
f 41 	40 	27
f 42 	41 	27
f 43 	42 	27
f 44 	43 	27
f 45 	44 	27
f 46 	45 	27
f 47 	46 	27
f 48 	47 	27
f 49 	48 	27
f 50 	49 	27
f 51 	50 	27
f 52 	51 	27
f 53 	52 	27
f 54 	53 	27
f 55 	54 	27
f 56 	55 	27
f 57 	56 	27
f 58 	57 	27
f 59 	58 	27
f 60 	59 	27
f 61 	60 	27
f 62 	61 	27
f 63 	62 	27
f 64 	63 	27
f 65 	64 	27
f 66 	65 	27
f 67 	66 	27
f 68 	67 	27
f 69 	68 	27
f 70 	69 	27
f 71 	70 	27
f 72 	71 	27
f 73 	72 	27
f 26 	73 	27
f 74 	75 	76
f 75 	77 	76
f 77 	78 	76
f 78 	79 	76
f 79 	80 	76
f 80 	81 	76
f 81 	82 	76
f 82 	83 	76
f 83 	84 	76
f 84 	85 	76
f 85 	86 	76
f 86 	87 	76
f 87 	88 	76
f 88 	89 	76
f 89 	90 	76
f 90 	91 	76
f 91 	92 	76
f 92 	93 	76
f 93 	94 	76
f 94 	95 	76
f 95 	96 	76
f 96 	97 	76
f 97 	98 	76
f 98 	99 	76
f 99 	100 	76
f 100 	101 	76
f 101 	102 	76
f 102 	103 	76
f 103 	104 	76
f 104 	105 	76
f 105 	106 	76
f 106 	107 	76
f 107 	108 	76
f 108 	109 	76
f 109 	110 	76
f 110 	111 	76
f 111 	112 	76
f 112 	113 	76
f 113 	114 	76
f 114 	115 	76
f 115 	116 	76
f 116 	117 	76
f 117 	118 	76
f 118 	119 	76
f 119 	120 	76
f 120 	121 	76
f 121 	122 	76
f 122 	74 	76
f 26 	25 	25
f 25 	28 	28
f 28 	29 	29
f 29 	30 	30
f 30 	31 	31
f 31 	32 	32
f 32 	33 	33
f 33 	34 	34
f 34 	35 	35
f 35 	36 	36
f 36 	37 	37
f 37 	38 	38
f 38 	39 	39
f 39 	40 	40
f 40 	41 	41
f 41 	42 	42
f 42 	43 	43
f 43 	44 	44
f 44 	45 	45
f 45 	46 	46
f 46 	47 	47
f 47 	48 	48
f 48 	49 	49
f 49 	50 	50
f 50 	51 	51
f 51 	52 	52
f 52 	53 	53
f 53 	54 	54
f 54 	55 	55
f 55 	56 	56
f 56 	57 	57
f 57 	58 	58
f 58 	59 	59
f 59 	60 	60
f 60 	61 	61
f 61 	62 	62
f 62 	63 	63
f 63 	64 	64
f 64 	65 	65
f 65 	66 	66
f 66 	67 	67
f 67 	68 	68
f 68 	69 	69
f 69 	70 	70
f 70 	71 	71
f 71 	72 	72
f 72 	73 	73
f 73 	26 	26
f 26 	25 	75
f 26 	75 	74
f 25 	28 	77
f 25 	77 	75
f 28 	29 	78
f 28 	78 	77
f 29 	30 	79
f 29 	79 	78
f 30 	31 	80
f 30 	80 	79
f 31 	32 	81
f 31 	81 	80
f 32 	33 	82
f 32 	82 	81
f 33 	34 	83
f 33 	83 	82
f 34 	35 	84
f 34 	84 	83
f 35 	36 	85
f 35 	85 	84
f 36 	37 	86
f 36 	86 	85
f 37 	38 	87
f 37 	87 	86
f 38 	39 	88
f 38 	88 	87
f 39 	40 	89
f 39 	89 	88
f 40 	41 	90
f 40 	90 	89
f 41 	42 	91
f 41 	91 	90
f 42 	43 	92
f 42 	92 	91
f 43 	44 	93
f 43 	93 	92
f 44 	45 	94
f 44 	94 	93
f 45 	46 	95
f 45 	95 	94
f 46 	47 	96
f 46 	96 	95
f 47 	48 	97
f 47 	97 	96
f 48 	49 	98
f 48 	98 	97
f 49 	50 	99
f 49 	99 	98
f 50 	51 	100
f 50 	100 	99
f 51 	52 	101
f 51 	101 	100
f 52 	53 	102
f 52 	102 	101
f 53 	54 	103
f 53 	103 	102
f 54 	55 	104
f 54 	104 	103
f 55 	56 	105
f 55 	105 	104
f 56 	57 	106
f 56 	106 	105
f 57 	58 	107
f 57 	107 	106
f 58 	59 	108
f 58 	108 	107
f 59 	60 	109
f 59 	109 	108
f 60 	61 	110
f 60 	110 	109
f 61 	62 	111
f 61 	111 	110
f 62 	63 	112
f 62 	112 	111
f 63 	64 	113
f 63 	113 	112
f 64 	65 	114
f 64 	114 	113
f 65 	66 	115
f 65 	115 	114
f 66 	67 	116
f 66 	116 	115
f 67 	68 	117
f 67 	117 	116
f 68 	69 	118
f 68 	118 	117
f 69 	70 	119
f 69 	119 	118
f 70 	71 	120
f 70 	120 	119
f 71 	72 	121
f 71 	121 	120
f 72 	73 	122
f 72 	122 	121
f 73 	26 	74
f 73 	74 	122
f 74 	75 	75
f 75 	77 	77
f 77 	78 	78
f 78 	79 	79
f 79 	80 	80
f 80 	81 	81
f 81 	82 	82
f 82 	83 	83
f 83 	84 	84
f 84 	85 	85
f 85 	86 	86
f 86 	87 	87
f 87 	88 	88
f 88 	89 	89
f 89 	90 	90
f 90 	91 	91
f 91 	92 	92
f 92 	93 	93
f 93 	94 	94
f 94 	95 	95
f 95 	96 	96
f 96 	97 	97
f 97 	98 	98
f 98 	99 	99
f 99 	100 	100
f 100 	101 	101
f 101 	102 	102
f 102 	103 	103
f 103 	104 	104
f 104 	105 	105
f 105 	106 	106
f 106 	107 	107
f 107 	108 	108
f 108 	109 	109
f 109 	110 	110
f 110 	111 	111
f 111 	112 	112
f 112 	113 	113
f 113 	114 	114
f 114 	115 	115
f 115 	116 	116
f 116 	117 	117
f 117 	118 	118
f 118 	119 	119
f 119 	120 	120
f 120 	121 	121
f 121 	122 	122
f 122 	74 	74
# 288 faces

 #end of obj_2

o obj_3
v -37 		-37 		6
v -37 		-37 		0
v -37 		6 		0
v -37 		6 		6
v -57 		6 		6
v -57 		6 		0
v -57 		-37 		0
v -57 		-37 		6
v -42.369 		-37 		6
v -42.369 		6 		6
v -51.47 		6 		6
v -51.47 		-37 		6
v -51.93 		-37 		6
v -51.93 		6 		6
v -51.47 		-37 		5.887
v -42.369 		-37 		5.887
v -41.998 		6 		6
v -41.998 		-37 		6
v -41.998 		-37 		5.887
v -51.93 		-37 		5.887
v -42.369 		6 		5.887
v -51.47 		6 		5.887
v -51.93 		6 		5.887
v -41.998 		6 		5.887
# 24 vertices

g group_3_4634441

usemtl color_4634441
s 0

f 123 	124 	125
f 123 	125 	126
f 127 	128 	129
f 127 	129 	130
f 131 	132 	133
f 131 	133 	134
f 135 	136 	127
f 135 	127 	130
f 128 	125 	129
f 124 	129 	125
f 134 	137 	138
f 134 	138 	131
f 126 	139 	140
f 126 	140 	123
f 129 	124 	137
f 142 	129 	137
f 138 	137 	124
f 141 	138 	124
f 124 	123 	141
f 140 	141 	123
f 130 	129 	142
f 130 	142 	135
f 132 	143 	144
f 132 	144 	133
f 146 	125 	143
f 143 	125 	144
f 145 	144 	128
f 128 	127 	145
f 136 	145 	127
f 128 	144 	125
f 126 	125 	146
f 126 	146 	139
f 138 	143 	132
f 138 	132 	131
f 144 	137 	134
f 144 	134 	133
f 136 	135 	142
f 136 	142 	145
f 141 	146 	143
f 141 	143 	138
f 137 	144 	145
f 137 	145 	142
f 140 	139 	146
f 140 	146 	141
# 44 faces

 #end of obj_3

