# Object Export From Tinkercad Server 2015

mtllib obj.mtl

o obj_0
v -36.2 		19.7245 		48.8633
v -40.2 		19.7245 		48.8633
v -36.2 		19.7245 		60.8633
v -36.2 		2.7245 		60.8633
v -40.2 		2.7245 		48.8633
v -36.2 		2.7245 		48.8633
# 6 vertices

g group_0_6383466

usemtl color_6383466
s 0

f 1 	2 	3
f 4 	5 	6
f 1 	3 	6
f 3 	4 	6
f 3 	2 	4
f 2 	5 	4
f 2 	1 	5
f 1 	6 	5
# 8 faces

 #end of obj_0

o obj_1
v -30.1376 		1.9 		48.8633
v -30.1376 		20.3245 		48.8633
v -30.1376 		1.9 		60.7633
v -30.1376 		20.3245 		60.7633
v -30.5 		20.3245 		48.8633
v -30.5 		1.9 		48.8633
v -30.5 		20.3245 		60.7633
v -30.5 		1.9 		60.7633
# 8 vertices

g group_1_6383466

usemtl color_6383466
s 0

f 9 	7 	8
f 10 	9 	8
f 13 	11 	12
f 14 	13 	12
f 12 	11 	8
f 7 	12 	8
f 13 	14 	9
f 10 	13 	9
f 14 	12 	7
f 9 	14 	7
f 10 	8 	11
f 13 	10 	11
# 12 faces

 #end of obj_1

o obj_2
v -8.7 		2.7245 		48.8633
v -8.7 		19.7245 		48.8633
v -8.7 		2.7245 		60.8633
v -8.7 		19.7245 		60.8633
v -36.2 		19.7245 		48.8633
v -36.2 		2.7245 		48.8633
v -36.2 		19.7245 		60.8633
v -36.2 		2.7245 		60.8633
# 8 vertices

g group_2_6383466

usemtl color_6383466
s 0

f 17 	15 	16
f 18 	17 	16
f 21 	19 	20
f 22 	21 	20
f 20 	19 	16
f 15 	20 	16
f 21 	22 	17
f 18 	21 	17
f 22 	20 	15
f 17 	22 	15
f 18 	16 	19
f 21 	18 	19
# 12 faces

 #end of obj_2

o obj_3
v -30.7 		1.9 		48.8633
v -30.7 		20.3245 		48.8633
v -30.7 		1.9 		60.7633
v -30.7 		20.3245 		60.7633
v -31.2 		20.3245 		48.8633
v -31.2 		1.9 		48.8633
v -31.2 		20.3245 		60.7633
v -31.2 		1.9 		60.7633
# 8 vertices

g group_3_6383466

usemtl color_6383466
s 0

f 25 	23 	24
f 26 	25 	24
f 29 	27 	28
f 30 	29 	28
f 28 	27 	24
f 23 	28 	24
f 29 	30 	25
f 26 	29 	25
f 30 	28 	23
f 25 	30 	23
f 26 	24 	27
f 29 	26 	27
# 12 faces

 #end of obj_3

o obj_4
v -31.4 		1.9 		48.8633
v -31.4 		20.2245 		48.8633
v -31.4 		1.9 		60.7633
v -31.4 		20.2245 		60.7633
v -31.9 		20.2245 		48.8633
v -31.9 		1.9 		48.8633
v -31.9 		20.2245 		60.7633
v -31.9 		1.9 		60.7633
# 8 vertices

g group_4_6383466

usemtl color_6383466
s 0

f 33 	31 	32
f 34 	33 	32
f 37 	35 	36
f 38 	37 	36
f 36 	35 	32
f 31 	36 	32
f 37 	38 	33
f 34 	37 	33
f 38 	36 	31
f 33 	38 	31
f 34 	32 	35
f 37 	34 	35
# 12 faces

 #end of obj_4

o obj_5
v -32 		1.9 		48.8633
v -32 		20.2245 		48.8633
v -32 		1.9 		60.7633
v -32 		20.2245 		60.7633
v -32.8 		20.2245 		48.8633
v -32.8 		1.9 		48.8633
v -32.8 		20.2245 		60.7633
v -32.8 		1.9 		60.7633
# 8 vertices

g group_5_6383466

usemtl color_6383466
s 0

f 41 	39 	40
f 42 	41 	40
f 45 	43 	44
f 46 	45 	44
f 44 	43 	40
f 39 	44 	40
f 45 	46 	41
f 42 	45 	41
f 46 	44 	39
f 41 	46 	39
f 42 	40 	43
f 45 	42 	43
# 12 faces

 #end of obj_5

o obj_6
v 14 		2.7245 		48.8633
v 14 		19.7245 		48.8633
v 14 		2.7245 		57.2633
v 14 		19.7245 		57.2633
v -8.7 		19.7245 		48.8633
v -8.7 		2.7245 		48.8633
v -8.7 		19.7245 		57.2633
v -8.7 		2.7245 		57.2633
# 8 vertices

g group_6_6383466

usemtl color_6383466
s 0

f 49 	47 	48
f 50 	49 	48
f 53 	51 	52
f 54 	53 	52
f 52 	51 	48
f 47 	52 	48
f 53 	54 	49
f 50 	53 	49
f 54 	52 	47
f 49 	54 	47
f 50 	48 	51
f 53 	50 	51
# 12 faces

 #end of obj_6

o obj_7
v -8.6 		5.4245 		57.3633
v -8.6 		2.7245 		57.3633
v -8.6 		5.4245 		60.7633
v 14 		5.4245 		60.7633
v 14 		2.7245 		57.3633
v 14 		5.4245 		57.3633
# 6 vertices

g group_7_6383466

usemtl color_6383466
s 0

f 55 	56 	57
f 58 	59 	60
f 55 	57 	60
f 57 	58 	60
f 57 	56 	58
f 56 	59 	58
f 56 	55 	59
f 55 	60 	59
# 8 faces

 #end of obj_7

o obj_8
v 14 		17.0245 		57.3633
v 14 		19.7245 		57.3633
v 14 		17.0245 		60.7633
v -8.6 		17.0245 		60.7633
v -8.6 		19.7245 		57.3633
v -8.6 		17.0245 		57.3633
# 6 vertices

g group_8_6383466

usemtl color_6383466
s 0

f 61 	62 	63
f 64 	65 	66
f 61 	63 	66
f 63 	64 	66
f 63 	62 	64
f 62 	65 	64
f 62 	61 	65
f 61 	66 	65
# 8 faces

 #end of obj_8

o obj_9
v -8.7 		5.4245 		57.3633
v -6 		5.4245 		57.3633
v -8.7 		5.4245 		60.7633
v -8.7 		17.0245 		60.7633
v -6 		17.0245 		57.3633
v -8.7 		17.0245 		57.3633
# 6 vertices

g group_9_6383466

usemtl color_6383466
s 0

f 67 	68 	69
f 70 	71 	72
f 67 	69 	72
f 69 	70 	72
f 69 	68 	70
f 68 	71 	70
f 68 	67 	71
f 67 	72 	71
# 8 faces

 #end of obj_9

o obj_10
v 52.9 		2.7245 		48.8633
v 52.9 		19.7245 		48.8633
v 52.9 		2.7245 		60.8633
v 52.9 		19.7245 		60.8633
v 13.9 		19.7245 		48.8633
v 13.9 		2.7245 		48.8633
v 13.9 		19.7245 		60.8633
v 13.9 		2.7245 		60.8633
# 8 vertices

g group_10_6383466

usemtl color_6383466
s 0

f 75 	73 	74
f 76 	75 	74
f 79 	77 	78
f 80 	79 	78
f 78 	77 	74
f 73 	78 	74
f 79 	80 	75
f 76 	79 	75
f 80 	78 	73
f 75 	80 	73
f 76 	74 	77
f 79 	76 	77
# 12 faces

 #end of obj_10

o obj_11
v 51.7 		11.7245 		61.6633
v 42.4 		11.7245 		61.6633
v 51.7 		11.7245 		63.8633
v 51.7 		9.8245 		63.8633
v 42.4 		9.8245 		61.6633
v 51.7 		9.8245 		61.6633
# 6 vertices

g group_11_6383466

usemtl color_6383466
s 0

f 81 	82 	83
f 84 	85 	86
f 81 	83 	86
f 83 	84 	86
f 83 	82 	84
f 82 	85 	84
f 82 	81 	85
f 81 	86 	85
# 8 faces

 #end of obj_11

o obj_12
v -29.5 		11.7245 		60.7633
v -34.8 		11.7245 		60.7633
v -29.5 		11.7245 		62.6633
v -29.5 		9.8245 		62.6633
v -34.8 		9.8245 		60.7633
v -29.5 		9.8245 		60.7633
# 6 vertices

g group_12_6383466

usemtl color_6383466
s 0

f 87 	88 	89
f 90 	91 	92
f 87 	89 	92
f 89 	90 	92
f 89 	88 	90
f 88 	91 	90
f 88 	87 	91
f 87 	92 	91
# 8 faces

 #end of obj_12

o obj_13
v 52.9 		12.4387 		50.5513
v 52.9 		10.9245 		50.3227
v 52.9 		10.9245 		54.993
v 52.9 		13.8046 		51.2146
v 52.9 		14.8887 		52.2478
v 52.9 		15.5846 		53.5498
v 52.9 		15.8245 		54.993
v 52.9 		15.5846 		56.4362
v 52.9 		14.8887 		57.7381
v 52.9 		13.8046 		58.7713
v 52.9 		12.4387 		59.4347
v 52.9 		10.9245 		59.6633
v 52.9 		9.4103 		59.4347
v 52.9 		8.0443 		58.7713
v 52.9 		6.9603 		57.7381
v 52.9 		6.2643 		56.4362
v 52.9 		6.0245 		54.993
v 52.9 		6.2643 		53.5498
v 52.9 		6.9603 		52.2478
v 52.9 		8.0443 		51.2146
v 52.9 		9.4103 		50.5513
v 53.5 		10.9245 		50.3227
v 53.5 		12.4387 		50.5513
v 53.5 		10.9245 		54.993
v 53.5 		13.8046 		51.2146
v 53.5 		14.8887 		52.2478
v 53.5 		15.5846 		53.5498
v 53.5 		15.8245 		54.993
v 53.5 		15.5846 		56.4362
v 53.5 		14.8887 		57.7381
v 53.5 		13.8046 		58.7713
v 53.5 		12.4387 		59.4347
v 53.5 		10.9245 		59.6633
v 53.5 		9.4103 		59.4347
v 53.5 		8.0443 		58.7713
v 53.5 		6.9603 		57.7381
v 53.5 		6.2643 		56.4362
v 53.5 		6.0245 		54.993
v 53.5 		6.2643 		53.5498
v 53.5 		6.9603 		52.2478
v 53.5 		8.0443 		51.2146
v 53.5 		9.4103 		50.5513
# 42 vertices

g group_13_6383466

usemtl color_6383466
s 0

f 93 	94 	95
f 96 	93 	95
f 97 	96 	95
f 98 	97 	95
f 99 	98 	95
f 100 	99 	95
f 101 	100 	95
f 102 	101 	95
f 103 	102 	95
f 104 	103 	95
f 105 	104 	95
f 106 	105 	95
f 107 	106 	95
f 108 	107 	95
f 109 	108 	95
f 110 	109 	95
f 111 	110 	95
f 112 	111 	95
f 113 	112 	95
f 94 	113 	95
f 114 	115 	116
f 115 	117 	116
f 117 	118 	116
f 118 	119 	116
f 119 	120 	116
f 120 	121 	116
f 121 	122 	116
f 122 	123 	116
f 123 	124 	116
f 124 	125 	116
f 125 	126 	116
f 126 	127 	116
f 127 	128 	116
f 128 	129 	116
f 129 	130 	116
f 130 	131 	116
f 131 	132 	116
f 132 	133 	116
f 133 	134 	116
f 134 	114 	116
f 94 	93 	93
f 93 	96 	96
f 96 	97 	97
f 97 	98 	98
f 98 	99 	99
f 99 	100 	100
f 100 	101 	101
f 101 	102 	102
f 102 	103 	103
f 103 	104 	104
f 104 	105 	105
f 105 	106 	106
f 106 	107 	107
f 107 	108 	108
f 108 	109 	109
f 109 	110 	110
f 110 	111 	111
f 111 	112 	112
f 112 	113 	113
f 113 	94 	94
f 94 	93 	115
f 94 	115 	114
f 93 	96 	117
f 93 	117 	115
f 96 	97 	118
f 96 	118 	117
f 97 	98 	119
f 97 	119 	118
f 98 	99 	120
f 98 	120 	119
f 99 	100 	121
f 99 	121 	120
f 100 	101 	122
f 100 	122 	121
f 101 	102 	123
f 101 	123 	122
f 102 	103 	124
f 102 	124 	123
f 103 	104 	125
f 103 	125 	124
f 104 	105 	126
f 104 	126 	125
f 105 	106 	127
f 105 	127 	126
f 106 	107 	128
f 106 	128 	127
f 107 	108 	129
f 107 	129 	128
f 108 	109 	130
f 108 	130 	129
f 109 	110 	131
f 109 	131 	130
f 110 	111 	132
f 110 	132 	131
f 111 	112 	133
f 111 	133 	132
f 112 	113 	134
f 112 	134 	133
f 113 	94 	114
f 113 	114 	134
f 114 	115 	115
f 115 	117 	117
f 117 	118 	118
f 118 	119 	119
f 119 	120 	120
f 120 	121 	121
f 121 	122 	122
f 122 	123 	123
f 123 	124 	124
f 124 	125 	125
f 125 	126 	126
f 126 	127 	127
f 127 	128 	128
f 128 	129 	129
f 129 	130 	130
f 130 	131 	131
f 131 	132 	132
f 132 	133 	133
f 133 	134 	134
f 134 	114 	114
# 120 faces

 #end of obj_13

o obj_14
v 51.8 		4.7245 		43.8633
v 51.8 		17.7245 		43.8633
v 51.8 		4.7245 		48.8633
v 51.8 		17.7245 		48.8633
v 13.9 		17.7245 		43.8633
v 13.9 		4.7245 		43.8633
v 13.9 		17.7245 		48.8633
v 13.9 		4.7245 		48.8633
# 8 vertices

g group_14_6383466

usemtl color_6383466
s 0

f 137 	135 	136
f 138 	137 	136
f 141 	139 	140
f 142 	141 	140
f 140 	139 	136
f 135 	140 	136
f 141 	142 	137
f 138 	141 	137
f 142 	140 	135
f 137 	142 	135
f 138 	136 	139
f 141 	138 	139
# 12 faces

 #end of obj_14

o obj_15
v 33.5 		3.7245 		42.4633
v 33.5 		18.7245 		42.4633
v 33.5 		3.7245 		48.8633
v 33.5 		18.7245 		48.8633
v -40.1 		18.7245 		42.4633
v -40.1 		3.7245 		42.4633
v -40.1 		18.7245 		48.8633
v -40.1 		3.7245 		48.8633
# 8 vertices

g group_15_6383466

usemtl color_6383466
s 0

f 145 	143 	144
f 146 	145 	144
f 149 	147 	148
f 150 	149 	148
f 148 	147 	144
f 143 	148 	144
f 149 	150 	145
f 146 	149 	145
f 150 	148 	143
f 145 	150 	143
f 146 	144 	147
f 149 	146 	147
# 12 faces

 #end of obj_15

o obj_16
v 13.9 		5.4245 		60.8633
v 13.9 		2.7245 		60.8633
v 13.9 		5.4245 		61.8633
v 53.1 		5.4245 		61.8633
v 53.1 		2.7245 		60.8633
v 53.1 		5.4245 		60.8633
# 6 vertices

g group_16_6383466

usemtl color_6383466
s 0

f 151 	152 	153
f 154 	155 	156
f 151 	153 	156
f 153 	154 	156
f 153 	152 	154
f 152 	155 	154
f 152 	151 	155
f 151 	156 	155
# 8 faces

 #end of obj_16

o obj_17
v 53 		16.7245 		60.8633
v 53 		19.7245 		60.8633
v 53 		16.7245 		61.8633
v 13.9 		16.7245 		61.8633
v 13.9 		19.7245 		60.8633
v 13.9 		16.7245 		60.8633
# 6 vertices

g group_17_6383466

usemtl color_6383466
s 0

f 157 	158 	159
f 160 	161 	162
f 157 	159 	162
f 159 	160 	162
f 159 	158 	160
f 158 	161 	160
f 158 	157 	161
f 157 	162 	161
# 8 faces

 #end of obj_17

o obj_18
v 53 		5.4245 		60.8633
v 53 		16.7245 		60.8633
v 53 		5.4245 		61.8633
v 53 		16.7245 		61.8633
v -9 		16.7245 		60.8633
v -9 		5.4245 		60.8633
v -9 		16.7245 		61.8633
v -9 		5.4245 		61.8633
# 8 vertices

g group_18_6383466

usemtl color_6383466
s 0

f 165 	163 	164
f 166 	165 	164
f 169 	167 	168
f 170 	169 	168
f 168 	167 	164
f 163 	168 	164
f 169 	170 	165
f 166 	169 	165
f 170 	168 	163
f 165 	170 	163
f 166 	164 	167
f 169 	166 	167
# 12 faces

 #end of obj_18

o obj_19
v -8.7684 		16.7245 		60.8633
v -8.7684 		19.7245 		60.8633
v -8.7684 		16.7245 		61.8633
v -36.2 		16.7245 		61.8633
v -36.2 		19.7245 		60.8633
v -36.2 		16.7245 		60.8633
# 6 vertices

g group_19_6383466

usemtl color_6383466
s 0

f 171 	172 	173
f 174 	175 	176
f 171 	173 	176
f 173 	174 	176
f 173 	172 	174
f 172 	175 	174
f 172 	171 	175
f 171 	176 	175
# 8 faces

 #end of obj_19

o obj_20
v -8.7684 		5.4245 		60.8633
v -8.7684 		16.7245 		60.8633
v -8.7684 		5.4245 		61.8633
v -8.7684 		16.7245 		61.8633
v -36.2 		16.7245 		60.8633
v -36.2 		5.4245 		60.8633
v -36.2 		16.7245 		61.8633
v -36.2 		5.4245 		61.8633
# 8 vertices

g group_20_6383466

usemtl color_6383466
s 0

f 179 	177 	178
f 180 	179 	178
f 183 	181 	182
f 184 	183 	182
f 182 	181 	178
f 177 	182 	178
f 183 	184 	179
f 180 	183 	179
f 184 	182 	177
f 179 	184 	177
f 180 	178 	181
f 183 	180 	181
# 12 faces

 #end of obj_20

o obj_21
v -36.2 		5.4245 		60.8633
v -36.2 		2.7245 		60.8633
v -36.2 		5.4245 		61.8633
v -8.7 		5.4245 		61.8633
v -8.7 		2.7245 		60.8633
v -8.7 		5.4245 		60.8633
# 6 vertices

g group_21_6383466

usemtl color_6383466
s 0

f 185 	186 	187
f 188 	189 	190
f 185 	187 	190
f 187 	188 	190
f 187 	186 	188
f 186 	189 	188
f 186 	185 	189
f 185 	190 	189
# 8 faces

 #end of obj_21

o obj_22
v 6.7 		18.7245 		42.4633
v 13.1 		18.7245 		42.4633
v 6.7 		18.7245 		38.8633
v 6.7 		3.7245 		38.8633
v 13.1 		3.7245 		42.4633
v 6.7 		3.7245 		42.4633
# 6 vertices

g group_22_6383466

usemtl color_6383466
s 0

f 191 	192 	193
f 194 	195 	196
f 191 	193 	196
f 193 	194 	196
f 193 	192 	194
f 192 	195 	194
f 192 	191 	195
f 191 	196 	195
# 8 faces

 #end of obj_22

o obj_23
v 6.7 		3.7245 		38.8633
v 6.7 		18.7245 		38.8633
v 6.7 		3.7245 		42.3633
v 6.7 		18.7245 		42.3633
v -40.2 		18.7245 		38.8633
v -40.2 		3.7245 		38.8633
v -40.2 		18.7245 		42.3633
v -40.2 		3.7245 		42.3633
# 8 vertices

g group_23_6383466

usemtl color_6383466
s 0

f 199 	197 	198
f 200 	199 	198
f 203 	201 	202
f 204 	203 	202
f 202 	201 	198
f 197 	202 	198
f 203 	204 	199
f 200 	203 	199
f 204 	202 	197
f 199 	204 	197
f 200 	198 	201
f 203 	200 	201
# 12 faces

 #end of obj_23

o obj_24
v -36.4 		17.6245 		4.4047
v -13.8938 		17.6245 		3.2
v -36.4 		5.1245 		4.4047
v -13.8938 		5.1245 		3.2
v -7.5 		17.6245 		42.9568
v -30.0062 		17.6245 		44.1615
v -7.5 		5.1245 		42.9568
v -30.0062 		5.1245 		44.1615
# 8 vertices

g group_24_6383466

usemtl color_6383466
s 0

f 207 	205 	206
f 208 	207 	206
f 211 	209 	210
f 212 	211 	210
f 210 	209 	206
f 205 	210 	206
f 211 	212 	207
f 208 	211 	207
f 212 	210 	205
f 207 	212 	205
f 208 	206 	209
f 211 	208 	209
# 12 faces

 #end of obj_24

o obj_25
v 7.7695 		15.7245 		43.9598
v 5.6353 		15.7245 		43.905
v 7.7695 		7.2245 		43.9598
v 5.6353 		7.2245 		43.905
v 2.4305 		15.7245 		27.5018
v 4.5647 		15.7245 		27.5565
v 2.4305 		7.2245 		27.5018
v 4.5647 		7.2245 		27.5565
# 8 vertices

g group_25_6383466

usemtl color_6383466
s 0

f 215 	213 	214
f 216 	215 	214
f 219 	217 	218
f 220 	219 	218
f 218 	217 	214
f 213 	218 	214
f 219 	220 	215
f 216 	219 	215
f 220 	218 	213
f 215 	220 	213
f 216 	214 	217
f 219 	216 	217
# 12 faces

 #end of obj_25

o obj_26
v -11.1 		15.7245 		27.9857
v -9.8059 		15.7245 		26.7633
v -11.1 		7.1245 		27.9857
v -9.8059 		7.1245 		26.7633
v 4.3058 		15.7245 		27.5485
v 3.0116 		15.7245 		28.771
v 4.3058 		7.1245 		27.5485
v 3.0116 		7.1245 		28.771
# 8 vertices

g group_26_6383466

usemtl color_6383466
s 0

f 223 	221 	222
f 224 	223 	222
f 227 	225 	226
f 228 	227 	226
f 226 	225 	222
f 221 	226 	222
f 227 	228 	223
f 224 	227 	223
f 228 	226 	221
f 223 	228 	221
f 224 	222 	225
f 227 	224 	225
# 12 faces

 #end of obj_26

o obj_27
v -35.4 		18.5245 		6.4265
v -14.9965 		18.5245 		5.4
v -35.4 		3.8245 		6.4265
v -14.9965 		3.8245 		5.4
v -9.2 		18.5245 		39.2735
v -29.6035 		18.5245 		40.3
v -9.2 		3.8245 		39.2735
v -29.6035 		3.8245 		40.3
# 8 vertices

g group_27_4998720

usemtl color_4998720
s 0

f 231 	229 	230
f 232 	231 	230
f 235 	233 	234
f 236 	235 	234
f 234 	233 	230
f 229 	234 	230
f 235 	236 	231
f 232 	235 	231
f 236 	234 	229
f 231 	236 	229
f 232 	230 	233
f 235 	232 	233
# 12 faces

 #end of obj_27

o obj_28
v -33.3 		17.8245 		39.8601
v -29.7551 		17.8245 		28.0746
v -33.3 		5.0245 		39.8601
v -29.7551 		5.0245 		28.0746
v -24.3 		17.8245 		38.4777
v -27.8449 		17.8245 		50.2633
v -24.3 		5.0245 		38.4777
v -27.8449 		5.0245 		50.2633
# 8 vertices

g group_28_6383466

usemtl color_6383466
s 0

f 239 	237 	238
f 240 	239 	238
f 243 	241 	242
f 244 	243 	242
f 242 	241 	238
f 237 	242 	238
f 243 	244 	239
f 240 	243 	239
f 244 	242 	237
f 239 	244 	237
f 240 	238 	241
f 243 	240 	241
# 12 faces

 #end of obj_28

o obj_29
v -45.2 		17.3245 		43.3177
v -36.8104 		17.3245 		33.8633
v -45.2 		5.2245 		43.3177
v -36.8104 		5.2245 		33.8633
v -23.9 		17.3245 		42.2088
v -32.2896 		17.3245 		51.6633
v -23.9 		5.2245 		42.2088
v -32.2896 		5.2245 		51.6633
# 8 vertices

g group_29_6383466

usemtl color_6383466
s 0

f 247 	245 	246
f 248 	247 	246
f 251 	249 	250
f 252 	251 	250
f 250 	249 	246
f 245 	250 	246
f 251 	252 	247
f 248 	251 	247
f 252 	250 	245
f 247 	252 	245
f 248 	246 	249
f 251 	248 	249
# 12 faces

 #end of obj_29

o obj_30
v -37.8 		16.2245 		39.6273
v -30.8677 		16.2245 		30.8633
v -37.8 		6.5245 		39.6273
v -30.8677 		6.5245 		30.8633
v -20.2 		16.2245 		38.5993
v -27.1323 		16.2245 		47.3633
v -20.2 		6.5245 		38.5993
v -27.1323 		6.5245 		47.3633
# 8 vertices

g group_30_6383466

usemtl color_6383466
s 0

f 255 	253 	254
f 256 	255 	254
f 259 	257 	258
f 260 	259 	258
f 258 	257 	254
f 253 	258 	254
f 259 	260 	255
f 256 	259 	255
f 260 	258 	253
f 255 	260 	253
f 256 	254 	257
f 259 	256 	257
# 12 faces

 #end of obj_30

o obj_31
v -44.1383 		15.5245 		60.6651
v -38.4322 		15.5245 		53.0154
v -44.1383 		6.8245 		60.6651
v -38.4322 		6.8245 		53.0154
v -25.1791 		15.5245 		51.2614
v -30.8852 		15.5245 		58.9111
v -25.1791 		6.8245 		51.2614
v -30.8852 		6.8245 		58.9111
# 8 vertices

g group_31_6383466

usemtl color_6383466
s 0

f 263 	261 	262
f 264 	263 	262
f 267 	265 	266
f 268 	267 	266
f 266 	265 	262
f 261 	266 	262
f 267 	268 	263
f 264 	267 	263
f 268 	266 	261
f 263 	268 	261
f 264 	262 	265
f 267 	264 	265
# 12 faces

 #end of obj_31

o obj_32
v -12.22 		13.8245 		39.0244
v -8.2954 		13.8245 		39.5633
v -12.22 		9.4245 		39.0244
v -8.2954 		9.4245 		39.5633
v -2 		13.8245 		32.1021
v -5.9246 		13.8245 		31.5633
v -2 		9.4245 		32.1021
v -5.9246 		9.4245 		31.5633
# 8 vertices

g group_32_6383466

usemtl color_6383466
s 0

f 269 	271 	270
f 271 	272 	270
f 273 	275 	274
f 275 	276 	274
f 273 	274 	270
f 274 	269 	270
f 276 	275 	271
f 275 	272 	271
f 274 	276 	269
f 276 	271 	269
f 270 	272 	273
f 272 	275 	273
# 12 faces

 #end of obj_32

o obj_33
v -28.6 		12.1942 		50.8784
v -28.6 		10.8655 		50.6729
v -28.6 		10.8655 		54.8729
v -28.6 		13.3929 		51.475
v -28.6 		14.3442 		52.4042
v -28.6 		14.955 		53.575
v -28.6 		15.1655 		54.8729
v -28.6 		14.955 		56.1708
v -28.6 		14.3442 		57.3416
v -28.6 		13.3929 		58.2708
v -28.6 		12.1942 		58.8673
v -28.6 		10.8655 		59.0729
v -28.6 		9.5367 		58.8673
v -28.6 		8.338 		58.2708
v -28.6 		7.3867 		57.3416
v -28.6 		6.7759 		56.1708
v -28.6 		6.5655 		54.8729
v -28.6 		6.7759 		53.575
v -28.6 		7.3867 		52.4042
v -28.6 		8.338 		51.475
v -28.6 		9.5367 		50.8784
v 54.4 		10.8655 		50.6729
v 54.4 		12.1942 		50.8784
v 54.4 		10.8655 		54.8729
v 54.4 		13.3929 		51.475
v 54.4 		14.3442 		52.4042
v 54.4 		14.955 		53.575
v 54.4 		15.1655 		54.8729
v 54.4 		14.955 		56.1708
v 54.4 		14.3442 		57.3416
v 54.4 		13.3929 		58.2708
v 54.4 		12.1942 		58.8673
v 54.4 		10.8655 		59.0729
v 54.4 		9.5367 		58.8673
v 54.4 		8.338 		58.2708
v 54.4 		7.3867 		57.3416
v 54.4 		6.7759 		56.1708
v 54.4 		6.5655 		54.8729
v 54.4 		6.7759 		53.575
v 54.4 		7.3867 		52.4042
v 54.4 		8.338 		51.475
v 54.4 		9.5367 		50.8784
# 42 vertices

g group_33_6383466

usemtl color_6383466
s 0

f 277 	278 	279
f 280 	277 	279
f 281 	280 	279
f 282 	281 	279
f 283 	282 	279
f 284 	283 	279
f 285 	284 	279
f 286 	285 	279
f 287 	286 	279
f 288 	287 	279
f 289 	288 	279
f 290 	289 	279
f 291 	290 	279
f 292 	291 	279
f 293 	292 	279
f 294 	293 	279
f 295 	294 	279
f 296 	295 	279
f 297 	296 	279
f 278 	297 	279
f 298 	299 	300
f 299 	301 	300
f 301 	302 	300
f 302 	303 	300
f 303 	304 	300
f 304 	305 	300
f 305 	306 	300
f 306 	307 	300
f 307 	308 	300
f 308 	309 	300
f 309 	310 	300
f 310 	311 	300
f 311 	312 	300
f 312 	313 	300
f 313 	314 	300
f 314 	315 	300
f 315 	316 	300
f 316 	317 	300
f 317 	318 	300
f 318 	298 	300
f 278 	277 	277
f 277 	280 	280
f 280 	281 	281
f 281 	282 	282
f 282 	283 	283
f 283 	284 	284
f 284 	285 	285
f 285 	286 	286
f 286 	287 	287
f 287 	288 	288
f 288 	289 	289
f 289 	290 	290
f 290 	291 	291
f 291 	292 	292
f 292 	293 	293
f 293 	294 	294
f 294 	295 	295
f 295 	296 	296
f 296 	297 	297
f 297 	278 	278
f 278 	277 	299
f 278 	299 	298
f 277 	280 	301
f 277 	301 	299
f 280 	281 	302
f 280 	302 	301
f 281 	282 	303
f 281 	303 	302
f 282 	283 	304
f 282 	304 	303
f 283 	284 	305
f 283 	305 	304
f 284 	285 	306
f 284 	306 	305
f 285 	286 	307
f 285 	307 	306
f 286 	287 	308
f 286 	308 	307
f 287 	288 	309
f 287 	309 	308
f 288 	289 	310
f 288 	310 	309
f 289 	290 	311
f 289 	311 	310
f 290 	291 	312
f 290 	312 	311
f 291 	292 	313
f 291 	313 	312
f 292 	293 	314
f 292 	314 	313
f 293 	294 	315
f 293 	315 	314
f 294 	295 	316
f 294 	316 	315
f 295 	296 	317
f 295 	317 	316
f 296 	297 	318
f 296 	318 	317
f 297 	278 	298
f 297 	298 	318
f 298 	299 	299
f 299 	301 	301
f 301 	302 	302
f 302 	303 	303
f 303 	304 	304
f 304 	305 	305
f 305 	306 	306
f 306 	307 	307
f 307 	308 	308
f 308 	309 	309
f 309 	310 	310
f 310 	311 	311
f 311 	312 	312
f 312 	313 	313
f 313 	314 	314
f 314 	315 	315
f 315 	316 	316
f 316 	317 	317
f 317 	318 	318
f 318 	298 	298
# 120 faces

 #end of obj_33

