# Object Export From Tinkercad Server 2015

mtllib obj.mtl

o obj_0
v 66.321 		-32.6737 		33.8938
v 66.3217 		-32.6772 		33.8802
v 66.3526 		-35.0606 		33.2396
v 66.3613 		-34.9517 		33.0602
v 49.2024 		-33.5648 		31.5872
v 49.1693 		-35.5 		34.1932
v 49.1497 		-35.5 		34.1935
v 49.0762 		-35.5 		34.1894
v 49.2053 		-33.7074 		31.5223
v 66.321 		-32.6913 		33.8938
v 66.3213 		-32.9527 		33.8938
v 66.3212 		-33.5324 		33.8938
v 49.1601 		-32.8406 		32.4644
v 49.1695 		-32.9394 		32.2665
v 49.1857 		-33.1665 		31.9285
v 58.0177 		-32.5459 		34.0387
v 66.3211 		-33.1476 		33.8938
v 56.3297 		-32.5286 		34.0682
v 66.3432 		-35.1594 		33.4369
v 66.321 		-33.4257 		33.8938
v 66.3212 		-33.7101 		33.8938
v 66.3211 		-33.626 		33.8938
v 66.3331 		-35.2471 		33.6517
v 66.321 		-33.3002 		33.8938
v 52.7585 		-35.4926 		34.1305
v 53.7203 		-35.4869 		34.1138
v 56.3297 		-35.4714 		34.0682
v 66.3331 		-32.7529 		33.6517
v 66.3432 		-32.8406 		33.4369
v 66.3526 		-32.9394 		33.2396
v 66.3613 		-33.0483 		33.0602
v 66.3693 		-33.1665 		32.901
v 66.3756 		-33.2929 		32.7642
v 66.3693 		-34.8335 		32.901
v 66.3813 		-33.4258 		32.6502
v 66.3813 		-34.5742 		32.6502
v 66.3756 		-34.7071 		32.7642
v 66.3213 		-33.7878 		33.8938
v 66.3212 		-33.931 		33.8938
v 66.3213 		-34 		33.8938
v 66.3212 		-34.1392 		33.8938
v 66.3213 		-34.2122 		33.8938
v 49.1926 		-33.2929 		31.7911
v 66.3212 		-34.069 		33.8938
v 66.3212 		-34.4676 		33.8938
v 66.3212 		-34.2899 		33.8938
v 66.3212 		-33.8608 		33.8938
v 66.3859 		-33.5648 		32.5603
v 66.3889 		-33.7074 		32.4954
v 66.3211 		-34.374 		33.8938
v 66.321 		-34.6998 		33.8938
v 66.321 		-34.5743 		33.8938
v 66.3908 		-33.8528 		32.4561
v 66.3916 		-34 		32.4431
v 66.3908 		-34.1472 		32.4561
v 66.3217 		-35.3228 		33.8802
v 66.3889 		-34.2926 		32.4954
v 66.3859 		-34.4352 		32.5603
v 66.321 		-35.3263 		33.8938
v 55.0852 		-32.5212 		34.0899
v 66.3211 		-34.8524 		33.8938
v 66.3213 		-35.0473 		33.8938
v 66.321 		-35.3087 		33.8938
v 63.2366 		-32.614 		33.9476
v 63.7271 		-32.6235 		33.9391
v 49.0895 		-32.5074 		33.9228
v 49.0762 		-32.5 		34.1894
v 49.1497 		-32.5 		34.1935
v 49.1019 		-32.5286 		33.6589
v 49.1148 		-32.5646 		33.3999
v 49.1269 		-32.614 		33.1486
v 49.2077 		-33.8528 		31.4831
v 59.8349 		-32.5646 		34.007
v 49.208 		-34 		31.47
v 49.2077 		-34.1472 		31.4831
v 49.2053 		-34.2926 		31.5223
v 49.2024 		-34.4352 		31.5872
v 49.1983 		-34.5742 		31.6771
v 52.7585 		-32.5074 		34.1305
v 52.1214 		-32.5061 		34.1417
v 49.1926 		-34.7071 		31.7911
v 63.2366 		-35.386 		33.9476
v 49.1269 		-35.386 		33.1486
v 49.1857 		-34.8335 		31.9285
v 49.1782 		-34.9517 		32.0871
v 49.1695 		-35.0606 		32.2665
v 49.1148 		-35.4354 		33.3999
v 49.1601 		-35.1594 		32.4644
v 59.8349 		-35.4354 		34.007
v 49.1019 		-35.4714 		33.6589
v 49.1495 		-35.2471 		32.6787
v 58.1801 		-35.4524 		34.0359
v 49.1386 		-35.3228 		32.9076
v 49.0895 		-35.4926 		33.9228
v 49.0762 		-34 		34.1894
v 49.1386 		-32.6772 		32.9076
v 49.1495 		-32.7529 		32.6787
v 49.1782 		-33.0483 		32.0871
v 49.1983 		-33.4258 		31.6771
# 99 vertices

g group_0_6383466

usemtl color_6383466
s 0

f 10 	11 	28
f 10 	28 	2
f 18 	27 	16
f 17 	11 	65
f 10 	65 	11
f 1 	10 	2
f 22 	65 	21
f 22 	12 	65
f 20 	65 	12
f 24 	17 	65
f 1 	65 	10
f 24 	65 	20
f 27 	92 	16
f 26 	79 	25
f 60 	79 	26
f 62 	63 	23
f 61 	62 	19
f 51 	61 	3
f 45 	52 	34
f 31 	20 	32
f 32 	20 	12
f 35 	21 	48
f 38 	48 	21
f 19 	3 	61
f 3 	4 	51
f 52 	51 	4
f 33 	22 	35
f 21 	35 	22
f 4 	34 	52
f 50 	37 	36
f 32 	12 	33
f 22 	33 	12
f 20 	31 	24
f 30 	24 	31
f 24 	30 	17
f 29 	17 	30
f 17 	29 	11
f 28 	11 	29
f 36 	58 	46
f 41 	44 	82
f 34 	37 	45
f 42 	41 	82
f 44 	40 	82
f 46 	50 	36
f 65 	82 	47
f 39 	47 	82
f 47 	38 	65
f 21 	65 	38
f 50 	45 	37
f 48 	38 	49
f 47 	49 	38
f 45 	50 	82
f 50 	46 	82
f 46 	42 	82
f 40 	39 	82
f 52 	45 	82
f 23 	19 	62
f 56 	23 	63
f 63 	59 	56
f 53 	39 	54
f 40 	54 	39
f 41 	42 	57
f 58 	57 	42
f 42 	46 	58
f 44 	41 	55
f 57 	55 	41
f 62 	61 	82
f 61 	51 	82
f 51 	52 	82
f 40 	44 	54
f 55 	54 	44
f 49 	47 	53
f 39 	53 	47
f 59 	82 	56
f 65 	1 	2
f 63 	62 	82
f 26 	27 	60
f 81 	78 	37
f 18 	60 	27
f 67 	68 	66
f 16 	70 	18
f 48 	49 	5
f 3 	86 	4
f 78 	77 	58
f 37 	84 	81
f 74 	53 	54
f 72 	9 	49
f 74 	72 	53
f 76 	57 	77
f 96 	65 	2
f 37 	34 	84
f 55 	76 	75
f 55 	57 	76
f 58 	77 	57
f 64 	82 	65
f 66 	80 	79
f 68 	80 	66
f 69 	66 	79
f 69 	79 	60
f 69 	60 	18
f 70 	16 	73
f 69 	18 	70
f 64 	71 	73
f 70 	73 	71
f 88 	3 	19
f 65 	96 	64
f 71 	64 	96
f 97 	2 	28
f 79 	80 	25
f 64 	73 	82
f 59 	63 	82
f 91 	19 	23
f 56 	82 	83
f 87 	83 	89
f 82 	89 	83
f 90 	87 	92
f 89 	92 	87
f 92 	27 	90
f 68 	6 	80
f 16 	92 	73
f 92 	89 	73
f 82 	73 	89
f 91 	88 	19
f 91 	23 	93
f 94 	26 	25
f 56 	93 	23
f 93 	56 	83
f 35 	99 	33
f 27 	26 	90
f 94 	90 	26
f 5 	35 	48
f 9 	5 	49
f 25 	6 	94
f 72 	49 	53
f 54 	55 	75
f 75 	74 	54
f 78 	58 	36
f 36 	37 	78
f 34 	4 	85
f 85 	84 	34
f 85 	4 	86
f 3 	88 	86
f 67 	95 	68
f 7 	6 	68
f 69 	95 	66
f 70 	95 	69
f 5 	9 	95
f 81 	84 	95
f 95 	88 	91
f 85 	86 	95
f 84 	85 	95
f 83 	87 	95
f 78 	81 	95
f 77 	78 	95
f 74 	75 	95
f 28 	13 	97
f 13 	28 	29
f 15 	43 	95
f 98 	14 	31
f 43 	99 	95
f 15 	31 	32
f 97 	13 	95
f 35 	5 	99
f 97 	96 	2
f 93 	83 	95
f 91 	93 	95
f 30 	14 	29
f 86 	88 	95
f 13 	29 	14
f 66 	95 	67
f 30 	31 	14
f 98 	31 	15
f 8 	7 	95
f 95 	7 	68
f 96 	97 	95
f 32 	33 	43
f 95 	13 	14
f 95 	98 	15
f 43 	15 	32
f 43 	33 	99
f 98 	95 	14
f 95 	72 	74
f 96 	95 	71
f 95 	70 	71
f 95 	99 	5
f 72 	95 	9
f 95 	75 	76
f 95 	90 	94
f 95 	87 	90
f 8 	95 	94
f 95 	76 	77
f 25 	80 	6
f 8 	94 	6
f 6 	7 	8
# 194 faces

 #end of obj_0

o obj_1
v 43.7568 		-35.3168 		34.4968
v 43.7627 		-35.3846 		34.8334
v 43.7627 		-34 		34.8334
v 43.7515 		-35.1202 		34.1932
v 43.7473 		-34.8139 		33.9523
v 43.7446 		-34.4279 		33.7976
v 43.7437 		-34 		33.7443
v 43.7446 		-33.5721 		33.7976
v 43.7473 		-33.1861 		33.9523
v 43.7515 		-32.8798 		34.1932
v 43.7568 		-32.6832 		34.4968
v 43.7627 		-32.6154 		34.8334
v 43.7686 		-32.6832 		35.1699
v 43.7739 		-32.8798 		35.4735
v 43.7781 		-33.1861 		35.7145
v 43.7808 		-33.5721 		35.8692
v 43.7817 		-34 		35.9225
v 43.7808 		-34.4279 		35.8692
v 43.7781 		-34.8139 		35.7145
v 43.7739 		-35.1202 		35.4735
v 43.7686 		-35.3168 		35.1699
v 66.6144 		-35.3846 		34.4345
v 66.6085 		-35.3168 		34.0979
v 66.6144 		-34 		34.4345
v 66.6032 		-35.1202 		33.7943
v 66.599 		-34.8139 		33.5534
v 66.5963 		-34.4279 		33.3987
v 66.5954 		-34 		33.3454
v 66.5963 		-33.5721 		33.3987
v 66.599 		-33.1861 		33.5534
v 66.6032 		-32.8798 		33.7943
v 66.6085 		-32.6832 		34.0979
v 66.6144 		-32.6154 		34.4345
v 66.6202 		-32.6832 		34.7711
v 66.6255 		-32.8798 		35.0747
v 66.6297 		-33.1861 		35.3156
v 66.6324 		-33.5721 		35.4703
v 66.6334 		-34 		35.5236
v 66.6324 		-34.4279 		35.4703
v 66.6297 		-34.8139 		35.3156
v 66.6255 		-35.1202 		35.0747
v 66.6202 		-35.3168 		34.7711
# 42 vertices

g group_1_10988977

usemtl color_10988977
s 0

f 100 	101 	102
f 103 	100 	102
f 104 	103 	102
f 105 	104 	102
f 106 	105 	102
f 107 	106 	102
f 108 	107 	102
f 109 	108 	102
f 110 	109 	102
f 111 	110 	102
f 112 	111 	102
f 113 	112 	102
f 114 	113 	102
f 115 	114 	102
f 116 	115 	102
f 117 	116 	102
f 118 	117 	102
f 119 	118 	102
f 120 	119 	102
f 101 	120 	102
f 121 	122 	123
f 122 	124 	123
f 124 	125 	123
f 125 	126 	123
f 126 	127 	123
f 127 	128 	123
f 128 	129 	123
f 129 	130 	123
f 130 	131 	123
f 131 	132 	123
f 132 	133 	123
f 133 	134 	123
f 134 	135 	123
f 135 	136 	123
f 136 	137 	123
f 137 	138 	123
f 138 	139 	123
f 139 	140 	123
f 140 	141 	123
f 141 	121 	123
f 101 	100 	100
f 100 	103 	103
f 103 	104 	104
f 104 	105 	105
f 105 	106 	106
f 106 	107 	107
f 107 	108 	108
f 108 	109 	109
f 109 	110 	110
f 110 	111 	111
f 111 	112 	112
f 112 	113 	113
f 113 	114 	114
f 114 	115 	115
f 115 	116 	116
f 116 	117 	117
f 117 	118 	118
f 118 	119 	119
f 119 	120 	120
f 120 	101 	101
f 101 	100 	122
f 101 	122 	121
f 100 	103 	124
f 100 	124 	122
f 103 	104 	125
f 103 	125 	124
f 104 	105 	126
f 104 	126 	125
f 105 	106 	127
f 105 	127 	126
f 106 	107 	128
f 106 	128 	127
f 107 	108 	129
f 107 	129 	128
f 108 	109 	130
f 108 	130 	129
f 109 	110 	131
f 109 	131 	130
f 110 	111 	132
f 110 	132 	131
f 111 	112 	133
f 111 	133 	132
f 112 	113 	134
f 112 	134 	133
f 113 	114 	135
f 113 	135 	134
f 114 	115 	136
f 114 	136 	135
f 115 	116 	137
f 115 	137 	136
f 116 	117 	138
f 116 	138 	137
f 117 	118 	139
f 117 	139 	138
f 118 	119 	140
f 118 	140 	139
f 119 	120 	141
f 119 	141 	140
f 120 	101 	121
f 120 	121 	141
f 121 	122 	122
f 122 	124 	124
f 124 	125 	125
f 125 	126 	126
f 126 	127 	127
f 127 	128 	128
f 128 	129 	129
f 129 	130 	130
f 130 	131 	131
f 131 	132 	132
f 132 	133 	133
f 133 	134 	134
f 134 	135 	135
f 135 	136 	136
f 136 	137 	137
f 137 	138 	138
f 138 	139 	139
f 139 	140 	140
f 140 	141 	141
f 141 	121 	121
# 120 faces

 #end of obj_1

o obj_2
v 67.1612 		-34.5 		36.3315
v 67.1612 		-33.5 		36.3315
v 67.1089 		-34.5 		33.3364
v 67.1089 		-33.5 		33.3364
v 66.3909 		-33.5 		36.3449
v 66.3909 		-34.5 		36.3449
v 66.3386 		-33.5 		33.3499
v 66.3386 		-34.5 		33.3499
# 8 vertices

g group_2_10988977

usemtl color_10988977
s 0

f 142 	144 	143
f 144 	145 	143
f 146 	148 	147
f 148 	149 	147
f 146 	147 	143
f 147 	142 	143
f 149 	148 	144
f 148 	145 	144
f 147 	149 	142
f 149 	144 	142
f 143 	145 	146
f 145 	148 	146
# 12 faces

 #end of obj_2

o obj_3
v 36.0147 		-34 		27.6456
v 36.5517 		-34 		28.9526
v 39.9917 		-34.9946 		32.3832
v 39.8491 		-33.4772 		32.5582
v 40.213 		-35.3689 		32.1104
v 39.8001 		-34 		32.6187
v 36.5646 		-34 		28.9467
v 39.8491 		-34.5228 		32.5582
v 37.4151 		-32.3905 		27.8869
v 37.2706 		-32.4903 		28.0649
v 36.6295 		-34.5228 		28.9169
v 37.0667 		-32.6311 		28.3163
v 36.6372 		-34.5228 		28.9133
v 36.5647 		-34.0008 		28.9467
v 41.3899 		-35.3689 		30.6599
v 41.611 		-34.9946 		30.3865
v 41.7536 		-34.5228 		30.2115
v 36.62 		-34.5228 		28.8939
v 41.8026 		-34 		30.151
v 36.5927 		-33.6468 		28.9005
v 36.7588 		-34.7943 		28.8574
v 36.6391 		-34.527 		28.9125
v 37.5985 		-32.3077 		26.9167
v 38.088 		-32.3905 		26.6914
v 38.5294 		-32.6311 		26.4883
v 36.6209 		-34.5245 		28.8936
v 37.2514 		-32.3905 		28.0886
v 38.88 		-33.0054 		26.327
v 39.1046 		-33.4772 		26.2236
v 37.6678 		-32.3363 		27.5754
v 37.5608 		-32.3077 		27.7074
v 37.5985 		-35.6923 		26.9167
v 38.5294 		-35.3689 		26.4883
v 38.088 		-35.6095 		26.6914
v 36.3171 		-34.9946 		27.5065
v 37.5608 		-32.3593 		27.7074
v 36.7777 		-34.9618 		28.6726
v 36.6677 		-35.3689 		27.3451
v 36.79 		-33.0054 		28.6574
v 37.0071 		-32.7118 		28.3899
v 37.109 		-35.6095 		27.142
v 37.2706 		-35.5097 		28.0649
v 36.7777 		-33.0382 		28.6726
v 36.6295 		-33.4772 		28.9169
v 36.6372 		-33.4772 		28.9133
v 36.7588 		-33.2056 		28.8573
v 36.62 		-33.4772 		28.8939
v 38.88 		-34.9946 		26.327
v 37.2514 		-35.6095 		28.0886
v 39.1824 		-34 		26.1878
v 39.1046 		-34.5228 		26.2236
v 36.9724 		-32.6311 		28.4327
v 40.492 		-35.6095 		31.7663
v 36.751 		-33.0054 		28.7055
v 36.0925 		-33.4772 		27.6099
v 36.3171 		-33.0054 		27.5065
v 36.6677 		-32.6311 		27.3451
v 37.109 		-32.3905 		27.142
v 36.6127 		-33.4772 		28.8761
v 36.0925 		-34.5228 		27.6099
v 36.6125 		-33.4793 		28.8764
v 36.6087 		-33.4772 		28.8811
v 41.7536 		-33.4772 		30.2115
v 41.611 		-33.0054 		30.3865
v 41.3899 		-32.6311 		30.6599
v 41.1107 		-32.3905 		31.0035
v 40.8015 		-32.3077 		31.3851
v 40.492 		-32.3905 		31.7663
v 40.213 		-32.6311 		32.1104
v 36.751 		-34.9946 		28.7055
v 39.9917 		-33.0054 		32.3832
v 36.79 		-34.9946 		28.6574
v 37.0667 		-35.3689 		28.3163
v 37.0071 		-35.2882 		28.3899
v 36.9724 		-35.3689 		28.4327
v 37.4151 		-35.6095 		27.8869
v 37.6678 		-35.6637 		27.5754
v 37.5608 		-35.6407 		27.7074
v 36.6365 		-33.4818 		28.9136
v 37.5608 		-35.6923 		27.7074
v 36.6197 		-33.479 		28.8939
v 38.9236 		-32.6311 		27.861
v 38.5096 		-32.3905 		28.0516
v 39.6416 		-33.4772 		27.5306
v 39.417 		-33.0054 		27.634
v 39.4635 		-33.4772 		27.6126
v 40.8015 		-34 		31.3851
v 41.1107 		-35.6095 		31.0035
v 39.2522 		-33.0054 		27.7098
v 39.4029 		-33.3417 		27.6405
v 40.8015 		-35.6923 		31.3851
v 39.0664 		-32.6311 		27.7953
v 39.1657 		-32.9069 		27.7496
v 38.625 		-32.3905 		27.9984
v 38.1355 		-32.3077 		28.2237
v 38.0916 		-32.3151 		28.244
v 38.625 		-35.6095 		27.9984
v 38.5096 		-35.6095 		28.0516
v 38.0916 		-35.6849 		28.244
v 38.1355 		-35.6923 		28.2237
v 39.0664 		-35.3689 		27.7953
v 38.9236 		-35.3689 		27.861
v 39.417 		-34.9946 		27.634
v 39.2522 		-34.9946 		27.7098
v 39.0049 		-35.2764 		27.8236
v 39.7194 		-34 		27.4948
v 39.4635 		-34.5228 		27.6126
v 39.3109 		-34.8634 		27.6828
v 39.6416 		-34.5228 		27.5306
v 39.5363 		-34 		27.5791
v 36.5927 		-34.3532 		28.9005
v 36.6127 		-34.5228 		28.8761
v 36.6125 		-34.5207 		28.8764
v 36.6087 		-34.5228 		28.8811
# 114 vertices

g group_3_6383466

usemtl color_6383466
s 0

f 228 	156 	155
f 160 	162 	163
f 156 	151 	163
f 160 	163 	151
f 208 	204 	210
f 160 	170 	171
f 170 	160 	175
f 167 	175 	160
f 156 	163 	155
f 157 	155 	163
f 201 	176 	161
f 159 	161 	176
f 171 	162 	160
f 172 	173 	181
f 174 	183 	173
f 181 	190 	207
f 161 	205 	189
f 177 	182 	174
f 190 	225 	187
f 181 	173 	183
f 226 	190 	181
f 193 	194 	195
f 195 	196 	193
f 183 	174 	182
f 182 	177 	197
f 200 	197 	177
f 177 	178 	200
f 199 	200 	178
f 203 	201 	188
f 189 	188 	201
f 206 	184 	205
f 172 	181 	207
f 188 	192 	203
f 206 	207 	190
f 209 	205 	184
f 150 	204 	209
f 205 	209 	204
f 184 	206 	187
f 190 	187 	206
f 210 	169 	211
f 186 	184 	221
f 223 	184 	222
f 187 	222 	184
f 184 	223 	221
f 187 	191 	222
f 223 	222 	224
f 224 	222 	198
f 195 	194 	153
f 198 	222 	191
f 191 	187 	225
f 225 	190 	227
f 226 	227 	190
f 151 	228 	193
f 191 	225 	198
f 232 	216 	215
f 227 	229 	225
f 198 	225 	229
f 196 	230 	193
f 154 	224 	202
f 224 	219 	221
f 186 	221 	219
f 221 	223 	224
f 231 	215 	214
f 226 	229 	227
f 229 	226 	248
f 152 	219 	224
f 168 	259 	212
f 213 	212 	235
f 211 	203 	208
f 192 	208 	203
f 208 	210 	211
f 214 	242 	231
f 232 	215 	231
f 153 	203 	195
f 162 	157 	163
f 230 	211 	169
f 216 	180 	217
f 170 	219 	152
f 171 	170 	152
f 198 	202 	224
f 152 	157 	171
f 162 	171 	157
f 154 	152 	224
f 161 	189 	201
f 176 	217 	180
f 196 	195 	211
f 211 	195 	203
f 176 	201 	217
f 218 	217 	201
f 218 	201 	220
f 230 	169 	193
f 203 	220 	201
f 203 	153 	220
f 179 	185 	180
f 172 	179 	244
f 241 	174 	173
f 164 	254 	165
f 234 	239 	233
f 256 	259 	166
f 168 	166 	259
f 178 	177 	234
f 178 	234 	233
f 235 	212 	259
f 164 	236 	237
f 241 	234 	174
f 177 	174 	234
f 165 	166 	236
f 212 	236 	168
f 236 	213 	214
f 234 	238 	239
f 212 	213 	236
f 173 	243 	241
f 166 	168 	236
f 213 	239 	238
f 214 	215 	236
f 235 	233 	239
f 164 	165 	236
f 213 	235 	239
f 240 	237 	236
f 234 	241 	242
f 238 	234 	242
f 231 	242 	241
f 236 	215 	216
f 243 	173 	244
f 217 	218 	236
f 213 	238 	214
f 242 	214 	238
f 152 	154 	236
f 241 	243 	231
f 232 	231 	243
f 154 	202 	236
f 218 	220 	236
f 172 	244 	173
f 153 	155 	236
f 244 	245 	232
f 244 	232 	243
f 157 	152 	236
f 155 	157 	236
f 245 	244 	179
f 153 	236 	220
f 180 	216 	245
f 232 	245 	216
f 216 	217 	236
f 179 	180 	245
f 236 	202 	240
f 246 	181 	183
f 183 	182 	250
f 240 	247 	237
f 247 	251 	237
f 198 	229 	202
f 182 	197 	250
f 248 	249 	247
f 246 	247 	249
f 249 	181 	246
f 181 	249 	226
f 248 	226 	249
f 240 	248 	247
f 229 	248 	240
f 247 	246 	251
f 250 	251 	246
f 183 	250 	246
f 252 	250 	197
f 197 	200 	252
f 164 	237 	251
f 254 	250 	253
f 252 	253 	250
f 252 	200 	258
f 200 	199 	255
f 178 	233 	199
f 253 	165 	254
f 254 	251 	250
f 251 	254 	164
f 257 	252 	256
f 253 	252 	257
f 252 	258 	256
f 255 	259 	258
f 200 	255 	258
f 255 	199 	233
f 253 	257 	165
f 166 	165 	257
f 256 	166 	257
f 255 	233 	259
f 235 	259 	233
f 256 	258 	259
f 240 	202 	229
f 179 	172 	207
f 161 	159 	206
f 188 	189 	205
f 206 	205 	161
f 208 	192 	204
f 204 	192 	205
f 158 	185 	207
f 179 	207 	185
f 159 	158 	206
f 207 	206 	158
f 188 	205 	192
f 210 	204 	169
f 159 	176 	158
f 176 	180 	158
f 185 	158 	180
f 228 	194 	193
f 155 	153 	194
f 155 	194 	228
f 230 	196 	211
f 261 	262 	209
f 261 	209 	186
f 151 	169 	150
f 150 	209 	260
f 184 	186 	209
f 263 	260 	262
f 204 	150 	169
f 151 	193 	169
f 262 	260 	209
f 262 	261 	263
f 263 	261 	219
f 186 	219 	261
f 219 	170 	263
f 260 	151 	150
f 260 	160 	151
f 167 	160 	260
f 260 	263 	167
f 263 	170 	175
f 167 	263 	175
f 228 	151 	156
# 224 faces

 #end of obj_3

o obj_4
v 41.2077 		-35.9021 		30.2571
v 40.7939 		-36 		30.3903
v 40.7939 		-34 		30.3903
v 41.581 		-35.618 		30.137
v 41.8772 		-35.1756 		30.0416
v 42.0674 		-34.618 		29.9804
v 42.133 		-34 		29.9593
v 42.0674 		-33.382 		29.9804
v 41.8772 		-32.8244 		30.0416
v 41.581 		-32.382 		30.137
v 41.2077 		-32.0979 		30.2571
v 40.7939 		-32 		30.3903
v 40.3801 		-32.0979 		30.5235
v 40.0068 		-32.382 		30.6437
v 39.7106 		-32.8244 		30.739
v 39.5203 		-33.382 		30.8003
v 39.4548 		-34 		30.8214
v 39.5203 		-34.618 		30.8003
v 39.7106 		-35.1756 		30.739
v 40.0068 		-35.618 		30.6437
v 40.3801 		-35.9021 		30.5235
v 42.3856 		-36 		33.0879
v 42.7994 		-35.9021 		32.9547
v 42.3856 		-34 		33.0879
v 43.1727 		-35.618 		32.8346
v 43.4689 		-35.1756 		32.7392
v 43.6592 		-34.618 		32.678
v 43.7247 		-34 		32.6569
v 43.6592 		-33.382 		32.678
v 43.4689 		-32.8244 		32.7392
v 43.1727 		-32.382 		32.8346
v 42.7994 		-32.0979 		32.9547
v 42.3856 		-32 		33.0879
v 41.9718 		-32.0979 		33.2211
v 41.5985 		-32.382 		33.3413
v 41.3023 		-32.8244 		33.4367
v 41.1121 		-33.382 		33.4979
v 41.0465 		-34 		33.519
v 41.1121 		-34.618 		33.4979
v 41.3023 		-35.1756 		33.4367
v 41.5985 		-35.618 		33.3413
v 41.9718 		-35.9021 		33.2211
# 42 vertices

g group_4_6383466

usemtl color_6383466
s 0

f 264 	265 	266
f 267 	264 	266
f 268 	267 	266
f 269 	268 	266
f 270 	269 	266
f 271 	270 	266
f 272 	271 	266
f 273 	272 	266
f 274 	273 	266
f 275 	274 	266
f 276 	275 	266
f 277 	276 	266
f 278 	277 	266
f 279 	278 	266
f 280 	279 	266
f 281 	280 	266
f 282 	281 	266
f 283 	282 	266
f 284 	283 	266
f 265 	284 	266
f 285 	286 	287
f 286 	288 	287
f 288 	289 	287
f 289 	290 	287
f 290 	291 	287
f 291 	292 	287
f 292 	293 	287
f 293 	294 	287
f 294 	295 	287
f 295 	296 	287
f 296 	297 	287
f 297 	298 	287
f 298 	299 	287
f 299 	300 	287
f 300 	301 	287
f 301 	302 	287
f 302 	303 	287
f 303 	304 	287
f 304 	305 	287
f 305 	285 	287
f 265 	264 	264
f 264 	267 	267
f 267 	268 	268
f 268 	269 	269
f 269 	270 	270
f 270 	271 	271
f 271 	272 	272
f 272 	273 	273
f 273 	274 	274
f 274 	275 	275
f 275 	276 	276
f 276 	277 	277
f 277 	278 	278
f 278 	279 	279
f 279 	280 	280
f 280 	281 	281
f 281 	282 	282
f 282 	283 	283
f 283 	284 	284
f 284 	265 	265
f 265 	264 	286
f 265 	286 	285
f 264 	267 	288
f 264 	288 	286
f 267 	268 	289
f 267 	289 	288
f 268 	269 	290
f 268 	290 	289
f 269 	270 	291
f 269 	291 	290
f 270 	271 	292
f 270 	292 	291
f 271 	272 	293
f 271 	293 	292
f 272 	273 	294
f 272 	294 	293
f 273 	274 	295
f 273 	295 	294
f 274 	275 	296
f 274 	296 	295
f 275 	276 	297
f 275 	297 	296
f 276 	277 	298
f 276 	298 	297
f 277 	278 	299
f 277 	299 	298
f 278 	279 	300
f 278 	300 	299
f 279 	280 	301
f 279 	301 	300
f 280 	281 	302
f 280 	302 	301
f 281 	282 	303
f 281 	303 	302
f 282 	283 	304
f 282 	304 	303
f 283 	284 	305
f 283 	305 	304
f 284 	265 	285
f 284 	285 	305
f 285 	286 	286
f 286 	288 	288
f 288 	289 	289
f 289 	290 	290
f 290 	291 	291
f 291 	292 	292
f 292 	293 	293
f 293 	294 	294
f 294 	295 	295
f 295 	296 	296
f 296 	297 	297
f 297 	298 	298
f 298 	299 	299
f 299 	300 	300
f 300 	301 	301
f 301 	302 	302
f 302 	303 	303
f 303 	304 	304
f 304 	305 	305
f 305 	285 	285
# 120 faces

 #end of obj_4

o obj_5
v 48.5578 		-34.5 		33.6035
v 48.5578 		-33.5 		33.6035
v 50.7484 		-34.5 		24.9049
v 50.7484 		-33.5 		24.9049
v 45.2516 		-33.5 		32.3114
v 45.2516 		-34.5 		32.3114
v 47.4422 		-33.5 		23.6128
v 47.4422 		-34.5 		23.6128
# 8 vertices

g group_5_10988977

usemtl color_10988977
s 0

f 306 	308 	307
f 308 	309 	307
f 310 	312 	311
f 312 	313 	311
f 310 	311 	307
f 311 	306 	307
f 313 	312 	308
f 312 	309 	308
f 311 	313 	306
f 313 	308 	306
f 307 	309 	310
f 309 	312 	310
# 12 faces

 #end of obj_5

o obj_6
v 44.4379 		-34.7692 		29.3743
v 44.4379 		-33.8462 		29.3743
v 44.4284 		-34.7692 		28.8298
v 44.4284 		-33.8462 		28.8298
v 39.5595 		-33.8462 		29.4595
v 39.5595 		-34.7692 		29.4595
v 39.55 		-33.8462 		28.9149
v 39.55 		-34.7692 		28.9149
# 8 vertices

g group_6_2829873

usemtl color_2829873
s 0

f 314 	316 	315
f 316 	317 	315
f 318 	320 	319
f 320 	321 	319
f 318 	319 	315
f 319 	314 	315
f 321 	320 	316
f 320 	317 	316
f 319 	321 	314
f 321 	316 	314
f 315 	317 	318
f 317 	320 	318
# 12 faces

 #end of obj_6

o obj_7
v 48.6611 		-34.7692 		33.9558
v 48.6611 		-33.8462 		33.9558
v 49.0175 		-34.7692 		33.5644
v 49.0175 		-33.8462 		33.5644
v 44.0382 		-33.8462 		29.2218
v 44.0382 		-34.7692 		29.2218
v 44.3946 		-33.8462 		28.8304
v 44.3946 		-34.7692 		28.8304
# 8 vertices

g group_7_2829873

usemtl color_2829873
s 0

f 322 	324 	323
f 324 	325 	323
f 326 	328 	327
f 328 	329 	327
f 326 	327 	323
f 327 	322 	323
f 329 	328 	324
f 328 	325 	324
f 327 	329 	322
f 329 	324 	322
f 323 	325 	326
f 325 	328 	326
# 12 faces

 #end of obj_7

o obj_8
v 65.9089 		-35.2923 		33.6164
v 65.8298 		-35.2923 		33.6311
v 65.8251 		-35.2923 		33.3588
v 65.9798 		-35.2923 		33.5765
v 66.0356 		-35.2923 		33.5152
v 66.0707 		-35.2923 		33.4387
v 66.0818 		-35.2923 		33.3543
v 66.0678 		-35.2923 		33.2704
v 66.03 		-35.2923 		33.1952
v 65.9722 		-35.2923 		33.1359
v 65.8999 		-35.2923 		33.0985
v 65.8203 		-35.2923 		33.0865
v 65.7412 		-35.2923 		33.1013
v 65.6703 		-35.2923 		33.1412
v 65.6146 		-35.2923 		33.2024
v 65.5794 		-35.2923 		33.279
v 65.5683 		-35.2923 		33.3633
v 65.5824 		-35.2923 		33.4472
v 65.6201 		-35.2923 		33.5225
v 65.678 		-35.2923 		33.5817
v 65.7503 		-35.2923 		33.6192
v 65.8298 		-32.7123 		33.6311
v 65.9089 		-32.7123 		33.6164
v 65.8251 		-32.7123 		33.3588
v 65.9798 		-32.7123 		33.5765
v 66.0356 		-32.7123 		33.5152
v 66.0707 		-32.7123 		33.4387
v 66.0818 		-32.7123 		33.3543
v 66.0678 		-32.7123 		33.2704
v 66.03 		-32.7123 		33.1952
v 65.9722 		-32.7123 		33.1359
v 65.8999 		-32.7123 		33.0985
v 65.8203 		-32.7123 		33.0865
v 65.7412 		-32.7123 		33.1013
v 65.6703 		-32.7123 		33.1412
v 65.6146 		-32.7123 		33.2024
v 65.5794 		-32.7123 		33.279
v 65.5683 		-32.7123 		33.3633
v 65.5824 		-32.7123 		33.4472
v 65.6201 		-32.7123 		33.5225
v 65.678 		-32.7123 		33.5817
v 65.7503 		-32.7123 		33.6192
# 42 vertices

g group_8_10988977

usemtl color_10988977
s 0

f 330 	331 	332
f 333 	330 	332
f 334 	333 	332
f 335 	334 	332
f 336 	335 	332
f 337 	336 	332
f 338 	337 	332
f 339 	338 	332
f 340 	339 	332
f 341 	340 	332
f 342 	341 	332
f 343 	342 	332
f 344 	343 	332
f 345 	344 	332
f 346 	345 	332
f 347 	346 	332
f 348 	347 	332
f 349 	348 	332
f 350 	349 	332
f 331 	350 	332
f 351 	352 	353
f 352 	354 	353
f 354 	355 	353
f 355 	356 	353
f 356 	357 	353
f 357 	358 	353
f 358 	359 	353
f 359 	360 	353
f 360 	361 	353
f 361 	362 	353
f 362 	363 	353
f 363 	364 	353
f 364 	365 	353
f 365 	366 	353
f 366 	367 	353
f 367 	368 	353
f 368 	369 	353
f 369 	370 	353
f 370 	371 	353
f 371 	351 	353
f 331 	330 	330
f 330 	333 	333
f 333 	334 	334
f 334 	335 	335
f 335 	336 	336
f 336 	337 	337
f 337 	338 	338
f 338 	339 	339
f 339 	340 	340
f 340 	341 	341
f 341 	342 	342
f 342 	343 	343
f 343 	344 	344
f 344 	345 	345
f 345 	346 	346
f 346 	347 	347
f 347 	348 	348
f 348 	349 	349
f 349 	350 	350
f 350 	331 	331
f 331 	330 	352
f 331 	352 	351
f 330 	333 	354
f 330 	354 	352
f 333 	334 	355
f 333 	355 	354
f 334 	335 	356
f 334 	356 	355
f 335 	336 	357
f 335 	357 	356
f 336 	337 	358
f 336 	358 	357
f 337 	338 	359
f 337 	359 	358
f 338 	339 	360
f 338 	360 	359
f 339 	340 	361
f 339 	361 	360
f 340 	341 	362
f 340 	362 	361
f 341 	342 	363
f 341 	363 	362
f 342 	343 	364
f 342 	364 	363
f 343 	344 	365
f 343 	365 	364
f 344 	345 	366
f 344 	366 	365
f 345 	346 	367
f 345 	367 	366
f 346 	347 	368
f 346 	368 	367
f 347 	348 	369
f 347 	369 	368
f 348 	349 	370
f 348 	370 	369
f 349 	350 	371
f 349 	371 	370
f 350 	331 	351
f 350 	351 	371
f 351 	352 	352
f 352 	354 	354
f 354 	355 	355
f 355 	356 	356
f 356 	357 	357
f 357 	358 	358
f 358 	359 	359
f 359 	360 	360
f 360 	361 	361
f 361 	362 	362
f 362 	363 	363
f 363 	364 	364
f 364 	365 	365
f 365 	366 	366
f 366 	367 	367
f 367 	368 	368
f 368 	369 	369
f 369 	370 	370
f 370 	371 	371
f 371 	351 	351
# 120 faces

 #end of obj_8

o obj_9
v 50.1864 		-34.4615 		34.9936
v 50.1864 		-32.1615 		34.9936
v 50.1579 		-34.4615 		33.3599
v 50.1579 		-32.1615 		33.3599
v 46.5918 		-32.1615 		35.0564
v 46.5918 		-34.4615 		35.0564
v 46.5633 		-32.1615 		33.4227
v 46.5633 		-34.4615 		33.4227
# 8 vertices

g group_9_2829873

usemtl color_2829873
s 0

f 372 	374 	373
f 374 	375 	373
f 376 	378 	377
f 378 	379 	377
f 376 	377 	373
f 377 	372 	373
f 379 	378 	374
f 378 	375 	374
f 377 	379 	372
f 379 	374 	372
f 373 	375 	376
f 375 	378 	376
# 12 faces

 #end of obj_9

o obj_10
v 49.1387 		-32 		33.8271
v 49.3915 		-32 		33.6806
v 49.3665 		-32 		32.2494
v 49.3665 		-36 		32.2494
v 49.3915 		-36 		33.6806
v 49.1387 		-36 		33.8271
v 45.4982 		-36 		31.2624
v 45.4792 		-36 		30.1732
v 45.4792 		-32 		30.1732
v 49.1451 		-36 		34.1936
v 49.1451 		-32 		34.1936
v 35.7603 		-36 		32.5218
v 35.7413 		-36 		31.4327
v 45.4982 		-32 		31.2624
v 35.7413 		-32 		31.4327
v 35.7603 		-32 		32.5218
v 32.9692 		-36 		34.476
v 32.9692 		-32 		34.476
v 32.936 		-32 		32.5711
v 32.936 		-36 		32.5711
# 20 vertices

g group_10_6383466

usemtl color_6383466
s 0

f 380 	381 	382
f 383 	384 	385
f 383 	385 	386
f 387 	383 	386
f 385 	389 	386
f 387 	388 	383
f 382 	383 	388
f 391 	386 	389
f 382 	393 	380
f 395 	390 	393
f 391 	392 	386
f 384 	381 	380
f 384 	380 	385
f 382 	381 	384
f 382 	384 	383
f 393 	388 	387
f 393 	387 	386
f 396 	397 	398
f 396 	398 	399
f 380 	390 	389
f 380 	389 	385
f 391 	399 	398
f 391 	398 	395
f 382 	388 	393
f 394 	395 	393
f 380 	393 	390
f 386 	392 	394
f 386 	394 	393
f 399 	391 	396
f 389 	396 	391
f 397 	390 	395
f 397 	395 	398
f 397 	396 	390
f 389 	390 	396
f 395 	394 	392
f 395 	392 	391
# 36 faces

 #end of obj_10

o obj_11
v 18.6385 		-34 		33.4956
v 18.1681 		-33.8248 		34.4322
v 18.1681 		-34.1752 		34.4322
v 18.1682 		-34.3918 		34.4323
v 18.1682 		-34 		34.4323
v 33.9936 		-34 		32.3642
v 29.4096 		-35.9982 		32.6326
v 20.7011 		-32.2818 		29.3877
v 18.1682 		-32.3402 		34.4322
v 18.1682 		-32.0012 		34.4322
v 29.4058 		-32.0012 		32.6327
v 21.063 		-33.0966 		28.6667
v 18.1682 		-35.9982 		34.4322
v 18.1682 		-35.6598 		34.4322
v 20.7011 		-35.7182 		29.3877
v 20.457 		-35.9982 		29.874
v 31.1342 		-35.7182 		32.6025
v 30.6457 		-35.7975 		32.6111
v 33.1927 		-35.0622 		32.5666
v 18.1682 		-33.6082 		34.4323
v 18.1682 		-34.7424 		34.4323
v 19.2048 		-32.0012 		32.3677
v 19.2047 		-35.9982 		32.368
v 31.1342 		-32.2818 		32.6025
v 33.1927 		-32.9378 		32.5666
v 19.9047 		-35.9982 		30.9739
v 30.6457 		-32.2025 		32.6111
v 19.9051 		-32.0012 		30.9731
v 19.0709 		-35.9982 		32.8131
v 19.0709 		-32.0012 		32.8131
v 33.1927 		-35.9982 		32.5666
v 19.1042 		-32.0012 		34.7215
v 19.1044 		-32.0418 		34.7343
v 19.106 		-32.4105 		34.8258
v 19.1073 		-32.7945 		34.8977
v 33.1927 		-32.0012 		32.5666
v 19.1082 		-33.1895 		34.9494
v 19.1087 		-33.5926 		34.981
v 19.1089 		-34 		34.9913
v 19.1087 		-34.4074 		34.981
v 19.1082 		-34.8105 		34.9494
v 19.1073 		-35.2055 		34.8977
v 19.106 		-35.5895 		34.8258
v 19.1044 		-35.9582 		34.7343
v 33.2162 		-34.6603 		33.9116
v 19.1042 		-35.9982 		34.7217
v 33.2162 		-34 		33.9121
v 19.1041 		-35.9982 		34.718
v 33.5066 		-32.2818 		33.3336
v 33.2162 		-32.5238 		33.9118
v 19.1041 		-32.0012 		34.718
v 18.1682 		-33.2576 		34.4323
v 33.2162 		-35.4762 		33.9118
v 33.5066 		-35.7182 		33.3336
v 33.2625 		-35.9982 		33.8198
v 33.2143 		-35.9982 		33.805
v 33.2045 		-35.7182 		33.2405
v 33.1964 		-35.2658 		32.7757
v 18.3488 		-35.9982 		34.7312
v 33.1964 		-32.7342 		32.7757
v 33.2045 		-32.2818 		33.2405
v 18.3488 		-32.0012 		34.7312
v 18.286 		-35.9982 		34.6669
v 33.2144 		-32.0012 		33.8062
v 18.286 		-32.0012 		34.6669
v 33.2162 		-35.9982 		33.912
v 33.8685 		-34.9034 		32.6126
v 33.8685 		-33.0966 		32.6126
v 33.226 		-32.0012 		34.475
v 33.2263 		-32.0418 		34.4878
v 33.2279 		-32.4105 		34.5793
v 33.2291 		-32.7945 		34.6512
v 33.23 		-33.1895 		34.7029
v 33.2306 		-33.5926 		34.7345
v 33.2307 		-34 		34.7449
v 33.2306 		-34.4074 		34.7345
v 33.23 		-34.8105 		34.7029
v 33.2291 		-35.2055 		34.6512
v 33.2279 		-35.5895 		34.5793
v 33.2263 		-35.9582 		34.4878
v 33.226 		-35.9982 		34.4752
v 33.2162 		-33.587 		33.9118
v 33.2162 		-32.0012 		33.912
v 33.2162 		-33.3397 		33.9116
v 33.2619 		-32.0012 		33.8209
v 21.063 		-34.9034 		28.6667
v 21.1876 		-34 		28.4184
v 20.4564 		-32.0012 		29.8751
# 88 vertices

g group_11_6383466

usemtl color_6383466
s 0

f 400 	403 	402
f 403 	462 	402
f 400 	407 	411
f 409 	421 	408
f 408 	421 	400
f 400 	422 	413
f 416 	417 	414
f 406 	414 	417
f 414 	485 	416
f 418 	416 	485
f 421 	427 	400
f 422 	400 	425
f 400 	401 	419
f 400 	402 	404
f 400 	413 	420
f 412 	462 	413
f 467 	411 	424
f 400 	420 	403
f 407 	410 	426
f 407 	426 	423
f 420 	413 	462
f 424 	411 	423
f 477 	440 	441
f 477 	441 	478
f 442 	478 	441
f 486 	467 	405
f 442 	443 	478
f 425 	406 	422
f 428 	422 	406
f 407 	423 	411
f 445 	447 	406
f 415 	406 	425
f 429 	450 	410
f 429 	410 	421
f 427 	421 	410
f 406 	417 	430
f 417 	416 	430
f 418 	430 	416
f 406 	415 	414
f 471 	433 	434
f 434 	436 	471
f 435 	424 	423
f 410 	435 	426
f 423 	426 	435
f 428 	406 	447
f 431 	410 	450
f 400 	404 	401
f 462 	464 	404
f 404 	402 	462
f 400 	419 	451
f 452 	453 	444
f 419 	401 	464
f 401 	404 	464
f 403 	420 	462
f 456 	453 	455
f 454 	455 	453
f 400 	451 	408
f 456 	457 	453
f 458 	447 	450
f 458 	450 	461
f 409 	408 	464
f 408 	451 	464
f 451 	419 	464
f 465 	455 	454
f 461 	464 	462
f 461 	462 	458
f 462 	412 	447
f 462 	447 	458
f 444 	466 	446
f 405 	446 	466
f 450 	429 	409
f 450 	409 	464
f 450 	464 	461
f 483 	481 	467
f 467 	481 	405
f 467 	459 	448
f 453 	466 	444
f 457 	418 	466
f 457 	466 	453
f 485 	405 	466
f 412 	413 	422
f 467 	424 	459
f 460 	448 	459
f 421 	409 	429
f 427 	487 	400
f 472 	473 	483
f 446 	481 	473
f 473 	474 	446
f 474 	475 	446
f 475 	476 	444
f 476 	477 	444
f 452 	444 	477
f 477 	478 	452
f 478 	479 	452
f 480 	452 	479
f 471 	472 	483
f 444 	446 	475
f 447 	412 	428
f 422 	428 	412
f 470 	471 	449
f 469 	470 	449
f 482 	468 	449
f 483 	449 	471
f 465 	452 	480
f 481 	483 	473
f 447 	445 	443
f 447 	443 	442
f 447 	442 	441
f 447 	441 	440
f 447 	440 	439
f 447 	439 	438
f 447 	438 	437
f 447 	437 	436
f 447 	436 	434
f 447 	434 	433
f 447 	433 	432
f 431 	450 	432
f 447 	432 	450
f 468 	469 	449
f 482 	449 	484
f 448 	484 	449
f 400 	485 	414
f 486 	485 	400
f 411 	486 	400
f 446 	405 	481
f 466 	418 	485
f 485 	486 	405
f 449 	483 	448
f 467 	448 	483
f 411 	467 	486
f 460 	463 	448
f 484 	448 	463
f 425 	400 	415
f 414 	415 	400
f 463 	482 	484
f 407 	400 	487
f 487 	410 	407
f 427 	410 	487
f 453 	452 	454
f 465 	454 	452
f 455 	430 	456
f 459 	435 	460
f 418 	457 	430
f 456 	430 	457
f 463 	460 	435
f 435 	459 	424
f 468 	432 	469
f 432 	470 	469
f 478 	443 	479
f 480 	479 	445
f 443 	445 	479
f 455 	465 	406
f 465 	480 	406
f 445 	406 	480
f 430 	455 	406
f 463 	410 	482
f 435 	410 	463
f 431 	468 	410
f 482 	410 	468
f 468 	431 	432
f 470 	432 	433
f 433 	471 	470
f 436 	472 	471
f 473 	472 	437
f 436 	437 	472
f 473 	437 	474
f 438 	474 	437
f 475 	474 	439
f 438 	439 	474
f 439 	440 	476
f 439 	476 	475
f 440 	477 	476
# 172 faces

 #end of obj_11

o obj_12
v 67.1191 		-33.8721 		33.8024
v 67.1198 		-34.0207 		33.7779
v 67.1253 		-34.0209 		34.2779
v 67.119 		-33.738 		33.8735
v 67.1195 		-33.6316 		33.9842
v 67.1206 		-33.5633 		34.1236
v 67.1222 		-33.5398 		34.2781
v 67.124 		-33.5634 		34.4326
v 67.126 		-33.6317 		34.5719
v 67.1279 		-33.7382 		34.6825
v 67.1296 		-33.8724 		34.7534
v 67.1308 		-34.021 		34.7779
v 67.1315 		-34.1697 		34.7533
v 67.1316 		-34.3038 		34.6823
v 67.1311 		-34.4102 		34.5716
v 67.13 		-34.4785 		34.4322
v 67.1284 		-34.502 		34.2777
v 67.1266 		-34.4784 		34.1232
v 67.1246 		-34.41 		33.9839
v 67.1227 		-34.3036 		33.8733
v 67.1211 		-34.1694 		33.8023
v 73.0239 		-34.0592 		33.713
v 73.0232 		-33.9105 		33.7376
v 73.0294 		-34.0594 		34.213
v 73.0232 		-33.7764 		33.8086
v 73.0237 		-33.67 		33.9193
v 73.0248 		-33.6017 		34.0587
v 73.0263 		-33.5782 		34.2132
v 73.0282 		-33.6018 		34.3677
v 73.0301 		-33.6702 		34.507
v 73.032 		-33.7767 		34.6176
v 73.0337 		-33.9108 		34.6886
v 73.0349 		-34.0595 		34.713
v 73.0356 		-34.2082 		34.6884
v 73.0357 		-34.3423 		34.6174
v 73.0352 		-34.4487 		34.5067
v 73.0341 		-34.517 		34.3673
v 73.0326 		-34.5405 		34.2128
v 73.0307 		-34.5169 		34.0583
v 73.0287 		-34.4485 		33.919
v 73.0268 		-34.342 		33.8084
v 73.0252 		-34.2079 		33.7374
# 42 vertices

g group_12_10988977

usemtl color_10988977
s 0

f 488 	489 	490
f 491 	488 	490
f 492 	491 	490
f 493 	492 	490
f 494 	493 	490
f 495 	494 	490
f 496 	495 	490
f 497 	496 	490
f 498 	497 	490
f 499 	498 	490
f 500 	499 	490
f 501 	500 	490
f 502 	501 	490
f 503 	502 	490
f 504 	503 	490
f 505 	504 	490
f 506 	505 	490
f 507 	506 	490
f 508 	507 	490
f 489 	508 	490
f 509 	510 	511
f 510 	512 	511
f 512 	513 	511
f 513 	514 	511
f 514 	515 	511
f 515 	516 	511
f 516 	517 	511
f 517 	518 	511
f 518 	519 	511
f 519 	520 	511
f 520 	521 	511
f 521 	522 	511
f 522 	523 	511
f 523 	524 	511
f 524 	525 	511
f 525 	526 	511
f 526 	527 	511
f 527 	528 	511
f 528 	529 	511
f 529 	509 	511
f 489 	488 	488
f 488 	491 	491
f 491 	492 	492
f 492 	493 	493
f 493 	494 	494
f 494 	495 	495
f 495 	496 	496
f 496 	497 	497
f 497 	498 	498
f 498 	499 	499
f 499 	500 	500
f 500 	501 	501
f 501 	502 	502
f 502 	503 	503
f 503 	504 	504
f 504 	505 	505
f 505 	506 	506
f 506 	507 	507
f 507 	508 	508
f 508 	489 	489
f 489 	488 	510
f 489 	510 	509
f 488 	491 	512
f 488 	512 	510
f 491 	492 	513
f 491 	513 	512
f 492 	493 	514
f 492 	514 	513
f 493 	494 	515
f 493 	515 	514
f 494 	495 	516
f 494 	516 	515
f 495 	496 	517
f 495 	517 	516
f 496 	497 	518
f 496 	518 	517
f 497 	498 	519
f 497 	519 	518
f 498 	499 	520
f 498 	520 	519
f 499 	500 	521
f 499 	521 	520
f 500 	501 	522
f 500 	522 	521
f 501 	502 	523
f 501 	523 	522
f 502 	503 	524
f 502 	524 	523
f 503 	504 	525
f 503 	525 	524
f 504 	505 	526
f 504 	526 	525
f 505 	506 	527
f 505 	527 	526
f 506 	507 	528
f 506 	528 	527
f 507 	508 	529
f 507 	529 	528
f 508 	489 	509
f 508 	509 	529
f 509 	510 	510
f 510 	512 	512
f 512 	513 	513
f 513 	514 	514
f 514 	515 	515
f 515 	516 	516
f 516 	517 	517
f 517 	518 	518
f 518 	519 	519
f 519 	520 	520
f 520 	521 	521
f 521 	522 	522
f 522 	523 	523
f 523 	524 	524
f 524 	525 	525
f 525 	526 	526
f 526 	527 	527
f 527 	528 	528
f 528 	529 	529
f 529 	509 	509
# 120 faces

 #end of obj_12

o obj_13
v 42.0728 		-34.9511 		30.2571
v 41.659 		-35 		30.3903
v 41.659 		-34 		30.3903
v 42.446 		-34.809 		30.137
v 42.7423 		-34.5878 		30.0416
v 42.9325 		-34.309 		29.9804
v 42.998 		-34 		29.9593
v 42.9325 		-33.691 		29.9804
v 42.7423 		-33.4122 		30.0416
v 42.446 		-33.191 		30.137
v 42.0728 		-33.0489 		30.2571
v 41.659 		-33 		30.3903
v 41.2452 		-33.0489 		30.5235
v 40.8719 		-33.191 		30.6437
v 40.5756 		-33.4122 		30.739
v 40.3854 		-33.691 		30.8003
v 40.3199 		-34 		30.8214
v 40.3854 		-34.309 		30.8003
v 40.5756 		-34.5878 		30.739
v 40.8719 		-34.809 		30.6437
v 41.2452 		-34.9511 		30.5235
v 43.2507 		-35 		33.0879
v 43.6645 		-34.9511 		32.9547
v 43.2507 		-34 		33.0879
v 44.0378 		-34.809 		32.8346
v 44.334 		-34.5878 		32.7392
v 44.5242 		-34.309 		32.678
v 44.5898 		-34 		32.6569
v 44.5242 		-33.691 		32.678
v 44.334 		-33.4122 		32.7392
v 44.0378 		-33.191 		32.8346
v 43.6645 		-33.0489 		32.9547
v 43.2507 		-33 		33.0879
v 42.8369 		-33.0489 		33.2211
v 42.4636 		-33.191 		33.3413
v 42.1673 		-33.4122 		33.4367
v 41.9771 		-33.691 		33.4979
v 41.9116 		-34 		33.519
v 41.9771 		-34.309 		33.4979
v 42.1673 		-34.5878 		33.4367
v 42.4636 		-34.809 		33.3413
v 42.8369 		-34.9511 		33.2211
# 42 vertices

g group_13_10988977

usemtl color_10988977
s 0

f 530 	531 	532
f 533 	530 	532
f 534 	533 	532
f 535 	534 	532
f 536 	535 	532
f 537 	536 	532
f 538 	537 	532
f 539 	538 	532
f 540 	539 	532
f 541 	540 	532
f 542 	541 	532
f 543 	542 	532
f 544 	543 	532
f 545 	544 	532
f 546 	545 	532
f 547 	546 	532
f 548 	547 	532
f 549 	548 	532
f 550 	549 	532
f 531 	550 	532
f 551 	552 	553
f 552 	554 	553
f 554 	555 	553
f 555 	556 	553
f 556 	557 	553
f 557 	558 	553
f 558 	559 	553
f 559 	560 	553
f 560 	561 	553
f 561 	562 	553
f 562 	563 	553
f 563 	564 	553
f 564 	565 	553
f 565 	566 	553
f 566 	567 	553
f 567 	568 	553
f 568 	569 	553
f 569 	570 	553
f 570 	571 	553
f 571 	551 	553
f 531 	530 	530
f 530 	533 	533
f 533 	534 	534
f 534 	535 	535
f 535 	536 	536
f 536 	537 	537
f 537 	538 	538
f 538 	539 	539
f 539 	540 	540
f 540 	541 	541
f 541 	542 	542
f 542 	543 	543
f 543 	544 	544
f 544 	545 	545
f 545 	546 	546
f 546 	547 	547
f 547 	548 	548
f 548 	549 	549
f 549 	550 	550
f 550 	531 	531
f 531 	530 	552
f 531 	552 	551
f 530 	533 	554
f 530 	554 	552
f 533 	534 	555
f 533 	555 	554
f 534 	535 	556
f 534 	556 	555
f 535 	536 	557
f 535 	557 	556
f 536 	537 	558
f 536 	558 	557
f 537 	538 	559
f 537 	559 	558
f 538 	539 	560
f 538 	560 	559
f 539 	540 	561
f 539 	561 	560
f 540 	541 	562
f 540 	562 	561
f 541 	542 	563
f 541 	563 	562
f 542 	543 	564
f 542 	564 	563
f 543 	544 	565
f 543 	565 	564
f 544 	545 	566
f 544 	566 	565
f 545 	546 	567
f 545 	567 	566
f 546 	547 	568
f 546 	568 	567
f 547 	548 	569
f 547 	569 	568
f 548 	549 	570
f 548 	570 	569
f 549 	550 	571
f 549 	571 	570
f 550 	531 	551
f 550 	551 	571
f 551 	552 	552
f 552 	554 	554
f 554 	555 	555
f 555 	556 	556
f 556 	557 	557
f 557 	558 	558
f 558 	559 	559
f 559 	560 	560
f 560 	561 	561
f 561 	562 	562
f 562 	563 	563
f 563 	564 	564
f 564 	565 	565
f 565 	566 	566
f 566 	567 	567
f 567 	568 	568
f 568 	569 	569
f 569 	570 	570
f 570 	571 	571
f 571 	551 	551
# 120 faces

 #end of obj_13

o obj_14
v 48.6916 		-32.465 		37.4894
v 48.9848 		-32.465 		37.4842
v 48.9725 		-32.465 		37.451
v 48.691 		-32.465 		37.456
v 48.691 		-35.542 		37.4559
v 48.9724 		-35.542 		37.4509
v 48.9849 		-35.542 		37.4844
v 48.6916 		-35.542 		37.4896
v 48.715 		-34.0368 		38.8325
v 49.483 		-34.0401 		38.819
v 49.483 		-33.9678 		38.819
v 42.5135 		-32.916 		36.8616
v 42.5382 		-32.9157 		38.2783
v 42.5435 		-33.215 		38.5448
v 42.5443 		-33.3229 		38.5938
v 42.5462 		-33.5865 		38.714
v 42.5435 		-33.2127 		38.5427
v 49.46 		-34.48 		38.7575
v 48.7139 		-34.48 		38.7707
v 42.546 		-33.1 		38.68
v 49.2281 		-34.807 		38.4818
v 49.3567 		-34.807 		38.4805
v 42.549 		-33.528 		38.873
v 42.5462 		-33.592 		38.7165
v 49.2333 		-34.429 		38.6528
v 49.4203 		-34.429 		38.651
v 42.5471 		-34.004 		38.7747
v 49.2349 		-34.0446 		38.707
v 49.4404 		-34.0448 		38.7049
v 49.4404 		-33.9752 		38.7049
v 49.2349 		-33.9754 		38.707
v 42.55 		-34.004 		38.94
v 42.5471 		-34.01 		38.7755
v 42.5462 		-34.4219 		38.7174
v 42.549 		-34.479 		38.873
v 42.5435 		-34.805 		38.5448
v 48.7089 		-34.805 		38.4822
v 42.5092 		-33.2047 		36.6047
v 42.507 		-33.1 		36.477
v 48.6821 		-32.7399 		37.1072
v 48.7015 		-32.8967 		38.1825
v 48.7064 		-34.805 		38.4823
v 48.7066 		-34.7841 		38.4918
v 48.709 		-34.4363 		38.6496
v 49.3934 		-33.9677 		38.8206
v 48.715 		-33.9706 		38.8325
v 48.709 		-34.7842 		38.4917
v 48.7118 		-34.428 		38.6533
v 48.7129 		-34.01 		38.7123
v 49.2137 		-33.7929 		38.0973
v 49.23 		-34.428 		38.648
v 49.2137 		-34.2271 		38.0973
v 49.225 		-34.805 		38.477
v 49.2137 		-34.4955 		38.0975
v 49.232 		-34.01 		38.707
v 49.2138 		-34.01 		38.0977
v 48.6771 		-32.7695 		36.6596
v 48.6795 		-32.916 		36.799
v 48.7289 		-32.916 		36.7985
v 48.6771 		-33.0727 		36.6596
v 48.6885 		-35.5167 		37.3138
v 48.8937 		-35.5042 		37.24
v 48.6839 		-35.47 		37.0511
v 48.8223 		-35.47 		37.0487
v 48.7599 		-35.3734 		36.8816
v 48.6814 		-35.3873 		36.9072
v 46.62 		-34.958 		36.69
v 49.3881 		-34.91 		38.5647
v 48.7105 		-34.91 		38.5767
v 46.6168 		-35.0213 		36.506
v 46.6151 		-34.908 		36.4057
v 46.62 		-33.062 		36.69
v 46.6177 		-35.077 		36.5553
v 49.2761 		-35.251 		38.2646
v 46.6118 		-34.4812 		36.213
v 46.6117 		-34.479 		36.212
v 48.7052 		-35.251 		38.2747
v 46.6129 		-34.622 		36.2763
v 46.6144 		-34.816 		36.3641
v 46.6147 		-34.8532 		36.3809
v 46.6132 		-34.6699 		36.298
v 46.611 		-34.1624 		36.168
v 46.6106 		-34.004 		36.1457
v 46.6117 		-33.5301 		36.2117
v 46.6117 		-33.528 		36.212
v 48.711 		-34.479 		38.766
v 46.6114 		-33.6867 		36.1897
v 46.6132 		-33.3383 		36.298
v 46.614 		-33.2427 		36.3413
v 46.6151 		-33.1 		36.4057
v 46.6151 		-33.1 		36.4057
v 48.7091 		-34.428 		38.6533
v 46.616 		-33.0381 		36.4603
v 46.6178 		-32.923 		36.5619
v 48.675 		-35.248 		36.671
v 48.6769 		-35.0809 		36.7785
v 48.6772 		-35.104 		36.799
v 46.6178 		-34.816 		36.5637
v 47.104 		-35.104 		36.815
v 48.677 		-32.9337 		36.7833
v 48.6772 		-32.916 		36.799
v 47.104 		-32.916 		36.815
v 46.6176 		-33.215 		36.5539
v 46.6168 		-33.3176 		36.5073
v 48.708 		-33.1 		38.572
v 48.7061 		-33.1911 		38.461
v 48.702 		-32.916 		38.2162
v 46.6147 		-33.592 		36.3821
v 46.6144 		-33.7057 		36.3661
v 46.6137 		-34.01 		36.3238
v 48.71 		-34.01 		38.7124
v 48.71 		-34.004 		38.7115
v 46.6147 		-33.5943 		36.3818
v 48.712 		-34.004 		38.832
v 42.504 		-33.528 		36.284
v 46.614 		-34.1237 		36.3399
v 46.6147 		-34.428 		36.3821
v 46.6155 		-34.5306 		36.4287
v 46.6176 		-34.805 		36.5539
v 42.5091 		-33.215 		36.5956
v 42.5072 		-33.483 		36.474
v 46.6147 		-34.4303 		36.3832
v 42.5065 		-33.5813 		36.4291
v 42.5064 		-33.592 		36.4242
v 48.6812 		-32.757 		36.6706
v 48.7416 		-32.6635 		36.8323
v 48.711 		-33.528 		38.766
v 49.2761 		-32.757 		38.2646
v 49.131 		-32.724 		37.8758
v 48.7091 		-33.592 		38.6533
v 49.1298 		-32.7235 		37.8727
v 48.9923 		-32.658 		37.5041
v 48.7089 		-33.5727 		38.6445
v 48.9892 		-32.6595 		37.4959
v 48.8539 		-32.724 		37.1334
v 49.1352 		-32.538 		37.887
v 48.8223 		-32.538 		37.0487
v 48.9091 		-32.4958 		37.2813
v 49.4203 		-33.591 		38.651
v 42.5135 		-35.104 		36.8616
v 49.3567 		-33.213 		38.4805
v 49.257 		-32.913 		38.2135
v 42.507 		-34.908 		36.477
v 49.2169 		-32.8513 		38.1059
v 49.3881 		-33.098 		38.5647
v 42.512 		-35.248 		36.778
v 48.7089 		-33.571 		38.6438
v 42.5091 		-34.8083 		36.5985
v 48.7064 		-33.215 		38.4823
v 42.5055 		-34.004 		36.3664
v 42.5058 		-33.8891 		36.3823
v 49.2136 		-32.851 		38.0972
v 42.503 		-34.004 		36.217
v 49.2137 		-33.5245 		38.0975
v 49.2136 		-33.0915 		38.0972
v 49.46 		-33.527 		38.7575
v 49.4606 		-34.4699 		38.7589
v 42.5055 		-34.01 		36.3655
v 42.5064 		-34.4276 		36.4242
v 42.5061 		-34.3071 		36.4075
v 43.539 		-34.9836 		36.744
v 42.504 		-34.479 		36.284
v 49.2169 		-35.1687 		38.1059
v 49.257 		-35.107 		38.2135
v 43.539 		-33.0364 		36.744
v 46.573 		-35.077 		33.967
v 43.492 		-35.077 		34.021
v 43.492 		-32.923 		34.021
v 46.573 		-32.923 		33.967
v 48.9952 		-35.3616 		37.512
v 49.131 		-35.296 		37.8758
v 42.5436 		-34.7992 		38.5475
v 45.056 		-35.077 		36.5824
v 45.6086 		-35.077 		36.5728
v 48.9923 		-35.363 		37.5041
v 43.5367 		-35.077 		36.6088
v 42.5462 		-34.428 		38.7165
v 42.5455 		-34.5359 		38.6676
v 49.2136 		-35.169 		38.0972
v 49.2136 		-34.9285 		38.0972
v 48.8539 		-35.296 		37.1334
v 48.8587 		-35.2983 		37.1463
v 49.1352 		-35.47 		37.887
v 48.6771 		-34.9473 		36.6596
v 48.7289 		-35.104 		36.7985
v 45.7086 		-32.923 		36.5777
v 48.6812 		-35.251 		36.6706
v 48.6771 		-35.2385 		36.6596
v 48.675 		-32.759 		36.671
v 48.681 		-32.541 		37.05
v 48.689 		-32.465 		37.471
v 48.689 		-32.6644 		37.471
v 43.5368 		-32.923 		36.6154
v 48.6826 		-32.724 		37.1351
v 48.696 		-32.541 		37.892
v 48.703 		-32.759 		38.271
v 48.6959 		-32.724 		37.8802
v 48.6955 		-32.7204 		37.8599
v 48.6952 		-32.7171 		37.8413
v 48.6798 		-32.6743 		36.8145
v 48.6773 		-32.757 		36.6707
v 48.6984 		-32.724 		37.8802
v 48.698 		-32.7204 		37.86
v 48.7052 		-32.757 		38.2747
v 48.6919 		-32.658 		37.5072
v 48.6896 		-32.658 		37.5072
v 48.6854 		-32.724 		37.1351
v 48.6893 		-32.6616 		37.487
v 48.6915 		-32.6616 		37.4871
v 48.6867 		-32.5093 		37.2101
v 48.6839 		-32.538 		37.0511
v 48.6986 		-32.538 		37.8947
v 48.7118 		-33.592 		38.6533
v 48.7089 		-33.215 		38.4822
v 48.7117 		-33.5711 		38.6438
v 48.7042 		-32.916 		38.2162
v 48.7105 		-33.098 		38.5767
v 48.7143 		-33.7069 		38.796
v 48.7139 		-33.527 		38.7707
v 48.7146 		-34.1835 		38.8118
v 48.6984 		-35.296 		37.8802
v 48.7042 		-35.104 		38.2162
v 43.5364 		-34.816 		36.5949
v 43.5363 		-33.215 		36.5851
v 48.6922 		-35.3594 		37.5272
v 48.6986 		-35.47 		37.8947
v 43.5345 		-33.4417 		36.4823
v 48.6854 		-35.296 		37.1351
v 48.6919 		-35.363 		37.5072
v 49.2201 		-35.107 		38.2138
v 43.5333 		-33.592 		36.4137
v 48.6857 		-35.2996 		37.155
v 43.5327 		-33.8433 		36.3782
v 43.5323 		-34.01 		36.3551
v 43.5333 		-33.5933 		36.4135
v 48.6795 		-35.104 		36.799
v 43.5329 		-34.2613 		36.3906
v 43.5333 		-34.428 		36.4137
v 48.6773 		-35.251 		36.6707
v 43.5351 		-34.6547 		36.5165
v 43.5363 		-34.805 		36.5851
v 43.5333 		-34.4293 		36.4143
v 42.5064 		-34.428 		36.4242
v 42.509 		-34.805 		36.5956
v 42.5083 		-34.6961 		36.5458
v 49.217 		-35.104 		38.211
v 43.5341 		-34.908 		36.4592
v 43.5308 		-34.479 		36.266
v 43.5308 		-34.4795 		36.2662
v 43.5334 		-34.816 		36.4176
v 43.5335 		-34.8365 		36.4268
v 48.682 		-35.2784 		37.1043
v 43.5313 		-34.5501 		36.298
v 48.681 		-35.467 		37.05
v 43.5338 		-34.8703 		36.4421
v 48.6826 		-35.296 		37.1351
v 48.683 		-35.2996 		37.1551
v 48.689 		-35.3565 		37.471
v 43.5306 		-34.3999 		36.255
v 48.689 		-35.542 		37.471
v 48.708 		-34.908 		38.572
v 48.7062 		-34.8219 		38.4672
v 48.7016 		-35.1198 		38.1886
v 48.702 		-35.104 		38.2162
v 48.703 		-35.248 		38.271
v 48.696 		-35.467 		37.892
v 48.6952 		-35.3024 		37.8446
v 48.6899 		-35.3594 		37.5273
v 48.6896 		-35.363 		37.5072
v 42.512 		-32.759 		36.778
v 42.5259 		-32.658 		37.5704
v 42.526 		-32.6595 		37.579
v 48.6959 		-35.296 		37.8802
v 42.5199 		-32.7218 		37.21
v 42.5214 		-32.705 		37.3048
v 42.526 		-32.465 		37.579
v 42.519 		-32.541 		37.158
v 42.533 		-32.7258 		37.9459
v 42.54 		-32.759 		38.379
v 48.666 		-34.479 		36.176
v 42.534 		-32.541 		37.999
v 48.669 		-34.908 		36.37
v 48.6692 		-34.4119 		36.3588
v 48.6693 		-34.428 		36.3611
v 48.6694 		-34.4478 		36.3701
v 48.6718 		-34.7826 		36.5228
v 42.5329 		-32.724 		37.9427
v 42.5279 		-32.677 		37.6776
v 48.665 		-34.004 		36.11
v 48.6684 		-34.004 		36.3038
v 48.6684 		-34.01 		36.303
v 42.5382 		-32.916 		38.2788
v 48.6684 		-34.0319 		36.3061
v 43.5296 		-34.004 		36.1992
v 43.5308 		-33.528 		36.266
v 43.5307 		-33.5285 		36.2659
v 43.5298 		-33.9247 		36.2102
v 43.5313 		-33.4567 		36.2983
v 43.5313 		-33.4574 		36.298
v 43.5341 		-33.1 		36.4592
v 43.5341 		-33.1 		36.4592
v 49.2333 		-33.591 		38.6528
v 49.2281 		-33.213 		38.4818
v 49.2201 		-32.913 		38.2138
v 43.535 		-33.0432 		36.5093
v 43.5346 		-33.0676 		36.4877
v 48.666 		-33.528 		36.176
v 48.6692 		-33.614 		36.3579
v 48.6693 		-33.5958 		36.3605
v 48.672 		-33.215 		36.533
v 48.6718 		-33.2287 		36.5268
v 48.669 		-33.1 		36.37
v 43.008 		-33.8667 		36.3803
v 48.6718 		-33.2349 		36.524
v 48.6693 		-33.592 		36.3611
v 42.5196 		-32.724 		37.1976
v 48.672 		-34.805 		36.533
v 49.23 		-33.592 		38.648
v 49.217 		-32.916 		38.211
v 49.225 		-33.215 		38.477
v 42.5196 		-35.296 		37.1976
v 42.5136 		-35.1078 		36.8683
v 42.5198 		-35.2976 		37.2067
v 42.519 		-35.467 		37.158
v 42.526 		-35.3615 		37.579
v 42.5259 		-35.363 		37.5704
v 42.5241 		-35.3437 		37.4634
v 42.526 		-35.542 		37.579
v 42.5383 		-35.099 		38.2832
v 42.54 		-35.248 		38.379
v 42.546 		-34.908 		38.68
v 42.5329 		-35.296 		37.9427
v 42.5309 		-35.3152 		37.8356
v 42.533 		-35.2925 		37.9489
v 42.534 		-35.467 		37.999
v 42.5137 		-32.9087 		36.8743
v 42.5383 		-35.104 		38.2788
# 337 vertices

g group_14_2829873

usemtl color_2829873
s 0

f 572 	573 	574
f 572 	574 	575
f 578 	579 	577
f 576 	577 	579
f 582 	616 	581
f 587 	594 	586
f 594 	591 	586
f 585 	586 	591
f 588 	585 	591
f 593 	592 	596
f 593 	596 	597
f 597 	596 	599
f 597 	599 	600
f 598 	603 	595
f 603 	594 	595
f 587 	595 	594
f 592 	715 	596
f 606 	603 	605
f 596 	715 	599
f 604 	605 	603
f 598 	604 	603
f 609 	583 	610
f 761 	611 	760
f 617 	580 	616
f 580 	581 	616
f 619 	622 	618
f 626 	622 	620
f 619 	620 	622
f 623 	622 	626
f 817 	608 	624
f 624 	618 	622
f 618 	624 	608
f 624 	625 	751
f 623 	625 	622
f 624 	622 	625
f 627 	623 	626
f 602 	601 	600
f 602 	600 	599
f 706 	778 	630
f 630 	629 	631
f 577 	576 	632
f 577 	632 	633
f 634 	635 	632
f 633 	632 	635
f 635 	634 	637
f 635 	637 	636
f 638 	732 	670
f 641 	853 	644
f 648 	645 	640
f 851 	649 	646
f 851 	652 	649
f 614 	615 	657
f 878 	658 	655
f 878 	655 	656
f 878 	860 	658
f 660 	883 	659
f 615 	663 	657
f 760 	883 	665
f 664 	665 	883
f 685 	657 	663
f 667 	668 	666
f 669 	638 	670
f 760 	672 	671
f 583 	736 	673
f 673 	643 	674
f 677 	678 	676
f 679 	886 	675
f 612 	767 	678
f 663 	682 	685
f 683 	685 	682
f 680 	879 	684
f 684 	886 	679
f 694 	686 	695
f 701 	698 	685
f 703 	707 	702
f 871 	872 	610
f 683 	701 	685
f 698 	701 	704
f 707 	699 	715
f 614 	749 	615
f 630 	697 	706
f 694 	802 	692
f 700 	702 	707
f 705 	706 	709
f 708 	709 	706
f 709 	574 	705
f 703 	705 	573
f 573 	705 	574
f 707 	703 	573
f 716 	727 	712
f 682 	604 	683
f 713 	716 	712
f 714 	717 	711
f 713 	715 	699
f 716 	713 	699
f 711 	719 	714
f 715 	723 	707
f 676 	698 	720
f 676 	720 	677
f 686 	722 	695
f 700 	707 	723
f 721 	722 	724
f 718 	720 	698
f 704 	718 	698
f 722 	686 	724
f 726 	715 	725
f 715 	726 	723
f 897 	896 	840
f 727 	582 	710
f 710 	712 	727
f 903 	838 	904
f 691 	795 	609
f 728 	597 	581
f 600 	601 	581
f 593 	597 	589
f 593 	589 	639
f 623 	627 	734
f 840 	829 	897
f 715 	734 	627
f 729 	724 	731
f 721 	724 	729
f 724 	733 	731
f 725 	715 	621
f 627 	621 	715
f 589 	597 	728
f 600 	581 	597
f 582 	581 	601
f 601 	710 	582
f 730 	731 	733
f 708 	706 	697
f 631 	628 	630
f 628 	696 	630
f 697 	630 	696
f 867 	868 	686
f 643 	673 	736
f 735 	645 	734
f 639 	645 	735
f 639 	735 	593
f 737 	738 	739
f 737 	739 	740
f 742 	754 	741
f 744 	745 	717
f 743 	607 	902
f 745 	644 	666
f 717 	747 	744
f 750 	734 	754
f 744 	747 	738
f 743 	902 	749
f 645 	754 	734
f 750 	751 	734
f 751 	625 	734
f 625 	623 	734
f 738 	737 	744
f 744 	737 	745
f 746 	633 	753
f 633 	635 	753
f 752 	753 	635
f 644 	745 	737
f 902 	606 	749
f 748 	749 	606
f 741 	578 	746
f 742 	750 	754
f 578 	741 	754
f 578 	577 	746
f 633 	746 	577
f 636 	752 	635
f 605 	748 	606
f 755 	756 	759
f 760 	665 	757
f 752 	636 	756
f 759 	756 	758
f 758 	756 	636
f 760 	757 	841
f 761 	765 	611
f 763 	765 	762
f 765 	761 	762
f 612 	768 	767
f 766 	767 	768
f 766 	768 	769
f 766 	769 	770
f 676 	678 	767
f 774 	773 	783
f 787 	775 	773
f 639 	640 	645
f 575 	781 	780
f 763 	762 	779
f 770 	777 	766
f 762 	766 	777
f 777 	779 	762
f 778 	780 	781
f 771 	778 	782
f 781 	782 	778
f 776 	572 	780
f 774 	783 	776
f 572 	776 	783
f 575 	780 	572
f 617 	789 	620
f 789 	790 	784
f 786 	790 	785
f 695 	802 	694
f 787 	785 	788
f 788 	775 	787
f 783 	773 	775
f 805 	884 	729
f 778 	771 	629
f 771 	772 	629
f 884 	695 	722
f 842 	779 	777
f 788 	785 	790
f 786 	784 	790
f 619 	618 	590
f 672 	760 	611
f 640 	590 	618
f 701 	595 	704
f 784 	620 	789
f 590 	791 	619
f 620 	619 	791
f 791 	580 	620
f 617 	620 	580
f 739 	764 	757
f 665 	740 	757
f 631 	629 	628
f 628 	629 	772
f 739 	757 	740
f 796 	797 	792
f 638 	794 	732
f 793 	792 	648
f 648 	640 	793
f 618 	608 	640
f 608 	793 	640
f 643 	736 	795
f 645 	648 	754
f 797 	754 	648
f 754 	797 	578
f 579 	578 	797
f 800 	579 	796
f 734 	801 	735
f 735 	801 	592
f 735 	592 	593
f 637 	634 	799
f 592 	801 	715
f 648 	792 	797
f 579 	797 	796
f 803 	632 	800
f 799 	634 	803
f 632 	803 	634
f 632 	576 	800
f 579 	800 	576
f 715 	801 	734
f 810 	637 	807
f 759 	810 	807
f 759 	807 	755
f 799 	807 	637
f 742 	741 	792
f 796 	792 	741
f 628 	772 	696
f 770 	859 	777
f 696 	772 	771
f 696 	771 	697
f 771 	782 	697
f 708 	697 	782
f 575 	574 	709
f 575 	709 	781
f 669 	690 	794
f 708 	782 	781
f 708 	781 	709
f 573 	572 	783
f 573 	783 	707
f 674 	643 	795
f 798 	675 	795
f 674 	795 	675
f 675 	798 	679
f 802 	679 	798
f 805 	681 	804
f 680 	804 	681
f 804 	680 	806
f 684 	806 	680
f 699 	707 	775
f 679 	802 	684
f 806 	684 	802
f 783 	775 	707
f 681 	805 	687
f 808 	687 	805
f 809 	688 	808
f 687 	808 	688
f 604 	598 	683
f 689 	811 	690
f 812 	690 	811
f 595 	587 	704
f 693 	813 	689
f 811 	689 	813
f 809 	813 	688
f 693 	688 	813
f 586 	720 	718
f 638 	669 	794
f 812 	794 	690
f 817 	750 	793
f 793 	742 	792
f 730 	733 	814
f 817 	793 	608
f 816 	814 	733
f 733 	714 	816
f 719 	815 	714
f 815 	816 	714
f 748 	605 	663
f 818 	747 	714
f 663 	615 	748
f 751 	817 	624
f 717 	714 	747
f 742 	793 	750
f 750 	817 	751
f 682 	663 	604
f 741 	746 	796
f 717 	745 	666
f 720 	585 	677
f 803 	753 	752
f 803 	752 	799
f 718 	704 	587
f 678 	863 	612
f 800 	796 	746
f 820 	824 	733
f 746 	753 	800
f 803 	800 	753
f 611 	673 	672
f 821 	822 	714
f 810 	758 	637
f 636 	637 	758
f 666 	668 	823
f 758 	810 	759
f 714 	733 	821
f 824 	821 	733
f 807 	756 	755
f 825 	666 	823
f 733 	819 	820
f 807 	799 	756
f 752 	756 	799
f 826 	714 	822
f 714 	826 	818
f 829 	831 	828
f 827 	828 	825
f 823 	827 	825
f 830 	819 	733
f 650 	651 	737
f 642 	641 	737
f 825 	828 	831
f 613 	614 	832
f 641 	644 	737
f 702 	774 	703
f 833 	613 	832
f 657 	832 	614
f 834 	835 	836
f 774 	702 	773
f 700 	773 	702
f 651 	642 	737
f 832 	836 	835
f 832 	835 	833
f 703 	776 	705
f 740 	665 	664
f 776 	703 	774
f 705 	780 	706
f 778 	706 	780
f 664 	661 	740
f 662 	740 	661
f 662 	660 	740
f 659 	740 	660
f 780 	705 	776
f 829 	840 	831
f 840 	839 	831
f 838 	837 	839
f 831 	839 	837
f 775 	788 	699
f 740 	654 	737
f 716 	699 	788
f 649 	652 	737
f 646 	649 	737
f 647 	646 	737
f 650 	737 	652
f 647 	737 	653
f 653 	737 	654
f 839 	904 	838
f 844 	838 	903
f 740 	656 	655
f 658 	740 	655
f 654 	740 	658
f 685 	594 	603
f 656 	740 	659
f 903 	905 	844
f 610 	583 	841
f 828 	898 	829
f 835 	607 	833
f 668 	670 	823
f 823 	670 	827
f 842 	847 	846
f 836 	844 	834
f 847 	848 	846
f 843 	847 	842
f 845 	846 	848
f 836 	837 	844
f 838 	844 	837
f 584 	850 	849
f 852 	849 	850
f 613 	743 	614
f 853 	851 	856
f 853 	856 	857
f 858 	849 	852
f 855 	856 	851
f 854 	855 	851
f 588 	591 	863
f 591 	850 	863
f 850 	584 	863
f 676 	850 	591
f 862 	864 	860
f 854 	851 	864
f 831 	837 	906
f 657 	603 	606
f 701 	683 	598
f 905 	908 	844
f 585 	720 	586
f 724 	865 	830
f 724 	830 	733
f 716 	788 	790
f 686 	866 	867
f 588 	677 	585
f 868 	724 	686
f 724 	868 	865
f 866 	686 	870
f 870 	686 	869
f 716 	790 	727
f 789 	727 	790
f 698 	591 	594
f 602 	873 	710
f 602 	710 	601
f 874 	712 	873
f 710 	873 	712
f 875 	713 	874
f 712 	874 	713
f 686 	610 	869
f 872 	869 	610
f 861 	862 	860
f 860 	864 	851
f 713 	875 	715
f 877 	871 	610
f 876 	877 	610
f 602 	715 	873
f 874 	873 	715
f 875 	874 	715
f 599 	715 	602
f 876 	610 	764
f 711 	732 	719
f 861 	860 	879
f 880 	879 	878
f 860 	878 	879
f 773 	700 	787
f 760 	671 	883
f 881 	883 	671
f 882 	883 	881
f 626 	620 	889
f 795 	736 	609
f 692 	798 	691
f 672 	673 	671
f 721 	729 	884
f 722 	721 	884
f 700 	723 	787
f 886 	878 	885
f 882 	885 	883
f 878 	883 	885
f 878 	886 	880
f 731 	808 	729
f 730 	809 	731
f 814 	809 	730
f 858 	852 	859
f 852 	847 	859
f 784 	786 	889
f 843 	859 	847
f 785 	891 	786
f 642 	651 	853
f 794 	812 	719
f 670 	732 	711
f 794 	719 	732
f 654 	658 	860
f 883 	878 	659
f 656 	659 	878
f 858 	768 	849
f 662 	883 	660
f 591 	698 	676
f 583 	609 	736
f 698 	594 	685
f 795 	691 	798
f 692 	802 	798
f 881 	674 	882
f 804 	884 	805
f 845 	848 	887
f 907 	887 	841
f 685 	603 	657
f 806 	802 	884
f 804 	806 	884
f 606 	832 	657
f 695 	884 	802
f 879 	680 	861
f 764 	610 	841
f 805 	729 	808
f 731 	809 	808
f 862 	681 	864
f 815 	812 	816
f 811 	816 	812
f 855 	854 	688
f 687 	688 	854
f 864 	687 	854
f 809 	814 	813
f 813 	814 	811
f 816 	811 	814
f 815 	719 	812
f 749 	614 	743
f 826 	822 	738
f 857 	888 	853
f 888 	667 	853
f 818 	738 	747
f 826 	738 	818
f 666 	853 	667
f 877 	876 	739
f 764 	739 	876
f 642 	853 	641
f 768 	612 	584
f 849 	768 	584
f 666 	644 	853
f 869 	872 	739
f 872 	871 	739
f 871 	877 	739
f 583 	673 	907
f 646 	647 	851
f 819 	830 	738
f 821 	824 	738
f 830 	865 	738
f 748 	615 	749
f 650 	652 	853
f 738 	822 	821
f 651 	650 	853
f 607 	743 	613
f 819 	738 	820
f 824 	820 	738
f 851 	853 	652
f 739 	738 	865
f 604 	663 	605
f 865 	868 	739
f 739 	868 	867
f 739 	867 	866
f 866 	870 	739
f 860 	851 	653
f 647 	653 	851
f 595 	701 	598
f 891 	785 	890
f 653 	654 	860
f 870 	869 	739
f 723 	890 	787
f 586 	718 	587
f 764 	841 	757
f 621 	889 	725
f 891 	725 	889
f 761 	841 	848
f 784 	889 	620
f 678 	677 	588
f 863 	678 	588
f 761 	760 	841
f 627 	626 	621
f 889 	621 	626
f 661 	883 	662
f 726 	890 	723
f 889 	786 	891
f 787 	890 	785
f 852 	766 	847
f 661 	664 	883
f 892 	893 	717
f 766 	762 	847
f 766 	852 	767
f 894 	892 	895
f 668 	667 	670
f 888 	670 	667
f 893 	711 	717
f 850 	767 	852
f 891 	890 	726
f 891 	726 	725
f 765 	673 	611
f 842 	777 	843
f 859 	769 	858
f 674 	881 	673
f 881 	671 	673
f 845 	765 	846
f 887 	765 	845
f 675 	885 	674
f 885 	882 	674
f 894 	895 	898
f 897 	898 	899
f 895 	899 	898
f 896 	897 	899
f 675 	886 	885
f 765 	763 	846
f 846 	779 	842
f 862 	861 	681
f 680 	681 	861
f 607 	900 	902
f 901 	902 	900
f 584 	612 	863
f 896 	899 	904
f 886 	684 	880
f 843 	777 	859
f 903 	906 	905
f 903 	904 	906
f 879 	880 	684
f 768 	858 	769
f 906 	904 	899
f 687 	864 	681
f 629 	630 	778
f 616 	789 	617
f 727 	789 	616
f 727 	616 	582
f 888 	857 	690
f 689 	690 	857
f 856 	689 	857
f 581 	580 	791
f 581 	791 	728
f 590 	589 	728
f 590 	728 	791
f 689 	856 	693
f 855 	693 	856
f 899 	831 	906
f 639 	589 	590
f 855 	688 	693
f 669 	670 	888
f 690 	669 	888
f 640 	639 	590
f 711 	893 	670
f 907 	673 	887
f 841 	583 	907
f 848 	762 	761
f 848 	847 	762
f 848 	841 	887
f 906 	901 	905
f 908 	905 	901
f 900 	908 	901
f 767 	850 	676
f 769 	859 	770
f 779 	846 	763
f 835 	834 	908
f 765 	887 	673
f 895 	666 	825
f 825 	899 	895
f 825 	831 	899
f 895 	717 	666
f 832 	606 	902
f 902 	901 	836
f 902 	836 	832
f 837 	901 	906
f 836 	901 	837
f 834 	844 	908
f 908 	900 	835
f 607 	835 	900
f 827 	670 	892
f 892 	894 	827
f 898 	828 	894
f 904 	839 	896
f 839 	840 	896
f 613 	833 	607
f 893 	892 	670
f 827 	894 	828
f 898 	897 	829
f 895 	892 	717
f 691 	610 	692
f 609 	610 	691
f 692 	610 	686
f 694 	692 	686
# 670 faces

 #end of obj_14

o obj_15
v 44.2119 		-32.6832 		34.1757
v 44.217 		-32.6154 		34.5296
v 44.217 		-34 		34.5296
v 44.2073 		-32.8798 		33.8563
v 44.2036 		-33.1861 		33.6029
v 44.2013 		-33.5721 		33.4402
v 44.2004 		-34 		33.3842
v 44.2013 		-34.4279 		33.4402
v 44.2036 		-34.8139 		33.6029
v 44.2073 		-35.1202 		33.8563
v 44.2119 		-35.3168 		34.1757
v 44.217 		-35.3846 		34.5296
v 44.2221 		-35.3168 		34.8836
v 44.2267 		-35.1202 		35.2029
v 44.2304 		-34.8139 		35.4564
v 44.2327 		-34.4279 		35.6191
v 44.2335 		-34 		35.6751
v 44.2327 		-33.5721 		35.6191
v 44.2304 		-33.1861 		35.4564
v 44.2267 		-32.8798 		35.2029
v 44.2221 		-32.6832 		34.8836
v 19.9952 		-32.6154 		33.7937
v 19.9901 		-32.6832 		33.4397
v 19.9952 		-34 		33.7937
v 19.9855 		-32.8798 		33.1204
v 19.9818 		-33.1861 		32.867
v 19.9795 		-33.5721 		32.7043
v 19.9787 		-34 		32.6482
v 19.9795 		-34.4279 		32.7043
v 19.9818 		-34.8139 		32.867
v 19.9855 		-35.1202 		33.1204
v 19.9901 		-35.3168 		33.4397
v 19.9952 		-35.3846 		33.7937
v 20.0003 		-35.3168 		34.1477
v 20.0049 		-35.1202 		34.467
v 20.0086 		-34.8139 		34.7204
v 20.0109 		-34.4279 		34.8831
v 20.0117 		-34 		34.9392
v 20.0109 		-33.5721 		34.8831
v 20.0086 		-33.1861 		34.7204
v 20.0049 		-32.8798 		34.467
v 20.0003 		-32.6832 		34.1477
# 42 vertices

g group_15_10988977

usemtl color_10988977
s 0

f 909 	910 	911
f 912 	909 	911
f 913 	912 	911
f 914 	913 	911
f 915 	914 	911
f 916 	915 	911
f 917 	916 	911
f 918 	917 	911
f 919 	918 	911
f 920 	919 	911
f 921 	920 	911
f 922 	921 	911
f 923 	922 	911
f 924 	923 	911
f 925 	924 	911
f 926 	925 	911
f 927 	926 	911
f 928 	927 	911
f 929 	928 	911
f 910 	929 	911
f 930 	931 	932
f 931 	933 	932
f 933 	934 	932
f 934 	935 	932
f 935 	936 	932
f 936 	937 	932
f 937 	938 	932
f 938 	939 	932
f 939 	940 	932
f 940 	941 	932
f 941 	942 	932
f 942 	943 	932
f 943 	944 	932
f 944 	945 	932
f 945 	946 	932
f 946 	947 	932
f 947 	948 	932
f 948 	949 	932
f 949 	950 	932
f 950 	930 	932
f 910 	909 	909
f 909 	912 	912
f 912 	913 	913
f 913 	914 	914
f 914 	915 	915
f 915 	916 	916
f 916 	917 	917
f 917 	918 	918
f 918 	919 	919
f 919 	920 	920
f 920 	921 	921
f 921 	922 	922
f 922 	923 	923
f 923 	924 	924
f 924 	925 	925
f 925 	926 	926
f 926 	927 	927
f 927 	928 	928
f 928 	929 	929
f 929 	910 	910
f 910 	909 	931
f 910 	931 	930
f 909 	912 	933
f 909 	933 	931
f 912 	913 	934
f 912 	934 	933
f 913 	914 	935
f 913 	935 	934
f 914 	915 	936
f 914 	936 	935
f 915 	916 	937
f 915 	937 	936
f 916 	917 	938
f 916 	938 	937
f 917 	918 	939
f 917 	939 	938
f 918 	919 	940
f 918 	940 	939
f 919 	920 	941
f 919 	941 	940
f 920 	921 	942
f 920 	942 	941
f 921 	922 	943
f 921 	943 	942
f 922 	923 	944
f 922 	944 	943
f 923 	924 	945
f 923 	945 	944
f 924 	925 	946
f 924 	946 	945
f 925 	926 	947
f 925 	947 	946
f 926 	927 	948
f 926 	948 	947
f 927 	928 	949
f 927 	949 	948
f 928 	929 	950
f 928 	950 	949
f 929 	910 	930
f 929 	930 	950
f 930 	931 	931
f 931 	933 	933
f 933 	934 	934
f 934 	935 	935
f 935 	936 	936
f 936 	937 	937
f 937 	938 	938
f 938 	939 	939
f 939 	940 	940
f 940 	941 	941
f 941 	942 	942
f 942 	943 	943
f 943 	944 	944
f 944 	945 	945
f 945 	946 	946
f 946 	947 	947
f 947 	948 	948
f 948 	949 	949
f 949 	950 	950
f 950 	930 	930
# 120 faces

 #end of obj_15

