# Object Export From Tinkercad Server 2015

mtllib obj.mtl

o obj_0
v 19.363 		27.418 		9
v 19.363 		27.418 		4
v 17.518 		26.271 		7.998
v 17.518 		26.271 		9
v 18.338 		18.9 		7.998
v 18.338 		18.9 		9
v 14.863 		7.004 		0
v 14.863 		7.004 		4
v 15 		1 		4
v 15 		1 		0
v 14.703 		-40.694 		4
v 14.455 		12.906 		0
v 14.455 		12.906 		4
v 13.0137 		-45 		4
v 14.703 		-40.694 		9
v -13 		1 		4
v -13 		1 		0
v 6.963 		58.473 		7.998
v 6.963 		58.473 		9
v 4.548 		60.975 		9
v 4.548 		60.975 		7.998
v -12.897 		5.503 		4
v -12.897 		5.503 		0
v 9.251 		55.031 		7.998
v -12.591 		9.929 		4
v 9.251 		55.031 		9
v -12.591 		9.929 		0
v -12.087 		14.203 		4
v -12.087 		14.203 		0
v 11.372 		50.707 		7.998
v 11.372 		50.707 		9
v -16.455 		12.906 		0
v -16.455 		12.906 		4
v -16.863 		7.004 		0
v -16.863 		7.004 		4
v -17 		1 		0
v -17 		1 		4
v 2.046 		62.493 		7.998
v -3.306 		65.465 		9
v -3.306 		65.465 		4
v 10.897 		-3.503 		0
v 10.897 		-3.503 		4
v -6.065 		63.87 		9
v 10.591 		-7.929 		0
v -6.065 		63.87 		4
v 10.591 		-7.929 		4
v -8.728 		61.242 		9
v 10.087 		-12.203 		0
v 10.087 		-12.203 		4
v 9.392 		-16.25 		0
v 9.392 		-16.25 		4
v 11 		1 		0
v 14.455 		-10.906 		0
v 14.455 		-10.906 		4
v 14.863 		-5.004 		0
v 14.863 		-5.004 		4
v -10.251 		-48.031 		9
v -15.782 		-16.603 		4
v -14.856 		-22 		4
v -11.392 		-16.25 		4
v -11.392 		-16.25 		0
v -13.694 		-27.003 		4
v -8.728 		-54.242 		9
v -12.087 		-12.203 		4
v -12.087 		-12.203 		0
v -13.588 		-46.085 		9
v -11.25 		-50.627 		9
v -12.591 		-7.929 		4
v -12.591 		-7.929 		0
v -12.897 		-3.503 		4
v -12.897 		-3.503 		0
v 9.251 		-48.031 		9
v -12.314 		-31.527 		4
v 6.963 		-51.473 		9
v -16.863 		-5.004 		0
v -16.863 		-5.004 		4
v 4.548 		-53.975 		9
v -16.455 		-10.906 		0
v 12.588 		-46.085 		9
v -16.455 		-10.906 		4
v 0.566 		-33.205 		4
v -1 		-33.5 		4
v -2.566 		-33.205 		4
v 2.046 		-55.493 		9
v 7.728 		-54.242 		9
v 10.25 		-50.627 		9
v 8.52 		-20.002 		0
v 8.52 		-20.002 		4
v -0.5 		-56.003 		9
v -17 		-36.3945 		4
v 7.485 		-23.395 		0
v 7.485 		-23.395 		4
v 6.305 		-26.371 		0
v 6.305 		-26.371 		4
v 5.065 		-56.87 		9
v 5 		-28.878 		0
v 5 		-28.878 		4
v -1 		-45 		4
v 1.088 		-44.606 		4
v -6.065 		-56.87 		9
v -3.306 		-58.465 		9
v -0.5 		-59 		9
v 2.306 		-58.465 		9
v -0.5 		-59 		4
v 15 		-39.7094 		4
v 2.306 		-58.465 		4
v 3.592 		-30.874 		0
v 3.141 		-43.433 		4
v 3.592 		-30.874 		4
v 5.065 		-56.87 		4
v 13.782 		-16.603 		0
v 13.782 		-16.603 		4
v 5.123 		-41.498 		4
v 2.106 		-32.324 		0
v 12.856 		-22 		0
v 7 		-38.837 		4
v 11.694 		-27.003 		0
v 10.314 		-31.527 		0
v 7.728 		-54.242 		4
v -4.106 		-32.324 		0
v 8.74 		-35.494 		4
v -15.703 		-40.694 		9
v -8.728 		61.242 		4
v -15.703 		-40.694 		4
v 10.25 		-50.627 		4
v -14.0137 		-45 		4
v -11.25 		57.627 		9
v -10.74 		-35.494 		4
v -11.25 		57.627 		4
v -9 		-38.837 		4
v -13.588 		53.085 		9
v -7.123 		-41.498 		4
v -12.372 		-43.707 		7.998
v -12.372 		-43.707 		9
v 12.588 		-46.085 		4
v -14.29 		-38.575 		7.998
v -5.141 		-43.433 		4
v -14.29 		-38.575 		9
v -13.588 		53.085 		4
v -3.088 		-44.606 		4
v -15.703 		47.694 		9
v 13.29 		-38.575 		7.998
v 13.29 		-38.575 		9
v -15.703 		47.694 		4
v 0.566 		35.205 		4
v 11.372 		-43.707 		7.998
v 0.566 		35.205 		0
v 11.372 		-43.707 		9
v 2.106 		34.324 		4
v 2.106 		34.324 		0
v 3.592 		32.874 		4
v 3.592 		32.874 		0
v 18.836 		11.267 		7.998
v 18.836 		11.267 		9
v -15.9124 		47 		4
v 19.003 		3.5 		7.998
v 19.003 		3.5 		9
v 10.314 		33.527 		0
v 10.314 		33.527 		4
v -12.372 		50.707 		7.998
v -12.372 		50.707 		9
v 8.74 		37.494 		0
v 8.74 		37.494 		4
v 7 		40.837 		0
v 2.106 		-32.324 		4
v 7 		40.837 		4
v 12.856 		-22 		4
v 5.123 		43.498 		0
v 5.123 		43.498 		4
v -10.251 		55.031 		7.998
v -10.251 		55.031 		9
v 3.141 		45.433 		0
v 3.141 		45.433 		4
v -7.963 		58.473 		7.998
v -7.963 		58.473 		9
v 1.088 		46.606 		0
v 1.088 		46.606 		4
v 14.9124 		47 		4
v 15 		46.7094 		4
v 10.314 		-31.527 		4
v -5.548 		60.975 		7.998
v -5.548 		60.975 		9
v -5.592 		32.874 		4
v -3.046 		62.493 		7.998
v -3.046 		62.493 		9
v -5.592 		32.874 		0
v -4.106 		34.324 		4
v -13.588 		-46.085 		4
v -4.106 		34.324 		0
v -0.5 		63.003 		7.998
v -0.5 		63.003 		9
v -2.566 		35.205 		4
v -2.566 		35.205 		0
v -11.25 		-50.627 		4
v -1 		35.5 		4
v -1 		35.5 		0
v -12.314 		33.527 		0
v -12.314 		33.527 		4
v -8.728 		-54.242 		4
v 13.29 		45.575 		9
v -1 		47 		0
v -1 		47 		4
v 14.972 		39.723 		9
v -3.088 		46.606 		0
v -3.088 		46.606 		4
v -5.141 		45.433 		0
v -5.141 		45.433 		4
v -7.123 		43.498 		0
v -7.123 		43.498 		4
v -15.972 		39.723 		9
v -6.065 		-56.87 		4
v -9 		40.837 		0
v -9 		40.837 		4
v -3.306 		-58.465 		4
v -14.29 		45.575 		9
v -0.5 		-56.003 		7.998
v -3.046 		-55.493 		7.998
v -3.046 		-55.493 		9
v -17 		43.3945 		4
v -5.548 		-53.975 		7.998
v -5.548 		-53.975 		9
v -15.972 		-32.723 		9
v -7.963 		-51.473 		7.998
v -7.963 		-51.473 		9
v -10.251 		-48.031 		7.998
v 14.972 		-32.723 		9
v -10.74 		37.494 		4
v 9.251 		-48.031 		7.998
v 5 		30.878 		4
v 6.305 		28.371 		4
v 7.485 		25.395 		4
v 8.52 		22.002 		4
v 9.392 		18.25 		4
v 6.963 		-51.473 		7.998
v 13.782 		18.603 		4
v 12.856 		24 		4
v 4.548 		-53.975 		7.998
v 11.694 		29.003 		4
v 2.046 		-55.493 		7.998
v -11.392 		18.25 		4
v -10.52 		22.002 		4
v -9.485 		25.395 		4
v -8.305 		28.371 		4
v -7 		30.878 		4
v -13.694 		29.003 		4
v 13.29 		45.575 		7.998
v -14.856 		24 		4
v 14.972 		39.723 		7.998
v -15.782 		18.603 		4
v 10.087 		14.203 		4
v 10.591 		9.929 		4
v 10.897 		5.503 		4
v 11 		1 		4
v 11.694 		-27.003 		4
v -4.106 		-32.324 		4
v -15.972 		39.723 		7.998
v -5.592 		-30.874 		0
v -5.592 		-30.874 		4
v -14.29 		45.575 		7.998
v -7 		-28.878 		4
v -7 		-28.878 		0
v -10.74 		37.494 		0
v -8.305 		-26.371 		4
v -8.305 		-26.371 		0
v 5 		30.878 		0
v -9.485 		-23.395 		4
v -9.485 		-23.395 		0
v 6.305 		28.371 		0
v -10.52 		-20.002 		4
v -10.52 		-20.002 		0
v 7.485 		25.395 		0
v 8.52 		22.002 		0
v 9.392 		18.25 		0
v -15.782 		-16.603 		0
v -14.856 		-22 		0
v -15.972 		-32.723 		7.998
v 11.694 		29.003 		0
v 12.856 		24 		0
v 13.782 		18.603 		0
v -13.694 		-27.003 		0
v -12.314 		-31.527 		0
v -11.392 		18.25 		0
v 14.972 		-32.723 		7.998
v -10.52 		22.002 		0
v -9.485 		25.395 		0
v -1 		-33.5 		0
v -2.566 		-33.205 		0
v -8.305 		28.371 		0
v -7 		30.878 		0
v -15.782 		18.603 		0
v -14.856 		24 		0
v -13.694 		29.003 		0
v 0.566 		-33.205 		0
v 10.087 		14.203 		0
v 10.591 		9.929 		0
v 10.897 		5.503 		0
v -1 		-45 		0
v 1.088 		-44.606 		0
v 3.141 		-43.433 		0
v 5.123 		-41.498 		0
v 7 		-38.837 		0
v 8.74 		-35.494 		0
v -10.74 		-35.494 		0
v 18.12 		-27.75 		9
v -3.088 		-44.606 		0
v -5.141 		-43.433 		0
v -7.123 		-41.498 		0
v -9 		-38.837 		0
v 18.12 		-27.75 		4
v 16.557 		41.548 		4
v 18.12 		34.75 		4
v 19.363 		-20.418 		9
v 19.363 		-20.418 		4
v 20.267 		19.676 		4
v 20.816 		11.658 		4
v 21 		3.5 		4
v 20.267 		-12.676 		9
v 20.267 		-12.676 		4
v 20.816 		-4.658 		4
v 20.816 		-4.658 		9
v 16.557 		-34.548 		4
v 16.39 		33.251 		9
v 18.836 		-4.267 		7.998
v 18.836 		-4.267 		9
v 18.12 		34.75 		9
v 16.557 		41.548 		9
v 18.338 		-11.9 		7.998
v 18.338 		-11.9 		9
v 17.518 		-19.271 		7.998
v 17.518 		-19.271 		9
v 16.39 		-26.251 		7.998
v 16.39 		-26.251 		9
v -19.12 		34.75 		4
v -17.557 		41.548 		4
v 21 		3.5 		9
v 20.816 		11.658 		9
v 20.267 		19.676 		9
v -22 		3.5 		4
v -21.816 		11.658 		4
v -21.267 		19.676 		4
v -20.363 		27.418 		4
v -19.12 		-27.75 		4
v -20.363 		-20.418 		4
v -21.267 		-12.676 		4
v -21.816 		-4.658 		4
v -17.557 		-34.548 		4
v -17.39 		33.251 		9
v 16.557 		-34.548 		9
v -0.5 		66 		4
v 2.306 		65.465 		4
v 5.065 		63.87 		4
v 7.728 		61.242 		4
v 10.25 		57.627 		4
v 12.588 		53.085 		4
v -19.12 		34.75 		9
v 14.703 		47.694 		4
v -17.557 		41.548 		9
v -20.003 		3.5 		9
v -19.836 		11.267 		9
v -19.338 		18.9 		9
v -0.5 		66 		9
v -18.518 		26.271 		9
v 16.39 		33.251 		7.998
v 2.046 		62.493 		9
v -20.363 		27.418 		9
v -21.267 		19.676 		9
v -21.816 		11.658 		9
v -22 		3.5 		9
v -17.39 		-26.251 		9
v -18.518 		-19.271 		9
v -19.338 		-11.9 		9
v 7.728 		61.242 		9
v -19.836 		-4.267 		9
v -19.12 		-27.75 		9
v 10.25 		57.627 		9
v -21.816 		-4.658 		9
v -21.267 		-12.676 		9
v -20.363 		-20.418 		9
v 12.588 		53.085 		9
v -17.557 		-34.548 		9
v 14.703 		47.694 		9
v 5.065 		63.87 		9
v 2.306 		65.465 		9
v -17.39 		33.251 		7.998
v -20.003 		3.5 		7.998
v -19.836 		11.267 		7.998
v -19.338 		18.9 		7.998
v -18.518 		26.271 		7.998
v -17.39 		-26.251 		7.998
v -18.518 		-19.271 		7.998
v -19.338 		-11.9 		7.998
v -19.836 		-4.267 		7.998
# 392 vertices

g group_0_6306067

usemtl color_6306067
s 0

f 311 	1 	2
f 4 	3 	5
f 4 	5 	6
f 7 	8 	9
f 7 	9 	10
f 12 	13 	8
f 12 	8 	7
f 18 	19 	20
f 18 	20 	21
f 22 	16 	17
f 22 	17 	23
f 25 	22 	23
f 25 	23 	27
f 24 	26 	19
f 24 	19 	18
f 28 	25 	27
f 28 	27 	29
f 30 	31 	26
f 30 	26 	24
f 31 	30 	200
f 32 	34 	35
f 32 	35 	33
f 34 	36 	37
f 34 	37 	35
f 190 	184 	38
f 21 	38 	184
f 184 	181 	21
f 52 	41 	42
f 39 	45 	43
f 42 	41 	44
f 42 	44 	46
f 40 	45 	39
f 46 	44 	48
f 46 	48 	49
f 49 	48 	50
f 49 	50 	51
f 7 	10 	296
f 52 	296 	10
f 53 	55 	56
f 53 	56 	54
f 58 	59 	90
f 36 	34 	23
f 23 	17 	36
f 59 	62 	90
f 73 	90 	62
f 29 	27 	32
f 34 	32 	27
f 27 	23 	34
f 63 	224 	67
f 100 	221 	63
f 41 	52 	10
f 64 	60 	61
f 64 	61 	65
f 68 	64 	65
f 68 	65 	69
f 41 	10 	55
f 44 	41 	55
f 70 	68 	69
f 70 	69 	71
f 55 	53 	44
f 71 	17 	70
f 16 	70 	17
f 85 	86 	74
f 48 	44 	53
f 53 	111 	48
f 50 	48 	111
f 76 	37 	75
f 36 	75 	37
f 77 	85 	74
f 75 	78 	80
f 75 	80 	76
f 82 	83 	81
f 58 	80 	78
f 61 	270 	274
f 84 	95 	77
f 72 	74 	86
f 79 	72 	86
f 88 	51 	87
f 50 	87 	51
f 69 	65 	78
f 61 	274 	65
f 89 	103 	84
f 85 	77 	95
f 88 	87 	91
f 88 	91 	92
f 92 	91 	93
f 92 	93 	94
f 75 	36 	71
f 17 	71 	36
f 71 	69 	75
f 78 	75 	69
f 94 	93 	96
f 94 	96 	97
f 98 	99 	14
f 89 	218 	101
f 101 	102 	89
f 103 	89 	102
f 95 	84 	103
f 54 	111 	53
f 111 	115 	87
f 102 	104 	106
f 102 	106 	103
f 108 	113 	14
f 99 	108 	14
f 113 	116 	14
f 97 	96 	107
f 97 	107 	109
f 106 	110 	95
f 106 	95 	103
f 87 	50 	111
f 91 	87 	115
f 11 	14 	116
f 105 	11 	116
f 115 	117 	91
f 93 	91 	117
f 54 	112 	111
f 117 	118 	93
f 96 	93 	118
f 105 	15 	11
f 118 	302 	96
f 107 	96 	302
f 114 	107 	302
f 85 	95 	119
f 116 	121 	105
f 110 	119 	95
f 119 	125 	86
f 119 	86 	85
f 47 	43 	123
f 45 	123 	43
f 122 	90 	124
f 47 	129 	127
f 73 	128 	90
f 124 	90 	128
f 128 	130 	124
f 124 	126 	122
f 126 	124 	130
f 130 	132 	126
f 123 	129 	47
f 125 	79 	86
f 133 	134 	57
f 135 	79 	125
f 131 	127 	129
f 132 	137 	126
f 136 	138 	134
f 136 	134 	133
f 129 	139 	131
f 137 	140 	126
f 131 	139 	141
f 98 	126 	140
f 11 	15 	14
f 14 	79 	135
f 144 	141 	139
f 143 	142 	146
f 143 	146 	148
f 149 	145 	147
f 149 	147 	150
f 151 	149 	150
f 151 	150 	152
f 148 	146 	72
f 6 	5 	153
f 6 	153 	154
f 144 	155 	141
f 154 	153 	156
f 154 	156 	157
f 158 	159 	238
f 158 	162 	163
f 158 	163 	159
f 136 	133 	146
f 136 	146 	142
f 109 	107 	114
f 109 	114 	165
f 162 	164 	166
f 162 	166 	163
f 164 	168 	169
f 164 	169 	166
f 170 	171 	161
f 170 	161 	160
f 115 	111 	167
f 112 	167 	111
f 168 	172 	173
f 168 	173 	169
f 174 	175 	171
f 174 	171 	170
f 165 	114 	81
f 172 	176 	177
f 172 	177 	173
f 236 	238 	179
f 238 	159 	179
f 176 	201 	177
f 181 	182 	175
f 181 	175 	174
f 184 	185 	182
f 184 	182 	181
f 163 	166 	179
f 166 	169 	179
f 66 	122 	126
f 66 	126 	188
f 187 	183 	186
f 187 	186 	189
f 190 	191 	185
f 190 	185 	184
f 178 	179 	169
f 192 	187 	189
f 192 	189 	193
f 66 	194 	67
f 169 	173 	178
f 38 	191 	190
f 188 	194 	66
f 195 	192 	193
f 195 	193 	196
f 67 	194 	199
f 67 	199 	63
f 173 	177 	178
f 160 	30 	170
f 30 	24 	170
f 18 	21 	181
f 181 	174 	18
f 24 	18 	174
f 174 	170 	24
f 195 	196 	147
f 195 	147 	145
f 201 	202 	177
f 183 	187 	149
f 187 	192 	149
f 145 	149 	192
f 145 	192 	195
f 201 	204 	205
f 201 	205 	202
f 203 	326 	200
f 100 	63 	199
f 204 	206 	207
f 204 	207 	205
f 206 	208 	209
f 206 	209 	207
f 208 	212 	213
f 208 	213 	209
f 211 	100 	199
f 214 	101 	100
f 214 	100 	211
f 141 	357 	215
f 104 	102 	101
f 104 	101 	214
f 202 	178 	177
f 161 	141 	215
f 216 	217 	218
f 216 	218 	89
f 155 	202 	205
f 218 	217 	220
f 218 	220 	221
f 205 	207 	155
f 207 	209 	155
f 213 	227 	219
f 209 	213 	155
f 219 	155 	213
f 223 	224 	221
f 223 	221 	220
f 225 	57 	224
f 225 	224 	223
f 198 	219 	227
f 133 	57 	225
f 138 	122 	134
f 134 	66 	57
f 146 	228 	72
f 242 	243 	230
f 243 	244 	230
f 230 	231 	242
f 231 	232 	242
f 241 	242 	232
f 233 	250 	28
f 234 	74 	72
f 234 	72 	228
f 235 	236 	179
f 222 	380 	138
f 374 	380 	222
f 122 	66 	134
f 67 	57 	66
f 237 	77 	74
f 237 	74 	234
f 159 	163 	179
f 148 	15 	143
f 143 	348 	226
f 239 	84 	77
f 239 	77 	237
f 72 	79 	148
f 84 	239 	216
f 84 	216 	89
f 241 	232 	240
f 244 	183 	151
f 151 	229 	244
f 149 	151 	183
f 229 	230 	244
f 15 	148 	79
f 356 	381 	178
f 178 	381 	179
f 198 	245 	219
f 245 	247 	219
f 146 	133 	228
f 133 	225 	228
f 234 	228 	225
f 234 	225 	223
f 234 	223 	220
f 217 	237 	220
f 216 	239 	217
f 237 	217 	239
f 234 	220 	237
f 246 	200 	30
f 247 	249 	219
f 248 	203 	200
f 248 	200 	246
f 249 	33 	219
f 147 	196 	172
f 203 	248 	322
f 160 	259 	246
f 160 	246 	30
f 22 	25 	251
f 16 	22 	252
f 253 	42 	70
f 68 	70 	42
f 42 	46 	68
f 118 	180 	121
f 172 	168 	147
f 168 	164 	147
f 150 	147 	164
f 164 	162 	150
f 152 	150 	162
f 158 	265 	162
f 117 	254 	180
f 117 	180 	118
f 167 	254 	117
f 167 	117 	115
f 289 	288 	197
f 219 	141 	155
f 186 	289 	262
f 120 	255 	83
f 262 	212 	189
f 189 	186 	262
f 255 	120 	257
f 255 	257 	258
f 259 	215 	210
f 259 	210 	256
f 260 	258 	257
f 260 	257 	261
f 263 	260 	261
f 263 	261 	264
f 215 	259 	160
f 215 	160 	161
f 201 	196 	204
f 204 	196 	206
f 208 	206 	193
f 212 	208 	193
f 193 	189 	212
f 176 	196 	201
f 176 	172 	196
f 193 	206 	196
f 152 	162 	265
f 266 	263 	264
f 266 	264 	267
f 269 	266 	267
f 269 	267 	270
f 268 	265 	158
f 5 	3 	388
f 158 	277 	268
f 270 	61 	269
f 60 	269 	61
f 271 	268 	277
f 78 	274 	58
f 384 	388 	3
f 274 	275 	59
f 274 	59 	58
f 138 	136 	222
f 276 	222 	136
f 275 	280 	62
f 275 	62 	59
f 277 	278 	271
f 272 	271 	278
f 278 	279 	272
f 273 	272 	279
f 12 	294 	279
f 280 	281 	73
f 280 	73 	62
f 283 	226 	331
f 142 	143 	226
f 142 	226 	283
f 32 	290 	29
f 286 	287 	83
f 286 	83 	82
f 282 	29 	290
f 120 	83 	287
f 285 	284 	291
f 290 	291 	284
f 284 	282 	290
f 136 	142 	276
f 385 	392 	323
f 323 	156 	385
f 386 	385 	156
f 197 	262 	289
f 291 	292 	285
f 292 	197 	288
f 288 	285 	292
f 79 	14 	15
f 114 	293 	81
f 273 	279 	294
f 81 	293 	286
f 81 	286 	82
f 295 	294 	12
f 12 	7 	295
f 296 	295 	7
f 98 	297 	298
f 98 	298 	99
f 298 	299 	108
f 298 	108 	99
f 300 	113 	108
f 300 	108 	299
f 281 	280 	264
f 78 	65 	274
f 270 	267 	275
f 275 	274 	270
f 280 	275 	267
f 267 	264 	280
f 264 	261 	281
f 257 	303 	261
f 281 	261 	303
f 287 	308 	120
f 120 	303 	257
f 301 	116 	113
f 301 	113 	300
f 323 	157 	156
f 212 	262 	227
f 212 	227 	213
f 302 	121 	116
f 302 	116 	301
f 198 	227 	197
f 262 	197 	227
f 121 	302 	118
f 229 	151 	265
f 152 	265 	151
f 3 	363 	384
f 256 	384 	363
f 363 	248 	256
f 128 	73 	303
f 281 	303 	73
f 229 	265 	268
f 229 	268 	230
f 230 	268 	271
f 230 	271 	231
f 303 	308 	130
f 303 	130 	128
f 287 	286 	306
f 307 	287 	306
f 308 	287 	307
f 303 	120 	308
f 305 	306 	286
f 297 	305 	286
f 293 	299 	286
f 114 	301 	293
f 302 	301 	114
f 301 	300 	293
f 300 	299 	293
f 299 	298 	286
f 297 	286 	298
f 231 	271 	272
f 231 	272 	232
f 232 	272 	273
f 232 	273 	233
f 309 	313 	304
f 311 	9 	310
f 2 	9 	311
f 179 	9 	8
f 8 	13 	179
f 312 	304 	313
f 235 	179 	13
f 13 	12 	235
f 279 	235 	12
f 314 	9 	2
f 315 	9 	314
f 316 	9 	315
f 179 	310 	9
f 278 	236 	235
f 278 	235 	279
f 312 	318 	317
f 277 	238 	236
f 277 	236 	278
f 313 	318 	312
f 318 	320 	317
f 238 	277 	158
f 25 	28 	250
f 28 	240 	233
f 232 	233 	240
f 320 	318 	319
f 9 	316 	319
f 318 	313 	9
f 313 	309 	9
f 309 	321 	9
f 105 	9 	321
f 319 	318 	9
f 240 	28 	29
f 240 	29 	282
f 33 	35 	219
f 241 	240 	282
f 241 	282 	284
f 37 	219 	35
f 242 	241 	284
f 242 	284 	285
f 157 	323 	324
f 243 	242 	285
f 243 	285 	288
f 327 	328 	324
f 327 	324 	323
f 244 	243 	288
f 244 	288 	289
f 325 	326 	203
f 203 	322 	325
f 4 	1 	322
f 329 	330 	328
f 329 	328 	327
f 64 	68 	46
f 266 	269 	88
f 60 	64 	49
f 51 	60 	49
f 6 	337 	4
f 183 	244 	289
f 183 	289 	186
f 331 	332 	330
f 331 	330 	329
f 154 	336 	6
f 54 	56 	105
f 245 	198 	292
f 197 	292 	198
f 292 	291 	247
f 292 	247 	245
f 9 	105 	56
f 291 	290 	249
f 291 	249 	247
f 33 	249 	32
f 290 	32 	249
f 219 	37 	334
f 46 	49 	64
f 252 	253 	16
f 251 	252 	22
f 250 	251 	25
f 70 	16 	253
f 273 	294 	250
f 273 	250 	233
f 157 	335 	154
f 325 	322 	1
f 250 	294 	295
f 250 	295 	251
f 90 	37 	76
f 251 	295 	296
f 251 	296 	252
f 76 	80 	90
f 58 	90 	80
f 252 	296 	52
f 252 	52 	253
f 340 	341 	37
f 339 	340 	37
f 338 	339 	37
f 1 	4 	337
f 336 	337 	6
f 336 	154 	335
f 253 	52 	42
f 333 	334 	37
f 341 	333 	37
f 55 	10 	9
f 55 	9 	56
f 81 	255 	165
f 97 	109 	258
f 92 	266 	88
f 255 	258 	109
f 165 	255 	109
f 344 	37 	343
f 90 	346 	37
f 332 	331 	226
f 342 	343 	37
f 345 	37 	344
f 338 	37 	345
f 332 	312 	330
f 342 	37 	346
f 308 	307 	132
f 308 	132 	130
f 156 	153 	386
f 387 	386 	153
f 153 	5 	387
f 388 	387 	5
f 304 	332 	226
f 306 	137 	132
f 306 	132 	307
f 15 	105 	348
f 321 	348 	105
f 304 	312 	332
f 305 	140 	137
f 305 	137 	306
f 304 	348 	321
f 321 	309 	304
f 210 	355 	347
f 297 	98 	140
f 297 	140 	305
f 157 	324 	335
f 320 	335 	324
f 320 	324 	328
f 330 	317 	328
f 312 	317 	330
f 320 	328 	317
f 105 	112 	54
f 355 	365 	347
f 304 	226 	348
f 15 	348 	143
f 210 	215 	357
f 167 	112 	105
f 311 	325 	1
f 351 	202 	350
f 352 	202 	351
f 353 	202 	352
f 354 	202 	353
f 356 	202 	354
f 178 	202 	356
f 355 	210 	357
f 311 	326 	325
f 121 	180 	105
f 180 	254 	105
f 254 	167 	105
f 310 	326 	311
f 45 	40 	202
f 123 	45 	202
f 129 	123 	202
f 139 	129 	202
f 40 	349 	202
f 350 	202 	349
f 144 	139 	202
f 155 	144 	202
f 179 	381 	326
f 179 	326 	310
f 363 	322 	248
f 365 	366 	362
f 362 	347 	365
f 322 	363 	4
f 3 	4 	363
f 81 	83 	255
f 258 	260 	97
f 94 	97 	260
f 263 	94 	260
f 266 	94 	263
f 51 	88 	269
f 60 	51 	269
f 92 	94 	266
f 248 	246 	259
f 259 	256 	248
f 366 	367 	360
f 360 	362 	366
f 359 	360 	367
f 367 	368 	359
f 358 	359 	368
f 376 	373 	368
f 320 	316 	335
f 26 	375 	19
f 19 	372 	20
f 320 	319 	316
f 370 	378 	369
f 374 	222 	369
f 316 	336 	335
f 31 	379 	26
f 315 	336 	316
f 371 	377 	370
f 373 	376 	371
f 372 	19 	375
f 200 	381 	31
f 336 	315 	337
f 314 	337 	315
f 358 	368 	373
f 374 	369 	378
f 337 	2 	1
f 2 	337 	314
f 377 	371 	376
f 378 	370 	377
f 381 	379 	31
f 122 	138 	380
f 375 	26 	379
f 381 	200 	326
f 141 	219 	357
f 334 	357 	219
f 382 	20 	372
f 383 	364 	382
f 361 	191 	383
f 20 	382 	364
f 334 	355 	357
f 355 	334 	333
f 171 	131 	161
f 175 	127 	171
f 333 	365 	355
f 182 	47 	175
f 127 	131 	171
f 141 	161 	131
f 185 	43 	182
f 127 	175 	47
f 347 	384 	256
f 347 	256 	210
f 361 	39 	191
f 47 	182 	43
f 364 	383 	191
f 185 	191 	39
f 43 	185 	39
f 383 	349 	361
f 333 	341 	365
f 39 	361 	40
f 349 	40 	361
f 341 	340 	366
f 341 	366 	365
f 340 	339 	367
f 340 	367 	366
f 339 	338 	368
f 339 	368 	367
f 368 	338 	376
f 358 	392 	385
f 386 	359 	358
f 386 	358 	385
f 356 	379 	381
f 354 	379 	356
f 387 	360 	359
f 387 	359 	386
f 388 	362 	360
f 388 	360 	387
f 354 	353 	379
f 384 	347 	362
f 384 	362 	388
f 375 	379 	353
f 392 	391 	327
f 329 	327 	391
f 391 	390 	329
f 331 	329 	390
f 327 	323 	392
f 353 	372 	375
f 338 	345 	376
f 345 	344 	377
f 345 	377 	376
f 352 	372 	353
f 344 	343 	378
f 344 	378 	377
f 378 	342 	374
f 343 	342 	378
f 351 	382 	372
f 352 	351 	372
f 351 	350 	383
f 351 	383 	382
f 222 	276 	369
f 389 	369 	276
f 390 	370 	369
f 390 	369 	389
f 350 	349 	383
f 391 	371 	370
f 391 	370 	390
f 191 	38 	364
f 392 	373 	371
f 392 	371 	391
f 392 	358 	373
f 21 	20 	364
f 21 	364 	38
f 389 	276 	283
f 283 	331 	389
f 142 	283 	276
f 390 	389 	331
f 380 	374 	346
f 342 	346 	374
f 90 	122 	380
f 346 	90 	380
f 119 	110 	98
f 194 	98 	199
f 125 	119 	98
f 188 	98 	194
f 126 	98 	188
f 135 	125 	98
f 14 	135 	98
f 110 	106 	98
f 106 	104 	98
f 214 	98 	104
f 211 	98 	214
f 199 	98 	211
f 221 	100 	218
f 100 	101 	218
f 224 	63 	221
f 57 	67 	224
# 780 faces

 #end of obj_0

