# Object Export From Tinkercad Server 2015

mtllib obj.mtl

o obj_0
v 149.925 		-99 		100.517
v -28.555 		38 		121.503
v -14.547 		35 		121.503
v -14.547 		38 		121.503
v -28.555 		35 		121.503
v 149.925 		-99 		0.5
v 149.925 		101 		146.5
v 149.925 		99.5 		146.5
v 147.078 		77 		49.5
v 149.925 		99.5 		146.52
v -15.724 		8.52 		48.52
v 65.536 		-78.5 		48.5
v 149.925 		101 		0.5
v -12.724 		8.52 		48.52
v -14.547 		35 		100.52
v 141.456 		77 		49.5
v -5.799 		35 		100.52
v 149.925 		-20 		142.5
v 149.925 		-19.998 		142.5
v 147.078 		98 		48.52
v 149.925 		-20 		146.52
v -7.224 		38 		100.52
v -14.547 		38 		100.52
v 147.078 		80 		49.5
v 42.827 		-79 		47.5
v 149.925 		-19.998 		100.52
v 147.078 		98 		44.5
v -7.224 		38.04 		100.52
v 91.622 		97.25 		58.358
v 90.377 		97.25 		59.686
v 149.925 		-97 		100.517
v 93.491 		97.25 		57.472
v -5.799 		35.04 		100.52
v 141.456 		80 		49.5
v 149.925 		-97 		100.52
v 90.377 		97.25 		57.472
v 94.736 		97.25 		58.358
v 81.077 		-94 		48.52
v 91.622 		97.25 		60.572
v 78.314 		-94 		48.52
v 77.089 		-94 		48.52
v 147.078 		98 		0.5
v 77.089 		-94 		44.5
v -28.555 		35 		100.52
v 147.078 		1 		0.5
v -28.555 		38 		100.52
v 147.078 		4 		0.5
v -72.992 		-20 		111.786
v -9.424 		1 		44.5
v 127.072 		-76 		21.503
v -9.424 		4 		44.5
v 127.072 		-79 		21.503
v 85.395 		97.25 		62.786
v 43.804 		-79 		46.286
v 42.827 		-79 		46.286
v -12.424 		1 		44.5
v 85.395 		97.25 		65.001
v 147.078 		1 		44.5
v 42.827 		-81.5 		46.286
v -14.922 		1 		44.5
v -73.224 		79.503 		121.503
v -72.992 		-20 		109.572
v 82.282 		97.25 		65.001
v -14.922 		4 		44.5
v -12.424 		4 		44.5
v -71.124 		-20 		108.686
v 84.15 		97.25 		64.115
v -76.224 		79.503 		121.503
v -149.925 		98 		100.5
v -149.925 		101 		100.5
v -149.925 		101 		0.5
v -149.925 		98 		0.5
v -69.879 		-20 		109.572
v -69.879 		-20 		107.358
v 147.078 		4 		44.5
v -149.775 		-99 		100.517
v -149.775 		-99 		0.5
v -66.765 		-20 		107.358
v -149.775 		101 		146.5
v -149.427 		101 		146.5
v 42.559 		-81.5 		45.4
v -73.224 		98 		100.52
v -76.224 		98 		100.52
v -149.427 		101 		147
v -76.224 		96 		100.52
v -73.224 		96 		100.52
v -149.775 		101 		100.5
v 127.447 		77 		70.503
v 127.447 		80 		70.503
v -149.427 		-19.5 		147
v 42.827 		-76 		44.5
v 88.509 		97.25 		62.786
v -77.351 		-20 		110.901
v -74.238 		-20 		110.901
v -76.106 		-20 		111.786
v 84.15 		97.25 		61.901
v -76.106 		-20 		114.001
v 48.786 		-79 		40.971
v -77.351 		-20 		113.115
v 45.672 		-79 		40.971
v 127.072 		-76 		0.5
v 127.072 		-79 		0.5
v 87.263 		97.25 		61.901
v 45.672 		-79 		43.185
v -149.775 		98 		100.5
v -73.224 		79.503 		100.52
v -54.924 		29.502 		49.5
v -76.224 		79.503 		100.52
v 46.918 		-79 		44.071
v 82.282 		97.25 		67.215
v 88.509 		97.25 		60.572
v -54.924 		15.494 		49.5
v 87.263 		97.25 		59.686
v -149.775 		98 		0.5
v 46.918 		-79 		41.857
v -57.924 		0 		44.5
v 102.964 		-79 		4.929
v 99.85 		-79 		7.143
v 99.85 		-79 		4.929
v 72.941 		97.25 		73.858
v 69.827 		97.25 		73.858
v 98.604 		-79 		6.257
v -73.224 		65.495 		121.503
v 69.827 		97.25 		75.356
v -80.465 		-20 		113.115
v -57.924 		29.502 		49.5
v -79.219 		-20 		114.001
v 66.713 		97.25 		77.571
v 66.713 		97.25 		75.356
v -57.924 		15.494 		49.5
v 68.582 		97.25 		74.47
v -149.775 		-19.998 		146.5
v -149.427 		-19.5 		146.5
v -76.224 		65.495 		121.503
v 106.078 		-79 		0.5
v 42.827 		-81.5 		43.185
v 42.559 		-81.5 		43.185
v 104.833 		-79 		0.5
v -9.424 		51.995 		0.5
v 42.827 		-79 		43.185
v -9.424 		51.995 		21.503
v -73.224 		35 		100.52
v -73.224 		38 		100.52
v 106.078 		-79 		2.714
v -12.424 		51.995 		21.503
v -12.424 		51.995 		0.5
v -73.224 		65.495 		100.52
v -76.224 		35 		100.52
v 102.964 		-79 		2.714
v -76.224 		38 		100.52
v -54.924 		35.003 		21.503
v -54.924 		35.003 		0.5
v -76.224 		65.495 		100.52
v 104.833 		-79 		1.829
v -58.924 		55.5 		0.5
v -58.924 		52.5 		0.5
v 76.054 		97.25 		71.644
v 43.804 		-79 		44.071
v -149.775 		-19.998 		100.517
v -57.924 		35.003 		0.5
v -126.169 		35 		121.503
v -57.924 		35.003 		21.503
v -126.169 		35 		100.52
v 101.719 		-79 		1.829
v 98.604 		-79 		4.043
v -126.169 		38 		121.503
v 38.287 		-75.5 		48.52
v -126.169 		38 		100.52
v 101.719 		-79 		4.043
v 38.287 		-75.48 		48.52
v 38.912 		-79 		48.5
v 40.691 		-79 		48.5
v 40.691 		-79 		47.5
v 39.445 		-79 		47.614
v 39.445 		-79 		47.5
v 96.604 		97.25 		53.043
v -145.927 		101 		146.5
v -145.927 		99.5 		146.5
v 74.809 		97.25 		70.758
v -145.927 		99.5 		146.52
v 97.85 		97.25 		53.929
v -145.927 		98 		142.5
v -9.424 		1 		0.5
v 94.736 		97.25 		56.143
v 96.604 		97.25 		55.257
v 40.691 		-79 		48
v -9.424 		4 		0.5
v -145.927 		98 		146
v 97.85 		97.25 		56.143
v -145.927 		101 		147
v 93.491 		97.25 		55.257
v -146.925 		98 		146
v -12.424 		1 		0.5
v -14.922 		1 		0.5
v -74.238 		-20 		108.686
v -14.922 		4 		0.5
v -12.424 		4 		0.5
v -54.924 		20.994 		21.503
v -145.927 		35 		142.5
v -54.924 		20.994 		0.5
v 79.168 		97.25 		69.429
v 76.054 		97.25 		69.429
v -57.924 		20.994 		21.503
v -145.927 		38 		142.5
v -57.924 		20.994 		0.5
v 81.036 		97.25 		64.115
v 38.287 		-78.48 		48.5
v 38.287 		-78.348 		48.5
v 81.036 		97.25 		66.329
v -145.927 		35 		146
v -145.927 		38 		146
v -146.925 		35 		131.072
v -146.925 		35 		146
v 77.922 		97.25 		66.329
v 147.078 		-99 		100.517
v 147.078 		-99 		100.5
v -146.925 		38 		131.072
v -146.925 		38 		146
v 79.168 		97.25 		67.215
v 37.577 		-79 		48.128
v 37.577 		-79 		48.5
v -146.925 		-99 		100.5
v 91.622 		80.75 		58.358
v 90.377 		80.75 		59.686
v -146.925 		-99 		100.517
v 93.491 		80.75 		57.472
v 77.922 		97.25 		68.544
v 90.377 		80.75 		57.472
v 94.736 		80.75 		58.358
v 91.622 		80.75 		60.572
v 37.577 		-79 		47.614
v -112.925 		46.5 		49
v 37.577 		-79 		48
v -112.925 		49.5 		49
v -146.925 		96 		100.52
v -116.635 		49 		49
v -113.635 		49 		49
v -146.925 		96 		100.48
v -146.925 		97.72 		100.48
v -140.228 		35 		100.52
v -146.925 		35 		100.52
v 38.287 		-78.348 		48
v -140.228 		35 		121.503
v 38.287 		-78.48 		48
v -146.925 		38 		100.52
v -140.228 		38 		100.52
v -140.228 		38 		121.503
v 74.809 		97.25 		68.544
v 40.691 		-81.5 		47.5
v -146.925 		97.72 		96.5
v -145.927 		-19.5 		147
v -66.765 		-20 		105.143
v -146.925 		98 		0.5
v -146.925 		98 		48.52
v -146.925 		98 		44.5
v 102.964 		-94 		4.929
v 85.395 		80.75 		62.786
v 72.941 		97.25 		71.644
v 98.604 		-94 		6.257
v 85.395 		80.75 		65.001
v 99.85 		-94 		4.929
v -71.124 		-20 		106.472
v 147.078 		35 		142.5
v 68.582 		97.25 		73.142
v 69.827 		97.25 		73.142
v -68.01 		-20 		104.257
v 99.85 		-94 		7.143
v 82.282 		80.75 		65.001
v -68.01 		-20 		106.472
v 40.691 		-81.5 		46.286
v 147.078 		98 		142.5
v 147.078 		38 		142.5
v 84.15 		80.75 		64.115
v 40.077 		-81.5 		45.4
v 69.827 		97.25 		72.972
v -146.898 		52.5 		0.5
v -146.898 		55.5 		0.5
v 147.078 		97.72 		100.48
v 147.078 		96 		100.48
v 147.078 		96 		100.52
v 71.695 		97.25 		72.972
v -146.898 		52.5 		44.5
v 104.833 		-94 		0.5
v 35.084 		-78.5 		48.52
v 106.078 		-94 		0.5
v -146.898 		55.5 		44.5
v 147.078 		35 		100.52
v 35.084 		-79 		47.5
v 140.393 		35 		100.52
v 106.078 		-94 		2.714
v 140.393 		35 		121.503
v 35.084 		-79 		48
v 102.964 		-94 		2.714
v -73.224 		-18 		100.52
v 147.078 		38 		100.52
v 71.695 		97.25 		70.758
v 140.393 		38 		100.52
v 140.393 		38 		121.503
v 104.833 		-94 		1.829
v 35.084 		-78.5 		48.5
v -12.724 		-22 		96.5
v -76.224 		-18 		100.52
v 35.084 		-78.48 		48
v 35.084 		-78.48 		48.5
v 98.604 		-94 		4.043
v 88.509 		80.75 		62.786
v 39.827 		-76 		44.5
v 34.577 		-76 		44.5
v -76.224 		-18 		142.5
v -73.224 		-18 		142.5
v 101.719 		-94 		1.829
v 101.719 		-94 		4.043
v 84.15 		80.75 		61.901
v 80.277 		35 		142.5
v 87.263 		80.75 		61.901
v -12.724 		-19 		96.5
v 77.277 		35 		142.5
v -57.924 		0 		96.5
v -58.204 		-16.5 		96.5
v -58.204 		-19.5 		96.5
v 48.786 		-79 		38.757
v -104.13 		-20 		133.214
v 83.036 		-79 		17.329
v -105.375 		-20 		132.328
v -104.13 		-20 		130.999
v -102.261 		-20 		130.114
v 84.282 		-79 		18.215
v -12.724 		-78.48 		96.5
v -102.261 		-20 		127.899
v -12.724 		-75.48 		96.5
v -101.016 		-20 		130.999
v -12.724 		-94 		96.5
v -101.016 		-20 		128.785
v -15.724 		-94 		96.5
v -99.148 		-20 		127.899
v -54.924 		-82.005 		70.503
v -54.924 		-67.997 		70.503
v -54.924 		-94 		96.5
v 74.941 		-79 		24.858
v 50.032 		-94 		41.857
v 88.509 		80.75 		60.572
v 82.282 		80.75 		67.215
v -113.47 		-20 		139.857
v 87.263 		80.75 		59.686
v -105.375 		-20 		130.114
v 65.6 		-79 		30.785
v -57.924 		-82.005 		70.503
v -57.924 		-67.997 		70.503
v -107.243 		-20 		135.428
v -57.924 		-94 		96.5
v 70.582 		-79 		25.47
v -110.357 		-20 		135.428
v 72.941 		80.75 		73.858
v -110.357 		-20 		137.642
v 71.827 		-79 		24.858
v 7.264 		35 		142.5
v -113.47 		-20 		137.642
v 67.468 		-79 		25.47
v -111.602 		-20 		136.757
v 68.713 		-79 		28.571
v 65.6 		-79 		28.571
v 69.827 		80.75 		73.858
v 12.777 		38 		142.5
v 12.777 		38.04 		142.5
v 68.713 		-79 		26.356
v -113.635 		-16.5 		96.5
v 69.827 		80.75 		75.356
v 66.713 		80.75 		75.356
v 66.713 		80.75 		77.571
v 67.468 		-79 		27.685
v -116.635 		-16.5 		96.5
v -99.148 		-20 		125.685
v 68.582 		80.75 		74.47
v 3.277 		35.04 		142.5
v 7.264 		35.04 		142.5
v 71.827 		-79 		26.356
v -111.602 		-20 		134.542
v -108.489 		-20 		134.542
v -108.489 		-20 		132.328
v 0.277 		35.04 		142.5
v -107.243 		-20 		133.214
v -12.724 		-22 		48.52
v 62.486 		-94 		32.999
v 59.372 		-94 		32.999
v 96.604 		80.75 		53.043
v 76.054 		80.75 		71.644
v 59.372 		-94 		35.214
v 97.85 		80.75 		53.929
v 96.604 		80.75 		55.257
v 94.736 		80.75 		56.143
v 97.85 		80.75 		56.143
v 84.253 		96 		100.48
v -12.724 		-19 		48.52
v 93.491 		80.75 		55.257
v 78.054 		-79 		22.644
v 84.253 		96 		100.52
v 74.941 		-79 		22.644
v 74.809 		80.75 		70.758
v 58.127 		-94 		34.328
v 84.253 		80.248 		100.52
v 76.809 		-79 		21.758
v 56.259 		-94 		37.428
v 53.145 		-94 		37.428
v 53.145 		-94 		39.642
v 51.9 		-94 		38.757
v 81.168 		-79 		20.429
v 78.054 		-79 		20.429
v 79.922 		-79 		17.329
v 126.385 		35 		121.503
v 81.168 		-79 		18.215
v 126.385 		35 		100.52
v 50.032 		-94 		39.642
v 80.277 		35 		100.52
v 76.054 		80.75 		69.429
v 126.385 		38 		121.503
v 79.168 		80.75 		69.429
v 126.385 		38 		100.52
v -80.465 		-35.5 		115.329
v 79.922 		-79 		19.544
v -79.219 		-35.5 		116.215
v 77.277 		35 		100.52
v 81.036 		80.75 		66.329
v 76.809 		-79 		19.544
v -94.788 		-35.5 		124.356
v -96.033 		-35.5 		125.685
v 77.922 		80.75 		66.329
v 51.9 		-94 		36.542
v -94.788 		-35.5 		126.571
v -97.901 		-35.5 		126.571
v 55.013 		-94 		36.542
v 55.013 		-94 		34.328
v 81.036 		80.75 		64.115
v 29.998 		96 		100.48
v 79.168 		80.75 		67.215
v 29.998 		96 		100.52
v 56.259 		-94 		35.214
v -97.901 		-35.5 		128.785
v -96.033 		-35.5 		123.47
v -92.919 		-35.5 		123.47
v 71.827 		-79 		23.972
v -91.674 		-35.5 		124.356
v 71.827 		-79 		24.142
v 73.695 		-79 		21.758
v 77.922 		80.75 		68.544
v 73.695 		-79 		23.972
v 70.582 		-79 		24.142
v 29.998 		80.248 		100.52
v -58.204 		-19.5 		49
v -58.204 		-16.5 		49
v -117.83 		-20 		141.185
v -116.584 		-20 		142.071
v -116.584 		-20 		139.857
v 83.036 		-94 		17.329
v -9.424 		-37.25 		44.5
v 91.577 		98 		44.5
v 84.282 		-94 		18.215
v -9.424 		-40.25 		44.5
v 14.711 		35 		121.503
v 28.77 		35 		121.503
v -88.56 		-35.5 		120.644
v 88.077 		98 		44.5
v -89.806 		-35.5 		121.972
v -86.692 		-35.5 		119.758
v 14.711 		38 		121.503
v -89.806 		-35.5 		119.758
v -85.447 		-35.5 		120.644
v 28.77 		38 		121.503
v -88.56 		-35.5 		122.858
v -122.811 		-20 		146.5
v -122.811 		-20 		144.286
v 91.577 		98 		0.5
v 88.077 		98 		0.5
v 74.809 		80.75 		68.544
v -120.943 		-20 		143.4
v 91.577 		74.505 		0.5
v 88.077 		74.505 		0.5
v -119.698 		-20 		144.286
v 91.577 		74.505 		21.503
v -82.333 		-35.5 		116.215
v -83.579 		-35.5 		117.544
v -82.333 		-35.5 		118.429
v 88.077 		74.505 		21.503
v -85.447 		-35.5 		118.429
v -83.579 		-35.5 		115.329
v 28.77 		35 		100.52
v 72.941 		80.75 		71.644
v -86.692 		-35.5 		117.544
v 28.77 		38 		100.52
v -119.698 		-20 		142.071
v 68.582 		80.75 		73.142
v 74.941 		-94 		24.858
v 69.827 		80.75 		73.142
v -58.924 		-41 		44.5
v -120.943 		-20 		141.185
v 65.6 		-94 		30.785
v -58.924 		-38 		44.5
v 70.582 		-94 		25.47
v 71.827 		-94 		24.858
v 91.577 		1 		44.5
v -91.674 		-35.5 		122.142
v -91.674 		-35.5 		121.972
v 43.804 		-94 		46.286
v -91.674 		-35.5 		122.858
v -92.919 		-35.5 		122.142
v 67.468 		-94 		25.47
v 68.713 		-94 		28.571
v 65.6 		-94 		28.571
v 88.077 		1 		44.5
v 68.713 		-94 		26.356
v 42.559 		-94 		45.4
v 67.468 		-94 		27.685
v 69.827 		80.75 		72.972
v 14.711 		35 		100.52
v -72.992 		-35.5 		109.572
v -72.992 		-35.5 		111.786
v 91.577 		4 		44.5
v -71.124 		-35.5 		108.686
v 71.827 		-94 		26.356
v -69.879 		-35.5 		107.358
v -69.879 		-35.5 		109.572
v 14.711 		38 		100.52
v 12.777 		38 		100.52
v 71.695 		80.75 		72.972
v 45.672 		-94 		40.971
v 48.786 		-94 		40.971
v 88.077 		4 		44.5
v -66.765 		-35.5 		107.358
v 12.777 		38.04 		100.52
v 42.559 		-94 		43.185
v 45.672 		-94 		43.185
v -117.83 		-20 		138.971
v -114.716 		-20 		138.971
v 46.918 		-94 		41.857
v 88.077 		60.497 		0.5
v 91.577 		60.497 		0.5
v 7.264 		35 		100.52
v 91.577 		60.497 		21.503
v -114.716 		-20 		136.757
v 71.695 		80.75 		70.758
v 7.264 		35.04 		100.52
v 88.077 		60.497 		21.503
v 3.277 		35.04 		100.52
v -77.351 		-35.5 		113.115
v -76.106 		-35.5 		111.786
v 121.583 		1 		0.5
v 121.583 		4 		0.5
v -76.106 		-35.5 		114.001
v -79.219 		-35.5 		114.001
v 107.575 		4 		0.5
v 107.575 		1 		0.5
v -80.465 		-35.5 		113.115
v 43.804 		-94 		44.071
v -77.351 		-35.5 		110.901
v -125.347 		-20 		146.5
v -74.238 		-35.5 		110.901
v 121.583 		1 		21.503
v 0.277 		35.04 		100.52
v 46.918 		-94 		44.071
v -74.238 		-35.5 		108.686
v 107.575 		1 		21.503
v -125.347 		-20 		145.614
v -124.057 		-20 		145.614
v -124.057 		-20 		143.4
v 121.583 		4 		21.503
v 57.372 		97.25 		81.999
v 60.486 		97.25 		81.999
v 107.575 		4 		21.503
v 40.691 		-94 		48.5
v 37.577 		-94 		48.5
v 57.372 		97.25 		84.214
v -125.347 		-20 		146.52
v 39.445 		-94 		47.5
v 39.445 		-94 		47.614
v -125.347 		-20 		144.645
v 91.577 		4 		0.5
v 88.077 		4 		0.5
v 91.577 		1 		0.5
v 40.691 		-94 		46.286
v 88.077 		1 		0.5
v -125.347 		-20 		146.645
v 40.077 		-94 		45.4
v -9.424 		-37.25 		0.5
v -9.424 		-40.25 		0.5
v 49.9 		97.25 		87.757
v 51.145 		97.25 		86.428
v 51.145 		97.25 		88.642
v 54.259 		97.25 		86.428
v -66.765 		-35.5 		105.143
v 37.577 		-94 		47.614
v -68.01 		-35.5 		106.472
v -68.01 		-35.5 		104.257
v 78.054 		-94 		22.644
v -54.924 		-62.497 		21.503
v -71.124 		-35.5 		106.472
v -54.924 		-62.497 		0.5
v 74.941 		-94 		22.644
v -58.924 		-38 		0.5
v -58.924 		-41 		0.5
v 76.809 		-94 		21.758
v 39.827 		98 		44.5
v 146.578 		-20 		142.5
v -57.924 		-62.497 		21.503
v -57.924 		-62.497 		0.5
v 146.578 		-18.415 		142.5
v 147.078 		-19.998 		142.5
v 81.168 		-94 		20.429
v 78.054 		-94 		20.429
v 79.922 		-94 		17.329
v 81.168 		-94 		18.215
v -12.724 		-78.48 		48.52
v -12.724 		-75.48 		48.52
v 79.922 		-94 		19.544
v -12.724 		-94 		48.52
v -15.724 		-94 		48.52
v 42.827 		98 		44.5
v -104.13 		-35.5 		130.999
v 76.809 		-94 		19.544
v -105.375 		-35.5 		130.114
v -102.261 		-35.5 		130.114
v -99.148 		-35.5 		127.899
v -99.148 		-35.5 		125.685
v -101.016 		-35.5 		128.785
v 53.013 		97.25 		85.542
v 49.9 		97.25 		85.542
v -102.261 		-35.5 		127.899
v -101.016 		-35.5 		130.999
v 54.259 		97.25 		84.214
v -9.424 		-94 		44.5
v 53.013 		97.25 		83.328
v 56.127 		97.25 		83.328
v -12.424 		-94 		44.5
v 35.084 		-94 		48.52
v 35.084 		-94 		47.5
v 71.827 		-94 		23.972
v 71.827 		-94 		24.142
v 73.695 		-94 		21.758
v 73.695 		-94 		23.972
v -54.924 		-82.005 		49.5
v -54.924 		-94 		49.5
v -54.924 		-67.997 		49.5
v 70.582 		-94 		24.142
v 34.577 		-94 		44.5
v -57.924 		-82.005 		49.5
v -57.924 		-94 		49.5
v -57.924 		-67.997 		49.5
v 15.774 		77 		49.5
v 15.774 		80 		49.5
v 90.509 		-79 		13.786
v 48.786 		-94 		38.757
v -54.924 		-94 		44.5
v -145.927 		-16.384 		142.5
v 29.833 		80 		49.5
v 146.578 		-20 		100.52
v 29.833 		77 		49.5
v -57.924 		-94 		44.5
v 90.509 		-79 		11.572
v 147.078 		-19.998 		100.52
v 92.377 		-79 		10.686
v 146.578 		-18.415 		100.52
v 92.377 		-79 		8.472
v 95.491 		-79 		8.472
v 147.078 		-97 		100.517
v 147.078 		-97 		100.5
v 42.827 		98 		0.5
v 93.622 		-79 		11.572
v -9.424 		-94 		0.5
v -12.424 		-94 		0.5
v 93.622 		-79 		9.358
v 39.827 		98 		0.5
v 42.827 		73.505 		0.5
v 39.827 		73.505 		0.5
v 96.736 		-79 		9.358
v 42.827 		73.505 		21.503
v -54.924 		-94 		0.5
v -54.924 		-76.505 		0.5
v -54.924 		-76.505 		21.503
v 39.827 		73.505 		21.503
v 41.804 		97.25 		95.286
v 41.804 		97.25 		93.071
v 8.327 		-78.5 		48.52
v 15.774 		-78.5 		48.52
v -105.375 		-35.5 		132.328
v -57.924 		-76.505 		21.503
v -57.924 		-76.505 		0.5
v -57.924 		-94 		0.5
v 29.833 		-78.5 		48.52
v -104.13 		-35.5 		133.214
v 44.918 		97.25 		93.071
v 8.327 		-78.48 		48.52
v 42.827 		4 		44.5
v 15.774 		-78.48 		48.52
v 43.672 		97.25 		92.185
v 29.833 		-78.48 		48.52
v 29.753 		-78.48 		48.598
v 15.954 		-78.48 		48.598
v 42.827 		1 		44.5
v 44.918 		97.25 		90.857
v 48.032 		97.25 		90.857
v -113.47 		-35.5 		139.857
v 15.954 		-75.48 		48.598
v 29.753 		-75.48 		48.598
v 73.728 		-20 		146.52
v 39.827 		1 		44.5
v -113.47 		-35.5 		137.642
v 89.263 		-79 		12.901
v -111.602 		-35.5 		136.757
v -110.357 		-35.5 		135.428
v -110.357 		-35.5 		137.642
v 86.15 		-79 		12.901
v 87.395 		-79 		16.001
v -107.243 		-35.5 		135.428
v 87.395 		-79 		13.786
v -116.635 		-16.5 		49
v -113.635 		-16.5 		49
v 84.282 		-79 		16.001
v 39.827 		4 		44.5
v 38.691 		97.25 		95.286
v 38.691 		97.25 		96.248
v 73.728 		-18.415 		142.5
v 77.277 		-18 		142.5
v 80.277 		-18 		142.5
v 37.498 		97.25 		96.248
v 37.498 		97.25 		96.5
v 37.445 		97.25 		96.5
v 83.036 		-79 		15.115
v 86.15 		-79 		15.115
v 39.827 		59.497 		0.5
v 42.827 		59.497 		0.5
v 42.827 		59.497 		21.503
v -116.498 		-94 		0.5
v -116.498 		-94 		21.503
v 39.827 		59.497 		21.503
v -130.503 		-94 		21.503
v -130.503 		-94 		0.5
v -145.347 		-20 		146.645
v -145.347 		-20 		146.52
v 40.559 		97.25 		94.4
v 37.445 		97.25 		94.4
v -116.498 		-99 		0.5
v 42.827 		1 		0.5
v 42.827 		4 		0.5
v -130.503 		-99 		0.5
v 39.827 		4 		0.5
v -145.927 		-19.5 		146.52
v 39.827 		1 		0.5
v -116.498 		-99 		21.503
v 58.127 		-79 		32.114
v -130.503 		-99 		21.503
v -145.347 		-20 		144.645
v 62.486 		-79 		30.785
v -146.925 		-19.5 		96.5
v 64.354 		-79 		27.685
v 64.354 		-79 		29.899
v -146.925 		-16.5 		96.5
v -146.925 		-94 		96.5
v 89.263 		-79 		10.686
v -145.927 		-18.415 		143.36
v -146.898 		-41 		44.5
v -145.927 		-18.415 		146
v 37.498 		90.112 		96.248
v 61.241 		-79 		29.899
v 61.241 		-79 		32.114
v 23.082 		1 		0.5
v 23.082 		4 		0.5
v -146.925 		-18.415 		146
v -146.898 		-38 		44.5
v 9.074 		4 		0.5
v 9.074 		1 		0.5
v 23.082 		1 		21.503
v 9.074 		1 		21.503
v 88.077 		-76 		0.5
v -145.927 		-18.415 		142.5
v 91.577 		-76 		0.5
v 23.082 		4 		21.503
v -111.602 		-35.5 		134.542
v -108.489 		-35.5 		134.542
v 9.074 		4 		21.503
v -107.243 		-35.5 		133.214
v 40.559 		97.25 		92.185
v -108.489 		-35.5 		132.328
v 95.491 		-79 		6.257
v 147.078 		-22 		96.5
v 96.736 		-79 		7.143
v 56.083 		-79 		21.503
v 147.078 		-19 		96.5
v 147.078 		-75.5 		96.5
v 141.456 		-75.5 		70.166
v -117.83 		-35.5 		141.185
v 56.083 		-76 		21.503
v -116.584 		-35.5 		139.857
v -116.584 		-35.5 		142.071
v -146.925 		-16.5 		49
v -146.925 		-19.5 		49
v 0.277 		-18 		142.5
v 3.277 		-18 		142.5
v -137.925 		-30.693 		144.645
v 147.078 		-94 		96.5
v 147.078 		-78.5 		96.5
v 42.827 		-79 		21.503
v 42.827 		-76 		21.503
v 141.456 		-78.5 		70.166
v -145.084 		-30.693 		144.645
v -148.925 		-20 		146.52
v -148.925 		-19.5 		146.52
v -148.925 		-19.5 		146.5
v 129.086 		-20 		121.503
v -148.925 		-19.998 		146.5
v -146.898 		-41 		0.5
v -146.898 		-38 		0.5
v 115.077 		-20 		121.503
v -122.811 		-35.5 		146.5
v 147.078 		-22 		48.52
v -122.811 		-35.5 		144.286
v 129.086 		-18.415 		121.503
v -120.943 		-35.5 		143.4
v 115.077 		-18.415 		121.503
v -119.698 		-35.5 		144.286
v 147.078 		-19 		48.52
v -119.698 		-35.5 		142.071
v -146.925 		-94 		0.5
v -120.943 		-35.5 		141.185
v -146.925 		-94 		48.52
v 129.086 		-20 		100.52
v 58.127 		-94 		32.114
v 115.077 		-20 		100.52
v -145.347 		-36 		144.645
v -145.347 		-36 		146.645
v 62.486 		-94 		30.785
v -146.925 		-94 		44.5
v 64.354 		-94 		27.685
v 64.354 		-94 		29.899
v 129.086 		-18.415 		100.52
v 115.077 		-18.415 		100.52
v -137.925 		-35.693 		144.645
v -145.084 		-35.693 		144.645
v 147.078 		77 		96.5
v -117.83 		-35.5 		138.971
v 61.241 		-94 		29.899
v -114.716 		-35.5 		138.971
v 61.241 		-94 		32.114
v -114.716 		-35.5 		136.757
v 147.078 		-75.5 		48.52
v 141.456 		-75.5 		48.52
v -125.347 		-35.5 		146.5
v -125.347 		-35.5 		145.614
v -124.057 		-35.5 		145.614
v -124.057 		-35.5 		143.4
v 80.277 		-18 		100.52
v 77.277 		-18 		100.52
v 48.032 		97.25 		88.642
v -125.347 		-36 		146.645
v 46.786 		97.25 		87.757
v 46.786 		97.25 		89.971
v -125.347 		-36 		144.645
v 147.078 		-76 		44.5
v 90.509 		-94 		13.786
v 56.083 		-79 		0.5
v 56.083 		-76 		0.5
v 147.078 		-78.5 		48.52
v 43.672 		97.25 		89.971
v 141.456 		-78.5 		48.52
v 90.509 		-94 		11.572
v 40.077 		-79 		0
v 40.077 		-79 		0.5
v 40.077 		-81.5 		0.5
v 92.377 		-94 		10.686
v 34.577 		-79 		0.5
v 34.577 		-79 		0
v 38.287 		-75.5 		96.5
v 38.287 		-75.48 		96.5
v 147.078 		-79 		44.5
v 92.377 		-94 		8.472
v 34.577 		-76 		0.5
v 32.768 		-18.415 		100.52
v 39.827 		-76 		0.5
v 42.827 		-81.5 		0.5
v 147.078 		-94 		48.52
v 95.491 		-94 		8.472
v 8.327 		-78.5 		96.5
v 8.327 		-78.48 		96.5
v 147.078 		-94 		44.5
v 60.486 		80.75 		81.999
v 57.372 		80.75 		81.999
v 57.372 		80.75 		84.214
v -54.924 		77 		96.5
v 141.081 		-76 		21.503
v 93.622 		-94 		11.572
v 93.622 		-94 		9.358
v 0.277 		-18 		100.52
v 3.277 		-18 		100.52
v -58.344 		46.5 		96.5
v -58.344 		49.5 		96.5
v 96.736 		-94 		9.358
v -12.724 		8.52 		96.5
v 49.9 		80.75 		87.757
v 51.145 		80.75 		86.428
v -15.724 		8.52 		96.5
v 141.081 		-79 		21.503
v -57.344 		-18.415 		100.52
v 51.145 		80.75 		88.642
v 54.259 		80.75 		86.428
v 89.263 		-94 		10.686
v 89.263 		-94 		12.901
v -63.651 		-20 		105.143
v -63.651 		-20 		102.929
v 86.15 		-94 		12.901
v -64.897 		-20 		104.257
v 40.077 		-90.112 		0
v -146.925 		-18.415 		100.52
v -112.925 		46.5 		96.5
v 87.395 		-94 		13.786
v 87.395 		-94 		16.001
v 147.078 		-76 		0.5
v -112.925 		49.5 		96.5
v -60.538 		-20 		102.929
v -113.635 		49 		96.5
v -116.635 		49 		96.5
v 84.282 		-94 		16.001
v 147.078 		-94 		0.5
v 147.078 		-79 		0.5
v 141.081 		-79 		0.5
v 141.081 		-76 		0.5
v -137.925 		-30.693 		100.645
v 40.077 		-94 		0.5
v 83.036 		-94 		15.115
v 86.15 		-94 		15.115
v 49.9 		80.75 		85.542
v 53.013 		80.75 		85.542
v -145.084 		-30.693 		100.645
v 54.259 		80.75 		84.214
v 53.013 		80.75 		83.328
v 56.127 		80.75 		83.328
v 34.577 		-94 		0.5
v -57.424 		-20 		100.52
v -57.424 		-20 		100.714
v -60.538 		-20 		100.714
v 40.077 		-95 		0.5
v 40.077 		-95 		0
v 34.577 		-95 		0
v 34.577 		-95 		0.5
v -64.897 		-20 		102.043
v -61.783 		-20 		102.043
v 122.584 		-19 		69.62
v 122.584 		-22 		69.62
v 108.576 		-19 		69.62
v 108.576 		-22 		69.62
v 95.491 		-94 		6.257
v -61.783 		-20 		100.52
v 96.736 		-94 		7.143
v -5.799 		35 		142.5
v -7.224 		38.04 		142.5
v -7.224 		38 		142.5
v 127.447 		-75.5 		70.166
v 41.804 		80.75 		95.286
v -5.799 		35.04 		142.5
v 127.447 		-78.5 		70.166
v -54.424 		97.72 		96.5
v -54.924 		93.5 		96.5
v -54.424 		93.5 		96.5
v 41.804 		80.75 		93.071
v 24.083 		-22 		69.62
v -147.925 		-20 		100.52
v -57.424 		97.72 		96.5
v -73.224 		98 		142.5
v -57.924 		93.5 		96.5
v 10.075 		-22 		69.62
v 44.918 		80.75 		93.071
v -57.424 		93.5 		96.5
v -76.224 		98 		142.5
v 24.083 		-19 		69.62
v 10.075 		-19 		69.62
v 84.253 		80.248 		96.5
v 43.672 		80.75 		92.185
v 147.078 		97.72 		96.5
v 44.918 		80.75 		90.857
v 147.078 		80 		96.5
v 48.032 		80.75 		90.857
v -147.925 		-19.998 		100.517
v -147.925 		-19.998 		100.52
v -73.224 		35 		142.5
v 84.253 		97.72 		96.5
v -73.224 		38 		142.5
v -54.924 		80 		96.5
v -76.224 		35 		142.5
v -63.651 		-35.5 		102.929
v 15.774 		-78.5 		70.166
v -64.897 		-35.5 		104.257
v 29.833 		-78.5 		70.166
v -63.651 		-35.5 		105.143
v 37.498 		80.248 		96.5
v -60.538 		-35.5 		102.929
v 37.498 		97.72 		96.5
v 24.083 		-22 		48.52
v 10.075 		-22 		48.52
v 15.774 		-78.48 		70.166
v 29.833 		-78.48 		70.166
v 15.954 		-78.48 		69.603
v 29.753 		-78.48 		69.603
v 10.075 		-19 		48.52
v 24.083 		-19 		48.52
v -76.224 		38 		142.5
v 37.445 		80.75 		96.5
v 37.498 		80.75 		96.5
v -54.924 		77 		70.503
v 29.753 		-75.48 		69.603
v 15.954 		-75.48 		69.603
v -148.925 		-19.998 		100.52
v -148.925 		-20 		100.52
v -57.424 		-35.5 		100.52
v -61.783 		-35.5 		100.52
v -61.783 		-35.5 		102.043
v -60.538 		-35.5 		100.714
v -64.897 		-35.5 		102.043
v -57.924 		77.505 		70.503
v -57.424 		-35.5 		100.714
v 38.691 		80.75 		96.248
v 38.691 		80.75 		95.286
v -55.924 		77 		70.503
v -55.924 		77.505 		70.503
v 37.498 		80.75 		96.248
v 39.827 		-37.25 		44.5
v 39.827 		-40.25 		44.5
v 108.576 		-19 		48.52
v 108.576 		-22 		48.52
v 122.584 		-22 		48.52
v 122.584 		-19 		48.52
v -137.925 		-35.693 		100.645
v -145.084 		-35.693 		100.645
v -54.924 		63.497 		70.503
v 39.827 		-25.005 		0.5
v 37.445 		80.75 		94.4
v 42.827 		-25.005 		0.5
v 40.559 		80.75 		94.4
v -57.924 		63.497 		70.503
v 42.827 		-10.997 		0.5
v 39.827 		-10.997 		0.5
v 42.827 		-25.005 		21.503
v 42.827 		-10.997 		21.503
v -146.925 		-97 		100.5
v -146.925 		-97 		100.517
v -147.925 		-97 		100.517
v 39.827 		-25.005 		21.503
v -147.925 		-97 		100.52
v -80.465 		-20 		115.329
v 39.827 		-10.997 		21.503
v -79.219 		-20 		116.215
v 84.253 		97.72 		100.48
v -54.924 		29.502 		70.503
v 29.998 		97.72 		100.48
v 39.827 		-37.25 		0.5
v 39.827 		-40.25 		0.5
v -54.924 		15.494 		70.503
v -57.924 		29.502 		70.503
v 40.559 		80.75 		92.185
v -57.924 		15.494 		70.503
v 29.833 		80 		96.5
v 22.079 		-37.25 		21.503
v 22.077 		-37.25 		21.503
v 22.077 		-37.25 		22.003
v 8.069 		-37.25 		22.003
v 48.032 		80.75 		88.642
v 46.786 		80.75 		89.971
v 46.786 		80.75 		87.757
v 22.079 		-40.25 		21.503
v 22.077 		-40.25 		22.003
v 22.077 		-40.25 		21.503
v 8.069 		-40.25 		22.003
v -97.901 		-20 		128.785
v -9.424 		98 		44.5
v -94.788 		-20 		126.571
v -97.901 		-20 		126.571
v 22.079 		-40.25 		0.5
v 22.079 		-37.25 		0.5
v 43.672 		80.75 		89.971
v 8.071 		-37.25 		0.5
v 8.071 		-40.25 		0.5
v -94.788 		-20 		124.356
v -96.033 		-20 		125.685
v 8.069 		-37.25 		0.998
v 8.071 		-37.25 		0.998
v -12.424 		98 		44.5
v 8.071 		-40.25 		0.998
v 8.069 		-40.25 		0.998
v 88.077 		-28.003 		0.5
v 91.577 		-28.003 		0.5
v -91.674 		-20 		124.356
v 91.577 		-13.994 		0.5
v 88.077 		-13.994 		0.5
v -96.033 		-20 		123.47
v -92.919 		-20 		123.47
v 91.577 		-28.003 		21.503
v 62.354 		97.25 		78.899
v 91.577 		-13.994 		21.503
v 60.486 		97.25 		79.785
v 63.6 		97.25 		79.785
v 59.241 		97.25 		81.114
v 88.077 		-28.003 		21.503
v 88.077 		-13.994 		21.503
v 59.241 		97.25 		78.899
v -54.424 		98 		49.5
v -54.424 		93.5 		49.5
v -54.924 		93.5 		49.5
v 50.032 		-79 		41.857
v 127.447 		-75.5 		48.52
v -57.924 		93.5 		49.5
v 127.447 		-78.5 		48.52
v -57.424 		98 		49.5
v 65.468 		97.25 		74.47
v 65.468 		97.25 		76.685
v -57.424 		93.5 		49.5
v 63.6 		97.25 		77.571
v 62.354 		97.25 		76.685
v -54.924 		80 		49.5
v -57.924 		77.505 		49.5
v -55.924 		77 		49.5
v -55.924 		77.505 		49.5
v -88.56 		-20 		122.858
v 56.127 		97.25 		81.114
v -89.806 		-20 		121.972
v -89.806 		-20 		119.758
v -85.447 		-20 		120.644
v 62.486 		-79 		32.999
v 59.372 		-79 		32.999
v -54.924 		98 		44.5
v -54.424 		98 		97.5
v -54.424 		97.72 		97.5
v -88.56 		-20 		120.644
v -86.692 		-20 		119.758
v 59.372 		-79 		35.214
v 81.077 		-78.5 		51.52
v -57.924 		98 		44.5
v 81.077 		-94 		51.52
v -57.424 		98 		97.5
v 58.127 		-79 		34.328
v -57.424 		97.72 		97.5
v -9.424 		98 		0.5
v 78.314 		-78.5 		51.52
v -12.424 		98 		0.5
v -9.424 		66.003 		0.5
v -12.424 		66.003 		0.5
v 78.314 		-94 		51.52
v 56.259 		-79 		37.428
v -9.424 		66.003 		21.503
v -82.333 		-20 		118.429
v -85.447 		-20 		118.429
v 53.145 		-79 		37.428
v -83.579 		-20 		115.329
v 53.145 		-79 		39.642
v -12.424 		66.003 		21.503
v 51.9 		-79 		38.757
v -82.333 		-20 		116.215
v 37.498 		97.72 		97.498
v -83.579 		-20 		117.544
v 33.748 		97.72 		97.498
v 91.577 		-76 		44.5
v 50.032 		-79 		39.642
v 62.354 		80.75 		78.899
v 29.998 		97.72 		98.748
v 33.748 		97.72 		98.748
v 88.077 		-76 		44.5
v 63.6 		80.75 		79.785
v 60.486 		80.75 		79.785
v -54.924 		83.005 		21.503
v 59.241 		80.75 		81.114
v -54.924 		68.997 		21.503
v -86.692 		-20 		117.544
v 59.241 		80.75 		78.899
v -57.924 		83.005 		21.503
v -57.924 		68.997 		21.503
v -54.924 		98 		0.5
v 51.9 		-79 		36.542
v 55.013 		-79 		36.542
v 141.456 		77 		70.503
v -54.924 		83.005 		0.5
v -54.924 		68.997 		0.5
v -91.674 		-20 		121.972
v -91.674 		-20 		122.142
v 55.013 		-79 		34.328
v -57.924 		98 		0.5
v -57.924 		83.005 		0.5
v 56.259 		-79 		35.214
v 141.456 		80 		70.503
v -92.919 		-20 		122.142
v 65.468 		80.75 		76.685
v -57.924 		68.997 		0.5
v 65.468 		80.75 		74.47
v 63.6 		80.75 		77.571
v -91.674 		-20 		122.858
v 62.354 		80.75 		76.685
v 78.314 		-78.5 		48.52
v 81.077 		-78.5 		48.52
v 37.498 		80.248 		97.498
v 33.748 		80.248 		97.498
v 33.748 		80.248 		98.748
v 29.998 		80.248 		98.748
v 77.089 		-79 		48
v -54.924 		63.497 		49.5
v -57.924 		63.497 		49.5
v 77.089 		-78.5 		48.52
v 56.127 		80.75 		81.114
v 77.089 		-78.5 		48.5
v 77.089 		-78.348 		48.5
v 77.089 		-78.348 		48
v -58.924 		52.5 		44.5
v -58.924 		55.5 		44.5
v 77.089 		-79 		44.5
v 15.774 		77 		70.503
v 15.774 		80 		70.503
v 42.827 		-81.5 		47.5
v 29.833 		77 		70.503
v 29.833 		80 		70.503
v -58.344 		46.5 		49
v -58.344 		49.5 		49
v 99.719 		97.25 		53.043
v 99.719 		97.25 		50.829
v 102.833 		97.25 		49.5
v 104.078 		97.25 		49.5
v 104.078 		97.25 		51.714
v 100.964 		97.25 		51.714
v 102.833 		97.25 		50.829
v 100.964 		97.25 		53.929
v 127.447 		77 		49.5
v 127.447 		80 		49.5
v 99.719 		80.75 		53.043
v 99.719 		80.75 		50.829
v 100.964 		80.75 		51.714
v 102.833 		80.75 		50.829
v 104.078 		80.75 		51.714
v 102.833 		80.75 		49.5
v 104.078 		80.75 		49.5
v 100.964 		80.75 		53.929
# 1231 vertices

g group_0_10988977

usemtl color_10988977
s 0

f 4 	3 	5
f 4 	5 	2
f 10 	21 	8
f 7 	8 	13
f 1173 	16 	9
f 19 	8 	21
f 18 	19 	21
f 952 	22 	4
f 23 	4 	22
f 3 	4 	15
f 23 	15 	4
f 8 	19 	26
f 22 	952 	28
f 35 	31 	26
f 8 	26 	13
f 27 	75 	455
f 24 	34 	1182
f 1 	6 	31
f 24 	20 	9
f 818 	9 	20
f 30 	29 	36
f 32 	36 	29
f 29 	37 	32
f 29 	30 	39
f 27 	42 	75
f 31 	6 	26
f 13 	26 	6
f 24 	9 	16
f 24 	16 	34
f 22 	28 	23
f 34 	16 	1182
f 1173 	1182 	16
f 23 	46 	15
f 471 	472 	13
f 42 	471 	13
f 27 	455 	42
f 889 	557 	17
f 42 	47 	75
f 47 	42 	13
f 44 	46 	5
f 2 	5 	46
f 45 	47 	13
f 495 	383 	43
f 46 	44 	15
f 142 	44 	5
f 46 	143 	2
f 28 	447 	23
f 35 	26 	657
f 17 	15 	889
f 142 	899 	44
f 546 	47 	45
f 546 	45 	545
f 662 	1 	31
f 55 	59 	54
f 662 	31 	35
f 50 	52 	101
f 106 	86 	61
f 920 	913 	6
f 919 	920 	6
f 45 	58 	556
f 45 	556 	545
f 59 	55 	25
f 69 	70 	72
f 71 	72 	70
f 77 	748 	76
f 516 	455 	75
f 61 	68 	106
f 777 	51 	716
f 48 	62 	73
f 85 	83 	82
f 85 	82 	86
f 546 	564 	47
f 57 	53 	67
f 57 	67 	63
f 82 	964 	86
f 74 	78 	73
f 86 	238 	85
f 65 	197 	64
f 196 	64 	197
f 25 	55 	54
f 196 	60 	64
f 67 	206 	63
f 257 	92 	53
f 89 	88 	1222
f 89 	1222 	1223
f 96 	53 	103
f 67 	53 	96
f 92 	103 	53
f 132 	133 	79
f 101 	52 	102
f 84 	80 	90
f 70 	69 	105
f 70 	105 	87
f 964 	61 	86
f 315 	96 	103
f 69 	114 	105
f 108 	68 	85
f 68 	969 	85
f 79 	87 	105
f 106 	68 	108
f 143 	46 	147
f 39 	30 	111
f 30 	113 	111
f 113 	103 	111
f 92 	111 	103
f 106 	108 	147
f 144 	102 	52
f 71 	114 	72
f 71 	253 	114
f 341 	230 	111
f 99 	125 	93
f 69 	72 	114
f 168 	153 	235
f 104 	140 	100
f 97 	95 	48
f 238 	235 	85
f 950 	980 	5
f 120 	281 	121
f 228 	224 	36
f 1103 	109 	115
f 29 	230 	223
f 61 	964 	123
f 118 	117 	52
f 129 	1109 	128
f 223 	229 	29
f 124 	131 	129
f 131 	1108 	129
f 118 	119 	117
f 107 	1053 	126
f 124 	121 	131
f 125 	962 	93
f 150 	1001 	134
f 32 	228 	36
f 80 	79 	133
f 39 	230 	29
f 39 	111 	230
f 102 	135 	101
f 80 	133 	90
f 123 	134 	68
f 123 	68 	61
f 555 	93 	94
f 136 	799 	140
f 97 	544 	95
f 57 	260 	53
f 138 	773 	135
f 104 	530 	136
f 257 	53 	260
f 149 	144 	117
f 102 	144 	135
f 140 	104 	136
f 147 	123 	143
f 128 	368 	129
f 79 	105 	132
f 139 	146 	145
f 139 	145 	141
f 373 	131 	264
f 134 	153 	150
f 152 	1165 	151
f 110 	342 	63
f 147 	153 	134
f 147 	134 	123
f 1165 	1124 	151
f 151 	1124 	198
f 67 	273 	432
f 23 	447 	46
f 155 	1205 	156
f 154 	164 	138
f 85 	235 	108
f 108 	235 	153
f 52 	117 	144
f 153 	147 	108
f 97 	547 	544
f 67 	96 	273
f 313 	273 	96
f 799 	100 	140
f 99 	93 	543
f 163 	148 	161
f 224 	344 	30
f 113 	30 	344
f 54 	158 	109
f 99 	543 	125
f 247 	217 	166
f 1001 	150 	166
f 168 	166 	150
f 162 	160 	152
f 162 	152 	151
f 161 	247 	166
f 198 	162 	151
f 168 	163 	161
f 168 	161 	166
f 551 	418 	125
f 341 	111 	92
f 770 	49 	183
f 165 	857 	164
f 857 	138 	164
f 97 	127 	547
f 96 	315 	313
f 150 	153 	168
f 235 	246 	168
f 164 	169 	165
f 113 	315 	103
f 48 	95 	544
f 553 	543 	93
f 148 	309 	984
f 193 	56 	60
f 193 	60 	194
f 135 	285 	138
f 283 	138 	285
f 196 	194 	60
f 135 	144 	285
f 114 	159 	105
f 197 	145 	146
f 159 	132 	105
f 157 	202 	179
f 173 	186 	249
f 172 	249 	186
f 117 	256 	149
f 114 	77 	159
f 184 	189 	185
f 189 	181 	185
f 176 	185 	181
f 190 	180 	177
f 178 	177 	180
f 172 	186 	171
f 185 	191 	184
f 191 	32 	184
f 37 	184 	32
f 188 	192 	182
f 186 	173 	25
f 174 	231 	175
f 1069 	51 	141
f 139 	141 	187
f 169 	312 	165
f 388 	1221 	181
f 261 	256 	119
f 117 	119 	256
f 189 	388 	181
f 204 	211 	182
f 188 	182 	211
f 261 	119 	118
f 193 	194 	196
f 193 	196 	197
f 195 	559 	94
f 176 	385 	389
f 176 	389 	185
f 122 	165 	259
f 211 	218 	192
f 211 	192 	188
f 390 	184 	37
f 94 	93 	195
f 146 	139 	187
f 183 	193 	187
f 193 	197 	187
f 146 	187 	197
f 389 	191 	185
f 203 	116 	162
f 514 	62 	48
f 205 	603 	203
f 603 	116 	203
f 204 	166 	217
f 1202 	12 	208
f 207 	208 	12
f 432 	209 	206
f 162 	198 	203
f 203 	198 	200
f 203 	200 	205
f 206 	67 	432
f 76 	159 	77
f 12 	300 	207
f 148 	984 	161
f 213 	212 	199
f 213 	199 	210
f 215 	216 	1
f 594 	66 	262
f 303 	244 	304
f 206 	209 	63
f 73 	520 	74
f 218 	204 	217
f 211 	204 	218
f 220 	221 	171
f 73 	62 	514
f 223 	224 	228
f 744 	736 	180
f 76 	222 	225
f 527 	78 	74
f 527 	74 	519
f 394 	390 	226
f 229 	223 	226
f 228 	226 	223
f 190 	251 	180
f 223 	230 	224
f 30 	36 	224
f 231 	589 	233
f 192 	254 	182
f 1213 	1212 	234
f 37 	29 	229
f 220 	171 	233
f 186 	233 	171
f 233 	292 	231
f 288 	175 	231
f 235 	239 	192
f 201 	227 	202
f 219 	227 	201
f 235 	238 	239
f 239 	250 	192
f 288 	231 	292
f 236 	917 	237
f 551 	125 	543
f 32 	394 	226
f 213 	765 	212
f 32 	226 	228
f 240 	243 	241
f 84 	177 	80
f 207 	244 	208
f 242 	208 	244
f 236 	371 	917
f 177 	84 	190
f 212 	241 	243
f 212 	243 	161
f 207 	304 	244
f 245 	246 	235
f 246 	240 	163
f 244 	186 	242
f 245 	235 	217
f 218 	217 	192
f 192 	217 	235
f 110 	63 	209
f 227 	219 	214
f 209 	214 	219
f 110 	209 	219
f 87 	79 	80
f 156 	282 	276
f 245 	247 	246
f 303 	233 	244
f 186 	244 	233
f 84 	90 	190
f 221 	569 	171
f 555 	94 	559
f 245 	217 	247
f 243 	240 	246
f 243 	246 	247
f 559 	195 	66
f 164 	154 	311
f 299 	311 	154
f 247 	161 	243
f 169 	164 	312
f 251 	190 	90
f 163 	168 	246
f 174 	175 	572
f 241 	909 	240
f 138 	283 	154
f 299 	154 	283
f 227 	248 	202
f 179 	202 	248
f 256 	881 	290
f 754 	792 	250
f 59 	1209 	270
f 573 	231 	174
f 118 	267 	261
f 268 	260 	63
f 57 	63 	260
f 131 	121 	264
f 783 	949 	118
f 259 	305 	947
f 279 	280 	278
f 271 	278 	280
f 277 	155 	276
f 156 	276 	155
f 261 	267 	256
f 260 	273 	257
f 280 	279 	392
f 81 	274 	137
f 66 	195 	262
f 275 	265 	281
f 265 	121 	281
f 265 	264 	121
f 258 	281 	120
f 269 	262 	266
f 262 	962 	266
f 277 	286 	155
f 1205 	155 	286
f 919 	6 	285
f 175 	288 	633
f 277 	276 	282
f 277 	282 	286
f 285 	144 	290
f 268 	273 	260
f 287 	291 	289
f 149 	256 	293
f 287 	263 	291
f 233 	303 	292
f 295 	272 	280
f 272 	271 	280
f 272 	295 	298
f 297 	298 	295
f 286 	282 	255
f 292 	300 	632
f 288 	292 	633
f 254 	250 	792
f 297 	289 	291
f 297 	291 	298
f 303 	300 	292
f 284 	632 	300
f 290 	144 	293
f 149 	293 	144
f 295 	280 	297
f 300 	12 	284
f 285 	290 	919
f 411 	832 	289
f 296 	258 	179
f 281 	258 	296
f 157 	179 	258
f 962 	262 	195
f 177 	178 	7
f 267 	881 	256
f 311 	299 	283
f 202 	414 	201
f 416 	201 	414
f 309 	302 	294
f 293 	256 	290
f 148 	302 	309
f 304 	207 	300
f 909 	899 	302
f 426 	214 	209
f 148 	163 	302
f 989 	904 	588
f 303 	304 	300
f 257 	306 	92
f 416 	219 	201
f 259 	165 	305
f 309 	310 	772
f 164 	311 	312
f 444 	473 	227
f 252 	78 	588
f 283 	924 	311
f 305 	311 	924
f 527 	588 	78
f 110 	219 	342
f 434 	342 	219
f 980 	310 	142
f 314 	409 	263
f 312 	311 	305
f 227 	214 	426
f 312 	305 	165
f 306 	257 	315
f 313 	315 	257
f 313 	257 	273
f 341 	306 	315
f 414 	202 	157
f 266 	591 	269
f 283 	285 	6
f 341 	92 	306
f 590 	594 	269
f 319 	320 	448
f 353 	486 	258
f 195 	93 	962
f 98 	100 	321
f 321 	100 	799
f 909 	302 	163
f 318 	1055 	348
f 275 	512 	265
f 876 	799 	136
f 281 	512 	275
f 648 	52 	710
f 702 	349 	322
f 486 	386 	258
f 539 	296 	179
f 523 	281 	539
f 309 	651 	984
f 136 	137 	876
f 274 	865 	137
f 865 	876 	137
f 337 	338 	336
f 364 	271 	272
f 340 	1103 	533
f 315 	344 	341
f 344 	224 	341
f 230 	341 	224
f 1206 	339 	395
f 406 	871 	395
f 315 	113 	344
f 268 	63 	342
f 343 	702 	451
f 332 	1141 	568
f 326 	345 	329
f 268 	342 	422
f 360 	1206 	346
f 350 	348 	347
f 350 	318 	348
f 322 	325 	331
f 702 	322 	331
f 336 	347 	348
f 336 	348 	337
f 962 	372 	329
f 362 	523 	353
f 363 	364 	272
f 120 	121 	362
f 120 	362 	353
f 362 	121 	367
f 124 	367 	121
f 369 	1184 	368
f 1186 	373 	368
f 352 	349 	354
f 354 	702 	343
f 349 	702 	354
f 356 	374 	375
f 357 	354 	343
f 367 	368 	373
f 490 	362 	373
f 367 	373 	362
f 540 	536 	375
f 1148 	1156 	404
f 335 	329 	372
f 345 	379 	962
f 1103 	340 	1156
f 369 	368 	128
f 367 	124 	368
f 124 	129 	368
f 780 	378 	379
f 381 	349 	778
f 618 	682 	345
f 346 	361 	360
f 339 	1206 	376
f 360 	376 	1206
f 324 	682 	379
f 365 	376 	360
f 377 	538 	962
f 378 	377 	379
f 326 	619 	345
f 618 	345 	619
f 322 	349 	381
f 994 	966 	382
f 374 	356 	795
f 317 	719 	356
f 795 	356 	719
f 619 	326 	329
f 382 	966 	301
f 752 	358 	370
f 626 	331 	325
f 386 	414 	157
f 376 	355 	339
f 384 	387 	383
f 387 	43 	383
f 333 	622 	1068
f 388 	385 	1224
f 620 	335 	621
f 372 	621 	335
f 394 	389 	390
f 384 	1123 	387
f 157 	258 	386
f 390 	389 	391
f 388 	391 	389
f 389 	385 	388
f 280 	392 	396
f 229 	226 	390
f 436 	387 	1181
f 333 	331 	622
f 626 	622 	331
f 179 	473 	398
f 184 	390 	189
f 391 	189 	390
f 335 	620 	329
f 473 	414 	398
f 372 	962 	1089
f 379 	377 	962
f 396 	400 	280
f 391 	388 	189
f 399 	824 	431
f 324 	379 	345
f 327 	871 	406
f 407 	406 	395
f 650 	1124 	60
f 339 	397 	395
f 403 	1148 	404
f 414 	386 	398
f 486 	398 	386
f 378 	776 	377
f 775 	377 	776
f 390 	37 	229
f 354 	707 	352
f 32 	191 	394
f 394 	191 	389
f 971 	393 	316
f 400 	396 	392
f 1089 	962 	1183
f 291 	263 	409
f 404 	1156 	412
f 314 	413 	409
f 411 	409 	413
f 163 	240 	909
f 272 	298 	415
f 454 	582 	49
f 409 	415 	291
f 298 	291 	415
f 479 	418 	420
f 484 	418 	479
f 415 	409 	411
f 415 	411 	417
f 43 	387 	402
f 56 	631 	60
f 356 	459 	317
f 402 	403 	404
f 340 	41 	404
f 404 	41 	402
f 484 	1147 	418
f 417 	467 	415
f 432 	268 	422
f 340 	404 	412
f 424 	425 	438
f 297 	280 	417
f 280 	400 	417
f 706 	841 	359
f 297 	417 	411
f 424 	428 	425
f 428 	429 	425
f 422 	426 	209
f 430 	431 	427
f 406 	410 	327
f 198 	650 	593
f 1172 	430 	1171
f 427 	1171 	430
f 377 	775 	359
f 209 	432 	422
f 219 	416 	434
f 780 	776 	378
f 431 	430 	1172
f 419 	423 	408
f 1181 	402 	436
f 401 	443 	423
f 437 	620 	429
f 620 	621 	429
f 387 	436 	402
f 616 	325 	687
f 438 	439 	424
f 424 	439 	441
f 504 	503 	439
f 227 	426 	444
f 352 	707 	349
f 98 	321 	525
f 348 	1055 	130
f 322 	381 	778
f 322 	778 	687
f 426 	434 	444
f 528 	521 	447
f 98 	525 	100
f 524 	100 	525
f 682 	324 	345
f 400 	447 	488
f 780 	379 	682
f 448 	449 	319
f 435 	86 	447
f 100 	524 	104
f 442 	446 	440
f 358 	857 	446
f 836 	1210 	88
f 1194 	447 	400
f 445 	440 	443
f 446 	857 	440
f 115 	109 	533
f 443 	440 	857
f 351 	358 	446
f 366 	319 	449
f 1194 	1195 	447
f 137 	136 	529
f 529 	136 	530
f 1195 	433 	447
f 435 	447 	433
f 54 	59 	502
f 421 	317 	459
f 434 	416 	444
f 414 	444 	416
f 488 	467 	417
f 510 	81 	529
f 137 	529 	81
f 273 	268 	432
f 323 	453 	608
f 477 	451 	702
f 327 	410 	456
f 456 	410 	609
f 417 	400 	488
f 452 	343 	451
f 109 	158 	558
f 356 	458 	459
f 485 	421 	459
f 43 	881 	592
f 609 	606 	456
f 456 	606 	881
f 468 	462 	460
f 465 	460 	462
f 356 	536 	458
f 434 	422 	342
f 426 	422 	434
f 521 	522 	464
f 466 	460 	463
f 465 	463 	460
f 193 	667 	56
f 464 	363 	467
f 467 	363 	415
f 468 	503 	462
f 272 	415 	363
f 650 	60 	631
f 458 	521 	464
f 491 	339 	355
f 459 	458 	464
f 459 	464 	467
f 491 	397 	339
f 467 	485 	459
f 505 	358 	351
f 558 	533 	109
f 664 	13 	472
f 179 	248 	473
f 750 	828 	346
f 475 	476 	472
f 475 	472 	471
f 506 	360 	361
f 506 	361 	507
f 471 	42 	455
f 502 	552 	54
f 1222 	88 	654
f 334 	897 	614
f 360 	509 	365
f 540 	375 	374
f 611 	382 	330
f 301 	330 	382
f 248 	227 	473
f 370 	358 	511
f 469 	470 	477
f 501 	1119 	462
f 475 	471 	478
f 455 	478 	471
f 511 	752 	370
f 444 	414 	473
f 174 	572 	573
f 346 	495 	361
f 455 	537 	478
f 380 	955 	557
f 702 	469 	477
f 557 	889 	380
f 479 	481 	480
f 481 	483 	480
f 487 	480 	483
f 476 	482 	472
f 365 	509 	376
f 480 	484 	479
f 358 	505 	511
f 466 	463 	483
f 487 	483 	463
f 258 	120 	353
f 488 	485 	467
f 270 	578 	59
f 112 	1052 	337
f 490 	492 	362
f 461 	472 	482
f 541 	461 	482
f 265 	492 	264
f 490 	264 	492
f 482 	476 	475
f 482 	475 	478
f 485 	488 	521
f 373 	264 	490
f 478 	541 	482
f 43 	592 	491
f 477 	489 	451
f 493 	597 	496
f 513 	458 	536
f 455 	516 	537
f 507 	361 	495
f 510 	274 	81
f 563 	574 	962
f 531 	450 	494
f 521 	458 	513
f 480 	1153 	484
f 363 	522 	364
f 43 	506 	495
f 491 	518 	43
f 249 	578 	270
f 116 	602 	655
f 603 	602 	116
f 461 	541 	526
f 951 	364 	28
f 116 	655 	493
f 116 	493 	496
f 220 	233 	569
f 356 	375 	536
f 811 	813 	469
f 503 	500 	462
f 501 	462 	500
f 498 	491 	355
f 500 	503 	504
f 441 	439 	503
f 505 	351 	497
f 499 	1093 	577
f 474 	494 	815
f 1183 	500 	504
f 506 	509 	360
f 477 	817 	489
f 439 	1090 	504
f 502 	558 	552
f 183 	49 	582
f 813 	817 	470
f 477 	470 	817
f 58 	499 	556
f 577 	560 	499
f 560 	556 	499
f 503 	1086 	441
f 528 	447 	28
f 512 	492 	265
f 559 	517 	514
f 509 	518 	376
f 575 	537 	516
f 517 	519 	520
f 514 	517 	520
f 363 	464 	522
f 525 	649 	524
f 539 	486 	523
f 353 	523 	486
f 519 	590 	527
f 517 	594 	519
f 594 	590 	519
f 376 	518 	355
f 498 	355 	518
f 492 	523 	362
f 512 	523 	492
f 528 	364 	522
f 451 	489 	791
f 514 	48 	515
f 281 	296 	539
f 497 	641 	505
f 791 	452 	451
f 524 	529 	530
f 512 	281 	523
f 536 	890 	513
f 699 	343 	452
f 507 	495 	506
f 517 	559 	66
f 522 	521 	528
f 488 	447 	521
f 521 	513 	485
f 530 	104 	524
f 509 	506 	518
f 506 	43 	518
f 517 	66 	594
f 398 	539 	179
f 519 	74 	520
f 533 	558 	340
f 511 	505 	830
f 73 	514 	520
f 491 	498 	518
f 541 	576 	526
f 540 	374 	542
f 531 	494 	962
f 532 	531 	538
f 534 	576 	541
f 924 	581 	529
f 183 	582 	193
f 541 	478 	537
f 606 	406 	407
f 535 	534 	541
f 535 	541 	537
f 543 	544 	547
f 608 	408 	323
f 631 	56 	667
f 538 	531 	962
f 329 	345 	962
f 359 	538 	377
f 528 	28 	364
f 547 	548 	543
f 406 	606 	410
f 410 	606 	609
f 543 	548 	551
f 418 	551 	548
f 418 	548 	420
f 158 	54 	552
f 398 	486 	539
f 555 	544 	553
f 543 	553 	544
f 515 	544 	555
f 559 	514 	555
f 515 	555 	514
f 158 	552 	558
f 93 	555 	553
f 536 	540 	542
f 536 	542 	890
f 608 	612 	408
f 419 	408 	612
f 75 	47 	564
f 567 	516 	564
f 1096 	565 	566
f 569 	568 	171
f 172 	171 	568
f 474 	815 	563
f 549 	575 	567
f 75 	564 	516
f 33 	17 	557
f 554 	469 	571
f 702 	571 	469
f 546 	545 	556
f 546 	556 	564
f 564 	556 	560
f 564 	560 	567
f 172 	568 	249
f 561 	574 	562
f 563 	562 	574
f 542 	374 	890
f 567 	560 	550
f 567 	550 	549
f 572 	175 	633
f 576 	534 	575
f 535 	575 	534
f 494 	474 	563
f 889 	794 	380
f 395 	397 	592
f 550 	577 	575
f 550 	575 	549
f 401 	423 	599
f 485 	513 	874
f 890 	874 	513
f 547 	127 	548
f 502 	59 	578
f 580 	844 	571
f 200 	198 	595
f 1088 	579 	577
f 575 	577 	579
f 575 	579 	576
f 924 	908 	274
f 1131 	162 	116
f 535 	537 	575
f 443 	401 	636
f 599 	636 	401
f 595 	603 	205
f 595 	205 	200
f 440 	634 	635
f 440 	635 	442
f 516 	567 	575
f 576 	741 	526
f 585 	584 	586
f 852 	850 	584
f 550 	560 	577
f 263 	287 	657
f 571 	736 	580
f 48 	544 	515
f 634 	440 	445
f 624 	584 	585
f 587 	623 	585
f 740 	579 	508
f 641 	446 	635
f 442 	635 	446
f 581 	274 	510
f 1088 	1098 	579
f 508 	579 	1098
f 351 	446 	641
f 494 	563 	962
f 749 	962 	574
f 667 	193 	583
f 582 	583 	193
f 589 	231 	573
f 601 	605 	18
f 588 	590 	591
f 987 	588 	591
f 578 	249 	568
f 19 	657 	26
f 588 	527 	590
f 569 	233 	589
f 221 	220 	569
f 595 	198 	593
f 491 	596 	397
f 592 	397 	596
f 493 	598 	597
f 573 	572 	589
f 572 	633 	589
f 607 	592 	606
f 606 	592 	881
f 601 	18 	21
f 568 	502 	578
f 596 	491 	592
f 683 	655 	602
f 604 	605 	601
f 263 	605 	604
f 19 	18 	605
f 606 	407 	607
f 735 	580 	736
f 593 	602 	603
f 593 	603 	595
f 590 	269 	591
f 846 	561 	562
f 266 	907 	591
f 332 	613 	328
f 610 	328 	613
f 563 	847 	562
f 262 	269 	594
f 806 	601 	810
f 554 	571 	844
f 615 	664 	461
f 395 	607 	407
f 592 	607 	395
f 687 	682 	616
f 423 	617 	599
f 618 	619 	616
f 626 	616 	619
f 419 	612 	423
f 617 	423 	612
f 425 	429 	621
f 437 	622 	620
f 625 	620 	622
f 622 	626 	619
f 625 	622 	619
f 629 	623 	627
f 587 	627 	623
f 624 	585 	623
f 657 	19 	605
f 629 	627 	630
f 666 	583 	628
f 457 	628 	583
f 601 	659 	604
f 630 	565 	1118
f 627 	570 	630
f 570 	565 	630
f 924 	617 	608
f 470 	469 	813
f 284 	686 	632
f 599 	617 	636
f 461 	690 	615
f 633 	292 	632
f 612 	608 	617
f 322 	687 	325
f 443 	636 	637
f 443 	637 	445
f 494 	821 	815
f 325 	616 	626
f 569 	589 	632
f 633 	632 	589
f 338 	639 	336
f 638 	336 	639
f 652 	1223 	654
f 634 	445 	637
f 329 	625 	619
f 337 	640 	112
f 932 	629 	630
f 497 	351 	641
f 643 	644 	347
f 350 	347 	644
f 636 	924 	634
f 635 	634 	641
f 645 	348 	130
f 581 	924 	274
f 637 	636 	634
f 928 	624 	623
f 639 	644 	643
f 639 	643 	638
f 788 	494 	450
f 636 	617 	924
f 640 	645 	130
f 640 	130 	112
f 896 	585 	586
f 510 	529 	581
f 347 	336 	638
f 347 	638 	643
f 620 	625 	329
f 645 	640 	348
f 337 	348 	640
f 338 	334 	639
f 614 	639 	334
f 216 	663 	222
f 321 	649 	525
f 450 	531 	788
f 531 	837 	788
f 822 	644 	614
f 665 	52 	648
f 659 	814 	604
f 321 	405 	649
f 199 	984 	651
f 901 	587 	896
f 674 	676 	650
f 924 	524 	649
f 529 	524 	924
f 757 	759 	651
f 759 	210 	651
f 744 	180 	251
f 823 	653 	806
f 806 	653 	601
f 605 	263 	657
f 924 	649 	427
f 405 	427 	649
f 210 	759 	213
f 674 	650 	631
f 659 	601 	653
f 928 	623 	629
f 657 	287 	659
f 289 	659 	287
f 653 	657 	659
f 932 	630 	1118
f 653 	35 	657
f 297 	411 	289
f 216 	215 	662
f 216 	662 	663
f 639 	614 	644
f 822 	755 	644
f 215 	1 	662
f 583 	666 	667
f 35 	1043 	662
f 469 	554 	844
f 670 	671 	669
f 669 	13 	664
f 670 	669 	664
f 882 	566 	565
f 472 	461 	664
f 664 	673 	670
f 846 	562 	847
f 631 	667 	674
f 21 	702 	601
f 884 	565 	570
f 664 	615 	673
f 690 	729 	615
f 563 	815 	847
f 667 	739 	674
f 940 	739 	666
f 648 	856 	656
f 580 	851 	844
f 669 	671 	677
f 671 	670 	673
f 671 	673 	677
f 656 	665 	648
f 674 	675 	676
f 600 	1069 	669
f 1136 	669 	1069
f 593 	650 	676
f 618 	616 	682
f 683 	684 	685
f 687 	778 	682
f 967 	688 	679
f 732 	600 	677
f 669 	677 	600
f 685 	655 	683
f 674 	685 	684
f 674 	684 	675
f 461 	526 	690
f 676 	675 	684
f 676 	684 	683
f 602 	593 	683
f 676 	683 	593
f 668 	672 	665
f 871 	327 	52
f 672 	118 	52
f 314 	263 	721
f 604 	721 	263
f 672 	52 	665
f 691 	693 	695
f 690 	526 	741
f 413 	314 	721
f 730 	731 	685
f 740 	508 	696
f 730 	685 	739
f 674 	739 	685
f 317 	421 	720
f 698 	853 	697
f 756 	660 	658
f 694 	695 	693
f 741 	729 	690
f 21 	10 	702
f 773 	50 	101
f 758 	598 	493
f 719 	721 	604
f 597 	809 	496
f 701 	170 	700
f 771 	1160 	1097
f 655 	829 	493
f 571 	180 	736
f 699 	839 	704
f 766 	829 	282
f 496 	766 	116
f 703 	769 	745
f 320 	751 	448
f 688 	697 	692
f 692 	779 	679
f 688 	692 	679
f 116 	766 	282
f 841 	706 	704
f 708 	704 	706
f 708 	706 	707
f 700 	611 	1006
f 611 	700 	170
f 706 	775 	707
f 713 	236 	237
f 713 	237 	714
f 327 	918 	715
f 694 	701 	700
f 694 	700 	695
f 237 	366 	714
f 778 	349 	711
f 600 	716 	1069
f 1006 	695 	700
f 720 	721 	719
f 774 	777 	716
f 743 	774 	716
f 449 	714 	366
f 701 	694 	1005
f 707 	354 	708
f 717 	738 	722
f 717 	722 	718
f 699 	704 	343
f 357 	343 	704
f 721 	720 	849
f 613 	632 	680
f 681 	680 	632
f 680 	610 	613
f 686 	681 	632
f 745 	1045 	703
f 918 	912 	715
f 738 	724 	722
f 723 	722 	724
f 704 	708 	357
f 354 	357 	708
f 680 	689 	610
f 600 	732 	716
f 614 	11 	822
f 686 	693 	691
f 686 	691 	681
f 448 	793 	714
f 449 	448 	714
f 538 	359 	841
f 825 	810 	702
f 673 	615 	729
f 642 	628 	308
f 457 	308 	628
f 728 	727 	732
f 728 	732 	729
f 749 	826 	736
f 632 	613 	332
f 677 	673 	732
f 729 	732 	673
f 733 	829 	731
f 685 	731 	655
f 829 	655 	731
f 727 	743 	732
f 743 	716 	732
f 712 	648 	710
f 741 	576 	740
f 579 	740 	576
f 678 	679 	737
f 737 	738 	717
f 678 	737 	717
f 715 	710 	327
f 771 	789 	1160
f 804 	803 	744
f 731 	730 	739
f 731 	739 	746
f 748 	742 	734
f 748 	734 	733
f 1036 	745 	740
f 741 	740 	745
f 745 	743 	741
f 728 	741 	743
f 728 	743 	727
f 731 	746 	748
f 731 	748 	733
f 323 	408 	725
f 793 	448 	751
f 408 	423 	857
f 720 	719 	317
f 728 	729 	741
f 604 	816 	719
f 740 	696 	1038
f 726 	725 	709
f 725 	408 	857
f 744 	251 	804
f 350 	644 	755
f 199 	651 	210
f 756 	902 	705
f 722 	760 	718
f 1036 	1045 	745
f 761 	838 	762
f 829 	253 	255
f 658 	866 	756
f 764 	743 	763
f 745 	763 	743
f 723 	760 	722
f 838 	761 	753
f 183 	187 	768
f 767 	768 	187
f 709 	725 	857
f 705 	709 	756
f 757 	772 	765
f 757 	765 	759
f 745 	769 	763
f 765 	213 	759
f 809 	758 	766
f 758 	493 	829
f 757 	651 	772
f 49 	770 	703
f 770 	183 	768
f 769 	703 	770
f 101 	135 	773
f 857 	771 	138
f 773 	138 	771
f 909 	212 	765
f 349 	707 	711
f 753 	761 	752
f 784 	752 	761
f 1033 	1031 	737
f 766 	758 	829
f 255 	282 	829
f 909 	765 	772
f 706 	359 	775
f 764 	774 	743
f 776 	707 	775
f 711 	707 	776
f 358 	752 	784
f 780 	778 	776
f 711 	776 	778
f 762 	747 	761
f 737 	779 	1033
f 187 	51 	777
f 777 	767 	187
f 780 	682 	778
f 735 	736 	827
f 764 	763 	769
f 764 	769 	774
f 774 	769 	770
f 774 	770 	777
f 973 	1054 	692
f 784 	747 	799
f 1178 	799 	747
f 777 	770 	768
f 777 	768 	767
f 679 	779 	737
f 78 	904 	702
f 122 	947 	781
f 10 	180 	702
f 761 	747 	784
f 954 	679 	678
f 756 	709 	857
f 661 	660 	781
f 660 	756 	857
f 781 	660 	857
f 790 	791 	788
f 254 	792 	822
f 792 	793 	822
f 973 	692 	1074
f 800 	91 	789
f 788 	837 	790
f 790 	839 	699
f 118 	672 	783
f 827 	851 	735
f 795 	719 	794
f 950 	794 	310
f 772 	794 	719
f 787 	953 	786
f 784 	799 	789
f 792 	713 	793
f 713 	714 	793
f 165 	781 	857
f 122 	781 	165
f 802 	749 	796
f 874 	899 	719
f 793 	751 	755
f 858 	857 	784
f 858 	784 	789
f 858 	771 	857
f 799 	800 	789
f 799 	1171 	321
f 1178 	1171 	799
f 792 	754 	713
f 371 	713 	754
f 423 	443 	857
f 489 	819 	791
f 77 	114 	820
f 843 	801 	787
f 574 	796 	749
f 452 	791 	790
f 789 	771 	858
f 799 	876 	800
f 804 	807 	803
f 805 	807 	804
f 452 	790 	699
f 809 	597 	808
f 598 	808 	597
f 58 	45 	855
f 736 	744 	803
f 253 	829 	820
f 598 	758 	808
f 875 	873 	307
f 844 	846 	811
f 805 	133 	807
f 132 	807 	133
f 866 	658 	872
f 842 	786 	812
f 766 	496 	809
f 847 	815 	813
f 782 	944 	812
f 816 	604 	814
f 736 	803 	749
f 658 	660 	872
f 817 	813 	815
f 817 	815 	819
f 758 	809 	808
f 661 	781 	947
f 814 	823 	806
f 815 	821 	819
f 821 	788 	819
f 791 	819 	788
f 253 	820 	114
f 814 	806 	810
f 814 	810 	816
f 742 	77 	820
f 742 	820 	734
f 489 	817 	819
f 825 	833 	810
f 816 	810 	833
f 805 	804 	133
f 133 	804 	90
f 822 	793 	755
f 661 	872 	660
f 90 	804 	251
f 399 	1134 	824
f 35 	653 	823
f 827 	736 	826
f 888 	668 	887
f 665 	887 	668
f 495 	346 	828
f 656 	862 	665
f 830 	831 	752
f 753 	752 	831
f 814 	659 	832
f 672 	668 	888
f 851 	580 	735
f 830 	752 	511
f 832 	823 	814
f 779 	692 	1054
f 831 	838 	753
f 827 	826 	854
f 827 	854 	851
f 856 	862 	656
f 782 	812 	786
f 413 	833 	411
f 411 	833 	832
f 659 	289 	832
f 843 	787 	842
f 786 	842 	787
f 834 	796 	854
f 574 	854 	796
f 712 	911 	648
f 823 	832 	833
f 823 	833 	825
f 494 	788 	821
f 859 	797 	798
f 820 	829 	733
f 820 	733 	734
f 749 	802 	826
f 835 	826 	802
f 762 	838 	840
f 839 	790 	837
f 802 	929 	835
f 705 	902 	903
f 1020 	1016 	760
f 798 	801 	859
f 835 	834 	826
f 854 	826 	834
f 841 	704 	839
f 1028 	834 	835
f 762 	840 	824
f 762 	824 	747
f 532 	839 	531
f 837 	531 	839
f 705 	903 	709
f 912 	712 	710
f 538 	841 	839
f 532 	538 	839
f 316 	894 	785
f 383 	495 	828
f 929 	802 	796
f 1017 	954 	717
f 327 	456 	918
f 842 	812 	843
f 838 	831 	830
f 505 	924 	830
f 469 	844 	811
f 738 	737 	1031
f 844 	845 	846
f 824 	840 	838
f 838 	924 	824
f 810 	601 	702
f 847 	813 	846
f 813 	811 	846
f 830 	924 	838
f 710 	715 	912
f 561 	846 	845
f 833 	874 	816
f 719 	816 	874
f 641 	634 	924
f 641 	924 	505
f 848 	721 	849
f 926 	725 	726
f 836 	785 	894
f 867 	642 	308
f 586 	584 	850
f 848 	413 	721
f 852 	853 	850
f 854 	845 	851
f 849 	720 	421
f 772 	899 	909
f 869 	870 	786
f 856 	648 	911
f 874 	833 	849
f 848 	849 	833
f 844 	851 	845
f 798 	797 	879
f 709 	926 	726
f 413 	848 	833
f 854 	574 	845
f 561 	845 	574
f 241 	212 	909
f 849 	421 	874
f 862 	856 	887
f 911 	912 	856
f 912 	456 	881
f 427 	431 	924
f 823 	825 	35
f 1063 	852 	584
f 642 	666 	628
f 881 	856 	912
f 782 	786 	870
f 332 	879 	797
f 358 	784 	857
f 801 	861 	859
f 860 	853 	1074
f 801 	843 	861
f 864 	865 	863
f 1074 	692 	860
f 782 	870 	301
f 867 	864 	868
f 863 	868 	864
f 772 	719 	899
f 698 	850 	853
f 692 	697 	860
f 853 	860 	697
f 867 	873 	875
f 867 	875 	864
f 421 	485 	874
f 698 	977 	850
f 865 	864 	876
f 864 	875 	876
f 797 	859 	877
f 899 	889 	44
f 878 	947 	872
f 915 	702 	904
f 859 	861 	877
f 1051 	876 	875
f 15 	44 	889
f 876 	1032 	800
f 884 	932 	883
f 45 	913 	855
f 308 	307 	873
f 661 	878 	872
f 308 	873 	867
f 882 	565 	883
f 855 	913 	886
f 50 	855 	886
f 794 	889 	890
f 794 	890 	795
f 374 	795 	890
f 887 	665 	862
f 318 	891 	965
f 892 	965 	891
f 565 	884 	883
f 899 	874 	889
f 890 	889 	874
f 893 	672 	888
f 914 	965 	892
f 783 	672 	949
f 919 	290 	881
f 949 	893 	267
f 888 	887 	893
f 881 	893 	887
f 927 	896 	895
f 431 	824 	924
f 886 	921 	898
f 897 	885 	894
f 881 	887 	856
f 885 	836 	894
f 900 	1061 	895
f 900 	895 	896
f 881 	267 	893
f 920 	898 	921
f 902 	756 	866
f 52 	50 	898
f 886 	898 	50
f 901 	627 	587
f 903 	902 	906
f 881 	871 	919
f 920 	919 	871
f 866 	872 	902
f 924 	902 	872
f 863 	865 	908
f 920 	871 	898
f 586 	900 	896
f 903 	906 	709
f 891 	318 	910
f 939 	933 	868
f 642 	867 	933
f 868 	933 	867
f 904 	985 	905
f 586 	1061 	900
f 13 	6 	45
f 584 	927 	895
f 912 	911 	712
f 917 	250 	916
f 865 	274 	908
f 913 	45 	6
f 803 	1008 	749
f 725 	925 	323
f 453 	323 	925
f 585 	896 	587
f 921 	922 	920
f 922 	913 	920
f 252 	904 	78
f 935 	702 	915
f 666 	642 	933
f 8 	7 	178
f 914 	910 	916
f 366 	916 	910
f 8 	178 	10
f 937 	938 	924
f 905 	915 	904
f 725 	926 	925
f 250 	917 	754
f 754 	917 	371
f 928 	896 	927
f 901 	896 	928
f 913 	922 	886
f 936 	935 	915
f 709 	906 	926
f 334 	338 	897
f 930 	901 	928
f 456 	912 	918
f 922 	921 	886
f 928 	931 	930
f 931 	932 	930
f 929 	796 	923
f 608 	453 	925
f 884 	930 	932
f 932 	931 	629
f 935 	1015 	1009
f 935 	1009 	934
f 925 	926 	906
f 627 	901 	930
f 885 	897 	338
f 939 	940 	933
f 1007 	1008 	807
f 320 	319 	318
f 624 	928 	927
f 908 	924 	938
f 82 	83 	1107
f 951 	964 	364
f 271 	364 	964
f 584 	624 	927
f 807 	132 	1007
f 319 	366 	318
f 937 	940 	939
f 937 	939 	938
f 943 	1025 	944
f 942 	1011 	941
f 930 	884 	627
f 1025 	812 	944
f 629 	931 	928
f 318 	350 	320
f 945 	943 	944
f 945 	944 	946
f 906 	902 	924
f 872 	947 	924
f 782 	946 	944
f 937 	6 	940
f 785 	818 	943
f 945 	785 	943
f 159 	1007 	132
f 884 	570 	627
f 945 	946 	1024
f 825 	702 	934
f 878 	661 	947
f 667 	666 	739
f 935 	934 	702
f 772 	310 	794
f 380 	794 	950
f 785 	945 	316
f 332 	328 	879
f 880 	879 	328
f 941 	266 	962
f 907 	266 	941
f 870 	330 	301
f 893 	949 	672
f 933 	940 	666
f 6 	739 	940
f 267 	118 	949
f 942 	941 	948
f 962 	948 	941
f 982 	951 	952
f 947 	305 	924
f 143 	982 	2
f 952 	2 	982
f 951 	28 	952
f 122 	259 	947
f 1024 	946 	961
f 782 	301 	946
f 294 	302 	899
f 294 	899 	142
f 869 	786 	953
f 924 	283 	937
f 955 	380 	950
f 1033 	960 	954
f 33 	955 	17
f 950 	17 	955
f 925 	924 	608
f 906 	924 	925
f 252 	588 	904
f 801 	798 	956
f 33 	557 	955
f 6 	937 	283
f 956 	953 	801
f 787 	801 	953
f 10 	178 	180
f 1106 	956 	1130
f 956 	798 	879
f 591 	907 	987
f 679 	954 	960
f 1132 	1141 	797
f 989 	985 	904
f 1107 	1110 	963
f 910 	318 	366
f 951 	982 	964
f 961 	946 	301
f 967 	679 	960
f 964 	982 	123
f 966 	961 	301
f 350 	755 	320
f 254 	83 	182
f 316 	945 	970
f 1037 	1038 	696
f 1001 	204 	182
f 1001 	182 	969
f 991 	915 	985
f 905 	985 	915
f 751 	320 	755
f 83 	85 	969
f 1001 	969 	134
f 68 	134 	969
f 971 	316 	970
f 1000 	970 	945
f 972 	976 	1056
f 999 	393 	971
f 1000 	961 	970
f 991 	936 	915
f 970 	961 	966
f 970 	966 	971
f 959 	1101 	957
f 1100 	957 	1101
f 973 	975 	967
f 994 	999 	966
f 971 	966 	999
f 1102 	1101 	958
f 959 	958 	1101
f 941 	1013 	907
f 987 	907 	1013
f 975 	1062 	977
f 973 	1074 	975
f 697 	967 	975
f 558 	502 	1141
f 942 	948 	1011
f 571 	702 	180
f 975 	977 	697
f 698 	697 	977
f 1011 	1013 	941
f 1061 	850 	977
f 310 	980 	950
f 1015 	935 	936
f 1005 	1006 	870
f 976 	972 	974
f 142 	5 	980
f 948 	962 	1010
f 41 	340 	1141
f 962 	979 	978
f 948 	1010 	1011
f 680 	986 	879
f 35 	825 	1009
f 981 	974 	972
f 689 	879 	880
f 143 	123 	982
f 880 	328 	689
f 934 	1009 	825
f 772 	651 	309
f 990 	972 	1056
f 1045 	1042 	703
f 681 	986 	680
f 967 	960 	973
f 1054 	973 	960
f 988 	879 	986
f 588 	987 	989
f 985 	989 	987
f 697 	688 	967
f 985 	1011 	991
f 987 	1013 	985
f 1013 	1011 	985
f 992 	723 	724
f 1102 	958 	983
f 879 	689 	680
f 994 	382 	611
f 691 	995 	681
f 986 	681 	995
f 454 	49 	703
f 1043 	1010 	962
f 988 	986 	995
f 988 	995 	996
f 693 	686 	988
f 693 	988 	996
f 212 	161 	199
f 199 	161 	984
f 997 	998 	996
f 997 	996 	995
f 328 	610 	689
f 204 	1001 	166
f 695 	997 	691
f 995 	691 	997
f 996 	998 	693
f 694 	693 	998
f 330 	870 	1006
f 961 	1000 	993
f 1006 	611 	330
f 238 	86 	433
f 435 	433 	86
f 803 	807 	1008
f 1043 	1009 	1010
f 999 	994 	993
f 999 	993 	1000
f 46 	447 	147
f 86 	106 	447
f 106 	147 	447
f 1021 	454 	703
f 991 	1011 	1012
f 17 	3 	15
f 962 	1008 	1007
f 962 	1007 	979
f 965 	1105 	1014
f 5 	3 	950
f 962 	749 	1008
f 1011 	1010 	1012
f 1010 	1009 	1012
f 1015 	1012 	1009
f 1017 	717 	1016
f 718 	1016 	717
f 950 	3 	17
f 979 	1007 	978
f 159 	978 	1007
f 1016 	1020 	1017
f 1018 	1115 	1004
f 696 	91 	1037
f 4 	2 	952
f 1002 	1031 	1020
f 1002 	1020 	1003
f 1014 	1114 	1019
f 991 	1012 	936
f 1043 	962 	1041
f 1018 	1034 	1014
f 1019 	1018 	1014
f 724 	1031 	1002
f 738 	1031 	724
f 1005 	998 	997
f 1005 	997 	1006
f 1004 	1029 	1018
f 457 	1065 	1022
f 695 	1006 	997
f 718 	760 	1016
f 885 	1048 	1029
f 1004 	885 	1029
f 978 	1041 	962
f 1005 	694 	998
f 965 	1034 	318
f 818 	20 	1026
f 1024 	1026 	1023
f 1025 	1026 	1024
f 978 	159 	1041
f 159 	76 	1041
f 993 	994 	170
f 611 	170 	994
f 1003 	990 	1002
f 936 	1012 	1015
f 943 	1026 	1025
f 923 	796 	1027
f 834 	1027 	796
f 957 	724 	1056
f 1028 	835 	929
f 678 	717 	954
f 1027 	1028 	929
f 1027 	929 	923
f 818 	1026 	943
f 834 	1028 	1027
f 876 	1051 	1032
f 1033 	1017 	1031
f 1031 	1017 	1020
f 1034 	965 	1014
f 1002 	990 	1056
f 1009 	1043 	35
f 1035 	1036 	740
f 1034 	1198 	126
f 1043 	1040 	662
f 1024 	1023 	945
f 1034 	1018 	1029
f 222 	663 	1039
f 1029 	1198 	1034
f 1040 	225 	222
f 1040 	222 	1039
f 225 	1041 	76
f 1040 	1041 	225
f 740 	1038 	1035
f 945 	1023 	1000
f 1039 	663 	1040
f 663 	662 	1040
f 1032 	1030 	1042
f 1032 	1042 	1037
f 1041 	1040 	1043
f 1044 	125 	418
f 1017 	1033 	954
f 1026 	20 	1023
f 1037 	1042 	1045
f 1037 	1045 	1038
f 420 	548 	127
f 127 	1046 	420
f 897 	894 	14
f 1042 	1021 	703
f 1030 	1050 	1042
f 418 	1147 	1044
f 279 	278 	392
f 1038 	1045 	1036
f 1038 	1036 	1035
f 1023 	20 	1000
f 1047 	392 	278
f 107 	1029 	1048
f 1050 	1051 	1072
f 1048 	885 	1052
f 338 	1052 	885
f 1044 	1147 	125
f 238 	433 	239
f 1049 	239 	433
f 1050 	1032 	1051
f 1030 	1032 	1050
f 1052 	338 	337
f 983 	959 	1056
f 992 	724 	957
f 1002 	1056 	724
f 779 	1054 	1033
f 97 	48 	702
f 48 	73 	702
f 78 	702 	73
f 1000 	20 	14
f 1053 	1055 	318
f 126 	1053 	1034
f 318 	1034 	1053
f 1121 	1144 	702
f 1046 	702 	1144
f 1046 	97 	702
f 107 	1048 	1053
f 127 	97 	1046
f 1021 	1042 	1050
f 1053 	1048 	1052
f 1053 	1052 	1055
f 1054 	960 	1033
f 112 	130 	1055
f 112 	1055 	1052
f 875 	1022 	1051
f 1021 	1050 	1059
f 1 	216 	6
f 1133 	82 	1107
f 294 	310 	309
f 1058 	1059 	1057
f 993 	1024 	961
f 142 	310 	294
f 1060 	454 	1059
f 236 	713 	371
f 1063 	895 	1061
f 1021 	1059 	454
f 910 	232 	891
f 1062 	1063 	1061
f 1022 	1065 	1051
f 910 	914 	232
f 1062 	853 	1063
f 852 	1063 	853
f 1066 	1064 	1065
f 1064 	1051 	1065
f 914 	892 	234
f 1061 	586 	850
f 916 	237 	917
f 739 	6 	746
f 234 	232 	914
f 584 	895 	1063
f 457 	583 	1067
f 1067 	1065 	457
f 366 	237 	916
f 957 	1056 	959
f 1058 	1066 	1065
f 1058 	1065 	1059
f 333 	1068 	331
f 1070 	702 	1068
f 331 	1068 	702
f 1057 	1064 	1066
f 1057 	1066 	1058
f 965 	914 	250
f 1059 	1065 	1067
f 1059 	1067 	1060
f 963 	968 	965
f 1072 	1073 	1050
f 958 	959 	983
f 853 	1062 	1074
f 1075 	1076 	583
f 1075 	583 	582
f 1073 	1057 	1050
f 499 	58 	855
f 1207 	1210 	885
f 1057 	1059 	1050
f 1079 	1080 	1075
f 963 	965 	250
f 1062 	975 	1074
f 1061 	977 	1062
f 77 	742 	748
f 746 	222 	748
f 222 	76 	748
f 914 	916 	250
f 1075 	582 	1079
f 582 	454 	1060
f 1079 	582 	1060
f 1051 	1064 	1072
f 863 	908 	868
f 1223 	1211 	89
f 89 	1056 	976
f 1076 	1082 	1083
f 1085 	773 	1084
f 771 	1084 	773
f 1076 	1083 	583
f 583 	1083 	1067
f 1087 	1088 	577
f 439 	1089 	1090
f 222 	746 	216
f 746 	6 	216
f 1082 	1080 	1079
f 1082 	1079 	1083
f 1091 	773 	1085
f 1073 	1072 	1064
f 1073 	1064 	1057
f 868 	908 	939
f 938 	939 	908
f 1091 	1093 	499
f 499 	1155 	1091
f 1082 	1076 	1075
f 1082 	1075 	1080
f 1094 	1095 	1092
f 1094 	1092 	1099
f 1087 	577 	1093
f 1060 	1067 	1083
f 1060 	1083 	1079
f 565 	1096 	1118
f 1097 	1084 	771
f 1068 	1071 	1070
f 1086 	702 	1070
f 1115 	1116 	646
f 43 	402 	41
f 558 	1141 	340
f 502 	568 	1141
f 332 	568 	569
f 332 	569 	632
f 1099 	1096 	1094
f 566 	1094 	1096
f 646 	1004 	1115
f 1098 	1097 	508
f 1086 	1070 	1077
f 372 	1089 	1078
f 1085 	1084 	1097
f 1085 	1097 	1091
f 647 	1113 	1208
f 1208 	1113 	983
f 1091 	1097 	1098
f 1091 	1098 	1093
f 686 	284 	988
f 284 	12 	988
f 1095 	1094 	1162
f 1093 	1098 	1088
f 1093 	1088 	1087
f 869 	167 	870
f 170 	870 	167
f 1157 	1167 	1092
f 870 	170 	1005
f 701 	1005 	170
f 1162 	1094 	566
f 1100 	1101 	1102
f 1102 	983 	1113
f 437 	1068 	622
f 80 	177 	87
f 1070 	1071 	428
f 429 	428 	1071
f 812 	1025 	843
f 861 	843 	1104
f 1106 	861 	1104
f 340 	412 	1156
f 1114 	1014 	1105
f 115 	533 	1103
f 877 	861 	1106
f 1070 	428 	1077
f 424 	1077 	428
f 20 	974 	271
f 278 	271 	974
f 1110 	1113 	1105
f 1078 	438 	425
f 129 	1108 	1109
f 621 	1078 	425
f 1111 	128 	1109
f 1111 	1109 	1112
f 1110 	1105 	968
f 965 	968 	1105
f 898 	871 	52
f 1112 	1092 	1111
f 1095 	1111 	1092
f 1071 	1068 	429
f 437 	429 	1068
f 968 	963 	1110
f 372 	1078 	621
f 953 	956 	1104
f 1106 	1104 	956
f 1114 	1105 	1113
f 1100 	1102 	1107
f 1110 	1107 	1102
f 1113 	1110 	1102
f 424 	441 	1077
f 441 	1086 	1077
f 964 	1125 	271
f 1116 	1113 	646
f 439 	438 	1089
f 1104 	843 	1025
f 438 	1078 	1089
f 1155 	499 	855
f 1183 	504 	1090
f 855 	50 	1155
f 1206 	395 	871
f 710 	52 	327
f 468 	1117 	503
f 1114 	1113 	1116
f 647 	646 	1113
f 465 	462 	1119
f 1018 	1019 	1115
f 1116 	1115 	1019
f 38 	1132 	877
f 1120 	465 	1119
f 964 	82 	1133
f 1133 	1125 	964
f 1164 	1118 	1096
f 877 	1106 	38
f 369 	128 	1111
f 1116 	1019 	1114
f 1121 	466 	483
f 1123 	384 	1122
f 383 	1122 	384
f 1186 	1108 	373
f 1117 	468 	1127
f 383 	828 	750
f 383 	750 	1122
f 1121 	1127 	460
f 1121 	460 	466
f 1100 	20 	1125
f 1107 	254 	1100
f 1100 	1125 	957
f 1126 	957 	1125
f 1129 	387 	1123
f 465 	1120 	463
f 1128 	463 	1120
f 1133 	1126 	1125
f 253 	1179 	255
f 797 	877 	1132
f 332 	797 	1141
f 747 	824 	1134
f 460 	1127 	468
f 1095 	1162 	1161
f 963 	1135 	1133
f 963 	1133 	1107
f 1134 	399 	1178
f 38 	1130 	1132
f 1127 	1121 	1117
f 1131 	1205 	255
f 1133 	1135 	1126
f 1104 	167 	953
f 1122 	1206 	1129
f 1129 	1206 	1142
f 1129 	1123 	1122
f 1176 	1120 	1119
f 1157 	1092 	1112
f 20 	1100 	254
f 750 	346 	1122
f 346 	1206 	1122
f 969 	182 	83
f 1136 	13 	669
f 879 	988 	1137
f 254 	1107 	83
f 566 	882 	1162
f 1139 	1140 	1138
f 1170 	71 	1138
f 1138 	71 	1136
f 1139 	1138 	1136
f 40 	41 	1141
f 702 	1117 	1121
f 254 	192 	250
f 1141 	1137 	40
f 402 	1181 	1142
f 1143 	1069 	141
f 1145 	483 	1144
f 481 	1144 	483
f 1130 	879 	1137
f 1139 	1136 	1143
f 1136 	1069 	1143
f 1148 	403 	1146
f 1124 	1138 	1081
f 278 	974 	1047
f 981 	1047 	974
f 1164 	1096 	1167
f 1141 	1132 	1130
f 1141 	1130 	1137
f 1140 	1149 	1138
f 1081 	1138 	1149
f 145 	1081 	1149
f 481 	479 	1144
f 1149 	1143 	145
f 141 	145 	1143
f 957 	1154 	992
f 1143 	1149 	1140
f 1143 	1140 	1139
f 1150 	405 	321
f 1179 	71 	1170
f 992 	1154 	1152
f 773 	1091 	1155
f 1158 	1159 	1154
f 1161 	1162 	1157
f 1167 	1157 	1162
f 71 	87 	13
f 1142 	1146 	402
f 403 	402 	1146
f 177 	7 	87
f 1121 	483 	1145
f 957 	1158 	1154
f 1164 	1167 	1162
f 1162 	882 	1164
f 883 	1164 	882
f 1171 	427 	1150
f 650 	198 	1124
f 1124 	1165 	1163
f 463 	1128 	487
f 1166 	487 	1128
f 1131 	255 	1179
f 1181 	1129 	1142
f 508 	1097 	1160
f 1196 	1148 	1142
f 1146 	1142 	1148
f 1103 	1148 	1196
f 1121 	1145 	1144
f 13 	87 	7
f 1169 	1131 	1168
f 1179 	1168 	1131
f 1025 	1024 	1104
f 1153 	1166 	1147
f 962 	125 	1147
f 957 	1126 	1158
f 162 	1131 	1169
f 773 	1155 	50
f 1099 	1092 	1167
f 1151 	1046 	1144
f 1156 	1148 	1103
f 1111 	1095 	1161
f 1126 	1135 	1049
f 1168 	1163 	1165
f 1168 	1165 	1169
f 71 	70 	87
f 879 	1130 	956
f 1106 	1130 	1191
f 1049 	1158 	1126
f 1166 	1128 	1120
f 239 	1049 	1135
f 1138 	1124 	1170
f 1120 	1183 	962
f 962 	1147 	1166
f 9 	836 	1173
f 88 	1173 	836
f 405 	1150 	427
f 963 	250 	1135
f 1124 	1163 	1170
f 1174 	1170 	1163
f 1099 	1167 	1096
f 871 	881 	1206
f 43 	1206 	881
f 152 	1175 	1165
f 500 	1177 	501
f 1176 	501 	1177
f 253 	71 	1179
f 13 	1136 	71
f 431 	1172 	1178
f 974 	20 	24
f 976 	974 	24
f 1119 	501 	1176
f 1174 	1180 	1179
f 1174 	1179 	1170
f 993 	170 	1024
f 1104 	1024 	170
f 1177 	500 	1183
f 1185 	1175 	160
f 152 	160 	1175
f 24 	1182 	976
f 89 	976 	1182
f 387 	1129 	1181
f 239 	1135 	250
f 1189 	1184 	1187
f 369 	1187 	1184
f 1186 	368 	1184
f 399 	431 	1178
f 1179 	1180 	1168
f 88 	89 	1173
f 1182 	1173 	89
f 1188 	503 	1117
f 1161 	1157 	1187
f 1189 	1187 	1157
f 818 	785 	9
f 836 	9 	785
f 1169 	1185 	160
f 1169 	160 	162
f 1086 	503 	1188
f 1150 	321 	1171
f 1178 	1172 	1171
f 972 	1192 	400
f 1194 	400 	1192
f 1163 	1168 	1180
f 1163 	1180 	1174
f 369 	1111 	1187
f 1177 	1183 	1176
f 1137 	1190 	40
f 1169 	1165 	1175
f 1169 	1175 	1185
f 972 	400 	392
f 972 	392 	981
f 1047 	981 	392
f 131 	373 	1108
f 1183 	1120 	1176
f 972 	990 	1192
f 1186 	1184 	1108
f 1109 	1108 	1184
f 1166 	1120 	962
f 1090 	1089 	1183
f 1191 	1130 	38
f 747 	1134 	1178
f 990 	1003 	1192
f 1003 	760 	1192
f 1003 	1020 	760
f 1152 	1192 	760
f 1152 	760 	723
f 1152 	723 	992
f 1152 	1154 	1192
f 1193 	1192 	1154
f 1189 	1112 	1184
f 1086 	1188 	1117
f 702 	1086 	1117
f 1192 	1193 	1194
f 1160 	789 	91
f 187 	141 	51
f 1193 	1154 	1194
f 1159 	1194 	1154
f 1158 	1195 	1194
f 1158 	1194 	1159
f 1187 	1111 	1161
f 1191 	38 	1106
f 508 	1160 	696
f 1195 	1158 	433
f 1049 	433 	1158
f 1112 	1189 	1157
f 64 	60 	1124
f 1199 	1201 	41
f 43 	41 	1196
f 1109 	1184 	1112
f 20 	254 	14
f 1032 	1037 	800
f 800 	1037 	91
f 1199 	41 	1190
f 40 	1190 	41
f 107 	1197 	1029
f 457 	1022 	308
f 307 	308 	1022
f 1197 	1198 	1029
f 1137 	1199 	1190
f 1164 	883 	1200
f 932 	1200 	883
f 1198 	1197 	126
f 107 	126 	1197
f 875 	307 	1022
f 932 	1118 	1200
f 892 	891 	1212
f 1201 	12 	1202
f 1151 	1144 	479
f 1118 	1164 	1200
f 891 	232 	1212
f 12 	1201 	1199
f 167 	1104 	170
f 242 	1203 	1202
f 1147 	484 	1153
f 1103 	1196 	109
f 54 	109 	1196
f 242 	186 	1203
f 11 	14 	254
f 487 	1166 	1153
f 480 	487 	1153
f 654 	88 	1210
f 1202 	1203 	1201
f 1196 	1201 	1203
f 12 	1137 	988
f 1046 	1151 	420
f 479 	420 	1151
f 1204 	156 	1205
f 1056 	89 	1211
f 1196 	41 	1201
f 282 	156 	1204
f 1206 	43 	1196
f 1202 	208 	242
f 1196 	1203 	186
f 1207 	646 	647
f 1207 	647 	1208
f 59 	25 	1209
f 1204 	1131 	116
f 646 	1207 	1004
f 1210 	836 	885
f 1209 	25 	249
f 25 	173 	249
f 249 	270 	1209
f 1131 	1204 	1205
f 286 	255 	1205
f 1210 	1207 	1208
f 1210 	1208 	1211
f 282 	1204 	116
f 1196 	186 	25
f 1196 	25 	54
f 1196 	1142 	1206
f 254 	822 	11
f 1004 	1207 	885
f 1212 	1213 	892
f 654 	1210 	1211
f 654 	1211 	652
f 91 	696 	1160
f 232 	234 	1212
f 1213 	234 	892
f 11 	897 	14
f 869 	953 	167
f 1125 	20 	271
f 894 	316 	14
f 393 	14 	316
f 11 	614 	897
f 12 	1199 	1137
f 1223 	652 	1211
f 1211 	1208 	1056
f 983 	1056 	1208
f 197 	65 	145
f 1081 	64 	1124
f 999 	1000 	14
f 393 	999 	14
f 1069 	716 	51
f 1220 	1215 	1219
f 1214 	1219 	1215
f 65 	64 	1081
f 1217 	1216 	1220
f 1219 	1218 	1220
f 1217 	1220 	1218
f 1081 	145 	65
f 1227 	1225 	1215
f 1227 	1215 	1220
f 1216 	1227 	1220
f 385 	176 	1214
f 1219 	1214 	1221
f 181 	1221 	1214
f 181 	1214 	176
f 1222 	654 	1223
f 1224 	1214 	1225
f 1225 	1214 	1215
f 1225 	1226 	1224
f 1228 	1226 	1227
f 1225 	1227 	1226
f 1229 	1230 	1227
f 1228 	1227 	1230
f 1229 	1216 	1217
f 1229 	1217 	1230
f 1217 	1218 	1228
f 1217 	1228 	1230
f 1219 	1226 	1228
f 1216 	1229 	1227
f 1218 	1219 	1228
f 1214 	1224 	385
f 388 	1224 	1231
f 1226 	1231 	1224
f 1231 	1221 	388
f 1219 	1221 	1226
f 1231 	1226 	1221
# 2494 faces

 #end of obj_0

