# Object Export From Tinkercad Server 2015

mtllib obj.mtl

o obj_0
v -149.925 		97 		100.5
v -149.925 		100 		100.5
v -149.925 		100 		0.5
v -149.925 		97 		0.5
v 126.385 		34 		121.503
v 126.385 		37 		121.503
v 149.925 		-100 		100.517
v 147.078 		-100 		100.517
v 147.078 		-100 		100.5
v 126.385 		34 		100.52
v 126.385 		37 		100.52
v 93.491 		96.25 		55.257
v 80.277 		34 		100.52
v 77.277 		34 		100.52
v 149.925 		-100 		0.5
v -99.148 		-21 		125.685
v 81.036 		96.25 		64.115
v 35.305 		95 		100.503
v 91.622 		79.75 		58.358
v 90.377 		79.75 		59.686
v 93.491 		79.75 		57.472
v 35.305 		80.116 		100.503
v 90.377 		79.75 		57.472
v 94.736 		79.75 		58.358
v 91.622 		79.75 		60.572
v -107.243 		-21 		135.428
v -110.357 		-21 		135.428
v 57.372 		96.25 		81.999
v 60.486 		96.25 		81.999
v -116.498 		-100 		21.503
v -116.498 		-100 		0.5
v -110.357 		-21 		137.642
v -130.503 		-100 		0.5
v 57.372 		96.25 		84.214
v -130.503 		-100 		21.503
v -113.47 		-21 		137.642
v -146.925 		-100 		100.5
v -146.925 		-100 		100.517
v -149.775 		-100 		100.517
v -111.602 		-21 		136.757
v -149.775 		-100 		0.5
v 34.577 		-80 		0
v 40.077 		-80 		0
v 49.9 		96.25 		87.757
v 51.145 		96.25 		86.428
v 51.145 		96.25 		88.642
v 54.259 		96.25 		86.428
v 40.077 		-96 		0
v 34.577 		-96 		0
v 149.925 		100 		146.5
v 149.925 		98.5 		146.5
v -111.602 		-21 		134.542
v -108.489 		-21 		134.542
v 149.925 		0 		146.52
v 85.395 		79.75 		62.786
v 149.925 		98.5 		146.52
v 85.395 		79.75 		65.001
v -80.465 		-36.5 		115.329
v -108.489 		-21 		132.328
v 53.013 		96.25 		85.542
v 49.9 		96.25 		85.542
v -79.219 		-36.5 		116.215
v -107.243 		-21 		133.214
v 54.259 		96.25 		84.214
v 82.282 		79.75 		65.001
v 53.013 		96.25 		83.328
v 56.127 		96.25 		83.328
v 84.15 		79.75 		64.115
v -94.788 		-36.5 		124.356
v -96.033 		-36.5 		125.685
v 39.827 		-38.25 		44.5
v -94.788 		-36.5 		126.571
v -97.901 		-36.5 		126.571
v 39.827 		-41.25 		44.5
v -97.901 		-36.5 		128.785
v -96.033 		-36.5 		123.47
v -92.919 		-36.5 		123.47
v -91.674 		-36.5 		124.356
v 39.827 		-26.005 		0.5
v 42.827 		-26.005 		0.5
v 42.827 		-11.997 		0.5
v 39.827 		-11.997 		0.5
v 39.827 		0 		0.5
v 42.827 		0 		0.5
v 42.827 		-26.005 		21.503
v 149.925 		100 		0.5
v 42.827 		-11.997 		21.503
v 39.827 		-26.005 		21.503
v 39.827 		-11.997 		21.503
v 149.925 		-21 		142.5
v 149.925 		-20.998 		142.5
v 149.925 		-21 		146.52
v 149.925 		-20.998 		100.52
v 39.827 		-38.25 		0.5
v 39.827 		-41.25 		0.5
v 88.509 		79.75 		62.786
v -88.56 		-36.5 		120.644
v -89.806 		-36.5 		121.972
v -86.692 		-36.5 		119.758
v -89.806 		-36.5 		119.758
v 149.925 		-98 		100.517
v -85.447 		-36.5 		120.644
v 84.15 		79.75 		61.901
v 149.925 		-98 		100.52
v -88.56 		-36.5 		122.858
v 87.263 		79.75 		61.901
v 22.079 		-38.25 		21.503
v 22.077 		-38.25 		21.503
v 22.077 		-38.25 		22.003
v 8.069 		-38.25 		22.003
v 41.804 		96.25 		95.286
v 41.804 		96.25 		93.071
v 22.079 		-41.25 		21.503
v 22.077 		-41.25 		22.003
v 22.077 		-41.25 		21.503
v 8.069 		-41.25 		22.003
v 44.918 		96.25 		93.071
v 88.509 		79.75 		60.572
v 43.672 		96.25 		92.185
v 87.263 		79.75 		59.686
v -82.333 		-36.5 		116.215
v 44.918 		96.25 		90.857
v -83.579 		-36.5 		117.544
v 48.032 		96.25 		90.857
v -82.333 		-36.5 		118.429
v -85.447 		-36.5 		118.429
v -83.579 		-36.5 		115.329
v -86.692 		-36.5 		117.544
v -73.224 		34 		142.5
v 96.604 		79.75 		53.043
v -73.224 		37 		142.5
v 97.85 		79.75 		53.929
v 96.604 		79.75 		55.257
v 94.736 		79.75 		56.143
v 97.85 		79.75 		56.143
v -76.224 		34 		142.5
v 93.491 		79.75 		55.257
v -76.224 		37 		142.5
v -91.674 		-36.5 		122.142
v -91.674 		-36.5 		121.972
v -91.674 		-36.5 		122.858
v -92.919 		-36.5 		122.142
v -72.992 		-36.5 		109.572
v -72.992 		-36.5 		111.786
v -71.124 		-36.5 		108.686
v -32.768 		79 		96.5
v -69.879 		-36.5 		107.358
v -69.879 		-36.5 		109.572
v -117.83 		-21 		141.185
v -66.765 		-36.5 		107.358
v -116.584 		-21 		142.071
v 81.036 		79.75 		64.115
v -116.584 		-21 		139.857
v -54.424 		97 		97.5
v -54.424 		95 		97.5
v -54.424 		95 		96.5
v -54.924 		92.5 		96.5
v 38.691 		96.25 		95.286
v -54.424 		92.5 		96.5
v 38.691 		96.25 		97.5
v -77.351 		-36.5 		113.115
v -76.106 		-36.5 		111.786
v 37.445 		96.25 		96.614
v -76.106 		-36.5 		114.001
v -79.219 		-36.5 		114.001
v 91.577 		97 		44.5
v -80.465 		-36.5 		113.115
v -77.351 		-36.5 		110.901
v -74.238 		-36.5 		110.901
v -74.238 		-36.5 		108.686
v -57.424 		97 		97.5
v -57.424 		95 		97.5
v -57.424 		95 		96.5
v 88.077 		97 		44.5
v 40.559 		96.25 		94.4
v -57.924 		92.5 		96.5
v 37.445 		96.25 		94.4
v -57.424 		92.5 		96.5
v 91.577 		97 		0.5
v 88.077 		97 		0.5
v 91.577 		73.505 		0.5
v 88.077 		73.505 		0.5
v 91.577 		73.505 		21.503
v 35.577 		96.25 		97.5
v 88.077 		73.505 		21.503
v 91.577 		3 		44.5
v -122.811 		-21 		146.5
v -66.765 		-36.5 		105.143
v -122.811 		-21 		144.286
v -68.01 		-36.5 		106.472
v -68.01 		-36.5 		104.257
v 88.077 		3 		44.5
v -71.124 		-36.5 		106.472
v -120.943 		-21 		143.4
v -54.924 		76 		96.5
v -54.924 		79 		96.5
v -119.698 		-21 		144.286
v -119.698 		-21 		142.071
v -120.943 		-21 		141.185
v 88.077 		59.497 		0.5
v 91.577 		59.497 		0.5
v 91.577 		59.497 		21.503
v 88.077 		59.497 		21.503
v 91.577 		3 		0.5
v 88.077 		3 		0.5
v 121.583 		0 		0.5
v 121.583 		3 		0.5
v 35.577 		96.25 		96.614
v 88.077 		-29.003 		0.5
v 107.575 		3 		0.5
v 91.577 		-29.003 		0.5
v 107.575 		0 		0.5
v 91.577 		0 		0.5
v 91.577 		-14.994 		0.5
v 88.077 		-14.994 		0.5
v 88.077 		0 		0.5
v 22.079 		-41.25 		0.5
v 22.079 		-38.25 		0.5
v 91.577 		-29.003 		21.503
v 8.071 		-38.25 		0.5
v 8.071 		-41.25 		0.5
v 91.577 		-14.994 		21.503
v -104.13 		-36.5 		130.999
v -105.375 		-36.5 		130.114
v -102.261 		-36.5 		130.114
v 88.077 		-29.003 		21.503
v -99.148 		-36.5 		127.899
v 35.305 		95 		96.5
v -99.148 		-36.5 		125.685
v 8.069 		-38.25 		0.998
v 8.071 		-38.25 		0.998
v 88.077 		-14.994 		21.503
v -101.016 		-36.5 		128.785
v -102.261 		-36.5 		127.899
v -101.016 		-36.5 		130.999
v 8.071 		-41.25 		0.998
v 8.069 		-41.25 		0.998
v 121.583 		3 		21.503
v 127.447 		-76.5 		48.52
v 107.575 		3 		21.503
v 127.447 		-79.5 		48.52
v 121.583 		0 		21.503
v 107.575 		0 		21.503
v -149.775 		100 		146.5
v -149.427 		100 		146.5
v -145.927 		100 		146.5
v -113.635 		-17.5 		96.5
v -145.927 		100 		147
v -149.427 		100 		147
v -149.775 		100 		100.5
v -116.635 		-17.5 		96.5
v 40.559 		96.25 		92.185
v -117.83 		-21 		138.971
v -114.716 		-21 		138.971
v -114.716 		-21 		136.757
v -145.927 		-20.5 		147
v 81.077 		-79.5 		51.52
v -149.427 		-20.5 		147
v 81.077 		-95 		51.52
v -54.924 		76 		70.503
v 147.078 		34 		142.5
v -12.724 		-23 		48.52
v -57.924 		76.505 		70.503
v 78.314 		-79.5 		51.52
v 78.314 		-95 		51.52
v 147.078 		97 		142.5
v -55.924 		76 		70.503
v -55.924 		76.505 		70.503
v 147.078 		37 		142.5
v -9.424 		0 		44.5
v 147.078 		95 		100.52
v -14.547 		34 		121.503
v -28.555 		34 		121.503
v -12.724 		-20 		48.52
v 91.577 		-77 		44.5
v 147.078 		76 		96.5
v -12.424 		0 		44.5
v 88.077 		-77 		44.5
v 141.456 		76 		70.503
v 147.078 		95 		96.5
v 147.078 		79 		96.5
v -14.922 		0 		44.5
v 141.456 		79 		70.503
v 50.032 		-80 		41.857
v -14.547 		37 		121.503
v 147.078 		34 		100.52
v -28.555 		37 		121.503
v 140.393 		34 		100.52
v 140.393 		34 		121.503
v 147.078 		37 		100.52
v 140.393 		37 		100.52
v 140.393 		37 		121.503
v 78.314 		-79.5 		48.52
v 39.827 		97 		44.5
v -14.547 		34 		100.52
v 81.077 		-79.5 		48.52
v -5.799 		34 		100.52
v 147.078 		76 		49.5
v -7.224 		37 		100.52
v -14.547 		37 		100.52
v -7.224 		37.04 		100.52
v 141.456 		76 		49.5
v 77.089 		-80 		48
v 147.078 		97 		48.52
v 147.078 		79 		49.5
v 147.078 		97 		44.5
v 77.089 		-79.5 		48.52
v 141.456 		79 		49.5
v 77.089 		-79.5 		48.5
v 42.827 		97 		44.5
v 77.089 		-79.348 		48.5
v 48.032 		96.25 		88.642
v 46.786 		96.25 		87.757
v 46.786 		96.25 		89.971
v 77.089 		-79.348 		48
v 147.078 		97 		0.5
v 77.089 		-80 		44.5
v -58.204 		-20.5 		49
v -58.204 		-17.5 		49
v 147.078 		3 		0.5
v 43.672 		96.25 		89.971
v 147.078 		0 		0.5
v 147.078 		3 		44.5
v -9.424 		-38.25 		44.5
v -9.424 		-41.25 		44.5
v 15.774 		76 		49.5
v 15.774 		79 		49.5
v -125.347 		-21 		146.5
v 60.486 		79.75 		81.999
v 57.372 		79.75 		81.999
v -125.347 		-21 		145.614
v -124.057 		-21 		145.614
v -124.057 		-21 		143.4
v 57.372 		79.75 		84.214
v 80.277 		34 		142.5
v 29.833 		79 		49.5
v 29.833 		76 		49.5
v 81.077 		-95 		48.52
v -5.799 		34.04 		100.52
v 78.314 		-95 		48.52
v 77.089 		-95 		48.52
v 77.089 		-95 		44.5
v 42.827 		97 		0.5
v 39.827 		97 		0.5
v -58.924 		-42 		44.5
v 42.827 		72.505 		0.5
v -58.924 		-39 		44.5
v 39.827 		72.505 		0.5
v -28.555 		34 		100.52
v 42.827 		72.505 		21.503
v -28.555 		37 		100.52
v 77.277 		34 		142.5
v 127.072 		-77 		21.503
v -125.347 		-21 		146.52
v 39.827 		72.505 		21.503
v -125.347 		-21 		144.645
v 127.072 		-80 		21.503
v -125.347 		-21 		146.645
v 42.827 		3 		44.5
v 62.486 		-80 		32.999
v 127.072 		-77 		0.5
v 127.072 		-80 		0.5
v 59.372 		-80 		32.999
v 59.372 		-80 		35.214
v -58.344 		45.5 		96.5
v -58.344 		48.5 		96.5
v 58.127 		-80 		34.328
v -9.424 		0 		0.5
v -12.424 		0 		0.5
v -54.924 		62.497 		70.503
v -57.924 		62.497 		70.503
v -9.424 		-38.25 		0.5
v -9.424 		-41.25 		0.5
v 56.259 		-80 		37.428
v 53.145 		-80 		37.428
v 53.145 		-80 		39.642
v 51.9 		-80 		38.757
v 39.827 		3 		44.5
v -54.924 		-63.497 		21.503
v 50.032 		-80 		39.642
v 49.9 		79.75 		87.757
v -54.924 		-63.497 		0.5
v 51.145 		79.75 		86.428
v -58.924 		-39 		0.5
v 51.145 		79.75 		88.642
v -58.924 		-42 		0.5
v 54.259 		79.75 		86.428
v 39.827 		58.497 		0.5
v 42.827 		58.497 		0.5
v 42.827 		58.497 		21.503
v -57.924 		-63.497 		21.503
v -57.924 		-63.497 		0.5
v 102.964 		-80 		4.929
v 39.827 		58.497 		21.503
v 99.85 		-80 		7.143
v 99.85 		-80 		4.929
v -12.724 		-79.48 		48.52
v 42.827 		3 		0.5
v 23.082 		0 		0.5
v 23.082 		3 		0.5
v 39.827 		3 		0.5
v -12.724 		-76.48 		48.52
v -12.724 		-95 		48.52
v 98.604 		-80 		6.257
v 51.9 		-80 		36.542
v 55.013 		-80 		36.542
v -15.724 		-95 		48.52
v 55.013 		-80 		34.328
v 7.264 		34 		142.5
v 56.259 		-80 		35.214
v 49.9 		79.75 		85.542
v 53.013 		79.75 		85.542
v 54.259 		79.75 		84.214
v 12.777 		37 		142.5
v 12.777 		37.04 		142.5
v 53.013 		79.75 		83.328
v 56.127 		79.75 		83.328
v -9.424 		-95 		44.5
v -12.424 		-95 		44.5
v 3.277 		34.04 		142.5
v 7.264 		34.04 		142.5
v 106.078 		-80 		0.5
v 104.833 		-80 		0.5
v -54.924 		-83.005 		49.5
v 106.078 		-80 		2.714
v -54.924 		-95 		49.5
v -54.924 		-68.997 		49.5
v -57.924 		-83.005 		49.5
v -57.924 		-95 		49.5
v 102.964 		-80 		2.714
v -57.924 		-68.997 		49.5
v 0.277 		34.04 		142.5
v 43.804 		-80 		46.286
v 42.827 		-80 		46.286
v 104.833 		-80 		1.829
v 42.827 		-80 		47.5
v -54.924 		-95 		44.5
v 9.074 		3 		0.5
v 9.074 		0 		0.5
v 101.719 		-80 		1.829
v -57.924 		-95 		44.5
v 98.604 		-80 		4.043
v 41.804 		79.75 		95.286
v 101.719 		-80 		4.043
v 77.594 		95 		100.503
v 77.594 		80.116 		100.503
v 23.082 		3 		21.503
v 9.074 		3 		21.503
v 48.786 		-80 		40.971
v 41.804 		79.75 		93.071
v 45.672 		-80 		40.971
v 42.827 		-80 		43.185
v 45.672 		-80 		43.185
v 127.447 		76 		70.503
v 43.804 		-80 		44.071
v -9.424 		-95 		0.5
v -12.424 		-95 		0.5
v 44.918 		79.75 		93.071
v 46.918 		-80 		44.071
v 127.447 		79 		70.503
v 46.918 		-80 		41.857
v 43.672 		79.75 		92.185
v 23.082 		0 		21.503
v 9.074 		0 		21.503
v -12.724 		7.52 		96.5
v -15.724 		7.52 		96.5
v 44.918 		79.75 		90.857
v 48.032 		79.75 		90.857
v 147.078 		0 		44.5
v 77.594 		95 		96.5
v 77.594 		80.116 		96.5
v -54.924 		28.502 		70.503
v 91.577 		0 		44.5
v -54.924 		14.494 		70.503
v 42.827 		-77 		44.5
v -54.924 		-95 		0.5
v -54.924 		-77.505 		0.5
v -54.924 		-77.505 		21.503
v -57.924 		28.502 		70.503
v -57.924 		14.494 		70.503
v -57.924 		14.494 		96.5
v -57.924 		-77.505 		21.503
v -57.924 		-77.505 		0.5
v -57.924 		-95 		0.5
v 38.287 		-76.5 		48.52
v 82.282 		96.25 		67.215
v 38.287 		-76.48 		48.52
v 38.691 		80.116 		96.5
v 38.691 		80.116 		97.5
v -73.224 		78.503 		121.503
v 88.077 		0 		44.5
v 37.445 		80.116 		96.5
v 37.445 		80.116 		96.614
v 38.287 		-79.48 		48.5
v 38.287 		-79.348 		48.5
v 38.287 		-79.348 		48
v -76.224 		78.503 		121.503
v 38.287 		-79.48 		48
v 42.827 		0 		44.5
v 39.827 		0 		44.5
v -73.224 		97 		100.52
v -76.224 		97 		100.52
v 38.691 		79.75 		96.5
v -76.224 		95 		100.52
v -73.224 		95 		100.52
v -116.635 		-17.5 		49
v -113.635 		-17.5 		49
v 37.445 		79.75 		96.5
v 37.577 		-80 		48.5
v 40.691 		-80 		48.5
v 40.691 		-80 		47.5
v 39.445 		-80 		47.614
v 39.445 		-80 		47.5
v 37.577 		-80 		47.614
v 38.691 		79.75 		95.286
v 40.691 		-80 		48
v -116.498 		-95 		0.5
v 37.577 		-80 		48
v -116.498 		-95 		21.503
v -130.503 		-95 		21.503
v -130.503 		-95 		0.5
v -73.224 		78.503 		100.52
v -76.224 		78.503 		100.52
v 35.084 		-79.5 		48.52
v 146.578 		-19.415 		142.5
v 35.084 		-80 		47.5
v 35.084 		-80 		48
v 146.578 		-21 		142.5
v 35.084 		-79.5 		48.5
v 35.084 		-79.48 		48
v 35.084 		-79.48 		48.5
v 147.078 		-20.998 		142.5
v -73.224 		64.495 		121.503
v 39.827 		-77 		44.5
v 34.577 		-77 		44.5
v -76.224 		64.495 		121.503
v -145.927 		-19.415 		142.5
v 48.786 		-80 		38.757
v 102.964 		-95 		4.929
v -145.927 		-19.415 		146
v 98.604 		-95 		6.257
v -146.925 		-19.415 		146
v -73.224 		34 		100.52
v 99.85 		-95 		4.929
v -73.224 		37 		100.52
v -145.347 		-21 		146.645
v -145.347 		-21 		146.52
v -73.224 		64.495 		100.52
v -76.224 		34 		100.52
v 99.85 		-95 		7.143
v -76.224 		37 		100.52
v -76.224 		64.495 		100.52
v 146.578 		-21 		100.52
v 50.032 		-95 		41.857
v 37.445 		79.75 		94.4
v 40.559 		79.75 		94.4
v 72.941 		96.25 		73.858
v 69.827 		96.25 		73.858
v -126.169 		34 		121.503
v -145.927 		-20.5 		146.52
v -126.169 		34 		100.52
v 147.078 		-20.998 		100.52
v -126.169 		37 		121.503
v -145.347 		-21 		144.645
v -126.169 		37 		100.52
v 146.578 		-19.415 		100.52
v 35.577 		80.116 		97.5
v 35.577 		80.116 		96.614
v 69.827 		96.25 		75.356
v 147.078 		-23 		96.5
v 35.305 		80.116 		96.5
v 147.078 		-20 		96.5
v 66.713 		96.25 		77.571
v 66.713 		96.25 		75.356
v 68.582 		96.25 		74.47
v 106.078 		-95 		0.5
v 104.833 		-95 		0.5
v -112.925 		45.5 		96.5
v 106.078 		-95 		2.714
v 102.964 		-95 		2.714
v -137.925 		-31.693 		144.645
v -112.925 		48.5 		96.5
v 104.833 		-95 		1.829
v -145.084 		-31.693 		144.645
v -113.635 		48 		96.5
v -116.635 		48 		96.5
v 76.054 		96.25 		71.644
v -148.925 		-21 		146.52
v -148.925 		-20.5 		146.52
v -148.925 		-20.5 		146.5
v -148.925 		-20.998 		146.5
v -149.775 		-20.998 		146.5
v -149.427 		-20.5 		146.5
v 74.809 		96.25 		70.758
v 98.604 		-95 		4.043
v -9.424 		97 		44.5
v 101.719 		-95 		1.829
v -105.375 		-36.5 		132.328
v -104.13 		-36.5 		133.214
v 101.719 		-95 		4.043
v -145.347 		-37 		144.645
v -145.347 		-37 		146.645
v 79.168 		96.25 		69.429
v 76.054 		96.25 		69.429
v -12.424 		97 		44.5
v -113.47 		-36.5 		139.857
v 81.036 		96.25 		66.329
v -113.47 		-36.5 		137.642
v -137.925 		-36.693 		144.645
v -111.602 		-36.5 		136.757
v -110.357 		-36.5 		135.428
v 77.922 		96.25 		66.329
v -110.357 		-36.5 		137.642
v -145.084 		-36.693 		144.645
v -107.243 		-36.5 		135.428
v 79.168 		96.25 		67.215
v 83.036 		-80 		17.329
v 84.282 		-80 		18.215
v 77.922 		96.25 		68.544
v -54.424 		97 		49.5
v -54.424 		92.5 		49.5
v -54.924 		92.5 		49.5
v -111.602 		-36.5 		134.542
v -108.489 		-36.5 		134.542
v -107.243 		-36.5 		133.214
v -108.489 		-36.5 		132.328
v -57.924 		92.5 		49.5
v 74.941 		-80 		24.858
v -57.424 		97 		49.5
v -57.424 		92.5 		49.5
v -117.83 		-36.5 		141.185
v -116.584 		-36.5 		139.857
v -116.584 		-36.5 		142.071
v -54.924 		79 		49.5
v 147.078 		-98 		100.517
v 147.078 		-98 		100.5
v -57.924 		76.505 		49.5
v -55.924 		76 		49.5
v -55.924 		76.505 		49.5
v 147.078 		-76.5 		96.5
v 141.456 		-76.5 		70.166
v -122.811 		-36.5 		146.5
v 147.078 		-95 		96.5
v 147.078 		-79.5 		96.5
v -122.811 		-36.5 		144.286
v -54.924 		97 		44.5
v -120.943 		-36.5 		143.4
v 141.456 		-79.5 		70.166
v -119.698 		-36.5 		144.286
v -119.698 		-36.5 		142.071
v -120.943 		-36.5 		141.185
v -146.925 		-19.415 		100.52
v -57.924 		97 		44.5
v 147.078 		-23 		48.52
v 147.078 		-20 		48.52
v -9.424 		97 		0.5
v -12.424 		97 		0.5
v -137.925 		-31.693 		100.645
v 65.6 		-80 		30.785
v -117.83 		-36.5 		138.971
v -114.716 		-36.5 		138.971
v -145.084 		-31.693 		100.645
v -114.716 		-36.5 		136.757
v 70.582 		-80 		25.47
v -125.347 		-36.5 		146.5
v -54.924 		82.005 		21.503
v 71.827 		-80 		24.858
v -54.924 		67.997 		21.503
v -125.347 		-36.5 		145.614
v -124.057 		-36.5 		145.614
v 147.078 		-76.5 		48.52
v -124.057 		-36.5 		143.4
v 67.468 		-80 		25.47
v 141.456 		-76.5 		48.52
v 68.713 		-80 		28.571
v 65.6 		-80 		28.571
v -57.924 		82.005 		21.503
v 68.713 		-80 		26.356
v -57.924 		67.997 		21.503
v -125.347 		-37 		146.645
v 147.078 		-77 		44.5
v -125.347 		-37 		144.645
v 67.468 		-80 		27.685
v 147.078 		-79.5 		48.52
v -54.924 		97 		0.5
v 141.456 		-79.5 		48.52
v -54.924 		82.005 		0.5
v 71.827 		-80 		26.356
v -54.924 		67.997 		0.5
v 74.809 		96.25 		68.544
v -57.924 		97 		0.5
v -57.924 		82.005 		0.5
v -57.924 		67.997 		0.5
v 147.078 		-80 		44.5
v 147.078 		-95 		48.52
v 72.941 		96.25 		71.644
v 147.078 		-95 		44.5
v 40.559 		79.75 		92.185
v -54.924 		62.497 		49.5
v 68.582 		96.25 		73.142
v -57.344 		-19.415 		100.52
v 69.827 		96.25 		73.142
v 141.081 		-77 		21.503
v -57.924 		62.497 		49.5
v -63.651 		-21 		105.143
v -63.651 		-21 		102.929
v 141.081 		-80 		21.503
v -64.897 		-21 		104.257
v 69.827 		96.25 		72.972
v 71.695 		96.25 		72.972
v -60.538 		-21 		102.929
v 62.486 		-95 		32.999
v 59.372 		-95 		32.999
v -58.924 		51.5 		44.5
v -58.924 		54.5 		44.5
v 147.078 		-77 		0.5
v 59.372 		-95 		35.214
v 147.078 		-95 		0.5
v 147.078 		-80 		0.5
v -57.924 		49.152 		44.5
v 141.081 		-80 		0.5
v 141.081 		-77 		0.5
v -57.424 		-21 		100.52
v 48.032 		79.75 		88.642
v -57.424 		-21 		100.714
v 46.786 		79.75 		89.971
v 46.786 		79.75 		87.757
v -60.538 		-21 		100.714
v 71.695 		96.25 		70.758
v -64.897 		-21 		102.043
v -61.783 		-21 		102.043
v -58.344 		45.5 		49
v -58.344 		48.5 		49
v 43.672 		79.75 		89.971
v -61.783 		-21 		100.52
v -9.424 		3 		44.5
v 58.127 		-95 		34.328
v -14.922 		3 		44.5
v -12.424 		3 		44.5
v 78.054 		-80 		22.644
v 74.941 		-80 		22.644
v 56.259 		-95 		37.428
v 53.145 		-95 		37.428
v 76.809 		-80 		21.758
v 53.145 		-95 		39.642
v -15.724 		7.52 		48.52
v -12.724 		7.52 		48.52
v 51.9 		-95 		38.757
v 50.032 		-95 		39.642
v 81.168 		-80 		20.429
v 78.054 		-80 		20.429
v 79.922 		-80 		17.329
v 81.168 		-80 		18.215
v 79.922 		-80 		19.544
v -54.924 		28.502 		49.5
v -54.924 		14.494 		49.5
v 51.9 		-95 		36.542
v 55.013 		-95 		36.542
v 55.013 		-95 		34.328
v 82.282 		79.75 		67.215
v 76.809 		-80 		19.544
v -57.924 		28.502 		49.5
v -63.651 		-36.5 		102.929
v -64.897 		-36.5 		104.257
v -57.924 		14.494 		49.5
v -63.651 		-36.5 		105.143
v -60.538 		-36.5 		102.929
v 56.259 		-95 		35.214
v 71.827 		-80 		23.972
v -9.424 		50.995 		0.5
v 71.827 		-80 		24.142
v -9.424 		50.995 		21.503
v 42.827 		-82.5 		46.286
v 72.941 		79.75 		73.858
v 73.695 		-80 		21.758
v -9.424 		65.003 		21.503
v 73.695 		-80 		23.972
v -9.424 		65.003 		0.5
v 42.827 		-82.5 		47.5
v -12.424 		50.995 		21.503
v -12.424 		50.995 		0.5
v -12.424 		65.003 		21.503
v 69.827 		79.75 		73.858
v 70.582 		-80 		24.142
v -57.424 		-36.5 		100.52
v -61.783 		-36.5 		100.52
v -12.424 		65.003 		0.5
v -61.783 		-36.5 		102.043
v -60.538 		-36.5 		100.714
v 69.827 		79.75 		75.356
v -64.897 		-36.5 		102.043
v 42.559 		-82.5 		45.4
v 66.713 		79.75 		75.356
v 66.713 		79.75 		77.571
v -57.424 		-36.5 		100.714
v 68.582 		79.75 		74.47
v -54.924 		34.003 		21.503
v -54.924 		34.003 		0.5
v -58.924 		54.5 		0.5
v -58.924 		51.5 		0.5
v -147.925 		-21 		100.52
v 83.036 		-95 		17.329
v 62.354 		96.25 		78.899
v 60.486 		96.25 		79.785
v 63.6 		96.25 		79.785
v 84.282 		-95 		18.215
v -57.924 		34.003 		0.5
v -57.924 		34.003 		21.503
v 59.241 		96.25 		81.114
v -9.424 		3 		0.5
v -14.922 		0 		0.5
v -14.922 		3 		0.5
v -12.424 		3 		0.5
v -12.724 		-23 		96.5
v 42.827 		-82.5 		43.185
v 42.559 		-82.5 		43.185
v -12.724 		-20 		96.5
v -147.925 		-20.998 		100.517
v -54.924 		19.994 		21.503
v -147.925 		-20.998 		100.52
v -54.924 		19.994 		0.5
v -57.924 		19.994 		21.503
v -57.924 		19.994 		0.5
v 77.277 		-19 		142.5
v 80.277 		-19 		142.5
v 76.054 		79.75 		71.644
v -112.925 		45.5 		49
v -112.925 		48.5 		49
v -116.635 		48 		49
v -113.635 		48 		49
v -58.204 		-20.5 		96.5
v -58.204 		-17.5 		96.5
v 40.691 		-82.5 		47.5
v 74.809 		79.75 		70.758
v 40.691 		-82.5 		46.286
v 40.077 		-82.5 		45.4
v 74.941 		-95 		24.858
v -145.927 		98.5 		146.5
v -145.927 		98.5 		146.52
v -12.724 		-79.48 		96.5
v -145.927 		97 		142.5
v -12.724 		-76.48 		96.5
v -12.724 		-95 		96.5
v -145.927 		97 		146
v -146.925 		97 		146
v -15.724 		-95 		96.5
v 32.768 		-19.415 		142.5
v 59.241 		96.25 		78.899
v -54.924 		-95 		96.5
v -54.924 		-83.005 		70.503
v -54.924 		-68.997 		70.503
v -57.924 		-83.005 		70.503
v -57.924 		-68.997 		70.503
v -57.924 		-95 		96.5
v -148.925 		-20.998 		100.52
v -148.925 		-21 		100.52
v 65.6 		-95 		30.785
v 65.468 		96.25 		74.47
v 65.468 		96.25 		76.685
v 63.6 		96.25 		77.571
v 70.582 		-95 		25.47
v 62.354 		96.25 		76.685
v 71.827 		-95 		24.858
v 67.468 		-95 		25.47
v 0.277 		-19 		142.5
v 3.277 		-19 		142.5
v 68.713 		-95 		28.571
v 65.6 		-95 		28.571
v 68.713 		-95 		26.356
v 67.468 		-95 		27.685
v 76.054 		79.75 		69.429
v 79.168 		79.75 		69.429
v 129.086 		-21 		121.503
v 56.127 		96.25 		81.114
v 115.077 		-21 		121.503
v 129.086 		-19.415 		121.503
v 81.036 		79.75 		66.329
v 115.077 		-19.415 		121.503
v 43.804 		-95 		46.286
v 129.086 		-21 		100.52
v 115.077 		-21 		100.52
v 42.559 		-95 		45.4
v 77.922 		79.75 		66.329
v 129.086 		-19.415 		100.52
v -80.465 		-21 		115.329
v 115.077 		-19.415 		100.52
v 79.168 		79.75 		67.215
v -79.219 		-21 		116.215
v 45.672 		-95 		40.971
v 48.786 		-95 		40.971
v 77.922 		79.75 		68.544
v 42.559 		-95 		43.185
v 45.672 		-95 		43.185
v -149.775 		-20.998 		100.517
v 46.918 		-95 		41.857
v 62.354 		79.75 		78.899
v 63.6 		79.75 		79.785
v 60.486 		79.75 		79.785
v 59.241 		79.75 		81.114
v 59.241 		79.75 		78.899
v -97.901 		-21 		128.785
v 43.804 		-95 		44.071
v 46.918 		-95 		44.071
v -94.788 		-21 		126.571
v -97.901 		-21 		126.571
v -94.788 		-21 		124.356
v -96.033 		-21 		125.685
v 80.277 		-19 		100.52
v 77.277 		-19 		100.52
v 74.809 		79.75 		68.544
v -91.674 		-21 		124.356
v -96.033 		-21 		123.47
v -92.919 		-21 		123.47
v 122.584 		-20 		69.62
v 122.584 		-23 		69.62
v -137.925 		-36.693 		100.645
v -145.084 		-36.693 		100.645
v -145.927 		34 		142.5
v 72.941 		79.75 		71.644
v -145.927 		37 		142.5
v 68.582 		79.75 		73.142
v 69.827 		79.75 		73.142
v 40.691 		-95 		48.5
v 37.577 		-95 		48.5
v -145.927 		34 		146
v 39.445 		-95 		47.5
v 39.445 		-95 		47.614
v -145.927 		37 		146
v -146.925 		-20.5 		96.5
v -146.925 		34 		146
v 108.576 		-20 		69.62
v 108.576 		-23 		69.62
v -146.925 		37 		131.072
v 40.691 		-95 		46.286
v -146.925 		37 		146
v 40.077 		-95 		45.4
v -146.925 		-17.5 		96.5
v 37.577 		-95 		47.614
v 69.827 		79.75 		72.972
v -88.56 		-21 		122.858
v 127.447 		-76.5 		70.166
v -89.806 		-21 		121.972
v 65.468 		79.75 		76.685
v 65.468 		79.75 		74.47
v -89.806 		-21 		119.758
v 71.695 		79.75 		72.972
v 63.6 		79.75 		77.571
v 62.354 		79.75 		76.685
v -85.447 		-21 		120.644
v 35.084 		-95 		48.52
v -88.56 		-21 		120.644
v 127.447 		-79.5 		70.166
v -86.692 		-21 		119.758
v 35.084 		-95 		47.5
v 71.695 		79.75 		70.758
v 34.577 		-95 		44.5
v 56.127 		79.75 		81.114
v 32.768 		-19.415 		100.52
v -82.333 		-21 		118.429
v -85.447 		-21 		118.429
v -146.925 		-98 		100.5
v -146.925 		-98 		100.517
v -83.579 		-21 		115.329
v -82.333 		-21 		116.215
v -147.925 		-98 		100.517
v -83.579 		-21 		117.544
v -147.925 		-98 		100.52
v 48.786 		-95 		38.757
v 0.277 		-19 		100.52
v 3.277 		-19 		100.52
v -146.925 		-95 		96.5
v 15.774 		76 		70.503
v 15.774 		79 		70.503
v -86.692 		-21 		117.544
v -146.898 		-42 		44.5
v 29.833 		76 		70.503
v 29.833 		79 		70.503
v -146.898 		-39 		44.5
v 24.083 		-23 		69.62
v 10.075 		-23 		69.62
v -91.674 		-21 		121.972
v -91.674 		-21 		122.142
v 24.083 		-20 		69.62
v 10.075 		-20 		69.62
v -92.919 		-21 		122.142
v -146.925 		-17.5 		49
v -146.925 		-20.5 		49
v -91.674 		-21 		122.858
v -149.775 		97 		100.5
v 8.327 		-79.5 		48.52
v 15.774 		-79.5 		48.52
v 29.833 		-79.5 		48.52
v 8.327 		-79.48 		48.52
v 15.774 		-79.48 		48.52
v 38.287 		-76.5 		96.5
v 29.833 		-79.48 		48.52
v 29.753 		-79.48 		48.598
v 15.954 		-79.48 		48.598
v 38.287 		-76.48 		96.5
v 14.711 		34 		121.503
v 28.77 		34 		121.503
v 15.954 		-76.48 		48.598
v 29.753 		-76.48 		48.598
v -146.898 		-42 		0.5
v -146.898 		-39 		0.5
v 14.711 		37 		121.503
v 28.77 		37 		121.503
v -146.925 		95 		100.52
v 8.327 		-79.5 		96.5
v -146.925 		95 		96.5
v 8.327 		-79.48 		96.5
v 15.774 		-79.5 		70.166
v -140.228 		34 		100.52
v 29.833 		-79.5 		70.166
v -146.925 		34 		100.52
v -140.228 		34 		121.503
v 15.774 		-79.48 		70.166
v 58.127 		-80 		32.114
v -146.925 		37 		100.52
v -140.228 		37 		100.52
v 28.77 		34 		100.52
v 29.833 		-79.48 		70.166
v 28.77 		37 		100.52
v 62.486 		-80 		30.785
v -140.228 		37 		121.503
v 64.354 		-80 		27.685
v 64.354 		-80 		29.899
v -146.925 		-95 		0.5
v 61.241 		-80 		29.899
v -72.992 		-21 		111.786
v -146.925 		-95 		48.52
v 61.241 		-80 		32.114
v -146.925 		-95 		44.5
v -146.925 		97 		0.5
v -146.925 		97 		48.52
v -146.925 		97 		44.5
v 15.954 		-79.48 		69.603
v 29.753 		-79.48 		69.603
v 71.827 		-95 		26.356
v -149.775 		97 		0.5
v 56.083 		-80 		21.503
v 29.753 		-76.48 		69.603
v 15.954 		-76.48 		69.603
v 14.711 		34 		100.52
v -146.898 		51.5 		0.5
v -146.898 		54.5 		0.5
v 14.711 		37 		100.52
v 12.777 		37 		100.52
v 56.083 		-77 		21.503
v -146.898 		51.5 		44.5
v 12.777 		37.04 		100.52
v -146.898 		54.5 		44.5
v 108.576 		-20 		48.52
v 108.576 		-23 		48.52
v 122.584 		-23 		48.52
v 122.584 		-20 		48.52
v 42.827 		-80 		21.503
v 42.827 		-77 		21.503
v 7.264 		34 		100.52
v 7.264 		34.04 		100.52
v 3.277 		34.04 		100.52
v 58.127 		-95 		32.114
v 0.277 		34.04 		100.52
v 62.486 		-95 		30.785
v 64.354 		-95 		27.685
v 64.354 		-95 		29.899
v -65.536 		-19.415 		142.5
v 61.241 		-95 		29.899
v 61.241 		-95 		32.114
v 99.719 		96.25 		53.043
v -76.224 		-19 		142.5
v -73.224 		-19 		142.5
v 99.719 		96.25 		50.829
v 78.054 		-95 		22.644
v 74.941 		-95 		22.644
v 102.833 		96.25 		49.5
v 104.078 		96.25 		49.5
v 104.078 		96.25 		51.714
v 76.809 		-95 		21.758
v 100.964 		96.25 		51.714
v 102.833 		96.25 		50.829
v 81.168 		-95 		20.429
v 78.054 		-95 		20.429
v -104.13 		-21 		133.214
v -72.992 		-21 		109.572
v 79.922 		-95 		17.329
v -105.375 		-21 		132.328
v 81.168 		-95 		18.215
v -71.124 		-21 		108.686
v 56.083 		-80 		0.5
v 56.083 		-77 		0.5
v 79.922 		-95 		19.544
v -69.879 		-21 		109.572
v -69.879 		-21 		107.358
v 100.964 		96.25 		53.929
v -66.765 		-21 		107.358
v 40.077 		-80 		0.5
v 34.577 		-80 		0.5
v 127.447 		76 		49.5
v 127.447 		79 		49.5
v 76.809 		-95 		19.544
v -113.47 		-21 		139.857
v 34.577 		-77 		0.5
v 39.827 		-77 		0.5
v 99.719 		79.75 		53.043
v 99.719 		79.75 		50.829
v 71.827 		-95 		23.972
v 71.827 		-95 		24.142
v 73.695 		-95 		21.758
v 73.695 		-95 		23.972
v 100.964 		79.75 		51.714
v 102.833 		79.75 		50.829
v 104.078 		79.75 		51.714
v -77.351 		-21 		110.901
v -74.238 		-21 		110.901
v 102.833 		79.75 		49.5
v 70.582 		-95 		24.142
v 104.078 		79.75 		49.5
v -76.106 		-21 		111.786
v -76.106 		-21 		114.001
v -77.351 		-21 		113.115
v 40.077 		-82.5 		0.5
v -80.465 		-21 		113.115
v -79.219 		-21 		114.001
v 42.827 		-82.5 		0.5
v 90.509 		-80 		13.786
v 100.964 		79.75 		53.929
v 90.509 		-80 		11.572
v 92.377 		-80 		10.686
v 92.377 		-80 		8.472
v 91.622 		96.25 		58.358
v 95.491 		-80 		8.472
v 90.377 		96.25 		59.686
v 93.491 		96.25 		57.472
v -74.238 		-21 		108.686
v 90.377 		96.25 		57.472
v 94.736 		96.25 		58.358
v 91.622 		96.25 		60.572
v 93.622 		-80 		11.572
v 93.622 		-80 		9.358
v 96.736 		-80 		9.358
v 40.077 		-95 		0.5
v 40.077 		-96 		0.5
v 85.395 		96.25 		62.786
v 85.395 		96.25 		65.001
v 34.577 		-95 		0.5
v 82.282 		96.25 		65.001
v 34.577 		-96 		0.5
v 84.15 		96.25 		64.115
v 89.263 		-80 		12.901
v 86.15 		-80 		12.901
v 87.395 		-80 		16.001
v 87.395 		-80 		13.786
v 84.282 		-80 		16.001
v 83.036 		-80 		15.115
v 88.509 		96.25 		62.786
v 86.15 		-80 		15.115
v 84.15 		96.25 		61.901
v -66.765 		-21 		105.143
v 87.263 		96.25 		61.901
v -5.799 		34 		142.5
v -7.224 		37.04 		142.5
v -7.224 		37 		142.5
v 88.509 		96.25 		60.572
v -71.124 		-21 		106.472
v 87.263 		96.25 		59.686
v -5.799 		34.04 		142.5
v -68.01 		-21 		104.257
v -68.01 		-21 		106.472
v 89.263 		-80 		10.686
v 88.077 		-77 		0.5
v 91.577 		-77 		0.5
v -73.224 		97 		142.5
v -76.224 		97 		142.5
v -73.224 		-19 		100.52
v 95.491 		-80 		6.257
v 96.736 		-80 		7.143
v -76.224 		-19 		100.52
v 96.604 		96.25 		53.043
v 97.85 		96.25 		53.929
v 94.736 		96.25 		56.143
v 96.604 		96.25 		55.257
v 97.85 		96.25 		56.143
v -104.13 		-21 		130.999
v -102.261 		-21 		130.114
v -102.261 		-21 		127.899
v -101.016 		-21 		130.999
v -101.016 		-21 		128.785
v -99.148 		-21 		127.899
v -105.375 		-21 		130.114
v 90.509 		-95 		13.786
v 90.509 		-95 		11.572
v 92.377 		-95 		10.686
v 92.377 		-95 		8.472
v 95.491 		-95 		8.472
v 93.622 		-95 		11.572
v 93.622 		-95 		9.358
v 96.736 		-95 		9.358
v 89.263 		-95 		10.686
v 89.263 		-95 		12.901
v 86.15 		-95 		12.901
v 87.395 		-95 		13.786
v 87.395 		-95 		16.001
v 84.282 		-95 		16.001
v 83.036 		-95 		15.115
v 86.15 		-95 		15.115
v 95.491 		-95 		6.257
v 96.736 		-95 		7.143
v 24.083 		-23 		48.52
v 10.075 		-23 		48.52
v 10.075 		-20 		48.52
v 24.083 		-20 		48.52
# 1212 vertices

g group_0_11909273

usemtl color_11909273
s 0

f 1 	2 	4
f 3 	4 	2
f 7 	8 	9
f 6 	5 	10
f 6 	10 	11
f 7 	9 	15
f 9 	30 	15
f 18 	22 	571
f 24 	19 	21
f 23 	21 	19
f 23 	19 	20
f 25 	118 	20
f 19 	25 	20
f 18 	446 	22
f 35 	30 	37
f 31 	15 	30
f 809 	28 	29
f 9 	37 	30
f 38 	39 	37
f 33 	35 	41
f 37 	39 	35
f 39 	41 	35
f 45 	44 	46
f 313 	312 	44
f 1084 	92 	26
f 61 	44 	45
f 47 	60 	45
f 27 	26 	32
f 26 	92 	32
f 36 	32 	1102
f 43 	48 	42
f 49 	42 	48
f 62 	121 	58
f 66 	60 	64
f 47 	64 	60
f 61 	45 	60
f 66 	64 	67
f 51 	54 	86
f 67 	28 	874
f 64 	34 	67
f 34 	28 	67
f 127 	963 	58
f 91 	93 	54
f 69 	70 	76
f 56 	54 	51
f 69 	72 	70
f 72 	73 	70
f 75 	227 	73
f 227 	229 	73
f 76 	77 	69
f 69 	77 	78
f 142 	141 	77
f 50 	51 	86
f 55 	57 	68
f 65 	68 	57
f 417 	66 	67
f 81 	82 	83
f 81 	83 	84
f 383 	45 	46
f 84 	87 	81
f 80 	79 	88
f 80 	88 	85
f 85 	88 	89
f 85 	89 	87
f 92 	91 	54
f 68 	65 	152
f 90 	91 	92
f 79 	94 	88
f 387 	47 	383
f 77 	76 	913
f 87 	89 	82
f 87 	82 	81
f 82 	89 	83
f 381 	44 	61
f 913 	142 	77
f 94 	95 	217
f 80 	95 	94
f 79 	80 	94
f 86 	54 	93
f 334 	34 	64
f 102 	97 	99
f 100 	99 	97
f 100 	97 	98
f 417 	67 	874
f 74 	114 	95
f 97 	105 	98
f 105 	141 	98
f 329 	29 	28
f 96 	55 	106
f 103 	106 	55
f 103 	55 	68
f 334 	28 	34
f 108 	109 	107
f 107 	94 	218
f 110 	324 	109
f 71 	94 	109
f 107 	109 	94
f 104 	101 	93
f 115 	113 	114
f 74 	325 	114
f 113 	95 	114
f 116 	114 	325
f 108 	115 	114
f 108 	114 	109
f 106 	120 	118
f 106 	118 	96
f 120 	20 	118
f 107 	113 	115
f 107 	115 	108
f 109 	114 	116
f 109 	116 	110
f 59 	53 	52
f 124 	314 	122
f 121 	125 	123
f 125 	126 	123
f 128 	123 	126
f 101 	15 	93
f 117 	467 	122
f 63 	1084 	26
f 123 	127 	121
f 127 	58 	121
f 122 	467 	124
f 99 	128 	126
f 99 	126 	102
f 624 	623 	52
f 624 	52 	53
f 117 	122 	119
f 119 	252 	112
f 117 	119 	112
f 611 	27 	32
f 36 	608 	32
f 7 	15 	101
f 130 	1105 	132
f 86 	93 	15
f 135 	134 	133
f 623 	610 	52
f 52 	610 	40
f 135 	133 	132
f 133 	130 	132
f 53 	59 	624
f 59 	626 	624
f 133 	134 	137
f 21 	137 	134
f 21 	134 	24
f 139 	140 	98
f 139 	98 	141
f 139 	141 	142
f 78 	77 	141
f 497 	536 	1174
f 26 	615 	63
f 982 	981 	139
f 27 	611 	615
f 26 	27 	615
f 63 	625 	1084
f 1179 	130 	133
f 18 	228 	155
f 505 	522 	351
f 59 	598 	626
f 12 	133 	137
f 148 	143 	145
f 170 	145 	143
f 146 	973 	634
f 148 	145 	147
f 145 	193 	147
f 193 	190 	147
f 18 	155 	505
f 620 	154 	156
f 155 	156 	154
f 1100 	337 	336
f 172 	505 	155
f 1094 	1093 	147
f 1094 	147 	150
f 159 	621 	156
f 146 	196 	159
f 161 	168 	162
f 156 	146 	159
f 167 	161 	165
f 164 	165 	161
f 164 	161 	162
f 158 	163 	160
f 58 	167 	165
f 58 	165 	62
f 168 	169 	162
f 144 	162 	169
f 170 	143 	169
f 144 	169 	143
f 154 	1173 	171
f 183 	166 	202
f 172 	171 	173
f 172 	155 	171
f 154 	171 	155
f 505 	172 	173
f 111 	112 	175
f 163 	158 	177
f 175 	177 	158
f 111 	175 	158
f 885 	167 	58
f 173 	178 	176
f 181 	182 	180
f 180 	343 	86
f 181 	180 	179
f 316 	306 	179
f 179 	183 	181
f 179 	166 	183
f 186 	202 	166
f 343 	180 	310
f 92 	197 	151
f 182 	185 	180
f 620 	156 	621
f 174 	180 	185
f 185 	182 	181
f 185 	181 	183
f 202 	185 	183
f 204 	202 	186
f 501 	502 	629
f 86 	250 	50
f 191 	188 	190
f 150 	190 	188
f 630 	176 	178
f 150 	147 	190
f 178 	173 	630
f 630 	173 	629
f 171 	629 	173
f 174 	203 	192
f 185 	203 	174
f 197 	650 	198
f 240 	186 	238
f 323 	238 	186
f 157 	159 	196
f 3 	250 	86
f 634 	157 	196
f 200 	205 	203
f 205 	192 	203
f 185 	202 	203
f 92 	187 	197
f 198 	151 	197
f 201 	200 	203
f 201 	203 	202
f 205 	200 	204
f 201 	204 	200
f 189 	197 	187
f 214 	215 	216
f 214 	216 	213
f 217 	218 	94
f 160 	163 	184
f 208 	184 	163
f 222 	473 	219
f 372 	220 	373
f 221 	373 	220
f 599 	598 	223
f 214 	213 	222
f 213 	473 	222
f 163 	568 	208
f 224 	225 	223
f 235 	223 	225
f 70 	73 	229
f 230 	231 	220
f 75 	233 	227
f 568 	184 	208
f 220 	372 	230
f 110 	230 	372
f 215 	232 	216
f 234 	227 	233
f 233 	235 	225
f 234 	233 	225
f 113 	217 	95
f 211 	209 	226
f 211 	226 	219
f 219 	226 	232
f 219 	232 	222
f 221 	236 	237
f 222 	232 	215
f 222 	215 	214
f 221 	237 	373
f 116 	373 	237
f 113 	107 	218
f 113 	218 	217
f 236 	231 	230
f 236 	230 	237
f 225 	1186 	234
f 210 	212 	213
f 216 	205 	213
f 205 	204 	213
f 210 	213 	204
f 201 	202 	204
f 1188 	233 	75
f 246 	50 	250
f 16 	229 	227
f 210 	204 	240
f 204 	186 	240
f 235 	233 	1188
f 235 	1188 	1187
f 18 	571 	228
f 207 	206 	242
f 207 	242 	238
f 238 	242 	243
f 238 	243 	240
f 228 	571 	146
f 240 	243 	212
f 240 	212 	210
f 236 	221 	220
f 236 	220 	231
f 110 	116 	237
f 110 	237 	230
f 952 	257 	241
f 248 	246 	245
f 248 	245 	249
f 194 	333 	199
f 333 	356 	801
f 319 	507 	247
f 244 	245 	250
f 245 	246 	250
f 462 	698 	119
f 2 	250 	3
f 9 	961 	37
f 112 	252 	175
f 111 	158 	443
f 443 	112 	111
f 248 	249 	258
f 248 	258 	256
f 462 	119 	321
f 296 	241 	257
f 638 	326 	260
f 196 	146 	634
f 257 	1009 	264
f 5 	289 	261
f 160 	488 	158
f 264 	340 	265
f 267 	638 	260
f 643 	259 	265
f 267 	371 	263
f 268 	267 	263
f 265 	259 	257
f 265 	257 	264
f 489 	160 	567
f 184 	567 	160
f 260 	370 	267
f 290 	269 	271
f 177 	492 	163
f 253 	199 	801
f 254 	253 	255
f 11 	291 	271
f 163 	493 	568
f 199 	253 	149
f 255 	253 	801
f 298 	276 	279
f 454 	279 	276
f 515 	443 	158
f 304 	305 	280
f 271 	266 	280
f 304 	280 	266
f 272 	1161 	273
f 281 	305 	283
f 454 	283 	279
f 1163 	299 	285
f 287 	1163 	285
f 10 	884 	288
f 13 	886 	10
f 303 	459 	284
f 324 	368 	270
f 300 	295 	272
f 300 	272 	285
f 317 	694 	342
f 285 	272 	273
f 285 	273 	287
f 288 	286 	289
f 261 	289 	286
f 287 	273 	351
f 266 	271 	269
f 291 	292 	290
f 269 	290 	292
f 339 	1167 	1161
f 291 	288 	289
f 291 	289 	292
f 5 	6 	289
f 292 	289 	6
f 290 	271 	291
f 11 	10 	291
f 288 	291 	10
f 264 	293 	340
f 295 	297 	272
f 1161 	272 	297
f 257 	259 	338
f 296 	257 	338
f 300 	285 	299
f 299 	1163 	301
f 355 	394 	294
f 279 	302 	298
f 493 	163 	492
f 293 	307 	340
f 175 	556 	177
f 281 	280 	305
f 52 	255 	801
f 40 	255 	52
f 174 	192 	359
f 175 	252 	556
f 264 	307 	293
f 186 	166 	306
f 308 	283 	305
f 46 	44 	312
f 655 	298 	304
f 305 	304 	298
f 313 	314 	312
f 305 	298 	302
f 305 	302 	308
f 308 	302 	283
f 279 	283 	302
f 311 	315 	309
f 315 	303 	309
f 303 	341 	309
f 179 	180 	86
f 381 	313 	44
f 316 	179 	86
f 166 	179 	306
f 342 	341 	303
f 318 	319 	832
f 316 	320 	306
f 320 	316 	86
f 15 	322 	86
f 207 	320 	322
f 207 	322 	206
f 174 	359 	310
f 323 	306 	320
f 655 	572 	298
f 499 	491 	278
f 238 	323 	320
f 207 	238 	320
f 124 	312 	314
f 119 	122 	321
f 314 	321 	122
f 270 	500 	324
f 246 	838 	50
f 1211 	1212 	747
f 278 	475 	499
f 146 	503 	281
f 309 	494 	311
f 334 	417 	330
f 495 	315 	311
f 329 	28 	330
f 261 	335 	5
f 327 	634 	973
f 303 	374 	317
f 659 	317 	360
f 277 	419 	282
f 339 	1161 	297
f 695 	241 	338
f 296 	338 	241
f 307 	341 	340
f 317 	342 	303
f 307 	309 	341
f 299 	301 	300
f 349 	295 	300
f 338 	259 	695
f 343 	344 	86
f 300 	301 	505
f 265 	340 	341
f 3 	86 	656
f 346 	348 	344
f 344 	656 	86
f 346 	344 	343
f 174 	310 	180
f 343 	350 	346
f 343 	310 	350
f 359 	390 	310
f 351 	273 	349
f 328 	187 	354
f 92 	354 	187
f 348 	355 	344
f 294 	344 	355
f 6 	11 	1007
f 348 	346 	350
f 348 	350 	355
f 331 	356 	332
f 333 	332 	356
f 300 	351 	349
f 703 	357 	353
f 199 	333 	801
f 349 	273 	543
f 656 	344 	294
f 596 	656 	294
f 414 	415 	269
f 269 	415 	266
f 707 	694 	357
f 351 	545 	287
f 1007 	414 	6
f 358 	665 	354
f 353 	357 	362
f 351 	300 	505
f 701 	969 	349
f 496 	516 	315
f 345 	347 	441
f 720 	441 	347
f 353 	362 	361
f 176 	263 	371
f 176 	371 	481
f 347 	978 	720
f 365 	366 	481
f 176 	481 	366
f 856 	801 	564
f 361 	1172 	353
f 328 	665 	187
f 1173 	266 	415
f 642 	189 	187
f 360 	317 	364
f 364 	363 	360
f 372 	369 	368
f 370 	260 	195
f 457 	277 	369
f 472 	370 	195
f 672 	333 	647
f 821 	819 	382
f 437 	379 	819
f 194 	199 	647
f 1018 	367 	408
f 704 	479 	371
f 382 	392 	821
f 197 	649 	650
f 269 	6 	414
f 371 	267 	370
f 370 	704 	371
f 372 	324 	110
f 71 	109 	324
f 365 	733 	366
f 373 	116 	325
f 372 	368 	324
f 28 	334 	330
f 418 	456 	325
f 372 	373 	369
f 457 	369 	373
f 736 	294 	378
f 294 	394 	378
f 411 	383 	381
f 382 	819 	379
f 385 	724 	381
f 385 	381 	383
f 736 	378 	448
f 422 	361 	362
f 384 	347 	386
f 345 	386 	347
f 357 	425 	362
f 387 	64 	47
f 359 	398 	390
f 482 	441 	391
f 410 	364 	374
f 350 	310 	390
f 720 	822 	391
f 46 	385 	383
f 375 	374 	376
f 374 	303 	376
f 389 	388 	394
f 389 	394 	390
f 312 	724 	46
f 355 	350 	394
f 390 	394 	350
f 379 	391 	392
f 379 	392 	382
f 284 	380 	376
f 376 	303 	284
f 388 	401 	394
f 398 	205 	84
f 216 	84 	205
f 727 	313 	381
f 399 	400 	401
f 399 	401 	83
f 45 	383 	47
f 1141 	395 	357
f 393 	357 	395
f 412 	383 	411
f 387 	383 	412
f 1001 	352 	409
f 396 	393 	395
f 413 	387 	412
f 412 	416 	413
f 416 	417 	413
f 406 	405 	408
f 334 	413 	417
f 377 	538 	405
f 277 	457 	419
f 417 	416 	66
f 364 	317 	374
f 437 	282 	419
f 64 	387 	413
f 409 	420 	421
f 61 	60 	411
f 412 	411 	60
f 381 	61 	411
f 423 	1172 	422
f 1090 	1171 	423
f 534 	535 	74
f 422 	362 	425
f 413 	334 	64
f 412 	60 	416
f 66 	416 	60
f 485 	239 	487
f 426 	429 	428
f 426 	428 	424
f 303 	516 	436
f 434 	433 	436
f 303 	436 	433
f 393 	430 	425
f 1031 	429 	407
f 357 	393 	425
f 1173 	154 	266
f 84 	83 	398
f 83 	401 	398
f 389 	398 	401
f 389 	401 	388
f 271 	280 	445
f 398 	359 	205
f 192 	205 	359
f 470 	445 	280
f 505 	271 	445
f 505 	445 	18
f 112 	443 	450
f 1090 	423 	440
f 435 	440 	423
f 389 	390 	398
f 303 	315 	516
f 401 	400 	447
f 401 	447 	378
f 445 	471 	446
f 445 	446 	18
f 448 	378 	447
f 440 	444 	442
f 440 	442 	1090
f 556 	450 	443
f 505 	1023 	271
f 11 	271 	1023
f 438 	810 	448
f 539 	697 	579
f 426 	407 	429
f 576 	423 	422
f 373 	456 	457
f 112 	450 	117
f 458 	117 	450
f 422 	425 	576
f 373 	325 	456
f 281 	471 	280
f 418 	956 	456
f 283 	460 	281
f 400 	399 	463
f 400 	463 	447
f 447 	463 	464
f 447 	464 	448
f 283 	454 	460
f 460 	454 	1100
f 448 	464 	439
f 448 	439 	438
f 746 	466 	465
f 452 	1057 	451
f 378 	394 	401
f 462 	734 	467
f 452 	451 	453
f 471 	445 	470
f 469 	242 	322
f 124 	467 	468
f 303 	433 	459
f 461 	284 	459
f 312 	124 	468
f 469 	473 	242
f 370 	472 	699
f 455 	459 	433
f 213 	243 	473
f 474 	472 	195
f 252 	119 	698
f 457 	31 	476
f 31 	457 	456
f 1146 	1148 	456
f 476 	477 	478
f 467 	458 	462
f 458 	450 	462
f 698 	462 	450
f 470 	280 	471
f 379 	437 	478
f 476 	478 	437
f 480 	481 	479
f 481 	371 	479
f 458 	467 	117
f 482 	483 	484
f 1058 	85 	475
f 431 	853 	480
f 484 	441 	482
f 720 	391 	441
f 476 	484 	483
f 476 	483 	477
f 478 	477 	483
f 478 	483 	482
f 479 	472 	474
f 479 	474 	480
f 391 	379 	482
f 478 	482 	379
f 419 	457 	437
f 476 	437 	457
f 489 	488 	160
f 517 	519 	484
f 441 	484 	519
f 517 	484 	31
f 31 	484 	476
f 307 	264 	1014
f 1005 	384 	386
f 206 	322 	242
f 1173 	490 	505
f 495 	311 	494
f 975 	1004 	345
f 22 	446 	489
f 488 	489 	471
f 496 	315 	495
f 1005 	347 	384
f 213 	212 	243
f 243 	242 	473
f 496 	495 	494
f 496 	494 	498
f 567 	22 	489
f 471 	489 	446
f 497 	1174 	504
f 309 	529 	494
f 84 	491 	499
f 494 	531 	498
f 490 	497 	523
f 490 	523 	522
f 488 	471 	503
f 504 	502 	501
f 504 	501 	505
f 498 	516 	496
f 488 	503 	515
f 464 	463 	500
f 171 	1173 	501
f 503 	508 	515
f 555 	515 	508
f 501 	1173 	505
f 216 	491 	84
f 555 	508 	492
f 83 	463 	399
f 463 	83 	500
f 505 	173 	504
f 471 	281 	503
f 508 	503 	146
f 318 	987 	507
f 506 	507 	987
f 319 	318 	507
f 1035 	1031 	746
f 515 	158 	488
f 510 	833 	516
f 562 	261 	286
f 518 	509 	510
f 518 	510 	516
f 492 	177 	555
f 436 	516 	511
f 522 	505 	490
f 521 	1028 	520
f 519 	520 	1033
f 441 	519 	1033
f 523 	497 	504
f 93 	91 	562
f 513 	512 	514
f 518 	527 	514
f 513 	514 	526
f 519 	517 	31
f 519 	31 	30
f 35 	33 	521
f 35 	521 	520
f 548 	351 	522
f 519 	30 	35
f 519 	35 	520
f 539 	430 	393
f 552 	523 	1008
f 1177 	1208 	395
f 1174 	841 	502
f 526 	514 	527
f 539 	393 	544
f 396 	544 	393
f 498 	530 	518
f 516 	498 	518
f 544 	396 	395
f 950 	954 	527
f 527 	529 	950
f 90 	92 	528
f 1035 	629 	502
f 530 	529 	527
f 524 	950 	529
f 541 	404 	595
f 442 	595 	404
f 173 	176 	1010
f 595 	442 	444
f 309 	524 	529
f 1176 	404 	541
f 527 	518 	530
f 550 	544 	395
f 531 	494 	529
f 261 	532 	525
f 528 	525 	532
f 91 	90 	532
f 548 	533 	545
f 531 	530 	498
f 530 	531 	529
f 528 	532 	90
f 325 	74 	535
f 546 	358 	354
f 261 	562 	532
f 551 	138 	536
f 91 	532 	562
f 576 	579 	718
f 539 	550 	697
f 553 	566 	528
f 138 	1174 	536
f 537 	540 	918
f 548 	536 	533
f 449 	451 	538
f 873 	528 	875
f 533 	536 	497
f 533 	497 	490
f 538 	451 	1057
f 1057 	405 	538
f 542 	537 	652
f 540 	537 	542
f 136 	559 	549
f 1103 	535 	534
f 546 	354 	547
f 74 	95 	534
f 536 	552 	551
f 562 	553 	104
f 880 	104 	553
f 550 	1198 	697
f 536 	548 	552
f 461 	895 	284
f 284 	895 	554
f 544 	550 	539
f 556 	515 	555
f 545 	351 	548
f 742 	745 	341
f 895 	903 	554
f 879 	265 	903
f 504 	1008 	523
f 557 	710 	558
f 177 	556 	555
f 552 	548 	522
f 552 	522 	523
f 712 	360 	363
f 589 	588 	560
f 528 	873 	553
f 561 	549 	559
f 354 	839 	547
f 580 	430 	539
f 515 	556 	443
f 551 	563 	138
f 920 	138 	563
f 565 	563 	551
f 525 	528 	566
f 1025 	563 	559
f 547 	588 	564
f 565 	561 	559
f 565 	559 	563
f 567 	184 	568
f 286 	566 	562
f 566 	553 	562
f 560 	256 	589
f 104 	93 	562
f 551 	552 	565
f 444 	600 	595
f 884 	566 	288
f 579 	425 	430
f 440 	435 	597
f 444 	440 	597
f 444 	597 	600
f 574 	859 	573
f 1015 	930 	652
f 569 	575 	574
f 575 	858 	574
f 199 	651 	647
f 565 	1013 	561
f 569 	558 	575
f 149 	631 	199
f 356 	564 	801
f 576 	577 	423
f 564 	601 	547
f 602 	358 	546
f 365 	481 	578
f 425 	579 	576
f 573 	793 	574
f 253 	254 	660
f 661 	660 	254
f 796 	575 	700
f 660 	631 	253
f 583 	597 	435
f 255 	661 	254
f 366 	733 	582
f 733 	828 	582
f 583 	435 	423
f 583 	423 	577
f 580 	579 	430
f 584 	564 	581
f 356 	581 	564
f 580 	539 	579
f 642 	187 	665
f 589 	591 	588
f 590 	591 	589
f 582 	585 	1010
f 586 	1010 	585
f 332 	669 	331
f 547 	560 	588
f 366 	582 	176
f 582 	578 	585
f 247 	585 	578
f 590 	593 	591
f 592 	591 	593
f 251 	937 	586
f 194 	647 	333
f 328 	354 	665
f 588 	856 	564
f 682 	356 	669
f 331 	669 	356
f 587 	604 	594
f 590 	589 	593
f 258 	593 	589
f 258 	589 	256
f 581 	356 	682
f 224 	223 	598
f 599 	625 	598
f 326 	972 	260
f 223 	1084 	599
f 583 	577 	597
f 577 	1142 	597
f 546 	547 	602
f 601 	602 	547
f 600 	597 	595
f 607 	17 	152
f 607 	152 	877
f 275 	1172 	219
f 608 	36 	606
f 602 	601 	682
f 1171 	278 	226
f 17 	607 	1147
f 682 	609 	581
f 613 	610 	611
f 1172 	275 	353
f 877 	883 	607
f 663 	610 	608
f 613 	608 	610
f 564 	584 	601
f 614 	601 	584
f 610 	623 	611
f 327 	326 	634
f 614 	609 	601
f 682 	601 	609
f 638 	639 	326
f 611 	32 	613
f 154 	620 	304
f 32 	608 	613
f 610 	663 	40
f 622 	621 	157
f 159 	157 	621
f 620 	621 	622
f 675 	688 	317
f 628 	740 	317
f 624 	611 	623
f 615 	611 	624
f 157 	634 	622
f 59 	52 	801
f 603 	619 	604
f 616 	619 	603
f 690 	604 	619
f 626 	625 	624
f 615 	624 	625
f 626 	598 	625
f 637 	263 	627
f 176 	627 	263
f 883 	619 	612
f 630 	634 	627
f 171 	501 	629
f 176 	630 	627
f 63 	615 	625
f 599 	1084 	625
f 486 	1147 	607
f 619 	616 	612
f 607 	612 	616
f 486 	607 	616
f 637 	627 	634
f 620 	622 	629
f 630 	629 	622
f 634 	630 	622
f 364 	717 	363
f 650 	631 	633
f 632 	633 	631
f 632 	631 	660
f 817 	465 	572
f 364 	410 	717
f 608 	606 	661
f 584 	581 	662
f 658 	662 	581
f 9 	8 	635
f 9 	635 	636
f 8 	7 	101
f 8 	101 	635
f 737 	367 	1018
f 801 	1186 	1190
f 408 	367 	737
f 104 	962 	635
f 149 	253 	631
f 104 	635 	101
f 758 	405 	406
f 634 	326 	639
f 376 	745 	375
f 151 	198 	650
f 633 	151 	650
f 637 	634 	639
f 743 	375 	745
f 153 	151 	632
f 633 	632 	151
f 267 	268 	638
f 639 	638 	268
f 632 	606 	153
f 639 	268 	263
f 639 	263 	637
f 665 	670 	642
f 561 	1013 	652
f 672 	647 	645
f 686 	684 	648
f 649 	645 	647
f 649 	647 	650
f 629 	1035 	620
f 1009 	952 	644
f 284 	554 	380
f 647 	651 	650
f 651 	631 	650
f 641 	648 	952
f 668 	666 	646
f 320 	86 	322
f 189 	642 	645
f 377 	405 	748
f 716 	469 	322
f 408 	758 	406
f 645 	649 	189
f 197 	189 	649
f 408 	759 	758
f 304 	620 	1035
f 570 	915 	654
f 276 	298 	572
f 694 	317 	740
f 656 	657 	3
f 1056 	914 	655
f 657 	685 	3
f 787 	657 	656
f 199 	631 	651
f 661 	632 	660
f 606 	632 	661
f 640 	570 	654
f 640 	671 	641
f 663 	608 	661
f 675 	317 	659
f 646 	685 	605
f 787 	782 	657
f 605 	657 	782
f 255 	663 	661
f 40 	663 	255
f 686 	648 	641
f 657 	605 	685
f 685 	646 	666
f 665 	669 	670
f 654 	671 	640
f 672 	645 	670
f 645 	642 	670
f 671 	654 	674
f 670 	669 	332
f 591 	856 	588
f 674 	641 	671
f 670 	332 	672
f 333 	672 	332
f 653 	691 	677
f 641 	674 	686
f 679 	653 	677
f 239 	686 	674
f 358 	680 	665
f 720 	679 	808
f 693 	808 	679
f 665 	680 	669
f 682 	669 	680
f 677 	692 	666
f 677 	666 	668
f 677 	668 	679
f 602 	680 	358
f 668 	693 	679
f 602 	682 	680
f 644 	648 	684
f 666 	687 	685
f 1034 	3 	691
f 241 	695 	686
f 568 	571 	567
f 492 	571 	568
f 571 	22 	567
f 687 	692 	691
f 687 	691 	685
f 686 	239 	241
f 295 	349 	969
f 492 	568 	493
f 1190 	59 	801
f 692 	677 	691
f 492 	508 	571
f 146 	571 	508
f 666 	692 	687
f 693 	668 	689
f 694 	697 	342
f 695 	643 	684
f 644 	684 	643
f 594 	604 	690
f 695 	259 	643
f 736 	772 	596
f 684 	686 	695
f 739 	605 	780
f 252 	698 	556
f 304 	1035 	747
f 711 	725 	875
f 681 	469 	716
f 699 	704 	370
f 681 	716 	703
f 703 	353 	681
f 698 	450 	556
f 699 	762 	704
f 575 	558 	700
f 733 	365 	732
f 365 	578 	732
f 743 	742 	375
f 357 	703 	707
f 768 	717 	410
f 694 	719 	697
f 718 	697 	719
f 709 	702 	710
f 702 	558 	710
f 702 	700 	558
f 696 	710 	557
f 719 	694 	707
f 712 	363 	713
f 718 	579 	697
f 716 	322 	15
f 712 	717 	342
f 713 	717 	712
f 717 	742 	342
f 881 	875 	725
f 718 	15 	576
f 719 	15 	718
f 342 	857 	712
f 721 	722 	719
f 722 	716 	719
f 15 	719 	716
f 717 	713 	363
f 714 	715 	720
f 653 	720 	715
f 706 	711 	705
f 728 	725 	711
f 716 	722 	703
f 707 	703 	721
f 722 	721 	703
f 727 	381 	724
f 739 	738 	605
f 785 	723 	795
f 707 	721 	719
f 726 	727 	724
f 726 	724 	468
f 746 	747 	1035
f 726 	314 	727
f 313 	727 	314
f 385 	46 	724
f 724 	312 	468
f 729 	696 	594
f 710 	696 	729
f 587 	594 	696
f 872 	603 	604
f 734 	321 	726
f 314 	726 	321
f 612 	607 	883
f 659 	676 	675
f 728 	789 	725
f 678 	688 	675
f 733 	732 	827
f 321 	734 	462
f 723 	881 	725
f 304 	747 	1212
f 467 	726 	468
f 726 	467 	734
f 891 	910 	619
f 683 	1026 	673
f 688 	667 	628
f 616 	887 	760
f 596 	294 	736
f 891 	619 	883
f 735 	731 	730
f 587 	826 	604
f 738 	811 	282
f 690 	910 	594
f 410 	374 	742
f 768 	410 	742
f 725 	795 	723
f 690 	619 	910
f 437 	646 	282
f 705 	763 	706
f 628 	317 	688
f 750 	694 	740
f 774 	919 	557
f 746 	465 	747
f 628 	741 	740
f 968 	377 	748
f 747 	465 	274
f 922 	700 	702
f 749 	745 	380
f 376 	380 	745
f 767 	711 	763
f 706 	763 	711
f 1211 	747 	274
f 554 	749 	380
f 922 	702 	939
f 709 	939 	702
f 407 	746 	1031
f 728 	711 	789
f 374 	375 	742
f 711 	767 	789
f 939 	709 	710
f 791 	708 	730
f 646 	605 	738
f 738 	282 	646
f 341 	342 	742
f 696 	919 	587
f 743 	745 	742
f 729 	594 	955
f 437 	819 	646
f 819 	797 	646
f 791 	730 	788
f 731 	788 	730
f 755 	699 	472
f 955 	710 	729
f 795 	725 	789
f 749 	554 	745
f 341 	745 	554
f 427 	756 	474
f 788 	731 	735
f 758 	759 	757
f 616 	760 	486
f 405 	758 	757
f 762 	479 	704
f 748 	405 	757
f 740 	751 	750
f 618 	694 	750
f 480 	765 	431
f 188 	764 	766
f 191 	764 	188
f 763 	766 	764
f 753 	618 	750
f 762 	755 	479
f 472 	479 	755
f 764 	791 	763
f 791 	788 	763
f 742 	717 	768
f 877 	65 	760
f 705 	1159 	766
f 762 	699 	755
f 754 	761 	752
f 480 	474 	756
f 480 	756 	765
f 744 	775 	761
f 408 	737 	759
f 761 	775 	1090
f 427 	431 	765
f 427 	765 	756
f 764 	191 	708
f 1168 	708 	191
f 736 	810 	772
f 766 	763 	705
f 434 	773 	433
f 879 	433 	773
f 1109 	1110 	775
f 776 	596 	772
f 778 	656 	776
f 656 	596 	776
f 773 	434 	779
f 436 	779 	434
f 708 	791 	764
f 782 	780 	605
f 783 	946 	774
f 436 	511 	779
f 557 	558 	783
f 557 	783 	774
f 770 	781 	780
f 770 	780 	772
f 786 	789 	788
f 767 	788 	789
f 783 	558 	790
f 569 	790 	558
f 771 	784 	769
f 673 	1090 	784
f 767 	763 	788
f 772 	780 	782
f 772 	782 	776
f 794 	943 	793
f 777 	769 	775
f 784 	1090 	769
f 786 	785 	789
f 795 	789 	785
f 776 	782 	787
f 776 	787 	778
f 944 	796 	793
f 787 	656 	778
f 775 	769 	1090
f 833 	773 	779
f 689 	668 	798
f 798 	668 	797
f 790 	793 	796
f 921 	783 	796
f 790 	796 	783
f 664 	673 	784
f 714 	800 	715
f 799 	715 	800
f 617 	802 	1086
f 804 	805 	803
f 804 	803 	848
f 753 	1088 	618
f 808 	693 	807
f 28 	809 	874
f 808 	822 	720
f 653 	679 	720
f 798 	807 	693
f 798 	693 	689
f 794 	793 	573
f 808 	807 	798
f 808 	798 	797
f 735 	786 	788
f 808 	797 	822
f 819 	822 	797
f 525 	825 	261
f 786 	967 	785
f 810 	438 	439
f 810 	439 	368
f 825 	908 	335
f 790 	569 	793
f 569 	574 	793
f 736 	448 	810
f 770 	772 	810
f 746 	407 	846
f 369 	811 	812
f 369 	812 	813
f 14 	909 	352
f 352 	909 	824
f 889 	451 	449
f 812 	738 	739
f 812 	739 	813
f 402 	262 	814
f 812 	811 	738
f 980 	814 	262
f 781 	813 	780
f 739 	780 	813
f 368 	369 	813
f 770 	810 	781
f 781 	810 	813
f 368 	813 	810
f 274 	465 	817
f 797 	668 	646
f 893 	453 	889
f 451 	889 	453
f 823 	392 	822
f 392 	391 	822
f 274 	817 	984
f 821 	392 	823
f 801 	820 	818
f 822 	819 	821
f 822 	821 	823
f 453 	893 	815
f 893 	892 	815
f 685 	691 	3
f 1088 	1082 	806
f 452 	453 	815
f 806 	1082 	697
f 1052 	1036 	715
f 502 	841 	1035
f 653 	1036 	691
f 824 	825 	847
f 525 	847 	825
f 879 	455 	433
f 506 	829 	507
f 247 	507 	585
f 830 	585 	507
f 667 	863 	628
f 837 	628 	863
f 825 	824 	909
f 251 	586 	506
f 335 	261 	825
f 628 	837 	741
f 1075 	741 	837
f 792 	836 	816
f 871 	604 	826
f 864 	673 	664
f 714 	978 	1050
f 466 	746 	846
f 827 	732 	578
f 828 	733 	827
f 846 	849 	466
f 587 	919 	826
f 195 	849 	474
f 427 	474 	851
f 895 	461 	459
f 830 	507 	829
f 867 	675 	676
f 827 	578 	828
f 675 	867 	678
f 481 	854 	831
f 831 	832 	481
f 481 	832 	247
f 511 	516 	833
f 867 	869 	678
f 829 	586 	585
f 829 	585 	830
f 594 	910 	834
f 832 	831 	318
f 582 	828 	578
f 683 	673 	870
f 512 	513 	927
f 506 	586 	829
f 578 	481 	247
f 832 	319 	247
f 833 	779 	511
f 1046 	799 	800
f 195 	466 	849
f 1050 	1045 	714
f 1046 	1052 	799
f 715 	799 	1052
f 909 	908 	825
f 720 	978 	714
f 673 	864 	870
f 851 	474 	849
f 854 	481 	853
f 773 	833 	835
f 927 	514 	512
f 352 	824 	847
f 842 	1043 	402
f 510 	923 	833
f 138 	920 	841
f 958 	847 	878
f 248 	839 	246
f 838 	246 	839
f 840 	843 	397
f 403 	397 	843
f 842 	402 	814
f 844 	845 	841
f 1035 	841 	845
f 409 	352 	847
f 848 	809 	804
f 29 	804 	809
f 849 	846 	426
f 524 	992 	950
f 426 	424 	850
f 851 	849 	850
f 426 	850 	849
f 510 	509 	923
f 801 	856 	820
f 428 	429 	852
f 854 	852 	429
f 513 	926 	927
f 855 	856 	591
f 954 	513 	526
f 863 	1039 	837
f 1039 	342 	837
f 1039 	867 	342
f 856 	855 	820
f 835 	934 	773
f 818 	855 	894
f 591 	592 	855
f 342 	867 	857
f 574 	858 	859
f 820 	855 	818
f 860 	573 	859
f 860 	859 	862
f 862 	803 	860
f 805 	860 	803
f 834 	955 	594
f 1039 	863 	667
f 514 	938 	518
f 871 	826 	834
f 919 	834 	826
f 864 	664 	861
f 866 	847 	865
f 1067 	865 	847
f 867 	676 	868
f 420 	409 	866
f 847 	866 	409
f 862 	948 	803
f 871 	872 	604
f 836 	1122 	816
f 676 	659 	857
f 868 	676 	857
f 880 	553 	873
f 92 	1120 	528
f 899 	874 	809
f 853 	852 	854
f 480 	853 	481
f 525 	566 	876
f 852 	850 	428
f 424 	428 	850
f 947 	794 	860
f 876 	878 	525
f 850 	852 	853
f 850 	853 	851
f 923 	265 	879
f 886 	958 	878
f 858 	575 	944
f 851 	853 	427
f 431 	427 	853
f 152 	65 	877
f 876 	873 	875
f 876 	875 	878
f 407 	426 	846
f 881 	878 	875
f 854 	429 	971
f 1031 	971 	429
f 792 	816 	892
f 805 	897 	860
f 1072 	543 	129
f 903 	265 	554
f 876 	566 	884
f 792 	882 	836
f 896 	803 	948
f 616 	603 	872
f 873 	876 	880
f 884 	880 	876
f 878 	881 	886
f 862 	859 	948
f 887 	616 	872
f 964 	121 	888
f 900 	848 	896
f 803 	896 	848
f 968 	889 	890
f 29 	329 	804
f 449 	968 	890
f 818 	965 	801
f 449 	890 	889
f 889 	892 	893
f 949 	959 	92
f 888 	92 	959
f 891 	887 	872
f 899 	809 	848
f 899 	848 	900
f 460 	1100 	336
f 894 	855 	592
f 39 	965 	894
f 871 	910 	891
f 871 	891 	872
f 816 	815 	892
f 897 	898 	896
f 900 	896 	898
f 882 	792 	892
f 899 	900 	898
f 898 	329 	899
f 330 	899 	329
f 455 	879 	902
f 901 	904 	92
f 947 	860 	897
f 902 	879 	903
f 911 	92 	904
f 898 	897 	804
f 805 	804 	897
f 903 	459 	902
f 455 	902 	459
f 1067 	652 	537
f 818 	894 	965
f 459 	903 	895
f 884 	10 	886
f 286 	288 	566
f 880 	884 	886
f 880 	886 	881
f 891 	883 	887
f 883 	877 	887
f 760 	887 	877
f 804 	329 	898
f 528 	1120 	875
f 509 	924 	923
f 525 	878 	847
f 13 	335 	908
f 923 	934 	833
f 958 	886 	909
f 14 	958 	909
f 908 	909 	886
f 908 	886 	13
f 926 	513 	954
f 928 	844 	920
f 841 	920 	844
f 914 	1056 	915
f 901 	905 	904
f 1055 	654 	915
f 834 	910 	871
f 928 	935 	845
f 928 	845 	844
f 906 	911 	904
f 836 	882 	936
f 967 	801 	965
f 938 	514 	927
f 1186 	801 	16
f 609 	916 	581
f 581 	916 	658
f 912 	16 	801
f 584 	662 	614
f 917 	614 	662
f 1015 	1016 	918
f 916 	917 	662
f 916 	662 	658
f 924 	518 	938
f 907 	16 	912
f 696 	557 	919
f 917 	916 	614
f 609 	614 	916
f 921 	922 	783
f 1025 	933 	563
f 921 	700 	922
f 75 	901 	1188
f 796 	700 	921
f 560 	839 	256
f 987 	929 	971
f 905 	73 	904
f 72 	904 	73
f 931 	914 	915
f 931 	915 	932
f 559 	918 	1016
f 930 	1015 	918
f 930 	918 	925
f 929 	831 	971
f 854 	971 	831
f 570 	932 	915
f 72 	69 	904
f 906 	904 	69
f 835 	833 	934
f 817 	572 	931
f 914 	931 	572
f 935 	920 	933
f 928 	920 	935
f 920 	563 	933
f 912 	76 	70
f 907 	912 	70
f 879 	773 	934
f 831 	929 	987
f 905 	901 	73
f 73 	901 	75
f 931 	932 	1054
f 907 	70 	229
f 907 	229 	16
f 258 	249 	245
f 78 	911 	69
f 244 	592 	593
f 244 	593 	245
f 251 	506 	937
f 906 	69 	911
f 509 	518 	924
f 245 	593 	258
f 244 	989 	592
f 913 	76 	912
f 341 	554 	265
f 961 	9 	636
f 927 	926 	938
f 926 	954 	938
f 540 	925 	918
f 248 	256 	839
f 636 	635 	961
f 995 	999 	640
f 925 	540 	930
f 542 	930 	540
f 934 	923 	879
f 785 	104 	881
f 880 	881 	104
f 941 	640 	641
f 1142 	936 	892
f 941 	995 	640
f 239 	485 	941
f 948 	943 	947
f 794 	947 	943
f 944 	793 	943
f 954 	950 	938
f 922 	946 	783
f 939 	946 	922
f 774 	946 	919
f 644 	643 	1009
f 896 	948 	947
f 896 	947 	897
f 924 	843 	923
f 573 	860 	794
f 939 	710 	946
f 648 	644 	952
f 641 	952 	941
f 796 	944 	575
f 526 	527 	954
f 944 	943 	858
f 859 	858 	943
f 239 	941 	241
f 952 	241 	941
f 1009 	1014 	264
f 952 	1009 	257
f 924 	938 	950
f 940 	105 	951
f 950 	843 	924
f 949 	92 	940
f 948 	859 	943
f 336 	977 	460
f 942 	981 	945
f 1142 	1122 	936
f 955 	834 	919
f 946 	955 	919
f 899 	330 	957
f 417 	957 	330
f 889 	1142 	892
f 710 	955 	946
f 417 	874 	957
f 940 	951 	949
f 14 	1021 	958
f 874 	899 	957
f 882 	892 	936
f 335 	13 	5
f 10 	5 	13
f 836 	936 	1122
f 125 	959 	960
f 1067 	847 	701
f 962 	38 	37
f 962 	37 	961
f 269 	292 	6
f 865 	970 	866
f 1023 	1007 	11
f 337 	1099 	454
f 1122 	1125 	816
f 420 	866 	970
f 959 	125 	964
f 962 	965 	38
f 39 	38 	965
f 146 	281 	977
f 961 	635 	962
f 967 	962 	104
f 1103 	1098 	535
f 967 	965 	962
f 454 	976 	337
f 711 	875 	705
f 701 	847 	958
f 973 	146 	977
f 538 	968 	449
f 127 	966 	963
f 104 	785 	967
f 865 	969 	970
f 538 	377 	968
f 972 	326 	327
f 972 	327 	973
f 968 	757 	1142
f 889 	968 	1142
f 865 	432 	969
f 195 	260 	972
f 969 	701 	958
f 970 	969 	958
f 949 	960 	959
f 964 	888 	959
f 748 	757 	968
f 297 	295 	969
f 976 	972 	973
f 976 	973 	977
f 570 	640 	999
f 814 	570 	999
f 309 	307 	524
f 963 	966 	974
f 347 	1005 	978
f 454 	276 	976
f 953 	945 	974
f 979 	932 	814
f 195 	276 	465
f 974 	801 	963
f 1005 	975 	978
f 980 	979 	814
f 156 	228 	146
f 441 	1033 	345
f 975 	345 	1033
f 465 	276 	572
f 337 	976 	977
f 337 	977 	336
f 1033 	1050 	978
f 978 	975 	1033
f 984 	817 	983
f 931 	983 	817
f 982 	142 	985
f 1022 	1038 	996
f 156 	155 	228
f 1035 	1010 	986
f 987 	1031 	986
f 985 	142 	913
f 2 	1 	989
f 2 	989 	250
f 1003 	1042 	487
f 911 	141 	988
f 195 	976 	276
f 972 	976 	195
f 1212 	979 	983
f 982 	985 	981
f 985 	912 	801
f 983 	979 	980
f 983 	980 	984
f 1038 	1003 	997
f 981 	985 	945
f 801 	945 	985
f 986 	506 	987
f 913 	912 	985
f 911 	988 	940
f 460 	977 	281
f 881 	723 	785
f 352 	1001 	14
f 14 	1001 	1021
f 987 	318 	831
f 995 	941 	485
f 940 	141 	105
f 988 	141 	940
f 942 	945 	98
f 994 	996 	998
f 506 	986 	937
f 98 	945 	100
f 995 	485 	487
f 995 	487 	999
f 126 	125 	960
f 1001 	409 	1000
f 997 	998 	996
f 487 	1042 	999
f 885 	58 	963
f 1028 	1040 	1034
f 1003 	487 	1002
f 923 	843 	265
f 643 	265 	843
f 386 	1004 	1005
f 964 	125 	121
f 244 	250 	989
f 402 	1002 	487
f 643 	843 	1009
f 997 	1003 	1002
f 997 	1002 	998
f 414 	1006 	1048
f 123 	128 	966
f 1006 	414 	1007
f 1019 	1020 	1008
f 565 	552 	1008
f 62 	888 	121
f 403 	950 	990
f 991 	990 	950
f 1001 	1000 	1006
f 1001 	1006 	1007
f 123 	966 	127
f 1008 	504 	1010
f 173 	1010 	504
f 990 	993 	397
f 990 	397 	403
f 1007 	1021 	1001
f 992 	996 	994
f 992 	994 	991
f 1048 	1051 	414
f 415 	414 	1051
f 933 	1008 	845
f 1008 	1010 	845
f 126 	960 	102
f 960 	949 	102
f 1035 	845 	1010
f 1042 	1043 	999
f 262 	402 	1210
f 937 	986 	1010
f 840 	1009 	843
f 1060 	1059 	421
f 592 	989 	894
f 1011 	1009 	840
f 325 	535 	418
f 97 	102 	951
f 949 	951 	102
f 1061 	1060 	420
f 421 	420 	1060
f 842 	814 	999
f 128 	99 	953
f 974 	128 	953
f 992 	991 	950
f 128 	974 	966
f 1009 	990 	1012
f 991 	1012 	990
f 956 	418 	535
f 1014 	1009 	1012
f 100 	945 	99
f 953 	99 	945
f 565 	1020 	1013
f 1015 	652 	1013
f 403 	843 	950
f 992 	524 	1014
f 1014 	524 	307
f 981 	942 	140
f 98 	140 	942
f 542 	652 	930
f 1009 	993 	990
f 1015 	1013 	1016
f 97 	951 	105
f 993 	1009 	1011
f 140 	139 	981
f 136 	918 	559
f 1171 	1049 	278
f 475 	278 	1049
f 994 	1017 	991
f 1012 	991 	1017
f 565 	1008 	1020
f 1014 	1012 	1017
f 1014 	1017 	1022
f 982 	139 	142
f 935 	933 	845
f 1019 	1008 	933
f 386 	345 	1004
f 659 	1024 	1064
f 1019 	1025 	1020
f 1023 	1021 	1007
f 1019 	933 	1025
f 911 	78 	141
f 1016 	1013 	1020
f 1016 	1020 	1025
f 1051 	1047 	505
f 1025 	559 	1016
f 1034 	1033 	1028
f 1021 	1023 	1047
f 1005 	1004 	975
f 349 	543 	701
f 41 	1040 	1028
f 1000 	409 	1059
f 33 	41 	1028
f 33 	1028 	521
f 1029 	1068 	1032
f 1035 	986 	1031
f 971 	1031 	987
f 1006 	1000 	1044
f 39 	894 	41
f 1068 	1029 	1027
f 176 	582 	1010
f 1010 	586 	937
f 1093 	875 	1030
f 301 	1162 	1051
f 409 	421 	1059
f 1024 	659 	360
f 41 	894 	1040
f 1027 	1029 	1026
f 1175 	543 	1072
f 1033 	520 	1028
f 1014 	1022 	992
f 996 	992 	1022
f 1034 	691 	1036
f 1032 	1018 	1029
f 408 	1057 	1018
f 1037 	1038 	1022
f 1037 	1022 	1017
f 1039 	688 	869
f 678 	869 	688
f 3 	1040 	4
f 1011 	840 	993
f 397 	993 	840
f 1063 	432 	1167
f 3 	1034 	1040
f 667 	688 	1039
f 408 	405 	1057
f 998 	1037 	994
f 1017 	994 	1037
f 1040 	989 	4
f 1 	4 	989
f 989 	1040 	894
f 1058 	475 	1049
f 997 	996 	1038
f 861 	1117 	864
f 1041 	1018 	1057
f 1044 	1000 	1059
f 868 	857 	867
f 800 	1045 	1046
f 842 	999 	1043
f 1002 	402 	1043
f 869 	867 	1039
f 1006 	1047 	1048
f 1029 	1041 	1026
f 673 	1026 	1041
f 1018 	1041 	1029
f 1033 	1034 	1036
f 1006 	1044 	1047
f 1042 	1038 	1037
f 1042 	1037 	1043
f 800 	714 	1045
f 1043 	1037 	1002
f 998 	1002 	1037
f 1003 	1038 	1042
f 1059 	970 	1044
f 1044 	958 	1021
f 654 	1055 	674
f 674 	1055 	239
f 1053 	1054 	1055
f 1055 	1056 	1053
f 655 	304 	1056
f 1058 	1049 	1057
f 1041 	1057 	1049
f 1048 	1047 	1051
f 1023 	505 	1047
f 1082 	750 	751
f 1046 	1045 	1050
f 1046 	1050 	1052
f 1047 	1044 	1021
f 1056 	1055 	915
f 1086 	752 	617
f 1050 	1033 	1036
f 653 	715 	1036
f 753 	750 	1088
f 1052 	1050 	1036
f 1057 	1125 	1058
f 1088 	750 	1082
f 572 	655 	914
f 815 	1057 	452
f 1054 	239 	1055
f 80 	85 	1058
f 754 	1092 	761
f 1054 	1053 	931
f 806 	618 	1088
f 464 	500 	270
f 1086 	1092 	752
f 754 	752 	1092
f 415 	1051 	1162
f 1018 	1062 	737
f 751 	740 	1074
f 282 	811 	369
f 282 	369 	277
f 1064 	857 	659
f 473 	469 	681
f 270 	368 	464
f 439 	464 	368
f 1065 	1066 	1026
f 1027 	1026 	1066
f 1059 	1060 	1061
f 1059 	1061 	970
f 683 	870 	1065
f 1065 	1026 	683
f 740 	741 	1074
f 1075 	1074 	741
f 275 	219 	473
f 1051 	505 	301
f 1027 	1066 	1068
f 1079 	744 	761
f 339 	297 	1063
f 1061 	420 	970
f 1064 	1024 	712
f 1024 	360 	712
f 216 	232 	491
f 1067 	1161 	865
f 432 	865 	1161
f 1032 	1068 	1069
f 969 	432 	1063
f 769 	1107 	1108
f 769 	1108 	771
f 940 	92 	911
f 777 	775 	1110
f 958 	1044 	970
f 1062 	1018 	1069
f 1032 	1069 	1018
f 297 	969 	1063
f 1142 	759 	1062
f 737 	1062 	759
f 1107 	769 	1110
f 777 	1110 	769
f 465 	466 	195
f 275 	473 	681
f 1064 	712 	857
f 1117 	784 	1108
f 771 	1108 	784
f 1068 	1066 	1065
f 864 	1142 	1065
f 664 	784 	1117
f 537 	1071 	1067
f 1071 	1072 	1067
f 1072 	129 	1067
f 870 	864 	1065
f 1062 	1069 	1068
f 1062 	1068 	1142
f 1161 	1067 	129
f 1068 	1065 	1142
f 1054 	487 	239
f 1209 	487 	1054
f 537 	918 	1071
f 226 	491 	232
f 1109 	1142 	1107
f 1079 	1109 	744
f 549 	1178 	136
f 136 	1178 	1071
f 342 	697 	1074
f 1082 	1074 	697
f 92 	54 	354
f 1081 	1073 	1080
f 1070 	1080 	1073
f 570 	814 	932
f 1075 	837 	1074
f 837 	342 	1074
f 1077 	1076 	1081
f 1080 	1078 	1081
f 1077 	1081 	1078
f 136 	1071 	918
f 815 	1125 	1057
f 1082 	751 	1083
f 1112 	1106 	1073
f 1112 	1073 	1081
f 1190 	224 	1087
f 757 	759 	1142
f 1076 	1112 	1081
f 1087 	598 	59
f 32 	92 	1102
f 1080 	1070 	1095
f 1085 	143 	1093
f 1091 	1090 	1041
f 1091 	1041 	1049
f 1083 	751 	1074
f 1099 	1100 	454
f 761 	1101 	1079
f 1030 	1085 	1093
f 43 	42 	1098
f 43 	1098 	1097
f 1101 	761 	1092
f 1098 	1103 	1104
f 1102 	606 	36
f 1083 	1074 	1082
f 1102 	153 	606
f 1097 	1104 	1125
f 1104 	95 	1125
f 1094 	1096 	1093
f 1096 	875 	1093
f 705 	875 	1096
f 153 	1102 	151
f 1098 	1104 	1097
f 80 	1125 	95
f 92 	151 	1102
f 1058 	1125 	80
f 1104 	1103 	534
f 839 	354 	56
f 560 	547 	839
f 1086 	1101 	1092
f 337 	1100 	1099
f 1101 	1142 	1109
f 534 	95 	1104
f 1072 	1071 	1175
f 1070 	1073 	1105
f 1106 	1105 	1073
f 1106 	1111 	1105
f 775 	744 	1109
f 535 	1098 	956
f 1113 	1111 	1112
f 1106 	1112 	1111
f 1116 	1118 	1112
f 1113 	1112 	1118
f 1116 	1076 	1077
f 1116 	1077 	1118
f 861 	664 	1117
f 1077 	1078 	1113
f 1077 	1113 	1118
f 162 	1119 	164
f 1108 	1107 	1117
f 1110 	1109 	1107
f 1078 	1080 	1111
f 1078 	1111 	1113
f 1117 	1107 	1142
f 1079 	1101 	1109
f 167 	1123 	1121
f 1097 	1122 	43
f 42 	1146 	1098
f 1076 	1116 	1112
f 1124 	165 	1120
f 1125 	1122 	1097
f 491 	226 	278
f 888 	62 	1124
f 1146 	956 	1098
f 815 	816 	1125
f 1126 	357 	1152
f 1127 	132 	1105
f 1111 	1127 	1105
f 1127 	1095 	132
f 1080 	1095 	1111
f 1127 	1111 	1095
f 681 	353 	275
f 1119 	1030 	1120
f 186 	306 	323
f 1120 	92 	888
f 1124 	1120 	888
f 1053 	1056 	304
f 1123 	885 	963
f 154 	304 	266
f 1121 	1123 	1114
f 1030 	875 	1120
f 1133 	1131 	1136
f 1134 	1136 	1131
f 1131 	1137 	1134
f 1131 	1133 	1138
f 1142 	48 	1122
f 1114 	801 	1135
f 1115 	1114 	1135
f 1135 	801 	1165
f 1143 	48 	1142
f 1178 	1175 	1071
f 1085 	1030 	143
f 143 	1030 	144
f 1134 	12 	21
f 1128 	1139 	1126
f 43 	1122 	48
f 1119 	144 	1030
f 1134 	21 	1136
f 170 	1135 	145
f 1140 	1141 	1139
f 694 	618 	357
f 1141 	357 	1139
f 1143 	49 	48
f 148 	147 	1093
f 1093 	143 	148
f 1139 	357 	1126
f 150 	1096 	1094
f 65 	1145 	1147
f 31 	456 	1148
f 1130 	1129 	1170
f 1115 	169 	1114
f 168 	1114 	169
f 1148 	1146 	49
f 42 	49 	1146
f 1120 	164 	1119
f 1143 	1148 	49
f 1114 	168 	161
f 1121 	1114 	161
f 1143 	15 	1148
f 1121 	161 	167
f 1145 	1144 	1149
f 1145 	1149 	1147
f 1146 	456 	956
f 1147 	486 	760
f 1147 	760 	65
f 51 	50 	838
f 167 	885 	1123
f 838 	839 	51
f 164 	1120 	165
f 62 	165 	1124
f 131 	1173 	1162
f 1149 	17 	1147
f 144 	1119 	162
f 1154 	1203 	1152
f 96 	1156 	1144
f 56 	354 	54
f 1135 	170 	169
f 1115 	1135 	169
f 1089 	145 	1135
f 1158 	1144 	1160
f 1149 	1144 	1158
f 1156 	1160 	1144
f 1156 	1164 	1160
f 129 	273 	1161
f 543 	273 	129
f 1153 	1126 	1152
f 131 	1162 	1163
f 618 	1154 	1152
f 1152 	357 	618
f 131 	1163 	287
f 131 	287 	545
f 617 	752 	1155
f 1162 	301 	1163
f 1133 	1166 	1164
f 1133 	1164 	1138
f 1155 	1151 	1157
f 1166 	1160 	1164
f 1151 	1155 	1090
f 1161 	1167 	432
f 120 	1166 	1133
f 226 	209 	1171
f 339 	1063 	1167
f 118 	1138 	1164
f 118 	1164 	1156
f 56 	51 	839
f 1170 	1151 	1090
f 1150 	1151 	1170
f 1137 	24 	134
f 705 	1096 	1159
f 1171 	209 	211
f 1171 	211 	1172
f 801 	735 	730
f 708 	1168 	730
f 801 	730 	1168
f 1133 	1136 	20
f 23 	20 	1136
f 415 	1162 	1173
f 361 	422 	1172
f 1172 	423 	1171
f 1089 	1135 	1165
f 490 	1173 	533
f 545 	533 	131
f 131 	533 	1173
f 1131 	1138 	19
f 219 	1172 	211
f 1169 	1165 	1168
f 1165 	801 	1168
f 24 	1137 	19
f 1131 	19 	1137
f 138 	841 	1174
f 12 	137 	21
f 502 	504 	1174
f 652 	1067 	701
f 21 	23 	1136
f 120 	1133 	20
f 19 	1138 	25
f 1175 	1178 	701
f 1175 	701 	543
f 1145 	57 	1144
f 55 	1144 	57
f 1145 	65 	57
f 1176 	1130 	1090
f 1170 	1090 	1130
f 1132 	1130 	1176
f 395 	1141 	1177
f 68 	152 	1149
f 1090 	442 	1176
f 404 	1176 	442
f 652 	701 	1178
f 1090 	1091 	1171
f 17 	1149 	152
f 188 	766 	1159
f 1144 	55 	96
f 673 	1041 	1090
f 752 	1090 	1155
f 752 	761 	1090
f 735 	801 	786
f 1149 	1158 	68
f 103 	68 	1158
f 1091 	1049 	1171
f 1159 	1096 	150
f 188 	1159 	150
f 25 	1138 	118
f 1193 	1129 	1130
f 96 	118 	1156
f 145 	1089 	193
f 1165 	193 	1089
f 106 	103 	1158
f 106 	1158 	1160
f 1166 	106 	1160
f 120 	106 	1166
f 1169 	1168 	190
f 191 	190 	1168
f 1177 	1141 	1208
f 1070 	1105 	1179
f 130 	1179 	1105
f 1197 	1140 	1196
f 1139 	1196 	1140
f 193 	1165 	190
f 1169 	190 	1165
f 1139 	1128 	1192
f 801 	967 	786
f 1095 	1070 	1180
f 1179 	1180 	1070
f 1198 	1141 	1140
f 1198 	1140 	1197
f 1181 	1183 	1182
f 1181 	1182 	12
f 1183 	1180 	1182
f 1179 	1182 	1180
f 1114 	1123 	801
f 1123 	963 	801
f 974 	945 	801
f 1128 	1191 	1192
f 1128 	1126 	1191
f 12 	1134 	1181
f 1137 	1181 	1134
f 135 	1183 	1181
f 135 	1181 	134
f 1153 	1202 	1126
f 652 	1178 	561
f 549 	561 	1178
f 1129 	1193 	1170
f 132 	1095 	1180
f 223 	235 	1187
f 1199 	1200 	1170
f 1150 	1170 	1200
f 1180 	1183 	132
f 135 	132 	1183
f 224 	1190 	225
f 12 	1182 	133
f 225 	1185 	1186
f 1150 	1200 	1201
f 1150 	1201 	1151
f 1179 	133 	1182
f 1184 	223 	1187
f 1203 	1153 	1152
f 1137 	134 	1181
f 1204 	1154 	806
f 618 	806 	1154
f 16 	227 	1189
f 802 	617 	1155
f 1189 	227 	1186
f 1204 	1203 	1154
f 227 	234 	1186
f 1184 	1084 	223
f 1206 	1205 	1157
f 598 	1087 	224
f 1185 	225 	1190
f 1151 	1201 	1157
f 1184 	1187 	1084
f 1185 	1190 	1186
f 1206 	1157 	1201
f 1084 	1187 	92
f 1202 	1203 	1191
f 1188 	901 	1187
f 92 	1187 	901
f 1203 	806 	697
f 16 	1189 	1186
f 1087 	59 	1190
f 1199 	1170 	1193
f 1191 	1203 	697
f 1130 	1194 	1193
f 1208 	1198 	550
f 1194 	1130 	1195
f 1132 	1195 	1130
f 1196 	1139 	1192
f 1197 	1196 	1198
f 1196 	1191 	697
f 1192 	1191 	1196
f 1198 	1196 	697
f 1200 	1199 	1201
f 1193 	1194 	1199
f 1203 	1202 	1153
f 1155 	1205 	802
f 1155 	1157 	1205
f 1204 	806 	1203
f 1201 	1142 	1205
f 1205 	1206 	1201
f 1191 	1126 	1202
f 1199 	1194 	1142
f 1195 	1207 	1194
f 1194 	1207 	1142
f 1176 	1207 	1132
f 1195 	1132 	1207
f 1198 	1208 	1141
f 550 	395 	1208
f 595 	597 	1142
f 1142 	1207 	595
f 541 	595 	1207
f 541 	1207 	1176
f 1142 	577 	1143
f 1086 	1142 	1101
f 802 	1205 	1086
f 1205 	1142 	1086
f 864 	1117 	1142
f 1201 	1199 	1142
f 15 	1143 	577
f 31 	1148 	15
f 576 	15 	577
f 1209 	932 	979
f 1054 	932 	1209
f 84 	499 	87
f 499 	475 	85
f 85 	87 	499
f 1212 	983 	1053
f 71 	324 	500
f 83 	89 	500
f 500 	88 	71
f 94 	71 	88
f 89 	88 	500
f 1209 	1210 	487
f 402 	487 	1210
f 262 	1210 	980
f 1053 	304 	1212
f 983 	931 	1053
f 274 	984 	1211
f 979 	1212 	1209
f 1210 	1211 	980
f 984 	980 	1211
f 1211 	1210 	1209
f 1211 	1209 	1212
# 2456 faces

 #end of obj_0

